M48
INCH,TZ
T1C0.013
T2C0.040
T3C0.122
%
G90
G05
T1
X36890Y-39840
X36890Y-40430
X36890Y-41610
X36890Y-42200
X36890Y-42790
X36890Y-43980
X36890Y-44570
X36890Y-45160
X36890Y-41020
X36890Y-43380
X37000Y-38760
X37000Y-46240
X37240Y-45160
X37240Y-39840
X37240Y-40430
X37240Y-41020
X37240Y-41610
X37240Y-42200
X37240Y-42790
X37240Y-43380
X37240Y-44570
X37240Y-43980
X37590Y-39840
X37590Y-40430
X37590Y-41020
X37590Y-41610
X37590Y-42200
X37590Y-42790
X37590Y-43980
X37590Y-44570
X37590Y-45160
X37590Y-43380
X72410Y-43390
X72410Y-39840
X72410Y-40430
X72410Y-41020
X72410Y-41610
X72410Y-42200
X72410Y-42800
X72410Y-43980
X72410Y-44570
X72410Y-45160
X72760Y-43980
X72760Y-39840
X72760Y-40430
X72760Y-41020
X72760Y-41610
X72760Y-42200
X72760Y-42800
X72760Y-43390
X72760Y-44570
X72760Y-45160
X73000Y-38760
X73000Y-46240
X73110Y-39840
X73110Y-40430
X73110Y-41020
X73110Y-42200
X73110Y-42800
X73110Y-43390
X73110Y-43980
X73110Y-44570
X73110Y-45160
X73110Y-41610
T2
X40500Y-34000
X40500Y-35000
X40500Y-50000
X40500Y-51000
X41500Y-34000
X41500Y-35000
X41500Y-50000
X41500Y-51000
X42500Y-34000
X42500Y-35000
X42500Y-50000
X42500Y-51000
X43500Y-34000
X43500Y-35000
X43500Y-50000
X43500Y-51000
X44500Y-34000
X44500Y-35000
X44500Y-50000
X44500Y-51000
X45500Y-34000
X45500Y-35000
X45500Y-50000
X45500Y-51000
X46500Y-34000
X46500Y-35000
X46500Y-50000
X46500Y-51000
X47500Y-34000
X47500Y-35000
X47500Y-50000
X47500Y-51000
X48500Y-34000
X48500Y-35000
X48500Y-50000
X48500Y-51000
X49500Y-34000
X49500Y-35000
X49500Y-50000
X49500Y-51000
X50500Y-34000
X50500Y-35000
X50500Y-50000
X50500Y-51000
X51500Y-34000
X51500Y-35000
X51500Y-50000
X51500Y-51000
X52500Y-34000
X52500Y-35000
X52500Y-50000
X52500Y-51000
X53500Y-34000
X53500Y-35000
X53500Y-50000
X53500Y-51000
X54500Y-34000
X54500Y-35000
X54500Y-50000
X54500Y-51000
X55500Y-34000
X55500Y-35000
X55500Y-50000
X55500Y-51000
X56500Y-34000
X56500Y-35000
X56500Y-50000
X56500Y-51000
X57500Y-34000
X57500Y-35000
X57500Y-50000
X57500Y-51000
X58500Y-34000
X58500Y-35000
X58500Y-50000
X58500Y-51000
X59500Y-34000
X59500Y-35000
X59500Y-50000
X59500Y-51000
X60500Y-34000
X60500Y-35000
X60500Y-50000
X60500Y-51000
X61500Y-34000
X61500Y-35000
X61500Y-50000
X61500Y-51000
X62500Y-34000
X62500Y-35000
X62500Y-50000
X62500Y-51000
X63500Y-34000
X63500Y-35000
X63500Y-50000
X63500Y-51000
X64500Y-34000
X64500Y-35000
X64500Y-50000
X64500Y-51000
X65500Y-34000
X65500Y-35000
X65500Y-50000
X65500Y-51000
X66500Y-34000
X66500Y-35000
X66500Y-50000
X66500Y-51000
X67500Y-34000
X67500Y-35000
X67500Y-50000
X67500Y-51000
X68500Y-34000
X68500Y-35000
X68500Y-50000
X68500Y-51000
X69500Y-34000
X69500Y-35000
X69500Y-50000
X69500Y-51000
X70000Y-48000
X71000Y-48000
T3
X37000Y-32000
X37000Y-53000
X73000Y-32000
X73000Y-53000
T0
M30
