G04 #@! TF.FileFunction,Soldermask,Bot*
%FSLAX46Y46*%
G04 Gerber Fmt 4.6, Leading zero omitted, Abs format (unit mm)*
G04 Created by KiCad (PCBNEW (2015-04-19 BZR 5613)-product) date 6/9/2015 8:15:01 PM*
%MOMM*%
G01*
G04 APERTURE LIST*
%ADD10C,0.100000*%
%ADD11O,6.100000X6.100000*%
%ADD12R,2.100000X1.400000*%
%ADD13R,1.150000X0.250000*%
%ADD14O,1.524000X1.524000*%
G04 APERTURE END LIST*
D10*
D11*
X93980000Y-134620000D03*
X93980000Y-81280000D03*
X185420000Y-81280000D03*
X185420000Y-134620000D03*
D12*
X93980000Y-117450000D03*
D13*
X96555000Y-100700000D03*
X96555000Y-101200000D03*
X96555000Y-101700000D03*
X96555000Y-102200000D03*
X96555000Y-102700000D03*
X96555000Y-103200000D03*
X96555000Y-103700000D03*
X96555000Y-104200000D03*
X96555000Y-104700000D03*
X96555000Y-105200000D03*
X96555000Y-105700000D03*
X96555000Y-106200000D03*
X96555000Y-106700000D03*
X96555000Y-107200000D03*
X96555000Y-107700000D03*
X96555000Y-108200000D03*
X96555000Y-108700000D03*
X96555000Y-109200000D03*
X96555000Y-109700000D03*
X96555000Y-110200000D03*
X96555000Y-110700000D03*
X96555000Y-111200000D03*
X96555000Y-111700000D03*
X96555000Y-112200000D03*
X96555000Y-112700000D03*
X96555000Y-113200000D03*
X96555000Y-113700000D03*
X96555000Y-114200000D03*
X96555000Y-114700000D03*
X96555000Y-115200000D03*
X91405000Y-100700000D03*
X91405000Y-101200000D03*
X91405000Y-101700000D03*
X91405000Y-102200000D03*
X91405000Y-102700000D03*
X91405000Y-103200000D03*
X91405000Y-103700000D03*
X91405000Y-104200000D03*
X91405000Y-104700000D03*
X91405000Y-105200000D03*
X91405000Y-105700000D03*
X91405000Y-106200000D03*
X91405000Y-106700000D03*
X91405000Y-107200000D03*
X91405000Y-107700000D03*
X91405000Y-108200000D03*
X91405000Y-108700000D03*
X91405000Y-109200000D03*
X91405000Y-109700000D03*
X91405000Y-110200000D03*
X91405000Y-110700000D03*
X91405000Y-111200000D03*
X91405000Y-111700000D03*
X91405000Y-112200000D03*
X91405000Y-112700000D03*
X91405000Y-113200000D03*
X91405000Y-113700000D03*
X91405000Y-114200000D03*
X91405000Y-114700000D03*
X91405000Y-115200000D03*
D12*
X93980000Y-98450000D03*
X185420000Y-117450000D03*
D13*
X187995000Y-100700000D03*
X187995000Y-101200000D03*
X187995000Y-101700000D03*
X187995000Y-102200000D03*
X187995000Y-102700000D03*
X187995000Y-103200000D03*
X187995000Y-103700000D03*
X187995000Y-104200000D03*
X187995000Y-104700000D03*
X187995000Y-105200000D03*
X187995000Y-105700000D03*
X187995000Y-106200000D03*
X187995000Y-106700000D03*
X187995000Y-107200000D03*
X187995000Y-107700000D03*
X187995000Y-108200000D03*
X187995000Y-108700000D03*
X187995000Y-109200000D03*
X187995000Y-109700000D03*
X187995000Y-110200000D03*
X187995000Y-110700000D03*
X187995000Y-111200000D03*
X187995000Y-111700000D03*
X187995000Y-112200000D03*
X187995000Y-112700000D03*
X187995000Y-113200000D03*
X187995000Y-113700000D03*
X187995000Y-114200000D03*
X187995000Y-114700000D03*
X187995000Y-115200000D03*
X182845000Y-100700000D03*
X182845000Y-101200000D03*
X182845000Y-101700000D03*
X182845000Y-102200000D03*
X182845000Y-102700000D03*
X182845000Y-103200000D03*
X182845000Y-103700000D03*
X182845000Y-104200000D03*
X182845000Y-104700000D03*
X182845000Y-105200000D03*
X182845000Y-105700000D03*
X182845000Y-106200000D03*
X182845000Y-106700000D03*
X182845000Y-107200000D03*
X182845000Y-107700000D03*
X182845000Y-108200000D03*
X182845000Y-108700000D03*
X182845000Y-109200000D03*
X182845000Y-109700000D03*
X182845000Y-110200000D03*
X182845000Y-110700000D03*
X182845000Y-111200000D03*
X182845000Y-111700000D03*
X182845000Y-112200000D03*
X182845000Y-112700000D03*
X182845000Y-113200000D03*
X182845000Y-113700000D03*
X182845000Y-114200000D03*
X182845000Y-114700000D03*
X182845000Y-115200000D03*
D12*
X185420000Y-98450000D03*
D14*
X176530000Y-127000000D03*
X173990000Y-127000000D03*
X171450000Y-127000000D03*
X168910000Y-127000000D03*
X166370000Y-127000000D03*
X163830000Y-127000000D03*
X161290000Y-127000000D03*
X158750000Y-127000000D03*
X156210000Y-127000000D03*
X153670000Y-127000000D03*
X151130000Y-127000000D03*
X148590000Y-127000000D03*
X146050000Y-127000000D03*
X143510000Y-127000000D03*
X140970000Y-127000000D03*
X138430000Y-127000000D03*
X135890000Y-127000000D03*
X133350000Y-127000000D03*
X130810000Y-127000000D03*
X128270000Y-127000000D03*
X125730000Y-127000000D03*
X123190000Y-127000000D03*
X120650000Y-127000000D03*
X118110000Y-127000000D03*
X115570000Y-127000000D03*
X113030000Y-127000000D03*
X110490000Y-127000000D03*
X107950000Y-127000000D03*
X105410000Y-127000000D03*
X102870000Y-127000000D03*
X176530000Y-129540000D03*
X173990000Y-129540000D03*
X171450000Y-129540000D03*
X168910000Y-129540000D03*
X166370000Y-129540000D03*
X163830000Y-129540000D03*
X161290000Y-129540000D03*
X158750000Y-129540000D03*
X156210000Y-129540000D03*
X153670000Y-129540000D03*
X151130000Y-129540000D03*
X148590000Y-129540000D03*
X146050000Y-129540000D03*
X143510000Y-129540000D03*
X140970000Y-129540000D03*
X138430000Y-129540000D03*
X135890000Y-129540000D03*
X133350000Y-129540000D03*
X130810000Y-129540000D03*
X128270000Y-129540000D03*
X125730000Y-129540000D03*
X123190000Y-129540000D03*
X120650000Y-129540000D03*
X118110000Y-129540000D03*
X115570000Y-129540000D03*
X113030000Y-129540000D03*
X110490000Y-129540000D03*
X107950000Y-129540000D03*
X105410000Y-129540000D03*
X102870000Y-129540000D03*
X177800000Y-121920000D03*
X180340000Y-121920000D03*
X176530000Y-88900000D03*
X173990000Y-88900000D03*
X171450000Y-88900000D03*
X168910000Y-88900000D03*
X166370000Y-88900000D03*
X163830000Y-88900000D03*
X161290000Y-88900000D03*
X158750000Y-88900000D03*
X156210000Y-88900000D03*
X153670000Y-88900000D03*
X151130000Y-88900000D03*
X148590000Y-88900000D03*
X146050000Y-88900000D03*
X143510000Y-88900000D03*
X140970000Y-88900000D03*
X138430000Y-88900000D03*
X135890000Y-88900000D03*
X133350000Y-88900000D03*
X130810000Y-88900000D03*
X128270000Y-88900000D03*
X125730000Y-88900000D03*
X123190000Y-88900000D03*
X120650000Y-88900000D03*
X118110000Y-88900000D03*
X115570000Y-88900000D03*
X113030000Y-88900000D03*
X110490000Y-88900000D03*
X107950000Y-88900000D03*
X105410000Y-88900000D03*
X102870000Y-88900000D03*
X176530000Y-86360000D03*
X173990000Y-86360000D03*
X171450000Y-86360000D03*
X168910000Y-86360000D03*
X166370000Y-86360000D03*
X163830000Y-86360000D03*
X161290000Y-86360000D03*
X158750000Y-86360000D03*
X156210000Y-86360000D03*
X153670000Y-86360000D03*
X151130000Y-86360000D03*
X148590000Y-86360000D03*
X146050000Y-86360000D03*
X143510000Y-86360000D03*
X140970000Y-86360000D03*
X138430000Y-86360000D03*
X135890000Y-86360000D03*
X133350000Y-86360000D03*
X130810000Y-86360000D03*
X128270000Y-86360000D03*
X125730000Y-86360000D03*
X123190000Y-86360000D03*
X120650000Y-86360000D03*
X118110000Y-86360000D03*
X115570000Y-86360000D03*
X113030000Y-86360000D03*
X110490000Y-86360000D03*
X107950000Y-86360000D03*
X105410000Y-86360000D03*
X102870000Y-86360000D03*
M02*
