G04 #@! TF.FileFunction,Legend,Bot*
%FSLAX46Y46*%
G04 Gerber Fmt 4.6, Leading zero omitted, Abs format (unit mm)*
G04 Created by KiCad (PCBNEW (2015-04-19 BZR 5613)-product) date 7/7/2015 8:10:23 PM*
%MOMM*%
G01*
G04 APERTURE LIST*
%ADD10C,0.100000*%
%ADD11C,0.203200*%
%ADD12C,0.150000*%
%ADD13C,0.127000*%
G04 APERTURE END LIST*
D10*
D11*
X188945157Y-124835557D02*
X187784014Y-124835557D01*
X188364585Y-125416129D02*
X188364585Y-124254986D01*
X186332586Y-123892129D02*
X187058300Y-123892129D01*
X187130871Y-124617843D01*
X187058300Y-124545271D01*
X186913157Y-124472700D01*
X186550300Y-124472700D01*
X186405157Y-124545271D01*
X186332586Y-124617843D01*
X186260014Y-124762986D01*
X186260014Y-125125843D01*
X186332586Y-125270986D01*
X186405157Y-125343557D01*
X186550300Y-125416129D01*
X186913157Y-125416129D01*
X187058300Y-125343557D01*
X187130871Y-125270986D01*
X185316585Y-123892129D02*
X185171442Y-123892129D01*
X185026299Y-123964700D01*
X184953728Y-124037271D01*
X184881157Y-124182414D01*
X184808585Y-124472700D01*
X184808585Y-124835557D01*
X184881157Y-125125843D01*
X184953728Y-125270986D01*
X185026299Y-125343557D01*
X185171442Y-125416129D01*
X185316585Y-125416129D01*
X185461728Y-125343557D01*
X185534299Y-125270986D01*
X185606871Y-125125843D01*
X185679442Y-124835557D01*
X185679442Y-124472700D01*
X185606871Y-124182414D01*
X185534299Y-124037271D01*
X185461728Y-123964700D01*
X185316585Y-123892129D01*
X184373156Y-123892129D02*
X183865156Y-125416129D01*
X183357156Y-123892129D01*
X181688013Y-124617843D02*
X181180013Y-124617843D01*
X180962299Y-125416129D02*
X181688013Y-125416129D01*
X181688013Y-123892129D01*
X180962299Y-123892129D01*
X180309156Y-125416129D02*
X180309156Y-123892129D01*
X179438299Y-125416129D01*
X179438299Y-123892129D01*
X178785156Y-124980700D02*
X178059442Y-124980700D01*
X178930299Y-125416129D02*
X178422299Y-123892129D01*
X177914299Y-125416129D01*
X176898299Y-124617843D02*
X176680585Y-124690414D01*
X176608013Y-124762986D01*
X176535442Y-124908129D01*
X176535442Y-125125843D01*
X176608013Y-125270986D01*
X176680585Y-125343557D01*
X176825727Y-125416129D01*
X177406299Y-125416129D01*
X177406299Y-123892129D01*
X176898299Y-123892129D01*
X176753156Y-123964700D01*
X176680585Y-124037271D01*
X176608013Y-124182414D01*
X176608013Y-124327557D01*
X176680585Y-124472700D01*
X176753156Y-124545271D01*
X176898299Y-124617843D01*
X177406299Y-124617843D01*
X175156585Y-125416129D02*
X175882299Y-125416129D01*
X175882299Y-123892129D01*
X174648585Y-124617843D02*
X174140585Y-124617843D01*
X173922871Y-125416129D02*
X174648585Y-125416129D01*
X174648585Y-123892129D01*
X173922871Y-123892129D01*
X189277171Y-89453357D02*
X188116028Y-89453357D01*
X188696599Y-90033929D02*
X188696599Y-88872786D01*
X186301742Y-88437357D02*
X187608028Y-90396786D01*
X185793743Y-89453357D02*
X184632600Y-89453357D01*
X183108600Y-90033929D02*
X183979457Y-90033929D01*
X183544029Y-90033929D02*
X183544029Y-88509929D01*
X183689172Y-88727643D01*
X183834314Y-88872786D01*
X183979457Y-88945357D01*
X181729743Y-88509929D02*
X182455457Y-88509929D01*
X182528028Y-89235643D01*
X182455457Y-89163071D01*
X182310314Y-89090500D01*
X181947457Y-89090500D01*
X181802314Y-89163071D01*
X181729743Y-89235643D01*
X181657171Y-89380786D01*
X181657171Y-89743643D01*
X181729743Y-89888786D01*
X181802314Y-89961357D01*
X181947457Y-90033929D01*
X182310314Y-90033929D01*
X182455457Y-89961357D01*
X182528028Y-89888786D01*
X181221742Y-88509929D02*
X180713742Y-90033929D01*
X180205742Y-88509929D01*
X178536599Y-89235643D02*
X178028599Y-89235643D01*
X177810885Y-90033929D02*
X178536599Y-90033929D01*
X178536599Y-88509929D01*
X177810885Y-88509929D01*
X177157742Y-90033929D02*
X177157742Y-88509929D01*
X176286885Y-90033929D01*
X176286885Y-88509929D01*
X175633742Y-89598500D02*
X174908028Y-89598500D01*
X175778885Y-90033929D02*
X175270885Y-88509929D01*
X174762885Y-90033929D01*
X173746885Y-89235643D02*
X173529171Y-89308214D01*
X173456599Y-89380786D01*
X173384028Y-89525929D01*
X173384028Y-89743643D01*
X173456599Y-89888786D01*
X173529171Y-89961357D01*
X173674313Y-90033929D01*
X174254885Y-90033929D01*
X174254885Y-88509929D01*
X173746885Y-88509929D01*
X173601742Y-88582500D01*
X173529171Y-88655071D01*
X173456599Y-88800214D01*
X173456599Y-88945357D01*
X173529171Y-89090500D01*
X173601742Y-89163071D01*
X173746885Y-89235643D01*
X174254885Y-89235643D01*
X172005171Y-90033929D02*
X172730885Y-90033929D01*
X172730885Y-88509929D01*
X171497171Y-89235643D02*
X170989171Y-89235643D01*
X170771457Y-90033929D02*
X171497171Y-90033929D01*
X171497171Y-88509929D01*
X170771457Y-88509929D01*
X143856528Y-78505957D02*
X142695385Y-78505957D01*
X143275956Y-79086529D02*
X143275956Y-77925386D01*
X141243957Y-77562529D02*
X141969671Y-77562529D01*
X142042242Y-78288243D01*
X141969671Y-78215671D01*
X141824528Y-78143100D01*
X141461671Y-78143100D01*
X141316528Y-78215671D01*
X141243957Y-78288243D01*
X141171385Y-78433386D01*
X141171385Y-78796243D01*
X141243957Y-78941386D01*
X141316528Y-79013957D01*
X141461671Y-79086529D01*
X141824528Y-79086529D01*
X141969671Y-79013957D01*
X142042242Y-78941386D01*
X140735956Y-77562529D02*
X140227956Y-79086529D01*
X139719956Y-77562529D01*
X138123384Y-78651100D02*
X137397670Y-78651100D01*
X138268527Y-79086529D02*
X137760527Y-77562529D01*
X137252527Y-79086529D01*
X136744527Y-79086529D02*
X136744527Y-77562529D01*
X135873670Y-79086529D01*
X135873670Y-77562529D01*
X135220527Y-78651100D02*
X134494813Y-78651100D01*
X135365670Y-79086529D02*
X134857670Y-77562529D01*
X134349670Y-79086529D01*
X133115956Y-79086529D02*
X133841670Y-79086529D01*
X133841670Y-77562529D01*
X132317670Y-77562529D02*
X132027384Y-77562529D01*
X131882242Y-77635100D01*
X131737099Y-77780243D01*
X131664527Y-78070529D01*
X131664527Y-78578529D01*
X131737099Y-78868814D01*
X131882242Y-79013957D01*
X132027384Y-79086529D01*
X132317670Y-79086529D01*
X132462813Y-79013957D01*
X132607956Y-78868814D01*
X132680527Y-78578529D01*
X132680527Y-78070529D01*
X132607956Y-77780243D01*
X132462813Y-77635100D01*
X132317670Y-77562529D01*
X130213099Y-77635100D02*
X130358242Y-77562529D01*
X130575956Y-77562529D01*
X130793671Y-77635100D01*
X130938813Y-77780243D01*
X131011385Y-77925386D01*
X131083956Y-78215671D01*
X131083956Y-78433386D01*
X131011385Y-78723671D01*
X130938813Y-78868814D01*
X130793671Y-79013957D01*
X130575956Y-79086529D01*
X130430813Y-79086529D01*
X130213099Y-79013957D01*
X130140528Y-78941386D01*
X130140528Y-78433386D01*
X130430813Y-78433386D01*
X128326242Y-78288243D02*
X127818242Y-78288243D01*
X127600528Y-79086529D02*
X128326242Y-79086529D01*
X128326242Y-77562529D01*
X127600528Y-77562529D01*
X126947385Y-79086529D02*
X126947385Y-77562529D01*
X126076528Y-79086529D01*
X126076528Y-77562529D01*
X125423385Y-78651100D02*
X124697671Y-78651100D01*
X125568528Y-79086529D02*
X125060528Y-77562529D01*
X124552528Y-79086529D01*
X123536528Y-78288243D02*
X123318814Y-78360814D01*
X123246242Y-78433386D01*
X123173671Y-78578529D01*
X123173671Y-78796243D01*
X123246242Y-78941386D01*
X123318814Y-79013957D01*
X123463956Y-79086529D01*
X124044528Y-79086529D01*
X124044528Y-77562529D01*
X123536528Y-77562529D01*
X123391385Y-77635100D01*
X123318814Y-77707671D01*
X123246242Y-77852814D01*
X123246242Y-77997957D01*
X123318814Y-78143100D01*
X123391385Y-78215671D01*
X123536528Y-78288243D01*
X124044528Y-78288243D01*
X121794814Y-79086529D02*
X122520528Y-79086529D01*
X122520528Y-77562529D01*
X121286814Y-78288243D02*
X120778814Y-78288243D01*
X120561100Y-79086529D02*
X121286814Y-79086529D01*
X121286814Y-77562529D01*
X120561100Y-77562529D01*
X106237314Y-125229257D02*
X105076171Y-125229257D01*
X105656742Y-125809829D02*
X105656742Y-124648686D01*
X103552171Y-125809829D02*
X104423028Y-125809829D01*
X103987600Y-125809829D02*
X103987600Y-124285829D01*
X104132743Y-124503543D01*
X104277885Y-124648686D01*
X104423028Y-124721257D01*
X102899028Y-125664686D02*
X102826456Y-125737257D01*
X102899028Y-125809829D01*
X102971599Y-125737257D01*
X102899028Y-125664686D01*
X102899028Y-125809829D01*
X101955600Y-124938971D02*
X102100742Y-124866400D01*
X102173314Y-124793829D01*
X102245885Y-124648686D01*
X102245885Y-124576114D01*
X102173314Y-124430971D01*
X102100742Y-124358400D01*
X101955600Y-124285829D01*
X101665314Y-124285829D01*
X101520171Y-124358400D01*
X101447600Y-124430971D01*
X101375028Y-124576114D01*
X101375028Y-124648686D01*
X101447600Y-124793829D01*
X101520171Y-124866400D01*
X101665314Y-124938971D01*
X101955600Y-124938971D01*
X102100742Y-125011543D01*
X102173314Y-125084114D01*
X102245885Y-125229257D01*
X102245885Y-125519543D01*
X102173314Y-125664686D01*
X102100742Y-125737257D01*
X101955600Y-125809829D01*
X101665314Y-125809829D01*
X101520171Y-125737257D01*
X101447600Y-125664686D01*
X101375028Y-125519543D01*
X101375028Y-125229257D01*
X101447600Y-125084114D01*
X101520171Y-125011543D01*
X101665314Y-124938971D01*
X100939599Y-124285829D02*
X100431599Y-125809829D01*
X99923599Y-124285829D01*
X98254456Y-125011543D02*
X97746456Y-125011543D01*
X97528742Y-125809829D02*
X98254456Y-125809829D01*
X98254456Y-124285829D01*
X97528742Y-124285829D01*
X96875599Y-125809829D02*
X96875599Y-124285829D01*
X96004742Y-125809829D01*
X96004742Y-124285829D01*
X95351599Y-125374400D02*
X94625885Y-125374400D01*
X95496742Y-125809829D02*
X94988742Y-124285829D01*
X94480742Y-125809829D01*
X93464742Y-125011543D02*
X93247028Y-125084114D01*
X93174456Y-125156686D01*
X93101885Y-125301829D01*
X93101885Y-125519543D01*
X93174456Y-125664686D01*
X93247028Y-125737257D01*
X93392170Y-125809829D01*
X93972742Y-125809829D01*
X93972742Y-124285829D01*
X93464742Y-124285829D01*
X93319599Y-124358400D01*
X93247028Y-124430971D01*
X93174456Y-124576114D01*
X93174456Y-124721257D01*
X93247028Y-124866400D01*
X93319599Y-124938971D01*
X93464742Y-125011543D01*
X93972742Y-125011543D01*
X91723028Y-125809829D02*
X92448742Y-125809829D01*
X92448742Y-124285829D01*
X91215028Y-125011543D02*
X90707028Y-125011543D01*
X90489314Y-125809829D02*
X91215028Y-125809829D01*
X91215028Y-124285829D01*
X90489314Y-124285829D01*
X106237314Y-93428457D02*
X105076171Y-93428457D01*
X105656742Y-94009029D02*
X105656742Y-92847886D01*
X104495600Y-92485029D02*
X103552171Y-92485029D01*
X104060171Y-93065600D01*
X103842457Y-93065600D01*
X103697314Y-93138171D01*
X103624743Y-93210743D01*
X103552171Y-93355886D01*
X103552171Y-93718743D01*
X103624743Y-93863886D01*
X103697314Y-93936457D01*
X103842457Y-94009029D01*
X104277885Y-94009029D01*
X104423028Y-93936457D01*
X104495600Y-93863886D01*
X102899028Y-93863886D02*
X102826456Y-93936457D01*
X102899028Y-94009029D01*
X102971599Y-93936457D01*
X102899028Y-93863886D01*
X102899028Y-94009029D01*
X102318457Y-92485029D02*
X101375028Y-92485029D01*
X101883028Y-93065600D01*
X101665314Y-93065600D01*
X101520171Y-93138171D01*
X101447600Y-93210743D01*
X101375028Y-93355886D01*
X101375028Y-93718743D01*
X101447600Y-93863886D01*
X101520171Y-93936457D01*
X101665314Y-94009029D01*
X102100742Y-94009029D01*
X102245885Y-93936457D01*
X102318457Y-93863886D01*
X100939599Y-92485029D02*
X100431599Y-94009029D01*
X99923599Y-92485029D01*
X98254456Y-93210743D02*
X97746456Y-93210743D01*
X97528742Y-94009029D02*
X98254456Y-94009029D01*
X98254456Y-92485029D01*
X97528742Y-92485029D01*
X96875599Y-94009029D02*
X96875599Y-92485029D01*
X96004742Y-94009029D01*
X96004742Y-92485029D01*
X95351599Y-93573600D02*
X94625885Y-93573600D01*
X95496742Y-94009029D02*
X94988742Y-92485029D01*
X94480742Y-94009029D01*
X93464742Y-93210743D02*
X93247028Y-93283314D01*
X93174456Y-93355886D01*
X93101885Y-93501029D01*
X93101885Y-93718743D01*
X93174456Y-93863886D01*
X93247028Y-93936457D01*
X93392170Y-94009029D01*
X93972742Y-94009029D01*
X93972742Y-92485029D01*
X93464742Y-92485029D01*
X93319599Y-92557600D01*
X93247028Y-92630171D01*
X93174456Y-92775314D01*
X93174456Y-92920457D01*
X93247028Y-93065600D01*
X93319599Y-93138171D01*
X93464742Y-93210743D01*
X93972742Y-93210743D01*
X91723028Y-94009029D02*
X92448742Y-94009029D01*
X92448742Y-92485029D01*
X91215028Y-93210743D02*
X90707028Y-93210743D01*
X90489314Y-94009029D02*
X91215028Y-94009029D01*
X91215028Y-92485029D01*
X90489314Y-92485029D01*
X104145443Y-88005557D02*
X102984300Y-88005557D01*
X103564871Y-88586129D02*
X103564871Y-87424986D01*
X101532872Y-87062129D02*
X102258586Y-87062129D01*
X102331157Y-87787843D01*
X102258586Y-87715271D01*
X102113443Y-87642700D01*
X101750586Y-87642700D01*
X101605443Y-87715271D01*
X101532872Y-87787843D01*
X101460300Y-87932986D01*
X101460300Y-88295843D01*
X101532872Y-88440986D01*
X101605443Y-88513557D01*
X101750586Y-88586129D01*
X102113443Y-88586129D01*
X102258586Y-88513557D01*
X102331157Y-88440986D01*
X101024871Y-87062129D02*
X100516871Y-88586129D01*
X100008871Y-87062129D01*
X98339728Y-87787843D02*
X97831728Y-87787843D01*
X97614014Y-88586129D02*
X98339728Y-88586129D01*
X98339728Y-87062129D01*
X97614014Y-87062129D01*
X96960871Y-88586129D02*
X96960871Y-87062129D01*
X96090014Y-88586129D01*
X96090014Y-87062129D01*
X95436871Y-88150700D02*
X94711157Y-88150700D01*
X95582014Y-88586129D02*
X95074014Y-87062129D01*
X94566014Y-88586129D01*
X93550014Y-87787843D02*
X93332300Y-87860414D01*
X93259728Y-87932986D01*
X93187157Y-88078129D01*
X93187157Y-88295843D01*
X93259728Y-88440986D01*
X93332300Y-88513557D01*
X93477442Y-88586129D01*
X94058014Y-88586129D01*
X94058014Y-87062129D01*
X93550014Y-87062129D01*
X93404871Y-87134700D01*
X93332300Y-87207271D01*
X93259728Y-87352414D01*
X93259728Y-87497557D01*
X93332300Y-87642700D01*
X93404871Y-87715271D01*
X93550014Y-87787843D01*
X94058014Y-87787843D01*
X91808300Y-88586129D02*
X92534014Y-88586129D01*
X92534014Y-87062129D01*
X91300300Y-87787843D02*
X90792300Y-87787843D01*
X90574586Y-88586129D02*
X91300300Y-88586129D01*
X91300300Y-87062129D01*
X90574586Y-87062129D01*
D12*
X187320000Y-99250000D02*
X183520000Y-99250000D01*
X183520000Y-99250000D02*
X183520000Y-116650000D01*
X183520000Y-116650000D02*
X187320000Y-116650000D01*
X187320000Y-116650000D02*
X187320000Y-99250000D01*
X188813852Y-100690000D02*
G75*
G03X188813852Y-100690000I-53852J0D01*
G01*
X95880000Y-99250000D02*
X92080000Y-99250000D01*
X92080000Y-99250000D02*
X92080000Y-116650000D01*
X92080000Y-116650000D02*
X95880000Y-116650000D01*
X95880000Y-116650000D02*
X95880000Y-99250000D01*
X97373852Y-100690000D02*
G75*
G03X97373852Y-100690000I-53852J0D01*
G01*
D13*
X186019923Y-97317695D02*
X186019923Y-96504895D01*
X185710285Y-96504895D01*
X185632876Y-96543600D01*
X185594171Y-96582305D01*
X185555466Y-96659714D01*
X185555466Y-96775829D01*
X185594171Y-96853238D01*
X185632876Y-96891943D01*
X185710285Y-96930648D01*
X186019923Y-96930648D01*
X184858780Y-96775829D02*
X184858780Y-97317695D01*
X185052304Y-96466190D02*
X185245828Y-97046762D01*
X184742666Y-97046762D01*
D12*
X185872381Y-105330952D02*
X184872381Y-105330952D01*
X185348571Y-105330952D02*
X185348571Y-105902381D01*
X185872381Y-105902381D02*
X184872381Y-105902381D01*
X185348571Y-106378571D02*
X185348571Y-106711905D01*
X185872381Y-106854762D02*
X185872381Y-106378571D01*
X184872381Y-106378571D01*
X184872381Y-106854762D01*
X185586667Y-107235714D02*
X185586667Y-107711905D01*
X185872381Y-107140476D02*
X184872381Y-107473809D01*
X185872381Y-107807143D01*
X185872381Y-108140476D02*
X184872381Y-108140476D01*
X184872381Y-108378571D01*
X184920000Y-108521429D01*
X185015238Y-108616667D01*
X185110476Y-108664286D01*
X185300952Y-108711905D01*
X185443810Y-108711905D01*
X185634286Y-108664286D01*
X185729524Y-108616667D01*
X185824762Y-108521429D01*
X185872381Y-108378571D01*
X185872381Y-108140476D01*
X185348571Y-109140476D02*
X185348571Y-109473810D01*
X185872381Y-109616667D02*
X185872381Y-109140476D01*
X184872381Y-109140476D01*
X184872381Y-109616667D01*
X185872381Y-110616667D02*
X185396190Y-110283333D01*
X185872381Y-110045238D02*
X184872381Y-110045238D01*
X184872381Y-110426191D01*
X184920000Y-110521429D01*
X184967619Y-110569048D01*
X185062857Y-110616667D01*
X185205714Y-110616667D01*
X185300952Y-110569048D01*
X185348571Y-110521429D01*
X185396190Y-110426191D01*
X185396190Y-110045238D01*
D13*
X94579923Y-97317695D02*
X94579923Y-96504895D01*
X94270285Y-96504895D01*
X94192876Y-96543600D01*
X94154171Y-96582305D01*
X94115466Y-96659714D01*
X94115466Y-96775829D01*
X94154171Y-96853238D01*
X94192876Y-96891943D01*
X94270285Y-96930648D01*
X94579923Y-96930648D01*
X93844533Y-96504895D02*
X93341371Y-96504895D01*
X93612304Y-96814533D01*
X93496190Y-96814533D01*
X93418780Y-96853238D01*
X93380076Y-96891943D01*
X93341371Y-96969352D01*
X93341371Y-97162876D01*
X93380076Y-97240286D01*
X93418780Y-97278990D01*
X93496190Y-97317695D01*
X93728418Y-97317695D01*
X93805828Y-97278990D01*
X93844533Y-97240286D01*
D12*
X94432381Y-105330952D02*
X93432381Y-105330952D01*
X93908571Y-105330952D02*
X93908571Y-105902381D01*
X94432381Y-105902381D02*
X93432381Y-105902381D01*
X93908571Y-106378571D02*
X93908571Y-106711905D01*
X94432381Y-106854762D02*
X94432381Y-106378571D01*
X93432381Y-106378571D01*
X93432381Y-106854762D01*
X94146667Y-107235714D02*
X94146667Y-107711905D01*
X94432381Y-107140476D02*
X93432381Y-107473809D01*
X94432381Y-107807143D01*
X94432381Y-108140476D02*
X93432381Y-108140476D01*
X93432381Y-108378571D01*
X93480000Y-108521429D01*
X93575238Y-108616667D01*
X93670476Y-108664286D01*
X93860952Y-108711905D01*
X94003810Y-108711905D01*
X94194286Y-108664286D01*
X94289524Y-108616667D01*
X94384762Y-108521429D01*
X94432381Y-108378571D01*
X94432381Y-108140476D01*
X93908571Y-109140476D02*
X93908571Y-109473810D01*
X94432381Y-109616667D02*
X94432381Y-109140476D01*
X93432381Y-109140476D01*
X93432381Y-109616667D01*
X94432381Y-110616667D02*
X93956190Y-110283333D01*
X94432381Y-110045238D02*
X93432381Y-110045238D01*
X93432381Y-110426191D01*
X93480000Y-110521429D01*
X93527619Y-110569048D01*
X93622857Y-110616667D01*
X93765714Y-110616667D01*
X93860952Y-110569048D01*
X93908571Y-110521429D01*
X93956190Y-110426191D01*
X93956190Y-110045238D01*
M02*
