M48
INCH,TZ
T1C0.013
T2C0.020
T3C0.028
T4C0.039
T5C0.040
T6C0.122
%
G90
G05
T1
X36300Y-38240
X36520Y-47215
X36890Y-40430
X36890Y-41610
X36890Y-42200
X36890Y-42790
X36890Y-43980
X36890Y-44570
X36890Y-45160
X36890Y-41020
X36890Y-43380
X37000Y-38760
X37000Y-38760
X37000Y-46240
X37000Y-46240
X37240Y-45160
X37240Y-39840
X37240Y-41020
X37240Y-41610
X37240Y-42200
X37240Y-42790
X37240Y-43380
X37240Y-44570
X37240Y-43980
X37265Y-47215
X37590Y-40430
X37590Y-41020
X37590Y-41610
X37590Y-42200
X37590Y-42790
X37590Y-43980
X37590Y-44570
X37590Y-45160
X37590Y-43380
X37970Y-47215
X38840Y-39735
X38840Y-40120
X38840Y-40485
X38910Y-44720
X39295Y-39735
X39295Y-40120
X39295Y-40480
X39395Y-45205
X39750Y-39735
X39750Y-40120
X39750Y-40480
X39890Y-45685
X40380Y-46130
X41105Y-46350
X41215Y-43955
X41495Y-35215
X41495Y-35825
X41590Y-44550
X41930Y-43955
X41950Y-46345
X42045Y-45075
X42464Y-41962
X42464Y-42198
X42500Y-51475
X42595Y-36220
X42650Y-43955
X42740Y-42080
X42960Y-46345
X42970Y-45075
X43016Y-41962
X43016Y-42198
X43225Y-51475
X43640Y-35900
X43985Y-45075
X43990Y-51475
X44030Y-46315
X44240Y-35900
X44290Y-43860
X44314Y-49492
X44314Y-49728
X44464Y-34052
X44464Y-34288
X44590Y-49610
X44740Y-34170
X44866Y-49492
X44866Y-49728
X44990Y-45075
X45000Y-46320
X45016Y-34052
X45016Y-34288
X45100Y-43860
X45550Y-35870
X45930Y-43860
X46065Y-45075
X46070Y-46320
X46160Y-51480
X46205Y-35870
X46590Y-43860
X46805Y-35870
X46880Y-51480
X47060Y-45080
X47705Y-51480
X48065Y-45070
X48370Y-51480
X48635Y-46450
X48855Y-41215
X48855Y-41840
X48855Y-42440
X49040Y-45065
X49700Y-40255
X49866Y-45136
X49910Y-46450
X50230Y-45055
X50965Y-45045
X51130Y-42250
X51185Y-46450
X51725Y-45045
X52110Y-41960
X52110Y-42275
X52110Y-42590
X52244Y-41077
X52425Y-41960
X52425Y-42275
X52425Y-42590
X52470Y-44290
X52485Y-45045
X52495Y-46440
X52574Y-41075
X52740Y-41960
X52740Y-42275
X52740Y-42590
X53290Y-43680
X53442Y-43280
X53575Y-45045
X53720Y-46450
X54205Y-36090
X54450Y-45045
X54800Y-41230
X54815Y-40395
X54825Y-40850
X55090Y-36090
X55105Y-46450
X55485Y-45050
X55905Y-36090
X56190Y-46455
X56194Y-34062
X56194Y-34298
X56250Y-45045
X56470Y-34180
X56746Y-34062
X56746Y-34298
X56970Y-45035
X57255Y-46450
X57695Y-45015
X58110Y-53970
X58230Y-36075
X58355Y-46465
X58380Y-53530
X58385Y-53060
X58915Y-41040
X59020Y-36075
X59580Y-37895
X59610Y-46460
X59635Y-41030
X59665Y-44535
X59710Y-36070
X59800Y-43295
X59980Y-44990
X60030Y-37220
X60320Y-37895
X60370Y-36070
X60455Y-41020
X60540Y-42454
X60540Y-42730
X60540Y-43006
X60605Y-45055
X60740Y-39283
X60740Y-39597
X60850Y-46460
X60875Y-37225
X60935Y-51040
X60950Y-50200
X61000Y-33670
X61163Y-34460
X61445Y-42070
X61460Y-50630
X61517Y-34460
X61685Y-37225
X61865Y-41095
X61923Y-35460
X62060Y-46460
X62070Y-32880
X62070Y-32880
X62455Y-41305
X62640Y-44925
X63090Y-46455
X63715Y-44895
X63995Y-43190
X63995Y-43190
X63995Y-43190
X63995Y-43190
X63995Y-43190
X63995Y-43190
X64090Y-50625
X64090Y-50625
X64090Y-50625
X64180Y-51460
X64180Y-52020
X64180Y-52630
X64395Y-46475
X65340Y-48365
X65550Y-50425
X65880Y-47815
X66220Y-49710
X67010Y-48980
X67155Y-35825
X67325Y-41995
X67725Y-44035
X67790Y-35855
X67830Y-40810
X68164Y-42442
X68185Y-38990
X68595Y-42425
X68625Y-38335
X68740Y-41395
X68790Y-37045
X69090Y-44395
X69140Y-42384
X69585Y-42447
X69610Y-37055
X69740Y-45925
X69870Y-50675
X69885Y-51435
X70270Y-39230
X70285Y-39750
X70520Y-39985
X70575Y-37055
X70720Y-50675
X70750Y-51405
X70835Y-40110
X70920Y-39120
X70920Y-39445
X70925Y-38795
X71320Y-39445
X71325Y-39130
X71330Y-38805
X71735Y-38810
X71735Y-39140
X71805Y-39445
X71970Y-47105
X72410Y-43390
X72410Y-40430
X72410Y-41020
X72410Y-41610
X72410Y-42200
X72410Y-42800
X72410Y-43980
X72410Y-44570
X72410Y-45160
X72520Y-37600
X72675Y-47105
X72760Y-43980
X72760Y-41020
X72760Y-41610
X72760Y-42200
X72760Y-42800
X72760Y-43390
X72760Y-44570
X72760Y-45160
X73000Y-38760
X73000Y-38760
X73000Y-46240
X73000Y-46240
X73110Y-40430
X73110Y-41020
X73110Y-42200
X73110Y-42800
X73110Y-43390
X73110Y-43980
X73110Y-44570
X73110Y-45160
X73110Y-41610
X73370Y-47105
T2
X47234Y-40965
X49405Y-34315
X54305Y-43905
X63995Y-43190
X64090Y-50625
X65225Y-39615
X68675Y-36065
T3
X59900Y-53849
X63900Y-53849
T4
X36252Y-39154
X36252Y-45846
X37748Y-39154
X37748Y-45846
X72252Y-39154
X72252Y-45846
X73748Y-39154
X73748Y-45846
T5
X39480Y-39180
X47380Y-40000
X49260Y-32000
X50095Y-48450
X50130Y-52510
X63905Y-49235
X64520Y-44005
X64850Y-37810
X65945Y-41000
X67290Y-32395
T6
X37000Y-32000
X37000Y-53000
X73000Y-32000
X73000Y-53000
T0
M30
