G04 #@! TF.FileFunction,Paste,Top*
%FSLAX46Y46*%
G04 Gerber Fmt 4.6, Leading zero omitted, Abs format (unit mm)*
G04 Created by KiCad (PCBNEW (2015-04-19 BZR 5613)-product) date 7/11/2015 4:19:31 PM*
%MOMM*%
G01*
G04 APERTURE LIST*
%ADD10C,0.100000*%
%ADD11R,0.449200X0.549200*%
%ADD12R,0.549200X0.449200*%
%ADD13R,2.049200X1.349200*%
%ADD14R,0.949200X0.199200*%
%ADD15R,0.949200X1.199200*%
%ADD16R,0.749200X0.699200*%
%ADD17R,0.699200X0.749200*%
%ADD18R,2.449200X0.949200*%
%ADD19R,1.199200X0.949200*%
%ADD20R,0.949200X1.549200*%
%ADD21R,2.149200X1.349200*%
%ADD22R,0.849200X1.349200*%
%ADD23R,0.999200X0.499200*%
%ADD24R,1.449200X3.949200*%
%ADD25R,3.149200X2.449200*%
%ADD26R,3.949200X1.449200*%
%ADD27R,4.521200X1.219200*%
%ADD28R,1.219200X4.521200*%
%ADD29R,3.606800X1.981200*%
%ADD30R,0.965200X1.981200*%
%ADD31R,0.549200X0.349200*%
%ADD32R,0.349200X0.549200*%
%ADD33R,0.949960X0.548640*%
%ADD34R,0.199200X0.749200*%
%ADD35R,1.689200X1.399200*%
%ADD36R,0.649200X0.249200*%
%ADD37R,0.849200X1.549200*%
%ADD38R,0.749200X0.249200*%
%ADD39R,1.589200X2.329200*%
%ADD40R,0.509200X1.279200*%
%ADD41R,0.309200X1.549200*%
%ADD42R,0.229200X0.749200*%
%ADD43R,1.949200X1.149200*%
%ADD44O,0.199200X0.949200*%
%ADD45O,0.949200X0.199200*%
%ADD46R,2.549200X2.549200*%
%ADD47R,0.649200X1.249200*%
G04 APERTURE END LIST*
D10*
D11*
X151892000Y-98687800D03*
X151892000Y-99787800D03*
D12*
X127694600Y-107442000D03*
X128794600Y-107442000D03*
D13*
X93980000Y-117450000D03*
D14*
X91330000Y-100700000D03*
X91330000Y-101200000D03*
X91330000Y-101700000D03*
X91330000Y-102200000D03*
X91330000Y-102700000D03*
X91330000Y-103200000D03*
X91330000Y-103700000D03*
X91330000Y-104200000D03*
X91330000Y-104700000D03*
X91330000Y-105200000D03*
X91330000Y-105700000D03*
X91330000Y-106200000D03*
X91330000Y-106700000D03*
X91330000Y-107200000D03*
X91330000Y-107700000D03*
X91330000Y-108200000D03*
X91330000Y-108700000D03*
X91330000Y-109200000D03*
X91330000Y-109700000D03*
X91330000Y-110200000D03*
X91330000Y-110700000D03*
X91330000Y-111200000D03*
X91330000Y-111700000D03*
X91330000Y-112200000D03*
X91330000Y-112700000D03*
X91330000Y-113200000D03*
X91330000Y-113700000D03*
X91330000Y-114200000D03*
X91330000Y-114700000D03*
X91330000Y-115200000D03*
X96630000Y-100700000D03*
X96630000Y-101200000D03*
X96630000Y-101700000D03*
X96630000Y-102200000D03*
X96630000Y-102700000D03*
X96630000Y-103200000D03*
X96630000Y-103700000D03*
X96630000Y-104200000D03*
X96630000Y-104700000D03*
X96630000Y-105200000D03*
X96630000Y-105700000D03*
X96630000Y-106200000D03*
X96630000Y-106700000D03*
X96630000Y-107200000D03*
X96630000Y-107700000D03*
X96630000Y-108200000D03*
X96630000Y-108700000D03*
X96630000Y-109200000D03*
X96630000Y-109700000D03*
X96630000Y-110200000D03*
X96630000Y-110700000D03*
X96630000Y-111200000D03*
X96630000Y-111700000D03*
X96630000Y-112200000D03*
X96630000Y-112700000D03*
X96630000Y-113200000D03*
X96630000Y-113700000D03*
X96630000Y-114200000D03*
X96630000Y-114700000D03*
X96630000Y-115200000D03*
D13*
X93980000Y-98450000D03*
X185420000Y-117450000D03*
D14*
X182770000Y-100700000D03*
X182770000Y-101200000D03*
X182770000Y-101700000D03*
X182770000Y-102200000D03*
X182770000Y-102700000D03*
X182770000Y-103200000D03*
X182770000Y-103700000D03*
X182770000Y-104200000D03*
X182770000Y-104700000D03*
X182770000Y-105200000D03*
X182770000Y-105700000D03*
X182770000Y-106200000D03*
X182770000Y-106700000D03*
X182770000Y-107200000D03*
X182770000Y-107700000D03*
X182770000Y-108200000D03*
X182770000Y-108700000D03*
X182770000Y-109200000D03*
X182770000Y-109700000D03*
X182770000Y-110200000D03*
X182770000Y-110700000D03*
X182770000Y-111200000D03*
X182770000Y-111700000D03*
X182770000Y-112200000D03*
X182770000Y-112700000D03*
X182770000Y-113200000D03*
X182770000Y-113700000D03*
X182770000Y-114200000D03*
X182770000Y-114700000D03*
X182770000Y-115200000D03*
X188070000Y-100700000D03*
X188070000Y-101200000D03*
X188070000Y-101700000D03*
X188070000Y-102200000D03*
X188070000Y-102700000D03*
X188070000Y-103200000D03*
X188070000Y-103700000D03*
X188070000Y-104200000D03*
X188070000Y-104700000D03*
X188070000Y-105200000D03*
X188070000Y-105700000D03*
X188070000Y-106200000D03*
X188070000Y-106700000D03*
X188070000Y-107200000D03*
X188070000Y-107700000D03*
X188070000Y-108200000D03*
X188070000Y-108700000D03*
X188070000Y-109200000D03*
X188070000Y-109700000D03*
X188070000Y-110200000D03*
X188070000Y-110700000D03*
X188070000Y-111200000D03*
X188070000Y-111700000D03*
X188070000Y-112200000D03*
X188070000Y-112700000D03*
X188070000Y-113200000D03*
X188070000Y-113700000D03*
X188070000Y-114200000D03*
X188070000Y-114700000D03*
X188070000Y-115200000D03*
D13*
X185420000Y-98450000D03*
D15*
X169205400Y-92786200D03*
X171205400Y-92786200D03*
D16*
X169607800Y-94691200D03*
X171107800Y-94691200D03*
D17*
X172872400Y-97498600D03*
X172872400Y-95998600D03*
D16*
X176873600Y-97180400D03*
X175373600Y-97180400D03*
X172909800Y-118287800D03*
X174409800Y-118287800D03*
X176873600Y-98806000D03*
X175373600Y-98806000D03*
X172935200Y-116687600D03*
X174435200Y-116687600D03*
D18*
X107950000Y-125144400D03*
X107950000Y-128144400D03*
X108204000Y-86333200D03*
X108204000Y-89333200D03*
X102946200Y-106221400D03*
X102946200Y-109221400D03*
D17*
X110667800Y-126351600D03*
X110667800Y-127851600D03*
X111150400Y-86956200D03*
X111150400Y-88456200D03*
X105918000Y-107149200D03*
X105918000Y-108649200D03*
D18*
X118364000Y-124941200D03*
X118364000Y-127941200D03*
X118643400Y-85495000D03*
X118643400Y-88495000D03*
X113665000Y-105764200D03*
X113665000Y-108764200D03*
X121767600Y-124941200D03*
X121767600Y-127941200D03*
X122047000Y-85495000D03*
X122047000Y-88495000D03*
X117017800Y-105764200D03*
X117017800Y-108764200D03*
D12*
X127694600Y-106146600D03*
X128794600Y-106146600D03*
D18*
X137756900Y-109030900D03*
X137756900Y-106030900D03*
D17*
X134442200Y-112459200D03*
X134442200Y-110959200D03*
D18*
X138480800Y-85977600D03*
X138480800Y-88977600D03*
D17*
X141071600Y-86981600D03*
X141071600Y-88481600D03*
X132130800Y-110959200D03*
X132130800Y-112459200D03*
D18*
X148945600Y-85977600D03*
X148945600Y-88977600D03*
X152273000Y-85977600D03*
X152273000Y-88977600D03*
X147040600Y-99896800D03*
X147040600Y-102896800D03*
X146939000Y-106754800D03*
X146939000Y-109754800D03*
D16*
X155639200Y-134848600D03*
X154139200Y-134848600D03*
D17*
X149631400Y-100799200D03*
X149631400Y-102299200D03*
D19*
X149834600Y-109432600D03*
X149834600Y-107432600D03*
D20*
X157859600Y-132029200D03*
X160859600Y-132029200D03*
D12*
X157649000Y-84683600D03*
X156549000Y-84683600D03*
D18*
X159181800Y-89307800D03*
X159181800Y-86307800D03*
D16*
X158914400Y-100660200D03*
X160414400Y-100660200D03*
X160439800Y-108940600D03*
X158939800Y-108940600D03*
D15*
X153508200Y-102463600D03*
X155508200Y-102463600D03*
X153305000Y-111785400D03*
X155305000Y-111785400D03*
D21*
X141503600Y-109728000D03*
D22*
X144053600Y-109728000D03*
D23*
X156035200Y-132334000D03*
X153235200Y-132334000D03*
D21*
X142620800Y-100152200D03*
D22*
X140070800Y-100152200D03*
D24*
X114982400Y-121081800D03*
X111382400Y-121081800D03*
X115515800Y-81940400D03*
X111915800Y-81940400D03*
X110232600Y-102082600D03*
X106632600Y-102082600D03*
D25*
X139827000Y-123990000D03*
X139827000Y-135090000D03*
D24*
X145005200Y-81965800D03*
X141405200Y-81965800D03*
D26*
X142430500Y-103775100D03*
X142430500Y-107375100D03*
D24*
X136877200Y-101650800D03*
X133277200Y-101650800D03*
D27*
X100711000Y-123545600D03*
X100711000Y-126085600D03*
X100711000Y-86410800D03*
X100711000Y-88950800D03*
X100711000Y-91821000D03*
X100711000Y-94361000D03*
X178562000Y-91516200D03*
X178562000Y-88976200D03*
D28*
X133426200Y-87833200D03*
X130886200Y-87833200D03*
D27*
X178562000Y-125984000D03*
X178562000Y-123444000D03*
D29*
X150469600Y-122783600D03*
D30*
X150469600Y-129387600D03*
X152755600Y-129387600D03*
X148183600Y-129387600D03*
D31*
X115544600Y-125610200D03*
X115544600Y-126510200D03*
D32*
X114470600Y-128676400D03*
X113570600Y-128676400D03*
D31*
X115900200Y-86392600D03*
X115900200Y-87292600D03*
D32*
X114826200Y-89357200D03*
X113926200Y-89357200D03*
D31*
X110794800Y-106509400D03*
X110794800Y-107409400D03*
D32*
X109771600Y-109474000D03*
X108871600Y-109474000D03*
X128785200Y-104800400D03*
X129685200Y-104800400D03*
X128785200Y-108762800D03*
X129685200Y-108762800D03*
D31*
X128219200Y-103142200D03*
X128219200Y-102242200D03*
X130200400Y-111168600D03*
X130200400Y-110268600D03*
X130784600Y-103142200D03*
X130784600Y-102242200D03*
X145669000Y-86443400D03*
X145669000Y-87343400D03*
D32*
X144620400Y-89382600D03*
X143720400Y-89382600D03*
D31*
X127889000Y-111168600D03*
X127889000Y-110268600D03*
D32*
X158477800Y-135128000D03*
X159377800Y-135128000D03*
X150284600Y-136804400D03*
X149384600Y-136804400D03*
D31*
X157251400Y-106382400D03*
X157251400Y-107282400D03*
X157200600Y-100007000D03*
X157200600Y-100907000D03*
X157200600Y-97975000D03*
X157200600Y-98875000D03*
X157251400Y-108414400D03*
X157251400Y-109314400D03*
D32*
X159657200Y-98856800D03*
X158757200Y-98856800D03*
X159682600Y-107264200D03*
X158782600Y-107264200D03*
D33*
X171104560Y-96123760D03*
X171104560Y-97424240D03*
X169204640Y-96774000D03*
D34*
X155053600Y-89028400D03*
X155553600Y-89028400D03*
X156053600Y-89028400D03*
X156553600Y-89028400D03*
X155053600Y-86028400D03*
X155553600Y-86028400D03*
X156053600Y-86028400D03*
X156553600Y-86028400D03*
D35*
X155803600Y-87528400D03*
D36*
X155279600Y-100827600D03*
X155279600Y-100177600D03*
X155279600Y-99527600D03*
X153279600Y-100827600D03*
X153279600Y-100177600D03*
X153279600Y-99527600D03*
D37*
X154279600Y-100177600D03*
D38*
X155271600Y-109284200D03*
X155271600Y-108784200D03*
X155271600Y-108284200D03*
X155271600Y-107784200D03*
X152271600Y-109284200D03*
X152271600Y-108784200D03*
X152271600Y-108284200D03*
X152271600Y-107784200D03*
D39*
X153771600Y-108534200D03*
D40*
X149367200Y-134651600D03*
X150317200Y-134651600D03*
X151267200Y-134651600D03*
X149367200Y-132251600D03*
X150317200Y-132251600D03*
X151267200Y-132251600D03*
D41*
X172681900Y-114415000D03*
X173316900Y-114415000D03*
X173951900Y-114415000D03*
X174586900Y-114415000D03*
X175221900Y-114415000D03*
X175856900Y-114415000D03*
X176491900Y-114415000D03*
X177126900Y-114415000D03*
X172681900Y-109105000D03*
X173316900Y-109105000D03*
X173951900Y-109105000D03*
X174586900Y-109105000D03*
X175221900Y-109105000D03*
X175856900Y-109105000D03*
X176491900Y-109105000D03*
X177126900Y-109105000D03*
X177126900Y-101053200D03*
X176491900Y-101053200D03*
X175856900Y-101053200D03*
X175221900Y-101053200D03*
X174586900Y-101053200D03*
X173951900Y-101053200D03*
X173316900Y-101053200D03*
X172681900Y-101053200D03*
X177126900Y-106363200D03*
X176491900Y-106363200D03*
X175856900Y-106363200D03*
X175221900Y-106363200D03*
X174586900Y-106363200D03*
X173951900Y-106363200D03*
X173316900Y-106363200D03*
X172681900Y-106363200D03*
D42*
X144433800Y-85567200D03*
X143933800Y-85567200D03*
X143433800Y-85567200D03*
X142933800Y-85567200D03*
X142433800Y-85567200D03*
X144433800Y-88067200D03*
X143933800Y-88067200D03*
X143433800Y-88067200D03*
X142933800Y-88067200D03*
X142433800Y-88067200D03*
D43*
X143433800Y-86817200D03*
D42*
X109559600Y-105633200D03*
X109059600Y-105633200D03*
X108559600Y-105633200D03*
X108059600Y-105633200D03*
X107559600Y-105633200D03*
X109559600Y-108133200D03*
X109059600Y-108133200D03*
X108559600Y-108133200D03*
X108059600Y-108133200D03*
X107559600Y-108133200D03*
D43*
X108559600Y-106883200D03*
D42*
X114639600Y-85541800D03*
X114139600Y-85541800D03*
X113639600Y-85541800D03*
X113139600Y-85541800D03*
X112639600Y-85541800D03*
X114639600Y-88041800D03*
X114139600Y-88041800D03*
X113639600Y-88041800D03*
X113139600Y-88041800D03*
X112639600Y-88041800D03*
D43*
X113639600Y-86791800D03*
D42*
X114258600Y-124759400D03*
X113758600Y-124759400D03*
X113258600Y-124759400D03*
X112758600Y-124759400D03*
X112258600Y-124759400D03*
X114258600Y-127259400D03*
X113758600Y-127259400D03*
X113258600Y-127259400D03*
X112758600Y-127259400D03*
X112258600Y-127259400D03*
D43*
X113258600Y-126009400D03*
D44*
X134159500Y-105378500D03*
X133659500Y-105378500D03*
X133159500Y-105378500D03*
X132659500Y-105378500D03*
X132159500Y-105378500D03*
D45*
X131159500Y-106378500D03*
X131159500Y-106878500D03*
X131159500Y-107378500D03*
X131159500Y-107878500D03*
X131159500Y-108378500D03*
D44*
X132159500Y-109378500D03*
X132659500Y-109378500D03*
X133159500Y-109378500D03*
X133659500Y-109378500D03*
X134159500Y-109378500D03*
D45*
X135159500Y-108378500D03*
X135159500Y-107878500D03*
X135159500Y-107378500D03*
X135159500Y-106878500D03*
X135159500Y-106378500D03*
D46*
X133159500Y-107378500D03*
D47*
X123568500Y-123024900D03*
X121668500Y-123024900D03*
X123479600Y-83616800D03*
X121579600Y-83616800D03*
X118425000Y-104114600D03*
X116525000Y-104114600D03*
X153680200Y-84328000D03*
X151780200Y-84328000D03*
X159763500Y-128574800D03*
X157863500Y-128574800D03*
X164259300Y-89357200D03*
X162359300Y-89357200D03*
X164119600Y-100634800D03*
X162219600Y-100634800D03*
X160398500Y-111937800D03*
X158498500Y-111937800D03*
M02*
