G04 #@! TF.FileFunction,Legend,Top*
%FSLAX46Y46*%
G04 Gerber Fmt 4.6, Leading zero omitted, Abs format (unit mm)*
G04 Created by KiCad (PCBNEW (2015-04-19 BZR 5613)-product) date 7/7/2015 8:10:23 PM*
%MOMM*%
G01*
G04 APERTURE LIST*
%ADD10C,0.100000*%
%ADD11C,0.203200*%
%ADD12C,0.152400*%
%ADD13C,0.200000*%
%ADD14C,0.150000*%
%ADD15C,0.127000*%
G04 APERTURE END LIST*
D10*
D11*
X162951885Y-106585657D02*
X164113028Y-106585657D01*
X163532457Y-107166229D02*
X163532457Y-106005086D01*
X164693599Y-105642229D02*
X165637028Y-105642229D01*
X165129028Y-106222800D01*
X165346742Y-106222800D01*
X165491885Y-106295371D01*
X165564456Y-106367943D01*
X165637028Y-106513086D01*
X165637028Y-106875943D01*
X165564456Y-107021086D01*
X165491885Y-107093657D01*
X165346742Y-107166229D01*
X164911314Y-107166229D01*
X164766171Y-107093657D01*
X164693599Y-107021086D01*
X166072457Y-105642229D02*
X166580457Y-107166229D01*
X167088457Y-105642229D01*
X167596457Y-107166229D02*
X167596457Y-106150229D01*
X167596457Y-106440514D02*
X167669029Y-106295371D01*
X167741600Y-106222800D01*
X167886743Y-106150229D01*
X168031886Y-106150229D01*
X169120458Y-107093657D02*
X168975315Y-107166229D01*
X168685029Y-107166229D01*
X168539886Y-107093657D01*
X168467315Y-106948514D01*
X168467315Y-106367943D01*
X168539886Y-106222800D01*
X168685029Y-106150229D01*
X168975315Y-106150229D01*
X169120458Y-106222800D01*
X169193029Y-106367943D01*
X169193029Y-106513086D01*
X168467315Y-106658229D01*
X169628458Y-106150229D02*
X170209029Y-106150229D01*
X169846172Y-107166229D02*
X169846172Y-105859943D01*
X169918744Y-105714800D01*
X170063886Y-105642229D01*
X170209029Y-105642229D01*
X98795115Y-96244229D02*
X99303115Y-97768229D01*
X99811115Y-96244229D01*
X100319115Y-97768229D02*
X100319115Y-96752229D01*
X100319115Y-96244229D02*
X100246544Y-96316800D01*
X100319115Y-96389371D01*
X100391687Y-96316800D01*
X100319115Y-96244229D01*
X100319115Y-96389371D01*
X101044829Y-96752229D02*
X101044829Y-97768229D01*
X101044829Y-96897371D02*
X101117401Y-96824800D01*
X101262543Y-96752229D01*
X101480258Y-96752229D01*
X101625401Y-96824800D01*
X101697972Y-96969943D01*
X101697972Y-97768229D01*
X159303357Y-122701957D02*
X160464500Y-122701957D01*
X159883929Y-123282529D02*
X159883929Y-122121386D01*
X161915928Y-121758529D02*
X161190214Y-121758529D01*
X161117643Y-122484243D01*
X161190214Y-122411671D01*
X161335357Y-122339100D01*
X161698214Y-122339100D01*
X161843357Y-122411671D01*
X161915928Y-122484243D01*
X161988500Y-122629386D01*
X161988500Y-122992243D01*
X161915928Y-123137386D01*
X161843357Y-123209957D01*
X161698214Y-123282529D01*
X161335357Y-123282529D01*
X161190214Y-123209957D01*
X161117643Y-123137386D01*
X162931929Y-121758529D02*
X163077072Y-121758529D01*
X163222215Y-121831100D01*
X163294786Y-121903671D01*
X163367357Y-122048814D01*
X163439929Y-122339100D01*
X163439929Y-122701957D01*
X163367357Y-122992243D01*
X163294786Y-123137386D01*
X163222215Y-123209957D01*
X163077072Y-123282529D01*
X162931929Y-123282529D01*
X162786786Y-123209957D01*
X162714215Y-123137386D01*
X162641643Y-122992243D01*
X162569072Y-122701957D01*
X162569072Y-122339100D01*
X162641643Y-122048814D01*
X162714215Y-121903671D01*
X162786786Y-121831100D01*
X162931929Y-121758529D01*
X163875358Y-121758529D02*
X164383358Y-123282529D01*
X164891358Y-121758529D01*
X160878157Y-114434257D02*
X162039300Y-114434257D01*
X163563300Y-115014829D02*
X162692443Y-115014829D01*
X163127871Y-115014829D02*
X163127871Y-113490829D01*
X162982728Y-113708543D01*
X162837586Y-113853686D01*
X162692443Y-113926257D01*
X164942157Y-113490829D02*
X164216443Y-113490829D01*
X164143872Y-114216543D01*
X164216443Y-114143971D01*
X164361586Y-114071400D01*
X164724443Y-114071400D01*
X164869586Y-114143971D01*
X164942157Y-114216543D01*
X165014729Y-114361686D01*
X165014729Y-114724543D01*
X164942157Y-114869686D01*
X164869586Y-114942257D01*
X164724443Y-115014829D01*
X164361586Y-115014829D01*
X164216443Y-114942257D01*
X164143872Y-114869686D01*
X165450158Y-113490829D02*
X165958158Y-115014829D01*
X166466158Y-113490829D01*
X161729057Y-93733257D02*
X162890200Y-93733257D01*
X162309629Y-94313829D02*
X162309629Y-93152686D01*
X164414200Y-94313829D02*
X163543343Y-94313829D01*
X163978771Y-94313829D02*
X163978771Y-92789829D01*
X163833628Y-93007543D01*
X163688486Y-93152686D01*
X163543343Y-93225257D01*
X165793057Y-92789829D02*
X165067343Y-92789829D01*
X164994772Y-93515543D01*
X165067343Y-93442971D01*
X165212486Y-93370400D01*
X165575343Y-93370400D01*
X165720486Y-93442971D01*
X165793057Y-93515543D01*
X165865629Y-93660686D01*
X165865629Y-94023543D01*
X165793057Y-94168686D01*
X165720486Y-94241257D01*
X165575343Y-94313829D01*
X165212486Y-94313829D01*
X165067343Y-94241257D01*
X164994772Y-94168686D01*
X166301058Y-92789829D02*
X166809058Y-94313829D01*
X167317058Y-92789829D01*
X145714357Y-115094657D02*
X146875500Y-115094657D01*
X148399500Y-115675229D02*
X147528643Y-115675229D01*
X147964071Y-115675229D02*
X147964071Y-114151229D01*
X147818928Y-114368943D01*
X147673786Y-114514086D01*
X147528643Y-114586657D01*
X149705786Y-114151229D02*
X149415500Y-114151229D01*
X149270357Y-114223800D01*
X149197786Y-114296371D01*
X149052643Y-114514086D01*
X148980072Y-114804371D01*
X148980072Y-115384943D01*
X149052643Y-115530086D01*
X149125215Y-115602657D01*
X149270357Y-115675229D01*
X149560643Y-115675229D01*
X149705786Y-115602657D01*
X149778357Y-115530086D01*
X149850929Y-115384943D01*
X149850929Y-115022086D01*
X149778357Y-114876943D01*
X149705786Y-114804371D01*
X149560643Y-114731800D01*
X149270357Y-114731800D01*
X149125215Y-114804371D01*
X149052643Y-114876943D01*
X148980072Y-115022086D01*
X150286358Y-114151229D02*
X150794358Y-115675229D01*
X151302358Y-114151229D01*
X145904857Y-94419057D02*
X147066000Y-94419057D01*
X146485429Y-94999629D02*
X146485429Y-93838486D01*
X148590000Y-94999629D02*
X147719143Y-94999629D01*
X148154571Y-94999629D02*
X148154571Y-93475629D01*
X148009428Y-93693343D01*
X147864286Y-93838486D01*
X147719143Y-93911057D01*
X149896286Y-93475629D02*
X149606000Y-93475629D01*
X149460857Y-93548200D01*
X149388286Y-93620771D01*
X149243143Y-93838486D01*
X149170572Y-94128771D01*
X149170572Y-94709343D01*
X149243143Y-94854486D01*
X149315715Y-94927057D01*
X149460857Y-94999629D01*
X149751143Y-94999629D01*
X149896286Y-94927057D01*
X149968857Y-94854486D01*
X150041429Y-94709343D01*
X150041429Y-94346486D01*
X149968857Y-94201343D01*
X149896286Y-94128771D01*
X149751143Y-94056200D01*
X149460857Y-94056200D01*
X149315715Y-94128771D01*
X149243143Y-94201343D01*
X149170572Y-94346486D01*
X150476858Y-93475629D02*
X150984858Y-94999629D01*
X151492858Y-93475629D01*
X163561486Y-79788657D02*
X164722629Y-79788657D01*
X164142058Y-80369229D02*
X164142058Y-79208086D01*
X166174057Y-78845229D02*
X165448343Y-78845229D01*
X165375772Y-79570943D01*
X165448343Y-79498371D01*
X165593486Y-79425800D01*
X165956343Y-79425800D01*
X166101486Y-79498371D01*
X166174057Y-79570943D01*
X166246629Y-79716086D01*
X166246629Y-80078943D01*
X166174057Y-80224086D01*
X166101486Y-80296657D01*
X165956343Y-80369229D01*
X165593486Y-80369229D01*
X165448343Y-80296657D01*
X165375772Y-80224086D01*
X166682058Y-78845229D02*
X167190058Y-80369229D01*
X167698058Y-78845229D01*
X169294630Y-79933800D02*
X170020344Y-79933800D01*
X169149487Y-80369229D02*
X169657487Y-78845229D01*
X170165487Y-80369229D01*
X170673487Y-80369229D02*
X170673487Y-78845229D01*
X171544344Y-80369229D01*
X171544344Y-78845229D01*
X172197487Y-79933800D02*
X172923201Y-79933800D01*
X172052344Y-80369229D02*
X172560344Y-78845229D01*
X173068344Y-80369229D01*
X174302058Y-80369229D02*
X173576344Y-80369229D01*
X173576344Y-78845229D01*
X175100344Y-78845229D02*
X175390630Y-78845229D01*
X175535772Y-78917800D01*
X175680915Y-79062943D01*
X175753487Y-79353229D01*
X175753487Y-79861229D01*
X175680915Y-80151514D01*
X175535772Y-80296657D01*
X175390630Y-80369229D01*
X175100344Y-80369229D01*
X174955201Y-80296657D01*
X174810058Y-80151514D01*
X174737487Y-79861229D01*
X174737487Y-79353229D01*
X174810058Y-79062943D01*
X174955201Y-78917800D01*
X175100344Y-78845229D01*
X177204915Y-78917800D02*
X177059772Y-78845229D01*
X176842058Y-78845229D01*
X176624343Y-78917800D01*
X176479201Y-79062943D01*
X176406629Y-79208086D01*
X176334058Y-79498371D01*
X176334058Y-79716086D01*
X176406629Y-80006371D01*
X176479201Y-80151514D01*
X176624343Y-80296657D01*
X176842058Y-80369229D01*
X176987201Y-80369229D01*
X177204915Y-80296657D01*
X177277486Y-80224086D01*
X177277486Y-79716086D01*
X176987201Y-79716086D01*
X152857200Y-79687057D02*
X154018343Y-79687057D01*
X153437772Y-80267629D02*
X153437772Y-79106486D01*
X155469771Y-78743629D02*
X154744057Y-78743629D01*
X154671486Y-79469343D01*
X154744057Y-79396771D01*
X154889200Y-79324200D01*
X155252057Y-79324200D01*
X155397200Y-79396771D01*
X155469771Y-79469343D01*
X155542343Y-79614486D01*
X155542343Y-79977343D01*
X155469771Y-80122486D01*
X155397200Y-80195057D01*
X155252057Y-80267629D01*
X154889200Y-80267629D01*
X154744057Y-80195057D01*
X154671486Y-80122486D01*
X156195486Y-80122486D02*
X156268058Y-80195057D01*
X156195486Y-80267629D01*
X156122915Y-80195057D01*
X156195486Y-80122486D01*
X156195486Y-80267629D01*
X157646914Y-78743629D02*
X156921200Y-78743629D01*
X156848629Y-79469343D01*
X156921200Y-79396771D01*
X157066343Y-79324200D01*
X157429200Y-79324200D01*
X157574343Y-79396771D01*
X157646914Y-79469343D01*
X157719486Y-79614486D01*
X157719486Y-79977343D01*
X157646914Y-80122486D01*
X157574343Y-80195057D01*
X157429200Y-80267629D01*
X157066343Y-80267629D01*
X156921200Y-80195057D01*
X156848629Y-80122486D01*
X158154915Y-78743629D02*
X158662915Y-80267629D01*
X159170915Y-78743629D01*
X124066300Y-120809657D02*
X125227443Y-120809657D01*
X124646872Y-121390229D02*
X124646872Y-120229086D01*
X126751443Y-121390229D02*
X125880586Y-121390229D01*
X126316014Y-121390229D02*
X126316014Y-119866229D01*
X126170871Y-120083943D01*
X126025729Y-120229086D01*
X125880586Y-120301657D01*
X127404586Y-121245086D02*
X127477158Y-121317657D01*
X127404586Y-121390229D01*
X127332015Y-121317657D01*
X127404586Y-121245086D01*
X127404586Y-121390229D01*
X128348014Y-120519371D02*
X128202872Y-120446800D01*
X128130300Y-120374229D01*
X128057729Y-120229086D01*
X128057729Y-120156514D01*
X128130300Y-120011371D01*
X128202872Y-119938800D01*
X128348014Y-119866229D01*
X128638300Y-119866229D01*
X128783443Y-119938800D01*
X128856014Y-120011371D01*
X128928586Y-120156514D01*
X128928586Y-120229086D01*
X128856014Y-120374229D01*
X128783443Y-120446800D01*
X128638300Y-120519371D01*
X128348014Y-120519371D01*
X128202872Y-120591943D01*
X128130300Y-120664514D01*
X128057729Y-120809657D01*
X128057729Y-121099943D01*
X128130300Y-121245086D01*
X128202872Y-121317657D01*
X128348014Y-121390229D01*
X128638300Y-121390229D01*
X128783443Y-121317657D01*
X128856014Y-121245086D01*
X128928586Y-121099943D01*
X128928586Y-120809657D01*
X128856014Y-120664514D01*
X128783443Y-120591943D01*
X128638300Y-120519371D01*
X129364015Y-119866229D02*
X129872015Y-121390229D01*
X130380015Y-119866229D01*
X126194458Y-130314700D02*
X126049315Y-130242129D01*
X125831601Y-130242129D01*
X125613886Y-130314700D01*
X125468744Y-130459843D01*
X125396172Y-130604986D01*
X125323601Y-130895271D01*
X125323601Y-131112986D01*
X125396172Y-131403271D01*
X125468744Y-131548414D01*
X125613886Y-131693557D01*
X125831601Y-131766129D01*
X125976744Y-131766129D01*
X126194458Y-131693557D01*
X126267029Y-131620986D01*
X126267029Y-131112986D01*
X125976744Y-131112986D01*
X126920172Y-131766129D02*
X126920172Y-130242129D01*
X127791029Y-131766129D01*
X127791029Y-130242129D01*
X128516743Y-131766129D02*
X128516743Y-130242129D01*
X128879600Y-130242129D01*
X129097315Y-130314700D01*
X129242457Y-130459843D01*
X129315029Y-130604986D01*
X129387600Y-130895271D01*
X129387600Y-131112986D01*
X129315029Y-131403271D01*
X129242457Y-131548414D01*
X129097315Y-131693557D01*
X128879600Y-131766129D01*
X128516743Y-131766129D01*
X116967000Y-99448257D02*
X118128143Y-99448257D01*
X117547572Y-100028829D02*
X117547572Y-98867686D01*
X118708714Y-98504829D02*
X119652143Y-98504829D01*
X119144143Y-99085400D01*
X119361857Y-99085400D01*
X119507000Y-99157971D01*
X119579571Y-99230543D01*
X119652143Y-99375686D01*
X119652143Y-99738543D01*
X119579571Y-99883686D01*
X119507000Y-99956257D01*
X119361857Y-100028829D01*
X118926429Y-100028829D01*
X118781286Y-99956257D01*
X118708714Y-99883686D01*
X120305286Y-99883686D02*
X120377858Y-99956257D01*
X120305286Y-100028829D01*
X120232715Y-99956257D01*
X120305286Y-99883686D01*
X120305286Y-100028829D01*
X120885857Y-98504829D02*
X121829286Y-98504829D01*
X121321286Y-99085400D01*
X121539000Y-99085400D01*
X121684143Y-99157971D01*
X121756714Y-99230543D01*
X121829286Y-99375686D01*
X121829286Y-99738543D01*
X121756714Y-99883686D01*
X121684143Y-99956257D01*
X121539000Y-100028829D01*
X121103572Y-100028829D01*
X120958429Y-99956257D01*
X120885857Y-99883686D01*
X122264715Y-98504829D02*
X122772715Y-100028829D01*
X123280715Y-98504829D01*
X122805371Y-78975857D02*
X123966514Y-78975857D01*
X123385943Y-79556429D02*
X123385943Y-78395286D01*
X125417942Y-78032429D02*
X124692228Y-78032429D01*
X124619657Y-78758143D01*
X124692228Y-78685571D01*
X124837371Y-78613000D01*
X125200228Y-78613000D01*
X125345371Y-78685571D01*
X125417942Y-78758143D01*
X125490514Y-78903286D01*
X125490514Y-79266143D01*
X125417942Y-79411286D01*
X125345371Y-79483857D01*
X125200228Y-79556429D01*
X124837371Y-79556429D01*
X124692228Y-79483857D01*
X124619657Y-79411286D01*
X125925943Y-78032429D02*
X126433943Y-79556429D01*
X126941943Y-78032429D01*
D12*
X107108571Y-132519981D02*
X107299048Y-132519981D01*
X107394286Y-132567600D01*
X107489524Y-132662838D01*
X107537143Y-132853314D01*
X107537143Y-133186648D01*
X107489524Y-133377124D01*
X107394286Y-133472362D01*
X107299048Y-133519981D01*
X107108571Y-133519981D01*
X107013333Y-133472362D01*
X106918095Y-133377124D01*
X106870476Y-133186648D01*
X106870476Y-132853314D01*
X106918095Y-132662838D01*
X107013333Y-132567600D01*
X107108571Y-132519981D01*
X107965714Y-132853314D02*
X107965714Y-133853314D01*
X107965714Y-132900933D02*
X108060952Y-132853314D01*
X108251429Y-132853314D01*
X108346667Y-132900933D01*
X108394286Y-132948552D01*
X108441905Y-133043790D01*
X108441905Y-133329505D01*
X108394286Y-133424743D01*
X108346667Y-133472362D01*
X108251429Y-133519981D01*
X108060952Y-133519981D01*
X107965714Y-133472362D01*
X109251429Y-133472362D02*
X109156191Y-133519981D01*
X108965714Y-133519981D01*
X108870476Y-133472362D01*
X108822857Y-133377124D01*
X108822857Y-132996171D01*
X108870476Y-132900933D01*
X108965714Y-132853314D01*
X109156191Y-132853314D01*
X109251429Y-132900933D01*
X109299048Y-132996171D01*
X109299048Y-133091410D01*
X108822857Y-133186648D01*
X109727619Y-132853314D02*
X109727619Y-133519981D01*
X109727619Y-132948552D02*
X109775238Y-132900933D01*
X109870476Y-132853314D01*
X110013334Y-132853314D01*
X110108572Y-132900933D01*
X110156191Y-132996171D01*
X110156191Y-133519981D01*
X111965715Y-133424743D02*
X111918096Y-133472362D01*
X111775239Y-133519981D01*
X111680001Y-133519981D01*
X111537143Y-133472362D01*
X111441905Y-133377124D01*
X111394286Y-133281886D01*
X111346667Y-133091410D01*
X111346667Y-132948552D01*
X111394286Y-132758076D01*
X111441905Y-132662838D01*
X111537143Y-132567600D01*
X111680001Y-132519981D01*
X111775239Y-132519981D01*
X111918096Y-132567600D01*
X111965715Y-132615219D01*
X112822858Y-133519981D02*
X112822858Y-132996171D01*
X112775239Y-132900933D01*
X112680001Y-132853314D01*
X112489524Y-132853314D01*
X112394286Y-132900933D01*
X112822858Y-133472362D02*
X112727620Y-133519981D01*
X112489524Y-133519981D01*
X112394286Y-133472362D01*
X112346667Y-133377124D01*
X112346667Y-133281886D01*
X112394286Y-133186648D01*
X112489524Y-133139029D01*
X112727620Y-133139029D01*
X112822858Y-133091410D01*
X113299048Y-133519981D02*
X113299048Y-132853314D01*
X113299048Y-132948552D02*
X113346667Y-132900933D01*
X113441905Y-132853314D01*
X113584763Y-132853314D01*
X113680001Y-132900933D01*
X113727620Y-132996171D01*
X113727620Y-133519981D01*
X113727620Y-132996171D02*
X113775239Y-132900933D01*
X113870477Y-132853314D01*
X114013334Y-132853314D01*
X114108572Y-132900933D01*
X114156191Y-132996171D01*
X114156191Y-133519981D01*
X115013334Y-133472362D02*
X114918096Y-133519981D01*
X114727619Y-133519981D01*
X114632381Y-133472362D01*
X114584762Y-133377124D01*
X114584762Y-132996171D01*
X114632381Y-132900933D01*
X114727619Y-132853314D01*
X114918096Y-132853314D01*
X115013334Y-132900933D01*
X115060953Y-132996171D01*
X115060953Y-133091410D01*
X114584762Y-133186648D01*
X115489524Y-133519981D02*
X115489524Y-132853314D01*
X115489524Y-133043790D02*
X115537143Y-132948552D01*
X115584762Y-132900933D01*
X115680000Y-132853314D01*
X115775239Y-132853314D01*
X116537144Y-133519981D02*
X116537144Y-132996171D01*
X116489525Y-132900933D01*
X116394287Y-132853314D01*
X116203810Y-132853314D01*
X116108572Y-132900933D01*
X116537144Y-133472362D02*
X116441906Y-133519981D01*
X116203810Y-133519981D01*
X116108572Y-133472362D01*
X116060953Y-133377124D01*
X116060953Y-133281886D01*
X116108572Y-133186648D01*
X116203810Y-133139029D01*
X116441906Y-133139029D01*
X116537144Y-133091410D01*
X117775239Y-133519981D02*
X117775239Y-132519981D01*
X118156192Y-132519981D01*
X118251430Y-132567600D01*
X118299049Y-132615219D01*
X118346668Y-132710457D01*
X118346668Y-132853314D01*
X118299049Y-132948552D01*
X118251430Y-132996171D01*
X118156192Y-133043790D01*
X117775239Y-133043790D01*
X118775239Y-133519981D02*
X118775239Y-132853314D01*
X118775239Y-133043790D02*
X118822858Y-132948552D01*
X118870477Y-132900933D01*
X118965715Y-132853314D01*
X119060954Y-132853314D01*
X119537144Y-133519981D02*
X119441906Y-133472362D01*
X119394287Y-133424743D01*
X119346668Y-133329505D01*
X119346668Y-133043790D01*
X119394287Y-132948552D01*
X119441906Y-132900933D01*
X119537144Y-132853314D01*
X119680002Y-132853314D01*
X119775240Y-132900933D01*
X119822859Y-132948552D01*
X119870478Y-133043790D01*
X119870478Y-133329505D01*
X119822859Y-133424743D01*
X119775240Y-133472362D01*
X119680002Y-133519981D01*
X119537144Y-133519981D01*
X120299049Y-132853314D02*
X120299049Y-133710457D01*
X120251430Y-133805695D01*
X120156192Y-133853314D01*
X120108573Y-133853314D01*
X120299049Y-132519981D02*
X120251430Y-132567600D01*
X120299049Y-132615219D01*
X120346668Y-132567600D01*
X120299049Y-132519981D01*
X120299049Y-132615219D01*
X121156192Y-133472362D02*
X121060954Y-133519981D01*
X120870477Y-133519981D01*
X120775239Y-133472362D01*
X120727620Y-133377124D01*
X120727620Y-132996171D01*
X120775239Y-132900933D01*
X120870477Y-132853314D01*
X121060954Y-132853314D01*
X121156192Y-132900933D01*
X121203811Y-132996171D01*
X121203811Y-133091410D01*
X120727620Y-133186648D01*
X122060954Y-133472362D02*
X121965716Y-133519981D01*
X121775239Y-133519981D01*
X121680001Y-133472362D01*
X121632382Y-133424743D01*
X121584763Y-133329505D01*
X121584763Y-133043790D01*
X121632382Y-132948552D01*
X121680001Y-132900933D01*
X121775239Y-132853314D01*
X121965716Y-132853314D01*
X122060954Y-132900933D01*
X122346668Y-132853314D02*
X122727620Y-132853314D01*
X122489525Y-132519981D02*
X122489525Y-133377124D01*
X122537144Y-133472362D01*
X122632382Y-133519981D01*
X122727620Y-133519981D01*
X106918095Y-135072381D02*
X106918095Y-134072381D01*
X107299048Y-134072381D01*
X107394286Y-134120000D01*
X107441905Y-134167619D01*
X107489524Y-134262857D01*
X107489524Y-134405714D01*
X107441905Y-134500952D01*
X107394286Y-134548571D01*
X107299048Y-134596190D01*
X106918095Y-134596190D01*
X108060952Y-135072381D02*
X107965714Y-135024762D01*
X107918095Y-134977143D01*
X107870476Y-134881905D01*
X107870476Y-134596190D01*
X107918095Y-134500952D01*
X107965714Y-134453333D01*
X108060952Y-134405714D01*
X108203810Y-134405714D01*
X108299048Y-134453333D01*
X108346667Y-134500952D01*
X108394286Y-134596190D01*
X108394286Y-134881905D01*
X108346667Y-134977143D01*
X108299048Y-135024762D01*
X108203810Y-135072381D01*
X108060952Y-135072381D01*
X108727619Y-134405714D02*
X108918095Y-135072381D01*
X109108572Y-134596190D01*
X109299048Y-135072381D01*
X109489524Y-134405714D01*
X110251429Y-135024762D02*
X110156191Y-135072381D01*
X109965714Y-135072381D01*
X109870476Y-135024762D01*
X109822857Y-134929524D01*
X109822857Y-134548571D01*
X109870476Y-134453333D01*
X109965714Y-134405714D01*
X110156191Y-134405714D01*
X110251429Y-134453333D01*
X110299048Y-134548571D01*
X110299048Y-134643810D01*
X109822857Y-134739048D01*
X110727619Y-135072381D02*
X110727619Y-134405714D01*
X110727619Y-134596190D02*
X110775238Y-134500952D01*
X110822857Y-134453333D01*
X110918095Y-134405714D01*
X111013334Y-134405714D01*
X112441906Y-134548571D02*
X112584763Y-134596190D01*
X112632382Y-134643810D01*
X112680001Y-134739048D01*
X112680001Y-134881905D01*
X112632382Y-134977143D01*
X112584763Y-135024762D01*
X112489525Y-135072381D01*
X112108572Y-135072381D01*
X112108572Y-134072381D01*
X112441906Y-134072381D01*
X112537144Y-134120000D01*
X112584763Y-134167619D01*
X112632382Y-134262857D01*
X112632382Y-134358095D01*
X112584763Y-134453333D01*
X112537144Y-134500952D01*
X112441906Y-134548571D01*
X112108572Y-134548571D01*
X113251429Y-135072381D02*
X113156191Y-135024762D01*
X113108572Y-134977143D01*
X113060953Y-134881905D01*
X113060953Y-134596190D01*
X113108572Y-134500952D01*
X113156191Y-134453333D01*
X113251429Y-134405714D01*
X113394287Y-134405714D01*
X113489525Y-134453333D01*
X113537144Y-134500952D01*
X113584763Y-134596190D01*
X113584763Y-134881905D01*
X113537144Y-134977143D01*
X113489525Y-135024762D01*
X113394287Y-135072381D01*
X113251429Y-135072381D01*
X114441906Y-135072381D02*
X114441906Y-134548571D01*
X114394287Y-134453333D01*
X114299049Y-134405714D01*
X114108572Y-134405714D01*
X114013334Y-134453333D01*
X114441906Y-135024762D02*
X114346668Y-135072381D01*
X114108572Y-135072381D01*
X114013334Y-135024762D01*
X113965715Y-134929524D01*
X113965715Y-134834286D01*
X114013334Y-134739048D01*
X114108572Y-134691429D01*
X114346668Y-134691429D01*
X114441906Y-134643810D01*
X114918096Y-135072381D02*
X114918096Y-134405714D01*
X114918096Y-134596190D02*
X114965715Y-134500952D01*
X115013334Y-134453333D01*
X115108572Y-134405714D01*
X115203811Y-134405714D01*
X115965716Y-135072381D02*
X115965716Y-134072381D01*
X115965716Y-135024762D02*
X115870478Y-135072381D01*
X115680001Y-135072381D01*
X115584763Y-135024762D01*
X115537144Y-134977143D01*
X115489525Y-134881905D01*
X115489525Y-134596190D01*
X115537144Y-134500952D01*
X115584763Y-134453333D01*
X115680001Y-134405714D01*
X115870478Y-134405714D01*
X115965716Y-134453333D01*
X117108573Y-134405714D02*
X117346668Y-135072381D01*
X117584764Y-134405714D01*
X118489526Y-135072381D02*
X117918097Y-135072381D01*
X118203811Y-135072381D02*
X118203811Y-134072381D01*
X118108573Y-134215238D01*
X118013335Y-134310476D01*
X117918097Y-134358095D01*
X118918097Y-134977143D02*
X118965716Y-135024762D01*
X118918097Y-135072381D01*
X118870478Y-135024762D01*
X118918097Y-134977143D01*
X118918097Y-135072381D01*
X119918097Y-135072381D02*
X119346668Y-135072381D01*
X119632382Y-135072381D02*
X119632382Y-134072381D01*
X119537144Y-134215238D01*
X119441906Y-134310476D01*
X119346668Y-134358095D01*
X107251429Y-136100971D02*
X107394286Y-136148590D01*
X107441905Y-136196210D01*
X107489524Y-136291448D01*
X107489524Y-136434305D01*
X107441905Y-136529543D01*
X107394286Y-136577162D01*
X107299048Y-136624781D01*
X106918095Y-136624781D01*
X106918095Y-135624781D01*
X107251429Y-135624781D01*
X107346667Y-135672400D01*
X107394286Y-135720019D01*
X107441905Y-135815257D01*
X107441905Y-135910495D01*
X107394286Y-136005733D01*
X107346667Y-136053352D01*
X107251429Y-136100971D01*
X106918095Y-136100971D01*
X107918095Y-136624781D02*
X107918095Y-135958114D01*
X107918095Y-136148590D02*
X107965714Y-136053352D01*
X108013333Y-136005733D01*
X108108571Y-135958114D01*
X108203810Y-135958114D01*
X108537143Y-136624781D02*
X108537143Y-135958114D01*
X108537143Y-135624781D02*
X108489524Y-135672400D01*
X108537143Y-135720019D01*
X108584762Y-135672400D01*
X108537143Y-135624781D01*
X108537143Y-135720019D01*
X109441905Y-136624781D02*
X109441905Y-136100971D01*
X109394286Y-136005733D01*
X109299048Y-135958114D01*
X109108571Y-135958114D01*
X109013333Y-136005733D01*
X109441905Y-136577162D02*
X109346667Y-136624781D01*
X109108571Y-136624781D01*
X109013333Y-136577162D01*
X108965714Y-136481924D01*
X108965714Y-136386686D01*
X109013333Y-136291448D01*
X109108571Y-136243829D01*
X109346667Y-136243829D01*
X109441905Y-136196210D01*
X109918095Y-135958114D02*
X109918095Y-136624781D01*
X109918095Y-136053352D02*
X109965714Y-136005733D01*
X110060952Y-135958114D01*
X110203810Y-135958114D01*
X110299048Y-136005733D01*
X110346667Y-136100971D01*
X110346667Y-136624781D01*
X111537143Y-136577162D02*
X111680000Y-136624781D01*
X111918096Y-136624781D01*
X112013334Y-136577162D01*
X112060953Y-136529543D01*
X112108572Y-136434305D01*
X112108572Y-136339067D01*
X112060953Y-136243829D01*
X112013334Y-136196210D01*
X111918096Y-136148590D01*
X111727619Y-136100971D01*
X111632381Y-136053352D01*
X111584762Y-136005733D01*
X111537143Y-135910495D01*
X111537143Y-135815257D01*
X111584762Y-135720019D01*
X111632381Y-135672400D01*
X111727619Y-135624781D01*
X111965715Y-135624781D01*
X112108572Y-135672400D01*
X112965715Y-136577162D02*
X112870477Y-136624781D01*
X112680000Y-136624781D01*
X112584762Y-136577162D01*
X112537143Y-136529543D01*
X112489524Y-136434305D01*
X112489524Y-136148590D01*
X112537143Y-136053352D01*
X112584762Y-136005733D01*
X112680000Y-135958114D01*
X112870477Y-135958114D01*
X112965715Y-136005733D01*
X113394286Y-136624781D02*
X113394286Y-135624781D01*
X113822858Y-136624781D02*
X113822858Y-136100971D01*
X113775239Y-136005733D01*
X113680001Y-135958114D01*
X113537143Y-135958114D01*
X113441905Y-136005733D01*
X113394286Y-136053352D01*
X114299048Y-136624781D02*
X114299048Y-135958114D01*
X114299048Y-135624781D02*
X114251429Y-135672400D01*
X114299048Y-135720019D01*
X114346667Y-135672400D01*
X114299048Y-135624781D01*
X114299048Y-135720019D01*
X114632381Y-135958114D02*
X115013333Y-135958114D01*
X114775238Y-136624781D02*
X114775238Y-135767638D01*
X114822857Y-135672400D01*
X114918095Y-135624781D01*
X115013333Y-135624781D01*
X115203810Y-135958114D02*
X115584762Y-135958114D01*
X115346667Y-136624781D02*
X115346667Y-135767638D01*
X115394286Y-135672400D01*
X115489524Y-135624781D01*
X115584762Y-135624781D01*
X116299049Y-136577162D02*
X116203811Y-136624781D01*
X116013334Y-136624781D01*
X115918096Y-136577162D01*
X115870477Y-136481924D01*
X115870477Y-136100971D01*
X115918096Y-136005733D01*
X116013334Y-135958114D01*
X116203811Y-135958114D01*
X116299049Y-136005733D01*
X116346668Y-136100971D01*
X116346668Y-136196210D01*
X115870477Y-136291448D01*
X116775239Y-136624781D02*
X116775239Y-135958114D01*
X116775239Y-136148590D02*
X116822858Y-136053352D01*
X116870477Y-136005733D01*
X116965715Y-135958114D01*
X117060954Y-135958114D01*
D13*
X168770457Y-104140000D02*
G75*
G03X168770457Y-104140000I-1270157J0D01*
G01*
D14*
X152367000Y-99487800D02*
X152367000Y-98987800D01*
X151417000Y-98987800D02*
X151417000Y-99487800D01*
X128494600Y-106967000D02*
X127994600Y-106967000D01*
X127994600Y-107917000D02*
X128494600Y-107917000D01*
D10*
G36*
X105789555Y-135096100D02*
X105780354Y-135174634D01*
X105754819Y-135227121D01*
X105706363Y-135261309D01*
X105628402Y-135284949D01*
X105514349Y-135305790D01*
X105359200Y-135331312D01*
X105237677Y-135353158D01*
X105134825Y-135373670D01*
X105060770Y-135390684D01*
X105025638Y-135402036D01*
X105024588Y-135402841D01*
X105007074Y-135434497D01*
X104977083Y-135501836D01*
X104939361Y-135592748D01*
X104898654Y-135695124D01*
X104859706Y-135796854D01*
X104827262Y-135885830D01*
X104806069Y-135949943D01*
X104800400Y-135974952D01*
X104814187Y-136006828D01*
X104852062Y-136071764D01*
X104908796Y-136161336D01*
X104979159Y-136267118D01*
X105006856Y-136307599D01*
X105213313Y-136607116D01*
X104920809Y-136899619D01*
X104628306Y-137192123D01*
X104321472Y-136981586D01*
X104014638Y-136771048D01*
X103864432Y-136851107D01*
X103778029Y-136893881D01*
X103724670Y-136910928D01*
X103695191Y-136904793D01*
X103690168Y-136899533D01*
X103671609Y-136864407D01*
X103638084Y-136790568D01*
X103592754Y-136685783D01*
X103538776Y-136557820D01*
X103479308Y-136414447D01*
X103417509Y-136263431D01*
X103356538Y-136112538D01*
X103299553Y-135969538D01*
X103249713Y-135842196D01*
X103210175Y-135738281D01*
X103184098Y-135665560D01*
X103174641Y-135631801D01*
X103174641Y-135631721D01*
X103194796Y-135592177D01*
X103244626Y-135546929D01*
X103260619Y-135536303D01*
X103412238Y-135415275D01*
X103529737Y-135265108D01*
X103609813Y-135094467D01*
X103649163Y-134912019D01*
X103644485Y-134726431D01*
X103615353Y-134605474D01*
X103528139Y-134416864D01*
X103407186Y-134265527D01*
X103255373Y-134153527D01*
X103075580Y-134082930D01*
X102870685Y-134055798D01*
X102848220Y-134055555D01*
X102737644Y-134059016D01*
X102652435Y-134073428D01*
X102567459Y-134104835D01*
X102493165Y-134140927D01*
X102327444Y-134252177D01*
X102198800Y-134394963D01*
X102110664Y-134563083D01*
X102066471Y-134750330D01*
X102065451Y-134914031D01*
X102094783Y-135072616D01*
X102154620Y-135215336D01*
X102250111Y-135350089D01*
X102386402Y-135484772D01*
X102494693Y-135572500D01*
X102561199Y-135623300D01*
X102323022Y-136194800D01*
X102254489Y-136358811D01*
X102190378Y-136511435D01*
X102133930Y-136645016D01*
X102088389Y-136751898D01*
X102056997Y-136824426D01*
X102045813Y-136849311D01*
X102006781Y-136932323D01*
X101850500Y-136853433D01*
X101694219Y-136774543D01*
X101393957Y-136979971D01*
X101286491Y-137053152D01*
X101194958Y-137114831D01*
X101127007Y-137159905D01*
X101090285Y-137183272D01*
X101086082Y-137185400D01*
X101066531Y-137168365D01*
X101017383Y-137121280D01*
X100944805Y-137050170D01*
X100854965Y-136961061D01*
X100789578Y-136895685D01*
X100500686Y-136605971D01*
X100695565Y-136324119D01*
X100768737Y-136217079D01*
X100831660Y-136122758D01*
X100878447Y-136050146D01*
X100903212Y-136008232D01*
X100905077Y-136004136D01*
X100900939Y-135970045D01*
X100881712Y-135900702D01*
X100851628Y-135807836D01*
X100814920Y-135703176D01*
X100775821Y-135598452D01*
X100738563Y-135505394D01*
X100707378Y-135435731D01*
X100688101Y-135402841D01*
X100658597Y-135392250D01*
X100588984Y-135375765D01*
X100489310Y-135355547D01*
X100369622Y-135333757D01*
X100355400Y-135331312D01*
X100199534Y-135305631D01*
X100086196Y-135284799D01*
X100008678Y-135261152D01*
X99960270Y-135227024D01*
X99934266Y-135174753D01*
X99923958Y-135096673D01*
X99922638Y-134985120D01*
X99923600Y-134837943D01*
X99924769Y-134702062D01*
X99927995Y-134585021D01*
X99932854Y-134495810D01*
X99938923Y-134443424D01*
X99942650Y-134433549D01*
X99973175Y-134425002D01*
X100044357Y-134409320D01*
X100146869Y-134388435D01*
X100271383Y-134364282D01*
X100330000Y-134353255D01*
X100461232Y-134327132D01*
X100574426Y-134301458D01*
X100660245Y-134278594D01*
X100709352Y-134260899D01*
X100716863Y-134255454D01*
X100733992Y-134221053D01*
X100765743Y-134150910D01*
X100807156Y-134056160D01*
X100841678Y-133975391D01*
X100895273Y-133840561D01*
X100923773Y-133748134D01*
X100927619Y-133696597D01*
X100924714Y-133689826D01*
X100902433Y-133657009D01*
X100857393Y-133590995D01*
X100795545Y-133500496D01*
X100722841Y-133394223D01*
X100700188Y-133361131D01*
X100498876Y-133067093D01*
X100789778Y-132776191D01*
X101080680Y-132485289D01*
X101415057Y-132714856D01*
X101749434Y-132944422D01*
X102011267Y-132837183D01*
X102117795Y-132792390D01*
X102206040Y-132753097D01*
X102265848Y-132723967D01*
X102286725Y-132710700D01*
X102295920Y-132680203D01*
X102312255Y-132608867D01*
X102333787Y-132505836D01*
X102358570Y-132380252D01*
X102372012Y-132309527D01*
X102443672Y-131927600D01*
X102856551Y-131927600D01*
X103269430Y-131927600D01*
X103338619Y-132302250D01*
X103363161Y-132434796D01*
X103384555Y-132549694D01*
X103401057Y-132637635D01*
X103410927Y-132689308D01*
X103412779Y-132698425D01*
X103436884Y-132716035D01*
X103498682Y-132747770D01*
X103588641Y-132789030D01*
X103690373Y-132832393D01*
X103962996Y-132944835D01*
X104298056Y-132714925D01*
X104633117Y-132485016D01*
X104920276Y-132771360D01*
X105017015Y-132869978D01*
X105098576Y-132957255D01*
X105159089Y-133026572D01*
X105192684Y-133071309D01*
X105197392Y-133083879D01*
X105179950Y-133113249D01*
X105138923Y-133175995D01*
X105079828Y-133263857D01*
X105008181Y-133368572D01*
X104981174Y-133407655D01*
X104907289Y-133515852D01*
X104845129Y-133609831D01*
X104799914Y-133681467D01*
X104776865Y-133722638D01*
X104775000Y-133728446D01*
X104784457Y-133759902D01*
X104810109Y-133827530D01*
X104847875Y-133920922D01*
X104887125Y-134014367D01*
X104999250Y-134277100D01*
X105287175Y-134333618D01*
X105413519Y-134358404D01*
X105531917Y-134381603D01*
X105627356Y-134400277D01*
X105676700Y-134409905D01*
X105778300Y-134429674D01*
X105785296Y-134829887D01*
X105789007Y-134983767D01*
X105789555Y-135096100D01*
X105789555Y-135096100D01*
X105789555Y-135096100D01*
G37*
X105789555Y-135096100D02*
X105780354Y-135174634D01*
X105754819Y-135227121D01*
X105706363Y-135261309D01*
X105628402Y-135284949D01*
X105514349Y-135305790D01*
X105359200Y-135331312D01*
X105237677Y-135353158D01*
X105134825Y-135373670D01*
X105060770Y-135390684D01*
X105025638Y-135402036D01*
X105024588Y-135402841D01*
X105007074Y-135434497D01*
X104977083Y-135501836D01*
X104939361Y-135592748D01*
X104898654Y-135695124D01*
X104859706Y-135796854D01*
X104827262Y-135885830D01*
X104806069Y-135949943D01*
X104800400Y-135974952D01*
X104814187Y-136006828D01*
X104852062Y-136071764D01*
X104908796Y-136161336D01*
X104979159Y-136267118D01*
X105006856Y-136307599D01*
X105213313Y-136607116D01*
X104920809Y-136899619D01*
X104628306Y-137192123D01*
X104321472Y-136981586D01*
X104014638Y-136771048D01*
X103864432Y-136851107D01*
X103778029Y-136893881D01*
X103724670Y-136910928D01*
X103695191Y-136904793D01*
X103690168Y-136899533D01*
X103671609Y-136864407D01*
X103638084Y-136790568D01*
X103592754Y-136685783D01*
X103538776Y-136557820D01*
X103479308Y-136414447D01*
X103417509Y-136263431D01*
X103356538Y-136112538D01*
X103299553Y-135969538D01*
X103249713Y-135842196D01*
X103210175Y-135738281D01*
X103184098Y-135665560D01*
X103174641Y-135631801D01*
X103174641Y-135631721D01*
X103194796Y-135592177D01*
X103244626Y-135546929D01*
X103260619Y-135536303D01*
X103412238Y-135415275D01*
X103529737Y-135265108D01*
X103609813Y-135094467D01*
X103649163Y-134912019D01*
X103644485Y-134726431D01*
X103615353Y-134605474D01*
X103528139Y-134416864D01*
X103407186Y-134265527D01*
X103255373Y-134153527D01*
X103075580Y-134082930D01*
X102870685Y-134055798D01*
X102848220Y-134055555D01*
X102737644Y-134059016D01*
X102652435Y-134073428D01*
X102567459Y-134104835D01*
X102493165Y-134140927D01*
X102327444Y-134252177D01*
X102198800Y-134394963D01*
X102110664Y-134563083D01*
X102066471Y-134750330D01*
X102065451Y-134914031D01*
X102094783Y-135072616D01*
X102154620Y-135215336D01*
X102250111Y-135350089D01*
X102386402Y-135484772D01*
X102494693Y-135572500D01*
X102561199Y-135623300D01*
X102323022Y-136194800D01*
X102254489Y-136358811D01*
X102190378Y-136511435D01*
X102133930Y-136645016D01*
X102088389Y-136751898D01*
X102056997Y-136824426D01*
X102045813Y-136849311D01*
X102006781Y-136932323D01*
X101850500Y-136853433D01*
X101694219Y-136774543D01*
X101393957Y-136979971D01*
X101286491Y-137053152D01*
X101194958Y-137114831D01*
X101127007Y-137159905D01*
X101090285Y-137183272D01*
X101086082Y-137185400D01*
X101066531Y-137168365D01*
X101017383Y-137121280D01*
X100944805Y-137050170D01*
X100854965Y-136961061D01*
X100789578Y-136895685D01*
X100500686Y-136605971D01*
X100695565Y-136324119D01*
X100768737Y-136217079D01*
X100831660Y-136122758D01*
X100878447Y-136050146D01*
X100903212Y-136008232D01*
X100905077Y-136004136D01*
X100900939Y-135970045D01*
X100881712Y-135900702D01*
X100851628Y-135807836D01*
X100814920Y-135703176D01*
X100775821Y-135598452D01*
X100738563Y-135505394D01*
X100707378Y-135435731D01*
X100688101Y-135402841D01*
X100658597Y-135392250D01*
X100588984Y-135375765D01*
X100489310Y-135355547D01*
X100369622Y-135333757D01*
X100355400Y-135331312D01*
X100199534Y-135305631D01*
X100086196Y-135284799D01*
X100008678Y-135261152D01*
X99960270Y-135227024D01*
X99934266Y-135174753D01*
X99923958Y-135096673D01*
X99922638Y-134985120D01*
X99923600Y-134837943D01*
X99924769Y-134702062D01*
X99927995Y-134585021D01*
X99932854Y-134495810D01*
X99938923Y-134443424D01*
X99942650Y-134433549D01*
X99973175Y-134425002D01*
X100044357Y-134409320D01*
X100146869Y-134388435D01*
X100271383Y-134364282D01*
X100330000Y-134353255D01*
X100461232Y-134327132D01*
X100574426Y-134301458D01*
X100660245Y-134278594D01*
X100709352Y-134260899D01*
X100716863Y-134255454D01*
X100733992Y-134221053D01*
X100765743Y-134150910D01*
X100807156Y-134056160D01*
X100841678Y-133975391D01*
X100895273Y-133840561D01*
X100923773Y-133748134D01*
X100927619Y-133696597D01*
X100924714Y-133689826D01*
X100902433Y-133657009D01*
X100857393Y-133590995D01*
X100795545Y-133500496D01*
X100722841Y-133394223D01*
X100700188Y-133361131D01*
X100498876Y-133067093D01*
X100789778Y-132776191D01*
X101080680Y-132485289D01*
X101415057Y-132714856D01*
X101749434Y-132944422D01*
X102011267Y-132837183D01*
X102117795Y-132792390D01*
X102206040Y-132753097D01*
X102265848Y-132723967D01*
X102286725Y-132710700D01*
X102295920Y-132680203D01*
X102312255Y-132608867D01*
X102333787Y-132505836D01*
X102358570Y-132380252D01*
X102372012Y-132309527D01*
X102443672Y-131927600D01*
X102856551Y-131927600D01*
X103269430Y-131927600D01*
X103338619Y-132302250D01*
X103363161Y-132434796D01*
X103384555Y-132549694D01*
X103401057Y-132637635D01*
X103410927Y-132689308D01*
X103412779Y-132698425D01*
X103436884Y-132716035D01*
X103498682Y-132747770D01*
X103588641Y-132789030D01*
X103690373Y-132832393D01*
X103962996Y-132944835D01*
X104298056Y-132714925D01*
X104633117Y-132485016D01*
X104920276Y-132771360D01*
X105017015Y-132869978D01*
X105098576Y-132957255D01*
X105159089Y-133026572D01*
X105192684Y-133071309D01*
X105197392Y-133083879D01*
X105179950Y-133113249D01*
X105138923Y-133175995D01*
X105079828Y-133263857D01*
X105008181Y-133368572D01*
X104981174Y-133407655D01*
X104907289Y-133515852D01*
X104845129Y-133609831D01*
X104799914Y-133681467D01*
X104776865Y-133722638D01*
X104775000Y-133728446D01*
X104784457Y-133759902D01*
X104810109Y-133827530D01*
X104847875Y-133920922D01*
X104887125Y-134014367D01*
X104999250Y-134277100D01*
X105287175Y-134333618D01*
X105413519Y-134358404D01*
X105531917Y-134381603D01*
X105627356Y-134400277D01*
X105676700Y-134409905D01*
X105778300Y-134429674D01*
X105785296Y-134829887D01*
X105789007Y-134983767D01*
X105789555Y-135096100D01*
X105789555Y-135096100D01*
D14*
X90693852Y-100690000D02*
G75*
G03X90693852Y-100690000I-53852J0D01*
G01*
X91930000Y-99250000D02*
X96030000Y-99250000D01*
X96030000Y-99250000D02*
X96030000Y-116650000D01*
X96030000Y-116650000D02*
X91930000Y-116650000D01*
X91930000Y-116650000D02*
X91930000Y-99250000D01*
X182133852Y-100690000D02*
G75*
G03X182133852Y-100690000I-53852J0D01*
G01*
X183370000Y-99250000D02*
X187470000Y-99250000D01*
X187470000Y-99250000D02*
X187470000Y-116650000D01*
X187470000Y-116650000D02*
X183370000Y-116650000D01*
X183370000Y-116650000D02*
X183370000Y-99250000D01*
X170705400Y-91936200D02*
X169705400Y-91936200D01*
X169705400Y-93636200D02*
X170705400Y-93636200D01*
X170007800Y-94091200D02*
X170707800Y-94091200D01*
X170707800Y-95291200D02*
X170007800Y-95291200D01*
X172272400Y-97098600D02*
X172272400Y-96398600D01*
X173472400Y-96398600D02*
X173472400Y-97098600D01*
X176473600Y-97780400D02*
X175773600Y-97780400D01*
X175773600Y-96580400D02*
X176473600Y-96580400D01*
X173309800Y-117687800D02*
X174009800Y-117687800D01*
X174009800Y-118887800D02*
X173309800Y-118887800D01*
X176473600Y-99406000D02*
X175773600Y-99406000D01*
X175773600Y-98206000D02*
X176473600Y-98206000D01*
X173335200Y-116087600D02*
X174035200Y-116087600D01*
X174035200Y-117287600D02*
X173335200Y-117287600D01*
X109425000Y-127644400D02*
X109425000Y-125644400D01*
X106475000Y-125644400D02*
X106475000Y-127644400D01*
X109679000Y-88833200D02*
X109679000Y-86833200D01*
X106729000Y-86833200D02*
X106729000Y-88833200D01*
X104421200Y-108721400D02*
X104421200Y-106721400D01*
X101471200Y-106721400D02*
X101471200Y-108721400D01*
X111267800Y-126751600D02*
X111267800Y-127451600D01*
X110067800Y-127451600D02*
X110067800Y-126751600D01*
X111750400Y-87356200D02*
X111750400Y-88056200D01*
X110550400Y-88056200D02*
X110550400Y-87356200D01*
X106518000Y-107549200D02*
X106518000Y-108249200D01*
X105318000Y-108249200D02*
X105318000Y-107549200D01*
X119839000Y-127441200D02*
X119839000Y-125441200D01*
X116889000Y-125441200D02*
X116889000Y-127441200D01*
X120118400Y-87995000D02*
X120118400Y-85995000D01*
X117168400Y-85995000D02*
X117168400Y-87995000D01*
X115140000Y-108264200D02*
X115140000Y-106264200D01*
X112190000Y-106264200D02*
X112190000Y-108264200D01*
X123242600Y-127441200D02*
X123242600Y-125441200D01*
X120292600Y-125441200D02*
X120292600Y-127441200D01*
X123522000Y-87995000D02*
X123522000Y-85995000D01*
X120572000Y-85995000D02*
X120572000Y-87995000D01*
X118492800Y-108264200D02*
X118492800Y-106264200D01*
X115542800Y-106264200D02*
X115542800Y-108264200D01*
X128494600Y-105671600D02*
X127994600Y-105671600D01*
X127994600Y-106621600D02*
X128494600Y-106621600D01*
X136281900Y-106530900D02*
X136281900Y-108530900D01*
X139231900Y-108530900D02*
X139231900Y-106530900D01*
X133842200Y-112059200D02*
X133842200Y-111359200D01*
X135042200Y-111359200D02*
X135042200Y-112059200D01*
X139955800Y-88477600D02*
X139955800Y-86477600D01*
X137005800Y-86477600D02*
X137005800Y-88477600D01*
X141671600Y-87381600D02*
X141671600Y-88081600D01*
X140471600Y-88081600D02*
X140471600Y-87381600D01*
X132730800Y-111359200D02*
X132730800Y-112059200D01*
X131530800Y-112059200D02*
X131530800Y-111359200D01*
X150420600Y-88477600D02*
X150420600Y-86477600D01*
X147470600Y-86477600D02*
X147470600Y-88477600D01*
X153748000Y-88477600D02*
X153748000Y-86477600D01*
X150798000Y-86477600D02*
X150798000Y-88477600D01*
X148515600Y-102396800D02*
X148515600Y-100396800D01*
X145565600Y-100396800D02*
X145565600Y-102396800D01*
X148414000Y-109254800D02*
X148414000Y-107254800D01*
X145464000Y-107254800D02*
X145464000Y-109254800D01*
X155239200Y-135448600D02*
X154539200Y-135448600D01*
X154539200Y-134248600D02*
X155239200Y-134248600D01*
X150231400Y-101199200D02*
X150231400Y-101899200D01*
X149031400Y-101899200D02*
X149031400Y-101199200D01*
X148984600Y-107932600D02*
X148984600Y-108932600D01*
X150684600Y-108932600D02*
X150684600Y-107932600D01*
X160359600Y-131004200D02*
X158359600Y-131004200D01*
X158359600Y-133054200D02*
X160359600Y-133054200D01*
X156849000Y-85158600D02*
X157349000Y-85158600D01*
X157349000Y-84208600D02*
X156849000Y-84208600D01*
X157706800Y-86807800D02*
X157706800Y-88807800D01*
X160656800Y-88807800D02*
X160656800Y-86807800D01*
X159314400Y-100060200D02*
X160014400Y-100060200D01*
X160014400Y-101260200D02*
X159314400Y-101260200D01*
X160039800Y-109540600D02*
X159339800Y-109540600D01*
X159339800Y-108340600D02*
X160039800Y-108340600D01*
X155008200Y-101613600D02*
X154008200Y-101613600D01*
X154008200Y-103313600D02*
X155008200Y-103313600D01*
X154805000Y-110935400D02*
X153805000Y-110935400D01*
X153805000Y-112635400D02*
X154805000Y-112635400D01*
D13*
X142743600Y-110428000D02*
X142743600Y-109018000D01*
X143463600Y-110428000D02*
X143463600Y-109028000D01*
X143463600Y-109028000D02*
X142743600Y-109728000D01*
X142743600Y-109728000D02*
X143463600Y-110428000D01*
X155035200Y-131934000D02*
X155035200Y-132734000D01*
X154235200Y-131934000D02*
X154235200Y-132734000D01*
X154235200Y-132734000D02*
X155035200Y-132334000D01*
X155035200Y-132334000D02*
X154235200Y-131934000D01*
X141380800Y-99452200D02*
X141380800Y-100862200D01*
X140660800Y-99452200D02*
X140660800Y-100852200D01*
X140660800Y-100852200D02*
X141380800Y-100152200D01*
X141380800Y-100152200D02*
X140660800Y-99452200D01*
X110432400Y-118581800D02*
X115932400Y-118581800D01*
X115932400Y-118581800D02*
X115932400Y-123581800D01*
X115932400Y-123581800D02*
X110432400Y-123581800D01*
X110432400Y-123581800D02*
X110432400Y-118581800D01*
X110965800Y-79440400D02*
X116465800Y-79440400D01*
X116465800Y-79440400D02*
X116465800Y-84440400D01*
X116465800Y-84440400D02*
X110965800Y-84440400D01*
X110965800Y-84440400D02*
X110965800Y-79440400D01*
X105682600Y-99582600D02*
X111182600Y-99582600D01*
X111182600Y-99582600D02*
X111182600Y-104582600D01*
X111182600Y-104582600D02*
X105682600Y-104582600D01*
X105682600Y-104582600D02*
X105682600Y-99582600D01*
X146077000Y-123290000D02*
X141827000Y-123290000D01*
X137827000Y-123290000D02*
X133577000Y-123290000D01*
X146077000Y-135790000D02*
X141827000Y-135790000D01*
X133577000Y-135790000D02*
X133577000Y-123290000D01*
X146077000Y-123290000D02*
X146077000Y-135790000D01*
X137827000Y-135790000D02*
X133577000Y-135790000D01*
X140455200Y-79465800D02*
X145955200Y-79465800D01*
X145955200Y-79465800D02*
X145955200Y-84465800D01*
X145955200Y-84465800D02*
X140455200Y-84465800D01*
X140455200Y-84465800D02*
X140455200Y-79465800D01*
X139930500Y-108325100D02*
X139930500Y-102825100D01*
X139930500Y-102825100D02*
X144930500Y-102825100D01*
X144930500Y-102825100D02*
X144930500Y-108325100D01*
X144930500Y-108325100D02*
X139930500Y-108325100D01*
X132327200Y-99150800D02*
X137827200Y-99150800D01*
X137827200Y-99150800D02*
X137827200Y-104150800D01*
X137827200Y-104150800D02*
X132327200Y-104150800D01*
X132327200Y-104150800D02*
X132327200Y-99150800D01*
X95631000Y-127101600D02*
X95631000Y-122529600D01*
X98171000Y-127101600D02*
X98171000Y-122529600D01*
X103251000Y-127101600D02*
X103251000Y-122529600D01*
X103251000Y-122529600D02*
X89535000Y-122529600D01*
X89535000Y-122529600D02*
X89535000Y-127101600D01*
X89535000Y-127101600D02*
X103251000Y-127101600D01*
X95631000Y-89966800D02*
X95631000Y-85394800D01*
X98171000Y-89966800D02*
X98171000Y-85394800D01*
X103251000Y-89966800D02*
X103251000Y-85394800D01*
X103251000Y-85394800D02*
X89535000Y-85394800D01*
X89535000Y-85394800D02*
X89535000Y-89966800D01*
X89535000Y-89966800D02*
X103251000Y-89966800D01*
X95631000Y-95377000D02*
X95631000Y-90805000D01*
X98171000Y-95377000D02*
X98171000Y-90805000D01*
X103251000Y-95377000D02*
X103251000Y-90805000D01*
X103251000Y-90805000D02*
X89535000Y-90805000D01*
X89535000Y-90805000D02*
X89535000Y-95377000D01*
X89535000Y-95377000D02*
X103251000Y-95377000D01*
X183642000Y-87960200D02*
X183642000Y-92532200D01*
X181102000Y-87960200D02*
X181102000Y-92532200D01*
X176022000Y-87960200D02*
X176022000Y-92532200D01*
X176022000Y-92532200D02*
X189738000Y-92532200D01*
X189738000Y-92532200D02*
X189738000Y-87960200D01*
X189738000Y-87960200D02*
X176022000Y-87960200D01*
X129870200Y-82753200D02*
X134442200Y-82753200D01*
X129870200Y-85293200D02*
X134442200Y-85293200D01*
X129870200Y-90373200D02*
X134442200Y-90373200D01*
X134442200Y-90373200D02*
X134442200Y-76657200D01*
X134442200Y-76657200D02*
X129870200Y-76657200D01*
X129870200Y-76657200D02*
X129870200Y-90373200D01*
X183642000Y-122428000D02*
X183642000Y-127000000D01*
X181102000Y-122428000D02*
X181102000Y-127000000D01*
X176022000Y-122428000D02*
X176022000Y-127000000D01*
X176022000Y-127000000D02*
X189738000Y-127000000D01*
X189738000Y-127000000D02*
X189738000Y-122428000D01*
X189738000Y-122428000D02*
X176022000Y-122428000D01*
D14*
X146913600Y-127609600D02*
X146913600Y-130657600D01*
X146913600Y-130657600D02*
X154025600Y-130657600D01*
X154025600Y-130657600D02*
X154025600Y-127609600D01*
X146913600Y-124561600D02*
X146913600Y-123799600D01*
X146913600Y-123799600D02*
X148437600Y-121513600D01*
X148437600Y-121513600D02*
X152501600Y-121513600D01*
X152501600Y-121513600D02*
X154025600Y-123799600D01*
X154025600Y-123799600D02*
X154025600Y-124561600D01*
X116069600Y-126310200D02*
X116069600Y-125810200D01*
X115019600Y-125810200D02*
X115019600Y-126310200D01*
X113770600Y-129201400D02*
X114270600Y-129201400D01*
X114270600Y-128151400D02*
X113770600Y-128151400D01*
X116425200Y-87092600D02*
X116425200Y-86592600D01*
X115375200Y-86592600D02*
X115375200Y-87092600D01*
X114126200Y-89882200D02*
X114626200Y-89882200D01*
X114626200Y-88832200D02*
X114126200Y-88832200D01*
X111319800Y-107209400D02*
X111319800Y-106709400D01*
X110269800Y-106709400D02*
X110269800Y-107209400D01*
X109071600Y-109999000D02*
X109571600Y-109999000D01*
X109571600Y-108949000D02*
X109071600Y-108949000D01*
X129485200Y-104275400D02*
X128985200Y-104275400D01*
X128985200Y-105325400D02*
X129485200Y-105325400D01*
X129485200Y-108237800D02*
X128985200Y-108237800D01*
X128985200Y-109287800D02*
X129485200Y-109287800D01*
X127694200Y-102442200D02*
X127694200Y-102942200D01*
X128744200Y-102942200D02*
X128744200Y-102442200D01*
X129675400Y-110468600D02*
X129675400Y-110968600D01*
X130725400Y-110968600D02*
X130725400Y-110468600D01*
X130259600Y-102442200D02*
X130259600Y-102942200D01*
X131309600Y-102942200D02*
X131309600Y-102442200D01*
X146194000Y-87143400D02*
X146194000Y-86643400D01*
X145144000Y-86643400D02*
X145144000Y-87143400D01*
X143920400Y-89907600D02*
X144420400Y-89907600D01*
X144420400Y-88857600D02*
X143920400Y-88857600D01*
X127364000Y-110468600D02*
X127364000Y-110968600D01*
X128414000Y-110968600D02*
X128414000Y-110468600D01*
X159177800Y-134603000D02*
X158677800Y-134603000D01*
X158677800Y-135653000D02*
X159177800Y-135653000D01*
X149584600Y-137329400D02*
X150084600Y-137329400D01*
X150084600Y-136279400D02*
X149584600Y-136279400D01*
X157776400Y-107082400D02*
X157776400Y-106582400D01*
X156726400Y-106582400D02*
X156726400Y-107082400D01*
X157725600Y-100707000D02*
X157725600Y-100207000D01*
X156675600Y-100207000D02*
X156675600Y-100707000D01*
X157725600Y-98675000D02*
X157725600Y-98175000D01*
X156675600Y-98175000D02*
X156675600Y-98675000D01*
X157776400Y-109114400D02*
X157776400Y-108614400D01*
X156726400Y-108614400D02*
X156726400Y-109114400D01*
X158957200Y-99381800D02*
X159457200Y-99381800D01*
X159457200Y-98331800D02*
X158957200Y-98331800D01*
X158982600Y-107789200D02*
X159482600Y-107789200D01*
X159482600Y-106739200D02*
X158982600Y-106739200D01*
D13*
X128600357Y-133375400D02*
G75*
G03X128600357Y-133375400I-1270157J0D01*
G01*
X126390557Y-81305400D02*
G75*
G03X126390557Y-81305400I-1270157J0D01*
G01*
X121615357Y-101600000D02*
G75*
G03X121615357Y-101600000I-1270157J0D01*
G01*
X128511457Y-123063000D02*
G75*
G03X128511457Y-123063000I-1270157J0D01*
G01*
X172186757Y-82283300D02*
G75*
G03X172186757Y-82283300I-1270157J0D01*
G01*
X165989157Y-96037400D02*
G75*
G03X165989157Y-96037400I-1270157J0D01*
G01*
X165150957Y-111772700D02*
G75*
G03X165150957Y-111772700I-1270157J0D01*
G01*
X163588857Y-125056900D02*
G75*
G03X163588857Y-125056900I-1270157J0D01*
G01*
D14*
X169646600Y-97028000D02*
X169646600Y-97663000D01*
X169646600Y-97663000D02*
X170662600Y-97663000D01*
X170662600Y-95885000D02*
X169646600Y-95885000D01*
X169646600Y-95885000D02*
X169646600Y-96520000D01*
X169519600Y-97028000D02*
X169646600Y-97028000D01*
X169646600Y-96520000D02*
X169519600Y-96520000D01*
X170662600Y-97663000D02*
X170662600Y-95885000D01*
X169519600Y-96520000D02*
X169519600Y-97028000D01*
D13*
X157230800Y-113855500D02*
G75*
G03X157230800Y-113855500I-500100J0D01*
G01*
X159681900Y-103581200D02*
G75*
G03X159681900Y-103581200I-500100J0D01*
G01*
X163695100Y-86258400D02*
G75*
G03X163695100Y-86258400I-500100J0D01*
G01*
X156430700Y-125768100D02*
G75*
G03X156430700Y-125768100I-500100J0D01*
G01*
X156735500Y-81305400D02*
G75*
G03X156735500Y-81305400I-500100J0D01*
G01*
X149115500Y-113245900D02*
G75*
G03X149115500Y-113245900I-500100J0D01*
G01*
X149318700Y-96189800D02*
G75*
G03X149318700Y-96189800I-500100J0D01*
G01*
X149496500Y-81305400D02*
G75*
G03X149496500Y-81305400I-500100J0D01*
G01*
X114546100Y-101803200D02*
G75*
G03X114546100Y-101803200I-500100J0D01*
G01*
X119676900Y-81280000D02*
G75*
G03X119676900Y-81280000I-500100J0D01*
G01*
X119473700Y-120345200D02*
G75*
G03X119473700Y-120345200I-500100J0D01*
G01*
X155088321Y-89668400D02*
G75*
G03X155088321Y-89668400I-44721J0D01*
G01*
X157303600Y-89028400D02*
X157303600Y-86028400D01*
X154303600Y-86028400D02*
X154303600Y-89028400D01*
X155977910Y-100827600D02*
G75*
G03X155977910Y-100827600I-58310J0D01*
G01*
X155279600Y-99177600D02*
X153279600Y-99177600D01*
X153279600Y-101177600D02*
X155279600Y-101177600D01*
X155991600Y-109284200D02*
G75*
G03X155991600Y-109284200I-60000J0D01*
G01*
X155271600Y-107034200D02*
X152271600Y-107034200D01*
X152271600Y-110034200D02*
X155271600Y-110034200D01*
X149476195Y-135711600D02*
G75*
G03X149476195Y-135711600I-98995J0D01*
G01*
X151767200Y-134261600D02*
X151767200Y-132641600D01*
X148867200Y-132641600D02*
X148867200Y-134261600D01*
X172779268Y-115580000D02*
G75*
G03X172779268Y-115580000I-94868J0D01*
G01*
X177304400Y-113160000D02*
X177304400Y-110360000D01*
X172504400Y-110360000D02*
X172504400Y-113160000D01*
X177219268Y-99888200D02*
G75*
G03X177219268Y-99888200I-94868J0D01*
G01*
X172504400Y-102308200D02*
X172504400Y-105108200D01*
X177304400Y-105108200D02*
X177304400Y-102308200D01*
X144516262Y-84877200D02*
G75*
G03X144516262Y-84877200I-82462J0D01*
G01*
X142133800Y-85517200D02*
X142133800Y-88117200D01*
X144733800Y-88117200D02*
X144733800Y-85517200D01*
X109642062Y-104943200D02*
G75*
G03X109642062Y-104943200I-82462J0D01*
G01*
X107259600Y-105583200D02*
X107259600Y-108183200D01*
X109859600Y-108183200D02*
X109859600Y-105583200D01*
X114722062Y-84851800D02*
G75*
G03X114722062Y-84851800I-82462J0D01*
G01*
X112339600Y-85491800D02*
X112339600Y-88091800D01*
X114939600Y-88091800D02*
X114939600Y-85491800D01*
X114341062Y-124069400D02*
G75*
G03X114341062Y-124069400I-82462J0D01*
G01*
X111958600Y-124709400D02*
X111958600Y-127309400D01*
X114558600Y-127309400D02*
X114558600Y-124709400D01*
X134659500Y-105378500D02*
X135159500Y-105878500D01*
X135159500Y-108878500D02*
X135159500Y-109378500D01*
X135159500Y-109378500D02*
X134659500Y-109378500D01*
X131159500Y-105878500D02*
X131159500Y-105378500D01*
X131159500Y-105378500D02*
X131659500Y-105378500D01*
X131159500Y-108878500D02*
X131159500Y-109378500D01*
X131159500Y-109378500D02*
X131659500Y-109378500D01*
D14*
X159512520Y-136776460D02*
X160909520Y-136776460D01*
X154937520Y-136776460D02*
X153413520Y-136776460D01*
X159208520Y-136014460D02*
X159208520Y-137538460D01*
X158914520Y-136014460D02*
X158914520Y-137538460D01*
X154940520Y-136776460D02*
X154940520Y-137538460D01*
X154940520Y-137538460D02*
X159512520Y-137538460D01*
X159512520Y-137538460D02*
X159512520Y-136014460D01*
X159512520Y-136014460D02*
X154940520Y-136014460D01*
X154940520Y-136014460D02*
X154940520Y-136776460D01*
D13*
X101549357Y-99517200D02*
G75*
G03X101549357Y-99517200I-1270157J0D01*
G01*
D14*
X122018500Y-122149900D02*
X123218500Y-122149900D01*
X123218500Y-123899900D02*
X122018500Y-123899900D01*
X121929600Y-82741800D02*
X123129600Y-82741800D01*
X123129600Y-84491800D02*
X121929600Y-84491800D01*
X116875000Y-103239600D02*
X118075000Y-103239600D01*
X118075000Y-104989600D02*
X116875000Y-104989600D01*
X152130200Y-83453000D02*
X153330200Y-83453000D01*
X153330200Y-85203000D02*
X152130200Y-85203000D01*
X158213500Y-127699800D02*
X159413500Y-127699800D01*
X159413500Y-129449800D02*
X158213500Y-129449800D01*
X162709300Y-88482200D02*
X163909300Y-88482200D01*
X163909300Y-90232200D02*
X162709300Y-90232200D01*
X162569600Y-99759800D02*
X163769600Y-99759800D01*
X163769600Y-101509800D02*
X162569600Y-101509800D01*
X158848500Y-111062800D02*
X160048500Y-111062800D01*
X160048500Y-112812800D02*
X158848500Y-112812800D01*
D15*
X166385725Y-101739095D02*
X166850182Y-101739095D01*
X166617953Y-102551895D02*
X166617953Y-101739095D01*
X167121115Y-102551895D02*
X167121115Y-101739095D01*
X167430753Y-101739095D01*
X167508162Y-101777800D01*
X167546867Y-101816505D01*
X167585572Y-101893914D01*
X167585572Y-102010029D01*
X167546867Y-102087438D01*
X167508162Y-102126143D01*
X167430753Y-102164848D01*
X167121115Y-102164848D01*
X167972620Y-102551895D02*
X168127439Y-102551895D01*
X168204848Y-102513190D01*
X168243553Y-102474486D01*
X168320962Y-102358371D01*
X168359667Y-102203552D01*
X168359667Y-101893914D01*
X168320962Y-101816505D01*
X168282258Y-101777800D01*
X168204848Y-101739095D01*
X168050029Y-101739095D01*
X167972620Y-101777800D01*
X167933915Y-101816505D01*
X167895210Y-101893914D01*
X167895210Y-102087438D01*
X167933915Y-102164848D01*
X167972620Y-102203552D01*
X168050029Y-102242257D01*
X168204848Y-102242257D01*
X168282258Y-102203552D01*
X168320962Y-102164848D01*
X168359667Y-102087438D01*
X151420286Y-97673886D02*
X151381581Y-97712590D01*
X151265467Y-97751295D01*
X151188057Y-97751295D01*
X151071943Y-97712590D01*
X150994534Y-97635181D01*
X150955829Y-97557771D01*
X150917124Y-97402952D01*
X150917124Y-97286838D01*
X150955829Y-97132019D01*
X150994534Y-97054610D01*
X151071943Y-96977200D01*
X151188057Y-96938495D01*
X151265467Y-96938495D01*
X151381581Y-96977200D01*
X151420286Y-97015905D01*
X151691219Y-96938495D02*
X152194381Y-96938495D01*
X151923448Y-97248133D01*
X152039562Y-97248133D01*
X152116972Y-97286838D01*
X152155676Y-97325543D01*
X152194381Y-97402952D01*
X152194381Y-97596476D01*
X152155676Y-97673886D01*
X152116972Y-97712590D01*
X152039562Y-97751295D01*
X151807334Y-97751295D01*
X151729924Y-97712590D01*
X151691219Y-97673886D01*
X152891067Y-96938495D02*
X152736248Y-96938495D01*
X152658838Y-96977200D01*
X152620133Y-97015905D01*
X152542724Y-97132019D01*
X152504019Y-97286838D01*
X152504019Y-97596476D01*
X152542724Y-97673886D01*
X152581429Y-97712590D01*
X152658838Y-97751295D01*
X152813657Y-97751295D01*
X152891067Y-97712590D01*
X152929771Y-97673886D01*
X152968476Y-97596476D01*
X152968476Y-97402952D01*
X152929771Y-97325543D01*
X152891067Y-97286838D01*
X152813657Y-97248133D01*
X152658838Y-97248133D01*
X152581429Y-97286838D01*
X152542724Y-97325543D01*
X152504019Y-97402952D01*
X125359886Y-107706886D02*
X125321181Y-107745590D01*
X125205067Y-107784295D01*
X125127657Y-107784295D01*
X125011543Y-107745590D01*
X124934134Y-107668181D01*
X124895429Y-107590771D01*
X124856724Y-107435952D01*
X124856724Y-107319838D01*
X124895429Y-107165019D01*
X124934134Y-107087610D01*
X125011543Y-107010200D01*
X125127657Y-106971495D01*
X125205067Y-106971495D01*
X125321181Y-107010200D01*
X125359886Y-107048905D01*
X125669524Y-107048905D02*
X125708229Y-107010200D01*
X125785638Y-106971495D01*
X125979162Y-106971495D01*
X126056572Y-107010200D01*
X126095276Y-107048905D01*
X126133981Y-107126314D01*
X126133981Y-107203724D01*
X126095276Y-107319838D01*
X125630819Y-107784295D01*
X126133981Y-107784295D01*
X126908076Y-107784295D02*
X126443619Y-107784295D01*
X126675848Y-107784295D02*
X126675848Y-106971495D01*
X126598438Y-107087610D01*
X126521029Y-107165019D01*
X126443619Y-107203724D01*
X93380077Y-97317695D02*
X93380077Y-96504895D01*
X93689715Y-96504895D01*
X93767124Y-96543600D01*
X93805829Y-96582305D01*
X93844534Y-96659714D01*
X93844534Y-96775829D01*
X93805829Y-96853238D01*
X93767124Y-96891943D01*
X93689715Y-96930648D01*
X93380077Y-96930648D01*
X94618629Y-97317695D02*
X94154172Y-97317695D01*
X94386401Y-97317695D02*
X94386401Y-96504895D01*
X94308991Y-96621010D01*
X94231582Y-96698419D01*
X94154172Y-96737124D01*
D14*
X94432381Y-111711905D02*
X93956190Y-112045239D01*
X94432381Y-112283334D02*
X93432381Y-112283334D01*
X93432381Y-111902381D01*
X93480000Y-111807143D01*
X93527619Y-111759524D01*
X93622857Y-111711905D01*
X93765714Y-111711905D01*
X93860952Y-111759524D01*
X93908571Y-111807143D01*
X93956190Y-111902381D01*
X93956190Y-112283334D01*
X93908571Y-111283334D02*
X93908571Y-110950000D01*
X94432381Y-110807143D02*
X94432381Y-111283334D01*
X93432381Y-111283334D01*
X93432381Y-110807143D01*
X94337143Y-109807143D02*
X94384762Y-109854762D01*
X94432381Y-109997619D01*
X94432381Y-110092857D01*
X94384762Y-110235715D01*
X94289524Y-110330953D01*
X94194286Y-110378572D01*
X94003810Y-110426191D01*
X93860952Y-110426191D01*
X93670476Y-110378572D01*
X93575238Y-110330953D01*
X93480000Y-110235715D01*
X93432381Y-110092857D01*
X93432381Y-109997619D01*
X93480000Y-109854762D01*
X93527619Y-109807143D01*
X93908571Y-109378572D02*
X93908571Y-109045238D01*
X94432381Y-108902381D02*
X94432381Y-109378572D01*
X93432381Y-109378572D01*
X93432381Y-108902381D01*
X94432381Y-108473810D02*
X93432381Y-108473810D01*
X93432381Y-108092857D01*
X93480000Y-107997619D01*
X93527619Y-107950000D01*
X93622857Y-107902381D01*
X93765714Y-107902381D01*
X93860952Y-107950000D01*
X93908571Y-107997619D01*
X93956190Y-108092857D01*
X93956190Y-108473810D01*
X93432381Y-107616667D02*
X93432381Y-107045238D01*
X94432381Y-107330953D02*
X93432381Y-107330953D01*
X94146667Y-106759524D02*
X94146667Y-106283333D01*
X94432381Y-106854762D02*
X93432381Y-106521429D01*
X94432381Y-106188095D01*
X94337143Y-105283333D02*
X94384762Y-105330952D01*
X94432381Y-105473809D01*
X94432381Y-105569047D01*
X94384762Y-105711905D01*
X94289524Y-105807143D01*
X94194286Y-105854762D01*
X94003810Y-105902381D01*
X93860952Y-105902381D01*
X93670476Y-105854762D01*
X93575238Y-105807143D01*
X93480000Y-105711905D01*
X93432381Y-105569047D01*
X93432381Y-105473809D01*
X93480000Y-105330952D01*
X93527619Y-105283333D01*
X94432381Y-104378571D02*
X94432381Y-104854762D01*
X93432381Y-104854762D01*
X93908571Y-104045238D02*
X93908571Y-103711904D01*
X94432381Y-103569047D02*
X94432381Y-104045238D01*
X93432381Y-104045238D01*
X93432381Y-103569047D01*
D15*
X184820077Y-97317695D02*
X184820077Y-96504895D01*
X185129715Y-96504895D01*
X185207124Y-96543600D01*
X185245829Y-96582305D01*
X185284534Y-96659714D01*
X185284534Y-96775829D01*
X185245829Y-96853238D01*
X185207124Y-96891943D01*
X185129715Y-96930648D01*
X184820077Y-96930648D01*
X185594172Y-96582305D02*
X185632877Y-96543600D01*
X185710286Y-96504895D01*
X185903810Y-96504895D01*
X185981220Y-96543600D01*
X186019924Y-96582305D01*
X186058629Y-96659714D01*
X186058629Y-96737124D01*
X186019924Y-96853238D01*
X185555467Y-97317695D01*
X186058629Y-97317695D01*
D14*
X185872381Y-111711905D02*
X185396190Y-112045239D01*
X185872381Y-112283334D02*
X184872381Y-112283334D01*
X184872381Y-111902381D01*
X184920000Y-111807143D01*
X184967619Y-111759524D01*
X185062857Y-111711905D01*
X185205714Y-111711905D01*
X185300952Y-111759524D01*
X185348571Y-111807143D01*
X185396190Y-111902381D01*
X185396190Y-112283334D01*
X185348571Y-111283334D02*
X185348571Y-110950000D01*
X185872381Y-110807143D02*
X185872381Y-111283334D01*
X184872381Y-111283334D01*
X184872381Y-110807143D01*
X185777143Y-109807143D02*
X185824762Y-109854762D01*
X185872381Y-109997619D01*
X185872381Y-110092857D01*
X185824762Y-110235715D01*
X185729524Y-110330953D01*
X185634286Y-110378572D01*
X185443810Y-110426191D01*
X185300952Y-110426191D01*
X185110476Y-110378572D01*
X185015238Y-110330953D01*
X184920000Y-110235715D01*
X184872381Y-110092857D01*
X184872381Y-109997619D01*
X184920000Y-109854762D01*
X184967619Y-109807143D01*
X185348571Y-109378572D02*
X185348571Y-109045238D01*
X185872381Y-108902381D02*
X185872381Y-109378572D01*
X184872381Y-109378572D01*
X184872381Y-108902381D01*
X185872381Y-108473810D02*
X184872381Y-108473810D01*
X184872381Y-108092857D01*
X184920000Y-107997619D01*
X184967619Y-107950000D01*
X185062857Y-107902381D01*
X185205714Y-107902381D01*
X185300952Y-107950000D01*
X185348571Y-107997619D01*
X185396190Y-108092857D01*
X185396190Y-108473810D01*
X184872381Y-107616667D02*
X184872381Y-107045238D01*
X185872381Y-107330953D02*
X184872381Y-107330953D01*
X185586667Y-106759524D02*
X185586667Y-106283333D01*
X185872381Y-106854762D02*
X184872381Y-106521429D01*
X185872381Y-106188095D01*
X185777143Y-105283333D02*
X185824762Y-105330952D01*
X185872381Y-105473809D01*
X185872381Y-105569047D01*
X185824762Y-105711905D01*
X185729524Y-105807143D01*
X185634286Y-105854762D01*
X185443810Y-105902381D01*
X185300952Y-105902381D01*
X185110476Y-105854762D01*
X185015238Y-105807143D01*
X184920000Y-105711905D01*
X184872381Y-105569047D01*
X184872381Y-105473809D01*
X184920000Y-105330952D01*
X184967619Y-105283333D01*
X185872381Y-104378571D02*
X185872381Y-104854762D01*
X184872381Y-104854762D01*
X185348571Y-104045238D02*
X185348571Y-103711904D01*
X185872381Y-103569047D02*
X185872381Y-104045238D01*
X184872381Y-104045238D01*
X184872381Y-103569047D01*
D15*
X173041734Y-93457486D02*
X173003029Y-93496190D01*
X172886915Y-93534895D01*
X172809505Y-93534895D01*
X172693391Y-93496190D01*
X172615982Y-93418781D01*
X172577277Y-93341371D01*
X172538572Y-93186552D01*
X172538572Y-93070438D01*
X172577277Y-92915619D01*
X172615982Y-92838210D01*
X172693391Y-92760800D01*
X172809505Y-92722095D01*
X172886915Y-92722095D01*
X173003029Y-92760800D01*
X173041734Y-92799505D01*
X173815829Y-93534895D02*
X173351372Y-93534895D01*
X173583601Y-93534895D02*
X173583601Y-92722095D01*
X173506191Y-92838210D01*
X173428782Y-92915619D01*
X173351372Y-92954324D01*
X172533734Y-94803686D02*
X172495029Y-94842390D01*
X172378915Y-94881095D01*
X172301505Y-94881095D01*
X172185391Y-94842390D01*
X172107982Y-94764981D01*
X172069277Y-94687571D01*
X172030572Y-94532752D01*
X172030572Y-94416638D01*
X172069277Y-94261819D01*
X172107982Y-94184410D01*
X172185391Y-94107000D01*
X172301505Y-94068295D01*
X172378915Y-94068295D01*
X172495029Y-94107000D01*
X172533734Y-94145705D01*
X172843372Y-94145705D02*
X172882077Y-94107000D01*
X172959486Y-94068295D01*
X173153010Y-94068295D01*
X173230420Y-94107000D01*
X173269124Y-94145705D01*
X173307829Y-94223114D01*
X173307829Y-94300524D01*
X173269124Y-94416638D01*
X172804667Y-94881095D01*
X173307829Y-94881095D01*
X174337134Y-96073686D02*
X174298429Y-96112390D01*
X174182315Y-96151095D01*
X174104905Y-96151095D01*
X173988791Y-96112390D01*
X173911382Y-96034981D01*
X173872677Y-95957571D01*
X173833972Y-95802752D01*
X173833972Y-95686638D01*
X173872677Y-95531819D01*
X173911382Y-95454410D01*
X173988791Y-95377000D01*
X174104905Y-95338295D01*
X174182315Y-95338295D01*
X174298429Y-95377000D01*
X174337134Y-95415705D01*
X174608067Y-95338295D02*
X175111229Y-95338295D01*
X174840296Y-95647933D01*
X174956410Y-95647933D01*
X175033820Y-95686638D01*
X175072524Y-95725343D01*
X175111229Y-95802752D01*
X175111229Y-95996276D01*
X175072524Y-96073686D01*
X175033820Y-96112390D01*
X174956410Y-96151095D01*
X174724182Y-96151095D01*
X174646772Y-96112390D01*
X174608067Y-96073686D01*
X178197934Y-97546886D02*
X178159229Y-97585590D01*
X178043115Y-97624295D01*
X177965705Y-97624295D01*
X177849591Y-97585590D01*
X177772182Y-97508181D01*
X177733477Y-97430771D01*
X177694772Y-97275952D01*
X177694772Y-97159838D01*
X177733477Y-97005019D01*
X177772182Y-96927610D01*
X177849591Y-96850200D01*
X177965705Y-96811495D01*
X178043115Y-96811495D01*
X178159229Y-96850200D01*
X178197934Y-96888905D01*
X178894620Y-97082429D02*
X178894620Y-97624295D01*
X178701096Y-96772790D02*
X178507572Y-97353362D01*
X179010734Y-97353362D01*
X171263734Y-118603486D02*
X171225029Y-118642190D01*
X171108915Y-118680895D01*
X171031505Y-118680895D01*
X170915391Y-118642190D01*
X170837982Y-118564781D01*
X170799277Y-118487371D01*
X170760572Y-118332552D01*
X170760572Y-118216438D01*
X170799277Y-118061619D01*
X170837982Y-117984210D01*
X170915391Y-117906800D01*
X171031505Y-117868095D01*
X171108915Y-117868095D01*
X171225029Y-117906800D01*
X171263734Y-117945505D01*
X171999124Y-117868095D02*
X171612077Y-117868095D01*
X171573372Y-118255143D01*
X171612077Y-118216438D01*
X171689486Y-118177733D01*
X171883010Y-118177733D01*
X171960420Y-118216438D01*
X171999124Y-118255143D01*
X172037829Y-118332552D01*
X172037829Y-118526076D01*
X171999124Y-118603486D01*
X171960420Y-118642190D01*
X171883010Y-118680895D01*
X171689486Y-118680895D01*
X171612077Y-118642190D01*
X171573372Y-118603486D01*
X178210634Y-99096286D02*
X178171929Y-99134990D01*
X178055815Y-99173695D01*
X177978405Y-99173695D01*
X177862291Y-99134990D01*
X177784882Y-99057581D01*
X177746177Y-98980171D01*
X177707472Y-98825352D01*
X177707472Y-98709238D01*
X177746177Y-98554419D01*
X177784882Y-98477010D01*
X177862291Y-98399600D01*
X177978405Y-98360895D01*
X178055815Y-98360895D01*
X178171929Y-98399600D01*
X178210634Y-98438305D01*
X178907320Y-98360895D02*
X178752501Y-98360895D01*
X178675091Y-98399600D01*
X178636386Y-98438305D01*
X178558977Y-98554419D01*
X178520272Y-98709238D01*
X178520272Y-99018876D01*
X178558977Y-99096286D01*
X178597682Y-99134990D01*
X178675091Y-99173695D01*
X178829910Y-99173695D01*
X178907320Y-99134990D01*
X178946024Y-99096286D01*
X178984729Y-99018876D01*
X178984729Y-98825352D01*
X178946024Y-98747943D01*
X178907320Y-98709238D01*
X178829910Y-98670533D01*
X178675091Y-98670533D01*
X178597682Y-98709238D01*
X178558977Y-98747943D01*
X178520272Y-98825352D01*
X171238334Y-117155686D02*
X171199629Y-117194390D01*
X171083515Y-117233095D01*
X171006105Y-117233095D01*
X170889991Y-117194390D01*
X170812582Y-117116981D01*
X170773877Y-117039571D01*
X170735172Y-116884752D01*
X170735172Y-116768638D01*
X170773877Y-116613819D01*
X170812582Y-116536410D01*
X170889991Y-116459000D01*
X171006105Y-116420295D01*
X171083515Y-116420295D01*
X171199629Y-116459000D01*
X171238334Y-116497705D01*
X171509267Y-116420295D02*
X172051134Y-116420295D01*
X171702791Y-117233095D01*
X107814534Y-129804886D02*
X107775829Y-129843590D01*
X107659715Y-129882295D01*
X107582305Y-129882295D01*
X107466191Y-129843590D01*
X107388782Y-129766181D01*
X107350077Y-129688771D01*
X107311372Y-129533952D01*
X107311372Y-129417838D01*
X107350077Y-129263019D01*
X107388782Y-129185610D01*
X107466191Y-129108200D01*
X107582305Y-129069495D01*
X107659715Y-129069495D01*
X107775829Y-129108200D01*
X107814534Y-129146905D01*
X108278991Y-129417838D02*
X108201582Y-129379133D01*
X108162877Y-129340429D01*
X108124172Y-129263019D01*
X108124172Y-129224314D01*
X108162877Y-129146905D01*
X108201582Y-129108200D01*
X108278991Y-129069495D01*
X108433810Y-129069495D01*
X108511220Y-129108200D01*
X108549924Y-129146905D01*
X108588629Y-129224314D01*
X108588629Y-129263019D01*
X108549924Y-129340429D01*
X108511220Y-129379133D01*
X108433810Y-129417838D01*
X108278991Y-129417838D01*
X108201582Y-129456543D01*
X108162877Y-129495248D01*
X108124172Y-129572657D01*
X108124172Y-129727476D01*
X108162877Y-129804886D01*
X108201582Y-129843590D01*
X108278991Y-129882295D01*
X108433810Y-129882295D01*
X108511220Y-129843590D01*
X108549924Y-129804886D01*
X108588629Y-129727476D01*
X108588629Y-129572657D01*
X108549924Y-129495248D01*
X108511220Y-129456543D01*
X108433810Y-129417838D01*
X108068534Y-91171486D02*
X108029829Y-91210190D01*
X107913715Y-91248895D01*
X107836305Y-91248895D01*
X107720191Y-91210190D01*
X107642782Y-91132781D01*
X107604077Y-91055371D01*
X107565372Y-90900552D01*
X107565372Y-90784438D01*
X107604077Y-90629619D01*
X107642782Y-90552210D01*
X107720191Y-90474800D01*
X107836305Y-90436095D01*
X107913715Y-90436095D01*
X108029829Y-90474800D01*
X108068534Y-90513505D01*
X108455582Y-91248895D02*
X108610401Y-91248895D01*
X108687810Y-91210190D01*
X108726515Y-91171486D01*
X108803924Y-91055371D01*
X108842629Y-90900552D01*
X108842629Y-90590914D01*
X108803924Y-90513505D01*
X108765220Y-90474800D01*
X108687810Y-90436095D01*
X108532991Y-90436095D01*
X108455582Y-90474800D01*
X108416877Y-90513505D01*
X108378172Y-90590914D01*
X108378172Y-90784438D01*
X108416877Y-90861848D01*
X108455582Y-90900552D01*
X108532991Y-90939257D01*
X108687810Y-90939257D01*
X108765220Y-90900552D01*
X108803924Y-90861848D01*
X108842629Y-90784438D01*
X102322086Y-111008886D02*
X102283381Y-111047590D01*
X102167267Y-111086295D01*
X102089857Y-111086295D01*
X101973743Y-111047590D01*
X101896334Y-110970181D01*
X101857629Y-110892771D01*
X101818924Y-110737952D01*
X101818924Y-110621838D01*
X101857629Y-110467019D01*
X101896334Y-110389610D01*
X101973743Y-110312200D01*
X102089857Y-110273495D01*
X102167267Y-110273495D01*
X102283381Y-110312200D01*
X102322086Y-110350905D01*
X103096181Y-111086295D02*
X102631724Y-111086295D01*
X102863953Y-111086295D02*
X102863953Y-110273495D01*
X102786543Y-110389610D01*
X102709134Y-110467019D01*
X102631724Y-110505724D01*
X103599343Y-110273495D02*
X103676752Y-110273495D01*
X103754162Y-110312200D01*
X103792867Y-110350905D01*
X103831571Y-110428314D01*
X103870276Y-110583133D01*
X103870276Y-110776657D01*
X103831571Y-110931476D01*
X103792867Y-111008886D01*
X103754162Y-111047590D01*
X103676752Y-111086295D01*
X103599343Y-111086295D01*
X103521933Y-111047590D01*
X103483229Y-111008886D01*
X103444524Y-110931476D01*
X103405819Y-110776657D01*
X103405819Y-110583133D01*
X103444524Y-110428314D01*
X103483229Y-110350905D01*
X103521933Y-110312200D01*
X103599343Y-110273495D01*
X110272286Y-129525486D02*
X110233581Y-129564190D01*
X110117467Y-129602895D01*
X110040057Y-129602895D01*
X109923943Y-129564190D01*
X109846534Y-129486781D01*
X109807829Y-129409371D01*
X109769124Y-129254552D01*
X109769124Y-129138438D01*
X109807829Y-128983619D01*
X109846534Y-128906210D01*
X109923943Y-128828800D01*
X110040057Y-128790095D01*
X110117467Y-128790095D01*
X110233581Y-128828800D01*
X110272286Y-128867505D01*
X111046381Y-129602895D02*
X110581924Y-129602895D01*
X110814153Y-129602895D02*
X110814153Y-128790095D01*
X110736743Y-128906210D01*
X110659334Y-128983619D01*
X110581924Y-129022324D01*
X111820476Y-129602895D02*
X111356019Y-129602895D01*
X111588248Y-129602895D02*
X111588248Y-128790095D01*
X111510838Y-128906210D01*
X111433429Y-128983619D01*
X111356019Y-129022324D01*
X111110486Y-90231686D02*
X111071781Y-90270390D01*
X110955667Y-90309095D01*
X110878257Y-90309095D01*
X110762143Y-90270390D01*
X110684734Y-90192981D01*
X110646029Y-90115571D01*
X110607324Y-89960752D01*
X110607324Y-89844638D01*
X110646029Y-89689819D01*
X110684734Y-89612410D01*
X110762143Y-89535000D01*
X110878257Y-89496295D01*
X110955667Y-89496295D01*
X111071781Y-89535000D01*
X111110486Y-89573705D01*
X111884581Y-90309095D02*
X111420124Y-90309095D01*
X111652353Y-90309095D02*
X111652353Y-89496295D01*
X111574943Y-89612410D01*
X111497534Y-89689819D01*
X111420124Y-89728524D01*
X112194219Y-89573705D02*
X112232924Y-89535000D01*
X112310333Y-89496295D01*
X112503857Y-89496295D01*
X112581267Y-89535000D01*
X112619971Y-89573705D01*
X112658676Y-89651114D01*
X112658676Y-89728524D01*
X112619971Y-89844638D01*
X112155514Y-90309095D01*
X112658676Y-90309095D01*
X105573286Y-110450086D02*
X105534581Y-110488790D01*
X105418467Y-110527495D01*
X105341057Y-110527495D01*
X105224943Y-110488790D01*
X105147534Y-110411381D01*
X105108829Y-110333971D01*
X105070124Y-110179152D01*
X105070124Y-110063038D01*
X105108829Y-109908219D01*
X105147534Y-109830810D01*
X105224943Y-109753400D01*
X105341057Y-109714695D01*
X105418467Y-109714695D01*
X105534581Y-109753400D01*
X105573286Y-109792105D01*
X106347381Y-110527495D02*
X105882924Y-110527495D01*
X106115153Y-110527495D02*
X106115153Y-109714695D01*
X106037743Y-109830810D01*
X105960334Y-109908219D01*
X105882924Y-109946924D01*
X106618314Y-109714695D02*
X107121476Y-109714695D01*
X106850543Y-110024333D01*
X106966657Y-110024333D01*
X107044067Y-110063038D01*
X107082771Y-110101743D01*
X107121476Y-110179152D01*
X107121476Y-110372676D01*
X107082771Y-110450086D01*
X107044067Y-110488790D01*
X106966657Y-110527495D01*
X106734429Y-110527495D01*
X106657019Y-110488790D01*
X106618314Y-110450086D01*
X117689086Y-129728686D02*
X117650381Y-129767390D01*
X117534267Y-129806095D01*
X117456857Y-129806095D01*
X117340743Y-129767390D01*
X117263334Y-129689981D01*
X117224629Y-129612571D01*
X117185924Y-129457752D01*
X117185924Y-129341638D01*
X117224629Y-129186819D01*
X117263334Y-129109410D01*
X117340743Y-129032000D01*
X117456857Y-128993295D01*
X117534267Y-128993295D01*
X117650381Y-129032000D01*
X117689086Y-129070705D01*
X118463181Y-129806095D02*
X117998724Y-129806095D01*
X118230953Y-129806095D02*
X118230953Y-128993295D01*
X118153543Y-129109410D01*
X118076134Y-129186819D01*
X117998724Y-129225524D01*
X119159867Y-129264229D02*
X119159867Y-129806095D01*
X118966343Y-128954590D02*
X118772819Y-129535162D01*
X119275981Y-129535162D01*
X118095486Y-90307886D02*
X118056781Y-90346590D01*
X117940667Y-90385295D01*
X117863257Y-90385295D01*
X117747143Y-90346590D01*
X117669734Y-90269181D01*
X117631029Y-90191771D01*
X117592324Y-90036952D01*
X117592324Y-89920838D01*
X117631029Y-89766019D01*
X117669734Y-89688610D01*
X117747143Y-89611200D01*
X117863257Y-89572495D01*
X117940667Y-89572495D01*
X118056781Y-89611200D01*
X118095486Y-89649905D01*
X118869581Y-90385295D02*
X118405124Y-90385295D01*
X118637353Y-90385295D02*
X118637353Y-89572495D01*
X118559943Y-89688610D01*
X118482534Y-89766019D01*
X118405124Y-89804724D01*
X119604971Y-89572495D02*
X119217924Y-89572495D01*
X119179219Y-89959543D01*
X119217924Y-89920838D01*
X119295333Y-89882133D01*
X119488857Y-89882133D01*
X119566267Y-89920838D01*
X119604971Y-89959543D01*
X119643676Y-90036952D01*
X119643676Y-90230476D01*
X119604971Y-90307886D01*
X119566267Y-90346590D01*
X119488857Y-90385295D01*
X119295333Y-90385295D01*
X119217924Y-90346590D01*
X119179219Y-90307886D01*
X113193286Y-110627886D02*
X113154581Y-110666590D01*
X113038467Y-110705295D01*
X112961057Y-110705295D01*
X112844943Y-110666590D01*
X112767534Y-110589181D01*
X112728829Y-110511771D01*
X112690124Y-110356952D01*
X112690124Y-110240838D01*
X112728829Y-110086019D01*
X112767534Y-110008610D01*
X112844943Y-109931200D01*
X112961057Y-109892495D01*
X113038467Y-109892495D01*
X113154581Y-109931200D01*
X113193286Y-109969905D01*
X113967381Y-110705295D02*
X113502924Y-110705295D01*
X113735153Y-110705295D02*
X113735153Y-109892495D01*
X113657743Y-110008610D01*
X113580334Y-110086019D01*
X113502924Y-110124724D01*
X114664067Y-109892495D02*
X114509248Y-109892495D01*
X114431838Y-109931200D01*
X114393133Y-109969905D01*
X114315724Y-110086019D01*
X114277019Y-110240838D01*
X114277019Y-110550476D01*
X114315724Y-110627886D01*
X114354429Y-110666590D01*
X114431838Y-110705295D01*
X114586657Y-110705295D01*
X114664067Y-110666590D01*
X114702771Y-110627886D01*
X114741476Y-110550476D01*
X114741476Y-110356952D01*
X114702771Y-110279543D01*
X114664067Y-110240838D01*
X114586657Y-110202133D01*
X114431838Y-110202133D01*
X114354429Y-110240838D01*
X114315724Y-110279543D01*
X114277019Y-110356952D01*
X121245086Y-129652486D02*
X121206381Y-129691190D01*
X121090267Y-129729895D01*
X121012857Y-129729895D01*
X120896743Y-129691190D01*
X120819334Y-129613781D01*
X120780629Y-129536371D01*
X120741924Y-129381552D01*
X120741924Y-129265438D01*
X120780629Y-129110619D01*
X120819334Y-129033210D01*
X120896743Y-128955800D01*
X121012857Y-128917095D01*
X121090267Y-128917095D01*
X121206381Y-128955800D01*
X121245086Y-128994505D01*
X122019181Y-129729895D02*
X121554724Y-129729895D01*
X121786953Y-129729895D02*
X121786953Y-128917095D01*
X121709543Y-129033210D01*
X121632134Y-129110619D01*
X121554724Y-129149324D01*
X122290114Y-128917095D02*
X122831981Y-128917095D01*
X122483638Y-129729895D01*
X121524486Y-90333286D02*
X121485781Y-90371990D01*
X121369667Y-90410695D01*
X121292257Y-90410695D01*
X121176143Y-90371990D01*
X121098734Y-90294581D01*
X121060029Y-90217171D01*
X121021324Y-90062352D01*
X121021324Y-89946238D01*
X121060029Y-89791419D01*
X121098734Y-89714010D01*
X121176143Y-89636600D01*
X121292257Y-89597895D01*
X121369667Y-89597895D01*
X121485781Y-89636600D01*
X121524486Y-89675305D01*
X122298581Y-90410695D02*
X121834124Y-90410695D01*
X122066353Y-90410695D02*
X122066353Y-89597895D01*
X121988943Y-89714010D01*
X121911534Y-89791419D01*
X121834124Y-89830124D01*
X122763038Y-89946238D02*
X122685629Y-89907533D01*
X122646924Y-89868829D01*
X122608219Y-89791419D01*
X122608219Y-89752714D01*
X122646924Y-89675305D01*
X122685629Y-89636600D01*
X122763038Y-89597895D01*
X122917857Y-89597895D01*
X122995267Y-89636600D01*
X123033971Y-89675305D01*
X123072676Y-89752714D01*
X123072676Y-89791419D01*
X123033971Y-89868829D01*
X122995267Y-89907533D01*
X122917857Y-89946238D01*
X122763038Y-89946238D01*
X122685629Y-89984943D01*
X122646924Y-90023648D01*
X122608219Y-90101057D01*
X122608219Y-90255876D01*
X122646924Y-90333286D01*
X122685629Y-90371990D01*
X122763038Y-90410695D01*
X122917857Y-90410695D01*
X122995267Y-90371990D01*
X123033971Y-90333286D01*
X123072676Y-90255876D01*
X123072676Y-90101057D01*
X123033971Y-90023648D01*
X122995267Y-89984943D01*
X122917857Y-89946238D01*
X116596886Y-110627886D02*
X116558181Y-110666590D01*
X116442067Y-110705295D01*
X116364657Y-110705295D01*
X116248543Y-110666590D01*
X116171134Y-110589181D01*
X116132429Y-110511771D01*
X116093724Y-110356952D01*
X116093724Y-110240838D01*
X116132429Y-110086019D01*
X116171134Y-110008610D01*
X116248543Y-109931200D01*
X116364657Y-109892495D01*
X116442067Y-109892495D01*
X116558181Y-109931200D01*
X116596886Y-109969905D01*
X117370981Y-110705295D02*
X116906524Y-110705295D01*
X117138753Y-110705295D02*
X117138753Y-109892495D01*
X117061343Y-110008610D01*
X116983934Y-110086019D01*
X116906524Y-110124724D01*
X117758029Y-110705295D02*
X117912848Y-110705295D01*
X117990257Y-110666590D01*
X118028962Y-110627886D01*
X118106371Y-110511771D01*
X118145076Y-110356952D01*
X118145076Y-110047314D01*
X118106371Y-109969905D01*
X118067667Y-109931200D01*
X117990257Y-109892495D01*
X117835438Y-109892495D01*
X117758029Y-109931200D01*
X117719324Y-109969905D01*
X117680619Y-110047314D01*
X117680619Y-110240838D01*
X117719324Y-110318248D01*
X117758029Y-110356952D01*
X117835438Y-110395657D01*
X117990257Y-110395657D01*
X118067667Y-110356952D01*
X118106371Y-110318248D01*
X118145076Y-110240838D01*
X125334486Y-106411486D02*
X125295781Y-106450190D01*
X125179667Y-106488895D01*
X125102257Y-106488895D01*
X124986143Y-106450190D01*
X124908734Y-106372781D01*
X124870029Y-106295371D01*
X124831324Y-106140552D01*
X124831324Y-106024438D01*
X124870029Y-105869619D01*
X124908734Y-105792210D01*
X124986143Y-105714800D01*
X125102257Y-105676095D01*
X125179667Y-105676095D01*
X125295781Y-105714800D01*
X125334486Y-105753505D01*
X125644124Y-105753505D02*
X125682829Y-105714800D01*
X125760238Y-105676095D01*
X125953762Y-105676095D01*
X126031172Y-105714800D01*
X126069876Y-105753505D01*
X126108581Y-105830914D01*
X126108581Y-105908324D01*
X126069876Y-106024438D01*
X125605419Y-106488895D01*
X126108581Y-106488895D01*
X126611743Y-105676095D02*
X126689152Y-105676095D01*
X126766562Y-105714800D01*
X126805267Y-105753505D01*
X126843971Y-105830914D01*
X126882676Y-105985733D01*
X126882676Y-106179257D01*
X126843971Y-106334076D01*
X126805267Y-106411486D01*
X126766562Y-106450190D01*
X126689152Y-106488895D01*
X126611743Y-106488895D01*
X126534333Y-106450190D01*
X126495629Y-106411486D01*
X126456924Y-106334076D01*
X126418219Y-106179257D01*
X126418219Y-105985733D01*
X126456924Y-105830914D01*
X126495629Y-105753505D01*
X126534333Y-105714800D01*
X126611743Y-105676095D01*
X137348686Y-110958086D02*
X137309981Y-110996790D01*
X137193867Y-111035495D01*
X137116457Y-111035495D01*
X137000343Y-110996790D01*
X136922934Y-110919381D01*
X136884229Y-110841971D01*
X136845524Y-110687152D01*
X136845524Y-110571038D01*
X136884229Y-110416219D01*
X136922934Y-110338810D01*
X137000343Y-110261400D01*
X137116457Y-110222695D01*
X137193867Y-110222695D01*
X137309981Y-110261400D01*
X137348686Y-110300105D01*
X137658324Y-110300105D02*
X137697029Y-110261400D01*
X137774438Y-110222695D01*
X137967962Y-110222695D01*
X138045372Y-110261400D01*
X138084076Y-110300105D01*
X138122781Y-110377514D01*
X138122781Y-110454924D01*
X138084076Y-110571038D01*
X137619619Y-111035495D01*
X138122781Y-111035495D01*
X138432419Y-110300105D02*
X138471124Y-110261400D01*
X138548533Y-110222695D01*
X138742057Y-110222695D01*
X138819467Y-110261400D01*
X138858171Y-110300105D01*
X138896876Y-110377514D01*
X138896876Y-110454924D01*
X138858171Y-110571038D01*
X138393714Y-111035495D01*
X138896876Y-111035495D01*
X134097486Y-114082286D02*
X134058781Y-114120990D01*
X133942667Y-114159695D01*
X133865257Y-114159695D01*
X133749143Y-114120990D01*
X133671734Y-114043581D01*
X133633029Y-113966171D01*
X133594324Y-113811352D01*
X133594324Y-113695238D01*
X133633029Y-113540419D01*
X133671734Y-113463010D01*
X133749143Y-113385600D01*
X133865257Y-113346895D01*
X133942667Y-113346895D01*
X134058781Y-113385600D01*
X134097486Y-113424305D01*
X134407124Y-113424305D02*
X134445829Y-113385600D01*
X134523238Y-113346895D01*
X134716762Y-113346895D01*
X134794172Y-113385600D01*
X134832876Y-113424305D01*
X134871581Y-113501714D01*
X134871581Y-113579124D01*
X134832876Y-113695238D01*
X134368419Y-114159695D01*
X134871581Y-114159695D01*
X135142514Y-113346895D02*
X135645676Y-113346895D01*
X135374743Y-113656533D01*
X135490857Y-113656533D01*
X135568267Y-113695238D01*
X135606971Y-113733943D01*
X135645676Y-113811352D01*
X135645676Y-114004876D01*
X135606971Y-114082286D01*
X135568267Y-114120990D01*
X135490857Y-114159695D01*
X135258629Y-114159695D01*
X135181219Y-114120990D01*
X135142514Y-114082286D01*
X137958286Y-90739686D02*
X137919581Y-90778390D01*
X137803467Y-90817095D01*
X137726057Y-90817095D01*
X137609943Y-90778390D01*
X137532534Y-90700981D01*
X137493829Y-90623571D01*
X137455124Y-90468752D01*
X137455124Y-90352638D01*
X137493829Y-90197819D01*
X137532534Y-90120410D01*
X137609943Y-90043000D01*
X137726057Y-90004295D01*
X137803467Y-90004295D01*
X137919581Y-90043000D01*
X137958286Y-90081705D01*
X138267924Y-90081705D02*
X138306629Y-90043000D01*
X138384038Y-90004295D01*
X138577562Y-90004295D01*
X138654972Y-90043000D01*
X138693676Y-90081705D01*
X138732381Y-90159114D01*
X138732381Y-90236524D01*
X138693676Y-90352638D01*
X138229219Y-90817095D01*
X138732381Y-90817095D01*
X139429067Y-90275229D02*
X139429067Y-90817095D01*
X139235543Y-89965590D02*
X139042019Y-90546162D01*
X139545181Y-90546162D01*
X140726886Y-90104686D02*
X140688181Y-90143390D01*
X140572067Y-90182095D01*
X140494657Y-90182095D01*
X140378543Y-90143390D01*
X140301134Y-90065981D01*
X140262429Y-89988571D01*
X140223724Y-89833752D01*
X140223724Y-89717638D01*
X140262429Y-89562819D01*
X140301134Y-89485410D01*
X140378543Y-89408000D01*
X140494657Y-89369295D01*
X140572067Y-89369295D01*
X140688181Y-89408000D01*
X140726886Y-89446705D01*
X141036524Y-89446705D02*
X141075229Y-89408000D01*
X141152638Y-89369295D01*
X141346162Y-89369295D01*
X141423572Y-89408000D01*
X141462276Y-89446705D01*
X141500981Y-89524114D01*
X141500981Y-89601524D01*
X141462276Y-89717638D01*
X140997819Y-90182095D01*
X141500981Y-90182095D01*
X142236371Y-89369295D02*
X141849324Y-89369295D01*
X141810619Y-89756343D01*
X141849324Y-89717638D01*
X141926733Y-89678933D01*
X142120257Y-89678933D01*
X142197667Y-89717638D01*
X142236371Y-89756343D01*
X142275076Y-89833752D01*
X142275076Y-90027276D01*
X142236371Y-90104686D01*
X142197667Y-90143390D01*
X142120257Y-90182095D01*
X141926733Y-90182095D01*
X141849324Y-90143390D01*
X141810619Y-90104686D01*
X131379686Y-114082286D02*
X131340981Y-114120990D01*
X131224867Y-114159695D01*
X131147457Y-114159695D01*
X131031343Y-114120990D01*
X130953934Y-114043581D01*
X130915229Y-113966171D01*
X130876524Y-113811352D01*
X130876524Y-113695238D01*
X130915229Y-113540419D01*
X130953934Y-113463010D01*
X131031343Y-113385600D01*
X131147457Y-113346895D01*
X131224867Y-113346895D01*
X131340981Y-113385600D01*
X131379686Y-113424305D01*
X131689324Y-113424305D02*
X131728029Y-113385600D01*
X131805438Y-113346895D01*
X131998962Y-113346895D01*
X132076372Y-113385600D01*
X132115076Y-113424305D01*
X132153781Y-113501714D01*
X132153781Y-113579124D01*
X132115076Y-113695238D01*
X131650619Y-114159695D01*
X132153781Y-114159695D01*
X132850467Y-113346895D02*
X132695648Y-113346895D01*
X132618238Y-113385600D01*
X132579533Y-113424305D01*
X132502124Y-113540419D01*
X132463419Y-113695238D01*
X132463419Y-114004876D01*
X132502124Y-114082286D01*
X132540829Y-114120990D01*
X132618238Y-114159695D01*
X132773057Y-114159695D01*
X132850467Y-114120990D01*
X132889171Y-114082286D01*
X132927876Y-114004876D01*
X132927876Y-113811352D01*
X132889171Y-113733943D01*
X132850467Y-113695238D01*
X132773057Y-113656533D01*
X132618238Y-113656533D01*
X132540829Y-113695238D01*
X132502124Y-113733943D01*
X132463419Y-113811352D01*
X148448486Y-90739686D02*
X148409781Y-90778390D01*
X148293667Y-90817095D01*
X148216257Y-90817095D01*
X148100143Y-90778390D01*
X148022734Y-90700981D01*
X147984029Y-90623571D01*
X147945324Y-90468752D01*
X147945324Y-90352638D01*
X147984029Y-90197819D01*
X148022734Y-90120410D01*
X148100143Y-90043000D01*
X148216257Y-90004295D01*
X148293667Y-90004295D01*
X148409781Y-90043000D01*
X148448486Y-90081705D01*
X148758124Y-90081705D02*
X148796829Y-90043000D01*
X148874238Y-90004295D01*
X149067762Y-90004295D01*
X149145172Y-90043000D01*
X149183876Y-90081705D01*
X149222581Y-90159114D01*
X149222581Y-90236524D01*
X149183876Y-90352638D01*
X148719419Y-90817095D01*
X149222581Y-90817095D01*
X149493514Y-90004295D02*
X150035381Y-90004295D01*
X149687038Y-90817095D01*
X151750486Y-90739686D02*
X151711781Y-90778390D01*
X151595667Y-90817095D01*
X151518257Y-90817095D01*
X151402143Y-90778390D01*
X151324734Y-90700981D01*
X151286029Y-90623571D01*
X151247324Y-90468752D01*
X151247324Y-90352638D01*
X151286029Y-90197819D01*
X151324734Y-90120410D01*
X151402143Y-90043000D01*
X151518257Y-90004295D01*
X151595667Y-90004295D01*
X151711781Y-90043000D01*
X151750486Y-90081705D01*
X152060124Y-90081705D02*
X152098829Y-90043000D01*
X152176238Y-90004295D01*
X152369762Y-90004295D01*
X152447172Y-90043000D01*
X152485876Y-90081705D01*
X152524581Y-90159114D01*
X152524581Y-90236524D01*
X152485876Y-90352638D01*
X152021419Y-90817095D01*
X152524581Y-90817095D01*
X152989038Y-90352638D02*
X152911629Y-90313933D01*
X152872924Y-90275229D01*
X152834219Y-90197819D01*
X152834219Y-90159114D01*
X152872924Y-90081705D01*
X152911629Y-90043000D01*
X152989038Y-90004295D01*
X153143857Y-90004295D01*
X153221267Y-90043000D01*
X153259971Y-90081705D01*
X153298676Y-90159114D01*
X153298676Y-90197819D01*
X153259971Y-90275229D01*
X153221267Y-90313933D01*
X153143857Y-90352638D01*
X152989038Y-90352638D01*
X152911629Y-90391343D01*
X152872924Y-90430048D01*
X152834219Y-90507457D01*
X152834219Y-90662276D01*
X152872924Y-90739686D01*
X152911629Y-90778390D01*
X152989038Y-90817095D01*
X153143857Y-90817095D01*
X153221267Y-90778390D01*
X153259971Y-90739686D01*
X153298676Y-90662276D01*
X153298676Y-90507457D01*
X153259971Y-90430048D01*
X153221267Y-90391343D01*
X153143857Y-90352638D01*
X146645086Y-98842286D02*
X146606381Y-98880990D01*
X146490267Y-98919695D01*
X146412857Y-98919695D01*
X146296743Y-98880990D01*
X146219334Y-98803581D01*
X146180629Y-98726171D01*
X146141924Y-98571352D01*
X146141924Y-98455238D01*
X146180629Y-98300419D01*
X146219334Y-98223010D01*
X146296743Y-98145600D01*
X146412857Y-98106895D01*
X146490267Y-98106895D01*
X146606381Y-98145600D01*
X146645086Y-98184305D01*
X146954724Y-98184305D02*
X146993429Y-98145600D01*
X147070838Y-98106895D01*
X147264362Y-98106895D01*
X147341772Y-98145600D01*
X147380476Y-98184305D01*
X147419181Y-98261714D01*
X147419181Y-98339124D01*
X147380476Y-98455238D01*
X146916019Y-98919695D01*
X147419181Y-98919695D01*
X147806229Y-98919695D02*
X147961048Y-98919695D01*
X148038457Y-98880990D01*
X148077162Y-98842286D01*
X148154571Y-98726171D01*
X148193276Y-98571352D01*
X148193276Y-98261714D01*
X148154571Y-98184305D01*
X148115867Y-98145600D01*
X148038457Y-98106895D01*
X147883638Y-98106895D01*
X147806229Y-98145600D01*
X147767524Y-98184305D01*
X147728819Y-98261714D01*
X147728819Y-98455238D01*
X147767524Y-98532648D01*
X147806229Y-98571352D01*
X147883638Y-98610057D01*
X148038457Y-98610057D01*
X148115867Y-98571352D01*
X148154571Y-98532648D01*
X148193276Y-98455238D01*
X146441886Y-111618486D02*
X146403181Y-111657190D01*
X146287067Y-111695895D01*
X146209657Y-111695895D01*
X146093543Y-111657190D01*
X146016134Y-111579781D01*
X145977429Y-111502371D01*
X145938724Y-111347552D01*
X145938724Y-111231438D01*
X145977429Y-111076619D01*
X146016134Y-110999210D01*
X146093543Y-110921800D01*
X146209657Y-110883095D01*
X146287067Y-110883095D01*
X146403181Y-110921800D01*
X146441886Y-110960505D01*
X146712819Y-110883095D02*
X147215981Y-110883095D01*
X146945048Y-111192733D01*
X147061162Y-111192733D01*
X147138572Y-111231438D01*
X147177276Y-111270143D01*
X147215981Y-111347552D01*
X147215981Y-111541076D01*
X147177276Y-111618486D01*
X147138572Y-111657190D01*
X147061162Y-111695895D01*
X146828934Y-111695895D01*
X146751524Y-111657190D01*
X146712819Y-111618486D01*
X147719143Y-110883095D02*
X147796552Y-110883095D01*
X147873962Y-110921800D01*
X147912667Y-110960505D01*
X147951371Y-111037914D01*
X147990076Y-111192733D01*
X147990076Y-111386257D01*
X147951371Y-111541076D01*
X147912667Y-111618486D01*
X147873962Y-111657190D01*
X147796552Y-111695895D01*
X147719143Y-111695895D01*
X147641733Y-111657190D01*
X147603029Y-111618486D01*
X147564324Y-111541076D01*
X147525619Y-111386257D01*
X147525619Y-111192733D01*
X147564324Y-111037914D01*
X147603029Y-110960505D01*
X147641733Y-110921800D01*
X147719143Y-110883095D01*
X154392086Y-133919686D02*
X154353381Y-133958390D01*
X154237267Y-133997095D01*
X154159857Y-133997095D01*
X154043743Y-133958390D01*
X153966334Y-133880981D01*
X153927629Y-133803571D01*
X153888924Y-133648752D01*
X153888924Y-133532638D01*
X153927629Y-133377819D01*
X153966334Y-133300410D01*
X154043743Y-133223000D01*
X154159857Y-133184295D01*
X154237267Y-133184295D01*
X154353381Y-133223000D01*
X154392086Y-133261705D01*
X154663019Y-133184295D02*
X155166181Y-133184295D01*
X154895248Y-133493933D01*
X155011362Y-133493933D01*
X155088772Y-133532638D01*
X155127476Y-133571343D01*
X155166181Y-133648752D01*
X155166181Y-133842276D01*
X155127476Y-133919686D01*
X155088772Y-133958390D01*
X155011362Y-133997095D01*
X154779134Y-133997095D01*
X154701724Y-133958390D01*
X154663019Y-133919686D01*
X155940276Y-133997095D02*
X155475819Y-133997095D01*
X155708048Y-133997095D02*
X155708048Y-133184295D01*
X155630638Y-133300410D01*
X155553229Y-133377819D01*
X155475819Y-133416524D01*
X149388286Y-99807486D02*
X149349581Y-99846190D01*
X149233467Y-99884895D01*
X149156057Y-99884895D01*
X149039943Y-99846190D01*
X148962534Y-99768781D01*
X148923829Y-99691371D01*
X148885124Y-99536552D01*
X148885124Y-99420438D01*
X148923829Y-99265619D01*
X148962534Y-99188210D01*
X149039943Y-99110800D01*
X149156057Y-99072095D01*
X149233467Y-99072095D01*
X149349581Y-99110800D01*
X149388286Y-99149505D01*
X149659219Y-99072095D02*
X150162381Y-99072095D01*
X149891448Y-99381733D01*
X150007562Y-99381733D01*
X150084972Y-99420438D01*
X150123676Y-99459143D01*
X150162381Y-99536552D01*
X150162381Y-99730076D01*
X150123676Y-99807486D01*
X150084972Y-99846190D01*
X150007562Y-99884895D01*
X149775334Y-99884895D01*
X149697924Y-99846190D01*
X149659219Y-99807486D01*
X150472019Y-99149505D02*
X150510724Y-99110800D01*
X150588133Y-99072095D01*
X150781657Y-99072095D01*
X150859067Y-99110800D01*
X150897771Y-99149505D01*
X150936476Y-99226914D01*
X150936476Y-99304324D01*
X150897771Y-99420438D01*
X150433314Y-99884895D01*
X150936476Y-99884895D01*
X149210486Y-111288286D02*
X149171781Y-111326990D01*
X149055667Y-111365695D01*
X148978257Y-111365695D01*
X148862143Y-111326990D01*
X148784734Y-111249581D01*
X148746029Y-111172171D01*
X148707324Y-111017352D01*
X148707324Y-110901238D01*
X148746029Y-110746419D01*
X148784734Y-110669010D01*
X148862143Y-110591600D01*
X148978257Y-110552895D01*
X149055667Y-110552895D01*
X149171781Y-110591600D01*
X149210486Y-110630305D01*
X149481419Y-110552895D02*
X149984581Y-110552895D01*
X149713648Y-110862533D01*
X149829762Y-110862533D01*
X149907172Y-110901238D01*
X149945876Y-110939943D01*
X149984581Y-111017352D01*
X149984581Y-111210876D01*
X149945876Y-111288286D01*
X149907172Y-111326990D01*
X149829762Y-111365695D01*
X149597534Y-111365695D01*
X149520124Y-111326990D01*
X149481419Y-111288286D01*
X150255514Y-110552895D02*
X150758676Y-110552895D01*
X150487743Y-110862533D01*
X150603857Y-110862533D01*
X150681267Y-110901238D01*
X150719971Y-110939943D01*
X150758676Y-111017352D01*
X150758676Y-111210876D01*
X150719971Y-111288286D01*
X150681267Y-111326990D01*
X150603857Y-111365695D01*
X150371629Y-111365695D01*
X150294219Y-111326990D01*
X150255514Y-111288286D01*
X158786286Y-130465286D02*
X158747581Y-130503990D01*
X158631467Y-130542695D01*
X158554057Y-130542695D01*
X158437943Y-130503990D01*
X158360534Y-130426581D01*
X158321829Y-130349171D01*
X158283124Y-130194352D01*
X158283124Y-130078238D01*
X158321829Y-129923419D01*
X158360534Y-129846010D01*
X158437943Y-129768600D01*
X158554057Y-129729895D01*
X158631467Y-129729895D01*
X158747581Y-129768600D01*
X158786286Y-129807305D01*
X159057219Y-129729895D02*
X159560381Y-129729895D01*
X159289448Y-130039533D01*
X159405562Y-130039533D01*
X159482972Y-130078238D01*
X159521676Y-130116943D01*
X159560381Y-130194352D01*
X159560381Y-130387876D01*
X159521676Y-130465286D01*
X159482972Y-130503990D01*
X159405562Y-130542695D01*
X159173334Y-130542695D01*
X159095924Y-130503990D01*
X159057219Y-130465286D01*
X160257067Y-130000829D02*
X160257067Y-130542695D01*
X160063543Y-129691190D02*
X159870019Y-130271762D01*
X160373181Y-130271762D01*
X158989486Y-85024686D02*
X158950781Y-85063390D01*
X158834667Y-85102095D01*
X158757257Y-85102095D01*
X158641143Y-85063390D01*
X158563734Y-84985981D01*
X158525029Y-84908571D01*
X158486324Y-84753752D01*
X158486324Y-84637638D01*
X158525029Y-84482819D01*
X158563734Y-84405410D01*
X158641143Y-84328000D01*
X158757257Y-84289295D01*
X158834667Y-84289295D01*
X158950781Y-84328000D01*
X158989486Y-84366705D01*
X159260419Y-84289295D02*
X159763581Y-84289295D01*
X159492648Y-84598933D01*
X159608762Y-84598933D01*
X159686172Y-84637638D01*
X159724876Y-84676343D01*
X159763581Y-84753752D01*
X159763581Y-84947276D01*
X159724876Y-85024686D01*
X159686172Y-85063390D01*
X159608762Y-85102095D01*
X159376534Y-85102095D01*
X159299124Y-85063390D01*
X159260419Y-85024686D01*
X160498971Y-84289295D02*
X160111924Y-84289295D01*
X160073219Y-84676343D01*
X160111924Y-84637638D01*
X160189333Y-84598933D01*
X160382857Y-84598933D01*
X160460267Y-84637638D01*
X160498971Y-84676343D01*
X160537676Y-84753752D01*
X160537676Y-84947276D01*
X160498971Y-85024686D01*
X160460267Y-85063390D01*
X160382857Y-85102095D01*
X160189333Y-85102095D01*
X160111924Y-85063390D01*
X160073219Y-85024686D01*
X158659286Y-90993686D02*
X158620581Y-91032390D01*
X158504467Y-91071095D01*
X158427057Y-91071095D01*
X158310943Y-91032390D01*
X158233534Y-90954981D01*
X158194829Y-90877571D01*
X158156124Y-90722752D01*
X158156124Y-90606638D01*
X158194829Y-90451819D01*
X158233534Y-90374410D01*
X158310943Y-90297000D01*
X158427057Y-90258295D01*
X158504467Y-90258295D01*
X158620581Y-90297000D01*
X158659286Y-90335705D01*
X158930219Y-90258295D02*
X159433381Y-90258295D01*
X159162448Y-90567933D01*
X159278562Y-90567933D01*
X159355972Y-90606638D01*
X159394676Y-90645343D01*
X159433381Y-90722752D01*
X159433381Y-90916276D01*
X159394676Y-90993686D01*
X159355972Y-91032390D01*
X159278562Y-91071095D01*
X159046334Y-91071095D01*
X158968924Y-91032390D01*
X158930219Y-90993686D01*
X159704314Y-90258295D02*
X160246181Y-90258295D01*
X159897838Y-91071095D01*
X159573686Y-102398286D02*
X159534981Y-102436990D01*
X159418867Y-102475695D01*
X159341457Y-102475695D01*
X159225343Y-102436990D01*
X159147934Y-102359581D01*
X159109229Y-102282171D01*
X159070524Y-102127352D01*
X159070524Y-102011238D01*
X159109229Y-101856419D01*
X159147934Y-101779010D01*
X159225343Y-101701600D01*
X159341457Y-101662895D01*
X159418867Y-101662895D01*
X159534981Y-101701600D01*
X159573686Y-101740305D01*
X159844619Y-101662895D02*
X160347781Y-101662895D01*
X160076848Y-101972533D01*
X160192962Y-101972533D01*
X160270372Y-102011238D01*
X160309076Y-102049943D01*
X160347781Y-102127352D01*
X160347781Y-102320876D01*
X160309076Y-102398286D01*
X160270372Y-102436990D01*
X160192962Y-102475695D01*
X159960734Y-102475695D01*
X159883324Y-102436990D01*
X159844619Y-102398286D01*
X160812238Y-102011238D02*
X160734829Y-101972533D01*
X160696124Y-101933829D01*
X160657419Y-101856419D01*
X160657419Y-101817714D01*
X160696124Y-101740305D01*
X160734829Y-101701600D01*
X160812238Y-101662895D01*
X160967057Y-101662895D01*
X161044467Y-101701600D01*
X161083171Y-101740305D01*
X161121876Y-101817714D01*
X161121876Y-101856419D01*
X161083171Y-101933829D01*
X161044467Y-101972533D01*
X160967057Y-102011238D01*
X160812238Y-102011238D01*
X160734829Y-102049943D01*
X160696124Y-102088648D01*
X160657419Y-102166057D01*
X160657419Y-102320876D01*
X160696124Y-102398286D01*
X160734829Y-102436990D01*
X160812238Y-102475695D01*
X160967057Y-102475695D01*
X161044467Y-102436990D01*
X161083171Y-102398286D01*
X161121876Y-102320876D01*
X161121876Y-102166057D01*
X161083171Y-102088648D01*
X161044467Y-102049943D01*
X160967057Y-102011238D01*
X159548286Y-110627886D02*
X159509581Y-110666590D01*
X159393467Y-110705295D01*
X159316057Y-110705295D01*
X159199943Y-110666590D01*
X159122534Y-110589181D01*
X159083829Y-110511771D01*
X159045124Y-110356952D01*
X159045124Y-110240838D01*
X159083829Y-110086019D01*
X159122534Y-110008610D01*
X159199943Y-109931200D01*
X159316057Y-109892495D01*
X159393467Y-109892495D01*
X159509581Y-109931200D01*
X159548286Y-109969905D01*
X159819219Y-109892495D02*
X160322381Y-109892495D01*
X160051448Y-110202133D01*
X160167562Y-110202133D01*
X160244972Y-110240838D01*
X160283676Y-110279543D01*
X160322381Y-110356952D01*
X160322381Y-110550476D01*
X160283676Y-110627886D01*
X160244972Y-110666590D01*
X160167562Y-110705295D01*
X159935334Y-110705295D01*
X159857924Y-110666590D01*
X159819219Y-110627886D01*
X160709429Y-110705295D02*
X160864248Y-110705295D01*
X160941657Y-110666590D01*
X160980362Y-110627886D01*
X161057771Y-110511771D01*
X161096476Y-110356952D01*
X161096476Y-110047314D01*
X161057771Y-109969905D01*
X161019067Y-109931200D01*
X160941657Y-109892495D01*
X160786838Y-109892495D01*
X160709429Y-109931200D01*
X160670724Y-109969905D01*
X160632019Y-110047314D01*
X160632019Y-110240838D01*
X160670724Y-110318248D01*
X160709429Y-110356952D01*
X160786838Y-110395657D01*
X160941657Y-110395657D01*
X161019067Y-110356952D01*
X161057771Y-110318248D01*
X161096476Y-110240838D01*
X151039286Y-102830086D02*
X151000581Y-102868790D01*
X150884467Y-102907495D01*
X150807057Y-102907495D01*
X150690943Y-102868790D01*
X150613534Y-102791381D01*
X150574829Y-102713971D01*
X150536124Y-102559152D01*
X150536124Y-102443038D01*
X150574829Y-102288219D01*
X150613534Y-102210810D01*
X150690943Y-102133400D01*
X150807057Y-102094695D01*
X150884467Y-102094695D01*
X151000581Y-102133400D01*
X151039286Y-102172105D01*
X151735972Y-102365629D02*
X151735972Y-102907495D01*
X151542448Y-102055990D02*
X151348924Y-102636562D01*
X151852086Y-102636562D01*
X152316543Y-102094695D02*
X152393952Y-102094695D01*
X152471362Y-102133400D01*
X152510067Y-102172105D01*
X152548771Y-102249514D01*
X152587476Y-102404333D01*
X152587476Y-102597857D01*
X152548771Y-102752676D01*
X152510067Y-102830086D01*
X152471362Y-102868790D01*
X152393952Y-102907495D01*
X152316543Y-102907495D01*
X152239133Y-102868790D01*
X152200429Y-102830086D01*
X152161724Y-102752676D01*
X152123019Y-102597857D01*
X152123019Y-102404333D01*
X152161724Y-102249514D01*
X152200429Y-102172105D01*
X152239133Y-102133400D01*
X152316543Y-102094695D01*
X153782486Y-113904486D02*
X153743781Y-113943190D01*
X153627667Y-113981895D01*
X153550257Y-113981895D01*
X153434143Y-113943190D01*
X153356734Y-113865781D01*
X153318029Y-113788371D01*
X153279324Y-113633552D01*
X153279324Y-113517438D01*
X153318029Y-113362619D01*
X153356734Y-113285210D01*
X153434143Y-113207800D01*
X153550257Y-113169095D01*
X153627667Y-113169095D01*
X153743781Y-113207800D01*
X153782486Y-113246505D01*
X154479172Y-113440029D02*
X154479172Y-113981895D01*
X154285648Y-113130390D02*
X154092124Y-113710962D01*
X154595286Y-113710962D01*
X155330676Y-113981895D02*
X154866219Y-113981895D01*
X155098448Y-113981895D02*
X155098448Y-113169095D01*
X155021038Y-113285210D01*
X154943629Y-113362619D01*
X154866219Y-113401324D01*
X142529077Y-111695895D02*
X142529077Y-110883095D01*
X142722601Y-110883095D01*
X142838715Y-110921800D01*
X142916124Y-110999210D01*
X142954829Y-111076619D01*
X142993534Y-111231438D01*
X142993534Y-111347552D01*
X142954829Y-111502371D01*
X142916124Y-111579781D01*
X142838715Y-111657190D01*
X142722601Y-111695895D01*
X142529077Y-111695895D01*
X143767629Y-111695895D02*
X143303172Y-111695895D01*
X143535401Y-111695895D02*
X143535401Y-110883095D01*
X143457991Y-110999210D01*
X143380582Y-111076619D01*
X143303172Y-111115324D01*
X153959077Y-131711095D02*
X153959077Y-130898295D01*
X154152601Y-130898295D01*
X154268715Y-130937000D01*
X154346124Y-131014410D01*
X154384829Y-131091819D01*
X154423534Y-131246638D01*
X154423534Y-131362752D01*
X154384829Y-131517571D01*
X154346124Y-131594981D01*
X154268715Y-131672390D01*
X154152601Y-131711095D01*
X153959077Y-131711095D01*
X154733172Y-130975705D02*
X154771877Y-130937000D01*
X154849286Y-130898295D01*
X155042810Y-130898295D01*
X155120220Y-130937000D01*
X155158924Y-130975705D01*
X155197629Y-131053114D01*
X155197629Y-131130524D01*
X155158924Y-131246638D01*
X154694467Y-131711095D01*
X155197629Y-131711095D01*
X140344677Y-98919695D02*
X140344677Y-98106895D01*
X140538201Y-98106895D01*
X140654315Y-98145600D01*
X140731724Y-98223010D01*
X140770429Y-98300419D01*
X140809134Y-98455238D01*
X140809134Y-98571352D01*
X140770429Y-98726171D01*
X140731724Y-98803581D01*
X140654315Y-98880990D01*
X140538201Y-98919695D01*
X140344677Y-98919695D01*
X141080067Y-98106895D02*
X141583229Y-98106895D01*
X141312296Y-98416533D01*
X141428410Y-98416533D01*
X141505820Y-98455238D01*
X141544524Y-98493943D01*
X141583229Y-98571352D01*
X141583229Y-98764876D01*
X141544524Y-98842286D01*
X141505820Y-98880990D01*
X141428410Y-98919695D01*
X141196182Y-98919695D01*
X141118772Y-98880990D01*
X141080067Y-98842286D01*
X109262333Y-121347895D02*
X108875286Y-121347895D01*
X108875286Y-120535095D01*
X109959019Y-121347895D02*
X109494562Y-121347895D01*
X109726791Y-121347895D02*
X109726791Y-120535095D01*
X109649381Y-120651210D01*
X109571972Y-120728619D01*
X109494562Y-120767324D01*
X109668733Y-82282695D02*
X109281686Y-82282695D01*
X109281686Y-81469895D01*
X109900962Y-81547305D02*
X109939667Y-81508600D01*
X110017076Y-81469895D01*
X110210600Y-81469895D01*
X110288010Y-81508600D01*
X110326714Y-81547305D01*
X110365419Y-81624714D01*
X110365419Y-81702124D01*
X110326714Y-81818238D01*
X109862257Y-82282695D01*
X110365419Y-82282695D01*
X104487133Y-102501095D02*
X104100086Y-102501095D01*
X104100086Y-101688295D01*
X104680657Y-101688295D02*
X105183819Y-101688295D01*
X104912886Y-101997933D01*
X105029000Y-101997933D01*
X105106410Y-102036638D01*
X105145114Y-102075343D01*
X105183819Y-102152752D01*
X105183819Y-102346276D01*
X105145114Y-102423686D01*
X105106410Y-102462390D01*
X105029000Y-102501095D01*
X104796772Y-102501095D01*
X104719362Y-102462390D01*
X104680657Y-102423686D01*
X139513733Y-121576495D02*
X139126686Y-121576495D01*
X139126686Y-120763695D01*
X140133010Y-121034629D02*
X140133010Y-121576495D01*
X139939486Y-120724990D02*
X139745962Y-121305562D01*
X140249124Y-121305562D01*
X139386733Y-82257295D02*
X138999686Y-82257295D01*
X138999686Y-81444495D01*
X140044714Y-81444495D02*
X139657667Y-81444495D01*
X139618962Y-81831543D01*
X139657667Y-81792838D01*
X139735076Y-81754133D01*
X139928600Y-81754133D01*
X140006010Y-81792838D01*
X140044714Y-81831543D01*
X140083419Y-81908952D01*
X140083419Y-82102476D01*
X140044714Y-82179886D01*
X140006010Y-82218590D01*
X139928600Y-82257295D01*
X139735076Y-82257295D01*
X139657667Y-82218590D01*
X139618962Y-82179886D01*
X142282333Y-102424895D02*
X141895286Y-102424895D01*
X141895286Y-101612095D01*
X142901610Y-101612095D02*
X142746791Y-101612095D01*
X142669381Y-101650800D01*
X142630676Y-101689505D01*
X142553267Y-101805619D01*
X142514562Y-101960438D01*
X142514562Y-102270076D01*
X142553267Y-102347486D01*
X142591972Y-102386190D01*
X142669381Y-102424895D01*
X142824200Y-102424895D01*
X142901610Y-102386190D01*
X142940314Y-102347486D01*
X142979019Y-102270076D01*
X142979019Y-102076552D01*
X142940314Y-101999143D01*
X142901610Y-101960438D01*
X142824200Y-101921733D01*
X142669381Y-101921733D01*
X142591972Y-101960438D01*
X142553267Y-101999143D01*
X142514562Y-102076552D01*
X134929033Y-98805395D02*
X134541986Y-98805395D01*
X134541986Y-97992595D01*
X135122557Y-97992595D02*
X135664424Y-97992595D01*
X135316081Y-98805395D01*
X103870277Y-125208695D02*
X103870277Y-124395895D01*
X104179915Y-124395895D01*
X104257324Y-124434600D01*
X104296029Y-124473305D01*
X104334734Y-124550714D01*
X104334734Y-124666829D01*
X104296029Y-124744238D01*
X104257324Y-124782943D01*
X104179915Y-124821648D01*
X103870277Y-124821648D01*
X105070124Y-124395895D02*
X104683077Y-124395895D01*
X104644372Y-124782943D01*
X104683077Y-124744238D01*
X104760486Y-124705533D01*
X104954010Y-124705533D01*
X105031420Y-124744238D01*
X105070124Y-124782943D01*
X105108829Y-124860352D01*
X105108829Y-125053876D01*
X105070124Y-125131286D01*
X105031420Y-125169990D01*
X104954010Y-125208695D01*
X104760486Y-125208695D01*
X104683077Y-125169990D01*
X104644372Y-125131286D01*
X103768677Y-88073895D02*
X103768677Y-87261095D01*
X104078315Y-87261095D01*
X104155724Y-87299800D01*
X104194429Y-87338505D01*
X104233134Y-87415914D01*
X104233134Y-87532029D01*
X104194429Y-87609438D01*
X104155724Y-87648143D01*
X104078315Y-87686848D01*
X103768677Y-87686848D01*
X104929820Y-87261095D02*
X104775001Y-87261095D01*
X104697591Y-87299800D01*
X104658886Y-87338505D01*
X104581477Y-87454619D01*
X104542772Y-87609438D01*
X104542772Y-87919076D01*
X104581477Y-87996486D01*
X104620182Y-88035190D01*
X104697591Y-88073895D01*
X104852410Y-88073895D01*
X104929820Y-88035190D01*
X104968524Y-87996486D01*
X105007229Y-87919076D01*
X105007229Y-87725552D01*
X104968524Y-87648143D01*
X104929820Y-87609438D01*
X104852410Y-87570733D01*
X104697591Y-87570733D01*
X104620182Y-87609438D01*
X104581477Y-87648143D01*
X104542772Y-87725552D01*
X103794077Y-93458695D02*
X103794077Y-92645895D01*
X104103715Y-92645895D01*
X104181124Y-92684600D01*
X104219829Y-92723305D01*
X104258534Y-92800714D01*
X104258534Y-92916829D01*
X104219829Y-92994238D01*
X104181124Y-93032943D01*
X104103715Y-93071648D01*
X103794077Y-93071648D01*
X104529467Y-92645895D02*
X105071334Y-92645895D01*
X104722991Y-93458695D01*
X175509695Y-90846123D02*
X174696895Y-90846123D01*
X174696895Y-90536485D01*
X174735600Y-90459076D01*
X174774305Y-90420371D01*
X174851714Y-90381666D01*
X174967829Y-90381666D01*
X175045238Y-90420371D01*
X175083943Y-90459076D01*
X175122648Y-90536485D01*
X175122648Y-90846123D01*
X175045238Y-89917209D02*
X175006533Y-89994618D01*
X174967829Y-90033323D01*
X174890419Y-90072028D01*
X174851714Y-90072028D01*
X174774305Y-90033323D01*
X174735600Y-89994618D01*
X174696895Y-89917209D01*
X174696895Y-89762390D01*
X174735600Y-89684980D01*
X174774305Y-89646276D01*
X174851714Y-89607571D01*
X174890419Y-89607571D01*
X174967829Y-89646276D01*
X175006533Y-89684980D01*
X175045238Y-89762390D01*
X175045238Y-89917209D01*
X175083943Y-89994618D01*
X175122648Y-90033323D01*
X175200057Y-90072028D01*
X175354876Y-90072028D01*
X175432286Y-90033323D01*
X175470990Y-89994618D01*
X175509695Y-89917209D01*
X175509695Y-89762390D01*
X175470990Y-89684980D01*
X175432286Y-89646276D01*
X175354876Y-89607571D01*
X175200057Y-89607571D01*
X175122648Y-89646276D01*
X175083943Y-89684980D01*
X175045238Y-89762390D01*
X131556277Y-91620895D02*
X131556277Y-90808095D01*
X131865915Y-90808095D01*
X131943324Y-90846800D01*
X131982029Y-90885505D01*
X132020734Y-90962914D01*
X132020734Y-91079029D01*
X131982029Y-91156438D01*
X131943324Y-91195143D01*
X131865915Y-91233848D01*
X131556277Y-91233848D01*
X132407782Y-91620895D02*
X132562601Y-91620895D01*
X132640010Y-91582190D01*
X132678715Y-91543486D01*
X132756124Y-91427371D01*
X132794829Y-91272552D01*
X132794829Y-90962914D01*
X132756124Y-90885505D01*
X132717420Y-90846800D01*
X132640010Y-90808095D01*
X132485191Y-90808095D01*
X132407782Y-90846800D01*
X132369077Y-90885505D01*
X132330372Y-90962914D01*
X132330372Y-91156438D01*
X132369077Y-91233848D01*
X132407782Y-91272552D01*
X132485191Y-91311257D01*
X132640010Y-91311257D01*
X132717420Y-91272552D01*
X132756124Y-91233848D01*
X132794829Y-91156438D01*
X175509695Y-125700971D02*
X174696895Y-125700971D01*
X174696895Y-125391333D01*
X174735600Y-125313924D01*
X174774305Y-125275219D01*
X174851714Y-125236514D01*
X174967829Y-125236514D01*
X175045238Y-125275219D01*
X175083943Y-125313924D01*
X175122648Y-125391333D01*
X175122648Y-125700971D01*
X175509695Y-124462419D02*
X175509695Y-124926876D01*
X175509695Y-124694647D02*
X174696895Y-124694647D01*
X174813010Y-124772057D01*
X174890419Y-124849466D01*
X174929124Y-124926876D01*
X174696895Y-123959257D02*
X174696895Y-123881848D01*
X174735600Y-123804438D01*
X174774305Y-123765733D01*
X174851714Y-123727029D01*
X175006533Y-123688324D01*
X175200057Y-123688324D01*
X175354876Y-123727029D01*
X175432286Y-123765733D01*
X175470990Y-123804438D01*
X175509695Y-123881848D01*
X175509695Y-123959257D01*
X175470990Y-124036667D01*
X175432286Y-124075371D01*
X175354876Y-124114076D01*
X175200057Y-124152781D01*
X175006533Y-124152781D01*
X174851714Y-124114076D01*
X174774305Y-124075371D01*
X174735600Y-124036667D01*
X174696895Y-123959257D01*
X150265190Y-121120505D02*
X150187781Y-121081800D01*
X150110371Y-121004390D01*
X149994257Y-120888276D01*
X149916848Y-120849571D01*
X149839438Y-120849571D01*
X149878143Y-121043095D02*
X149800733Y-121004390D01*
X149723324Y-120926981D01*
X149684619Y-120772162D01*
X149684619Y-120501229D01*
X149723324Y-120346410D01*
X149800733Y-120269000D01*
X149878143Y-120230295D01*
X150032962Y-120230295D01*
X150110371Y-120269000D01*
X150187781Y-120346410D01*
X150226486Y-120501229D01*
X150226486Y-120772162D01*
X150187781Y-120926981D01*
X150110371Y-121004390D01*
X150032962Y-121043095D01*
X149878143Y-121043095D01*
X151000581Y-121043095D02*
X150536124Y-121043095D01*
X150768353Y-121043095D02*
X150768353Y-120230295D01*
X150690943Y-120346410D01*
X150613534Y-120423819D01*
X150536124Y-120462524D01*
X115434534Y-124853095D02*
X115163601Y-124466048D01*
X114970077Y-124853095D02*
X114970077Y-124040295D01*
X115279715Y-124040295D01*
X115357124Y-124079000D01*
X115395829Y-124117705D01*
X115434534Y-124195114D01*
X115434534Y-124311229D01*
X115395829Y-124388638D01*
X115357124Y-124427343D01*
X115279715Y-124466048D01*
X114970077Y-124466048D01*
X115705467Y-124040295D02*
X116208629Y-124040295D01*
X115937696Y-124349933D01*
X116053810Y-124349933D01*
X116131220Y-124388638D01*
X116169924Y-124427343D01*
X116208629Y-124504752D01*
X116208629Y-124698276D01*
X116169924Y-124775686D01*
X116131220Y-124814390D01*
X116053810Y-124853095D01*
X115821582Y-124853095D01*
X115744172Y-124814390D01*
X115705467Y-124775686D01*
X113885134Y-130364895D02*
X113614201Y-129977848D01*
X113420677Y-130364895D02*
X113420677Y-129552095D01*
X113730315Y-129552095D01*
X113807724Y-129590800D01*
X113846429Y-129629505D01*
X113885134Y-129706914D01*
X113885134Y-129823029D01*
X113846429Y-129900438D01*
X113807724Y-129939143D01*
X113730315Y-129977848D01*
X113420677Y-129977848D01*
X114581820Y-129823029D02*
X114581820Y-130364895D01*
X114388296Y-129513390D02*
X114194772Y-130093962D01*
X114697934Y-130093962D01*
X115815534Y-85635495D02*
X115544601Y-85248448D01*
X115351077Y-85635495D02*
X115351077Y-84822695D01*
X115660715Y-84822695D01*
X115738124Y-84861400D01*
X115776829Y-84900105D01*
X115815534Y-84977514D01*
X115815534Y-85093629D01*
X115776829Y-85171038D01*
X115738124Y-85209743D01*
X115660715Y-85248448D01*
X115351077Y-85248448D01*
X116550924Y-84822695D02*
X116163877Y-84822695D01*
X116125172Y-85209743D01*
X116163877Y-85171038D01*
X116241286Y-85132333D01*
X116434810Y-85132333D01*
X116512220Y-85171038D01*
X116550924Y-85209743D01*
X116589629Y-85287152D01*
X116589629Y-85480676D01*
X116550924Y-85558086D01*
X116512220Y-85596790D01*
X116434810Y-85635495D01*
X116241286Y-85635495D01*
X116163877Y-85596790D01*
X116125172Y-85558086D01*
X114240734Y-91071095D02*
X113969801Y-90684048D01*
X113776277Y-91071095D02*
X113776277Y-90258295D01*
X114085915Y-90258295D01*
X114163324Y-90297000D01*
X114202029Y-90335705D01*
X114240734Y-90413114D01*
X114240734Y-90529229D01*
X114202029Y-90606638D01*
X114163324Y-90645343D01*
X114085915Y-90684048D01*
X113776277Y-90684048D01*
X114937420Y-90258295D02*
X114782601Y-90258295D01*
X114705191Y-90297000D01*
X114666486Y-90335705D01*
X114589077Y-90451819D01*
X114550372Y-90606638D01*
X114550372Y-90916276D01*
X114589077Y-90993686D01*
X114627782Y-91032390D01*
X114705191Y-91071095D01*
X114860010Y-91071095D01*
X114937420Y-91032390D01*
X114976124Y-90993686D01*
X115014829Y-90916276D01*
X115014829Y-90722752D01*
X114976124Y-90645343D01*
X114937420Y-90606638D01*
X114860010Y-90567933D01*
X114705191Y-90567933D01*
X114627782Y-90606638D01*
X114589077Y-90645343D01*
X114550372Y-90722752D01*
X110811734Y-105803095D02*
X110540801Y-105416048D01*
X110347277Y-105803095D02*
X110347277Y-104990295D01*
X110656915Y-104990295D01*
X110734324Y-105029000D01*
X110773029Y-105067705D01*
X110811734Y-105145114D01*
X110811734Y-105261229D01*
X110773029Y-105338638D01*
X110734324Y-105377343D01*
X110656915Y-105416048D01*
X110347277Y-105416048D01*
X111082667Y-104990295D02*
X111624534Y-104990295D01*
X111276191Y-105803095D01*
X109211534Y-111187895D02*
X108940601Y-110800848D01*
X108747077Y-111187895D02*
X108747077Y-110375095D01*
X109056715Y-110375095D01*
X109134124Y-110413800D01*
X109172829Y-110452505D01*
X109211534Y-110529914D01*
X109211534Y-110646029D01*
X109172829Y-110723438D01*
X109134124Y-110762143D01*
X109056715Y-110800848D01*
X108747077Y-110800848D01*
X109675991Y-110723438D02*
X109598582Y-110684733D01*
X109559877Y-110646029D01*
X109521172Y-110568619D01*
X109521172Y-110529914D01*
X109559877Y-110452505D01*
X109598582Y-110413800D01*
X109675991Y-110375095D01*
X109830810Y-110375095D01*
X109908220Y-110413800D01*
X109946924Y-110452505D01*
X109985629Y-110529914D01*
X109985629Y-110568619D01*
X109946924Y-110646029D01*
X109908220Y-110684733D01*
X109830810Y-110723438D01*
X109675991Y-110723438D01*
X109598582Y-110762143D01*
X109559877Y-110800848D01*
X109521172Y-110878257D01*
X109521172Y-111033076D01*
X109559877Y-111110486D01*
X109598582Y-111149190D01*
X109675991Y-111187895D01*
X109830810Y-111187895D01*
X109908220Y-111149190D01*
X109946924Y-111110486D01*
X109985629Y-111033076D01*
X109985629Y-110878257D01*
X109946924Y-110800848D01*
X109908220Y-110762143D01*
X109830810Y-110723438D01*
X126274286Y-105066495D02*
X126003353Y-104679448D01*
X125809829Y-105066495D02*
X125809829Y-104253695D01*
X126119467Y-104253695D01*
X126196876Y-104292400D01*
X126235581Y-104331105D01*
X126274286Y-104408514D01*
X126274286Y-104524629D01*
X126235581Y-104602038D01*
X126196876Y-104640743D01*
X126119467Y-104679448D01*
X125809829Y-104679448D01*
X127048381Y-105066495D02*
X126583924Y-105066495D01*
X126816153Y-105066495D02*
X126816153Y-104253695D01*
X126738743Y-104369810D01*
X126661334Y-104447219D01*
X126583924Y-104485924D01*
X127358019Y-104331105D02*
X127396724Y-104292400D01*
X127474133Y-104253695D01*
X127667657Y-104253695D01*
X127745067Y-104292400D01*
X127783771Y-104331105D01*
X127822476Y-104408514D01*
X127822476Y-104485924D01*
X127783771Y-104602038D01*
X127319314Y-105066495D01*
X127822476Y-105066495D01*
X126452086Y-109308295D02*
X126181153Y-108921248D01*
X125987629Y-109308295D02*
X125987629Y-108495495D01*
X126297267Y-108495495D01*
X126374676Y-108534200D01*
X126413381Y-108572905D01*
X126452086Y-108650314D01*
X126452086Y-108766429D01*
X126413381Y-108843838D01*
X126374676Y-108882543D01*
X126297267Y-108921248D01*
X125987629Y-108921248D01*
X127226181Y-109308295D02*
X126761724Y-109308295D01*
X126993953Y-109308295D02*
X126993953Y-108495495D01*
X126916543Y-108611610D01*
X126839134Y-108689019D01*
X126761724Y-108727724D01*
X127497114Y-108495495D02*
X128000276Y-108495495D01*
X127729343Y-108805133D01*
X127845457Y-108805133D01*
X127922867Y-108843838D01*
X127961571Y-108882543D01*
X128000276Y-108959952D01*
X128000276Y-109153476D01*
X127961571Y-109230886D01*
X127922867Y-109269590D01*
X127845457Y-109308295D01*
X127613229Y-109308295D01*
X127535819Y-109269590D01*
X127497114Y-109230886D01*
X127645886Y-101485095D02*
X127374953Y-101098048D01*
X127181429Y-101485095D02*
X127181429Y-100672295D01*
X127491067Y-100672295D01*
X127568476Y-100711000D01*
X127607181Y-100749705D01*
X127645886Y-100827114D01*
X127645886Y-100943229D01*
X127607181Y-101020638D01*
X127568476Y-101059343D01*
X127491067Y-101098048D01*
X127181429Y-101098048D01*
X128419981Y-101485095D02*
X127955524Y-101485095D01*
X128187753Y-101485095D02*
X128187753Y-100672295D01*
X128110343Y-100788410D01*
X128032934Y-100865819D01*
X127955524Y-100904524D01*
X129116667Y-100943229D02*
X129116667Y-101485095D01*
X128923143Y-100633590D02*
X128729619Y-101214162D01*
X129232781Y-101214162D01*
X129627086Y-112686495D02*
X129356153Y-112299448D01*
X129162629Y-112686495D02*
X129162629Y-111873695D01*
X129472267Y-111873695D01*
X129549676Y-111912400D01*
X129588381Y-111951105D01*
X129627086Y-112028514D01*
X129627086Y-112144629D01*
X129588381Y-112222038D01*
X129549676Y-112260743D01*
X129472267Y-112299448D01*
X129162629Y-112299448D01*
X130401181Y-112686495D02*
X129936724Y-112686495D01*
X130168953Y-112686495D02*
X130168953Y-111873695D01*
X130091543Y-111989810D01*
X130014134Y-112067219D01*
X129936724Y-112105924D01*
X131136571Y-111873695D02*
X130749524Y-111873695D01*
X130710819Y-112260743D01*
X130749524Y-112222038D01*
X130826933Y-112183333D01*
X131020457Y-112183333D01*
X131097867Y-112222038D01*
X131136571Y-112260743D01*
X131175276Y-112338152D01*
X131175276Y-112531676D01*
X131136571Y-112609086D01*
X131097867Y-112647790D01*
X131020457Y-112686495D01*
X130826933Y-112686495D01*
X130749524Y-112647790D01*
X130710819Y-112609086D01*
X130262086Y-101535895D02*
X129991153Y-101148848D01*
X129797629Y-101535895D02*
X129797629Y-100723095D01*
X130107267Y-100723095D01*
X130184676Y-100761800D01*
X130223381Y-100800505D01*
X130262086Y-100877914D01*
X130262086Y-100994029D01*
X130223381Y-101071438D01*
X130184676Y-101110143D01*
X130107267Y-101148848D01*
X129797629Y-101148848D01*
X131036181Y-101535895D02*
X130571724Y-101535895D01*
X130803953Y-101535895D02*
X130803953Y-100723095D01*
X130726543Y-100839210D01*
X130649134Y-100916619D01*
X130571724Y-100955324D01*
X131732867Y-100723095D02*
X131578048Y-100723095D01*
X131500638Y-100761800D01*
X131461933Y-100800505D01*
X131384524Y-100916619D01*
X131345819Y-101071438D01*
X131345819Y-101381076D01*
X131384524Y-101458486D01*
X131423229Y-101497190D01*
X131500638Y-101535895D01*
X131655457Y-101535895D01*
X131732867Y-101497190D01*
X131771571Y-101458486D01*
X131810276Y-101381076D01*
X131810276Y-101187552D01*
X131771571Y-101110143D01*
X131732867Y-101071438D01*
X131655457Y-101032733D01*
X131500638Y-101032733D01*
X131423229Y-101071438D01*
X131384524Y-101110143D01*
X131345819Y-101187552D01*
X145578286Y-85660895D02*
X145307353Y-85273848D01*
X145113829Y-85660895D02*
X145113829Y-84848095D01*
X145423467Y-84848095D01*
X145500876Y-84886800D01*
X145539581Y-84925505D01*
X145578286Y-85002914D01*
X145578286Y-85119029D01*
X145539581Y-85196438D01*
X145500876Y-85235143D01*
X145423467Y-85273848D01*
X145113829Y-85273848D01*
X146352381Y-85660895D02*
X145887924Y-85660895D01*
X146120153Y-85660895D02*
X146120153Y-84848095D01*
X146042743Y-84964210D01*
X145965334Y-85041619D01*
X145887924Y-85080324D01*
X146623314Y-84848095D02*
X147165181Y-84848095D01*
X146816838Y-85660895D01*
X143673286Y-90969495D02*
X143402353Y-90582448D01*
X143208829Y-90969495D02*
X143208829Y-90156695D01*
X143518467Y-90156695D01*
X143595876Y-90195400D01*
X143634581Y-90234105D01*
X143673286Y-90311514D01*
X143673286Y-90427629D01*
X143634581Y-90505038D01*
X143595876Y-90543743D01*
X143518467Y-90582448D01*
X143208829Y-90582448D01*
X144447381Y-90969495D02*
X143982924Y-90969495D01*
X144215153Y-90969495D02*
X144215153Y-90156695D01*
X144137743Y-90272810D01*
X144060334Y-90350219D01*
X143982924Y-90388924D01*
X144911838Y-90505038D02*
X144834429Y-90466333D01*
X144795724Y-90427629D01*
X144757019Y-90350219D01*
X144757019Y-90311514D01*
X144795724Y-90234105D01*
X144834429Y-90195400D01*
X144911838Y-90156695D01*
X145066657Y-90156695D01*
X145144067Y-90195400D01*
X145182771Y-90234105D01*
X145221476Y-90311514D01*
X145221476Y-90350219D01*
X145182771Y-90427629D01*
X145144067Y-90466333D01*
X145066657Y-90505038D01*
X144911838Y-90505038D01*
X144834429Y-90543743D01*
X144795724Y-90582448D01*
X144757019Y-90659857D01*
X144757019Y-90814676D01*
X144795724Y-90892086D01*
X144834429Y-90930790D01*
X144911838Y-90969495D01*
X145066657Y-90969495D01*
X145144067Y-90930790D01*
X145182771Y-90892086D01*
X145221476Y-90814676D01*
X145221476Y-90659857D01*
X145182771Y-90582448D01*
X145144067Y-90543743D01*
X145066657Y-90505038D01*
X126985486Y-112661095D02*
X126714553Y-112274048D01*
X126521029Y-112661095D02*
X126521029Y-111848295D01*
X126830667Y-111848295D01*
X126908076Y-111887000D01*
X126946781Y-111925705D01*
X126985486Y-112003114D01*
X126985486Y-112119229D01*
X126946781Y-112196638D01*
X126908076Y-112235343D01*
X126830667Y-112274048D01*
X126521029Y-112274048D01*
X127759581Y-112661095D02*
X127295124Y-112661095D01*
X127527353Y-112661095D02*
X127527353Y-111848295D01*
X127449943Y-111964410D01*
X127372534Y-112041819D01*
X127295124Y-112080524D01*
X128146629Y-112661095D02*
X128301448Y-112661095D01*
X128378857Y-112622390D01*
X128417562Y-112583686D01*
X128494971Y-112467571D01*
X128533676Y-112312752D01*
X128533676Y-112003114D01*
X128494971Y-111925705D01*
X128456267Y-111887000D01*
X128378857Y-111848295D01*
X128224038Y-111848295D01*
X128146629Y-111887000D01*
X128107924Y-111925705D01*
X128069219Y-112003114D01*
X128069219Y-112196638D01*
X128107924Y-112274048D01*
X128146629Y-112312752D01*
X128224038Y-112351457D01*
X128378857Y-112351457D01*
X128456267Y-112312752D01*
X128494971Y-112274048D01*
X128533676Y-112196638D01*
X158430686Y-134200295D02*
X158159753Y-133813248D01*
X157966229Y-134200295D02*
X157966229Y-133387495D01*
X158275867Y-133387495D01*
X158353276Y-133426200D01*
X158391981Y-133464905D01*
X158430686Y-133542314D01*
X158430686Y-133658429D01*
X158391981Y-133735838D01*
X158353276Y-133774543D01*
X158275867Y-133813248D01*
X157966229Y-133813248D01*
X158740324Y-133464905D02*
X158779029Y-133426200D01*
X158856438Y-133387495D01*
X159049962Y-133387495D01*
X159127372Y-133426200D01*
X159166076Y-133464905D01*
X159204781Y-133542314D01*
X159204781Y-133619724D01*
X159166076Y-133735838D01*
X158701619Y-134200295D01*
X159204781Y-134200295D01*
X159707943Y-133387495D02*
X159785352Y-133387495D01*
X159862762Y-133426200D01*
X159901467Y-133464905D01*
X159940171Y-133542314D01*
X159978876Y-133697133D01*
X159978876Y-133890657D01*
X159940171Y-134045476D01*
X159901467Y-134122886D01*
X159862762Y-134161590D01*
X159785352Y-134200295D01*
X159707943Y-134200295D01*
X159630533Y-134161590D01*
X159591829Y-134122886D01*
X159553124Y-134045476D01*
X159514419Y-133890657D01*
X159514419Y-133697133D01*
X159553124Y-133542314D01*
X159591829Y-133464905D01*
X159630533Y-133426200D01*
X159707943Y-133387495D01*
X149337486Y-138391295D02*
X149066553Y-138004248D01*
X148873029Y-138391295D02*
X148873029Y-137578495D01*
X149182667Y-137578495D01*
X149260076Y-137617200D01*
X149298781Y-137655905D01*
X149337486Y-137733314D01*
X149337486Y-137849429D01*
X149298781Y-137926838D01*
X149260076Y-137965543D01*
X149182667Y-138004248D01*
X148873029Y-138004248D01*
X149647124Y-137655905D02*
X149685829Y-137617200D01*
X149763238Y-137578495D01*
X149956762Y-137578495D01*
X150034172Y-137617200D01*
X150072876Y-137655905D01*
X150111581Y-137733314D01*
X150111581Y-137810724D01*
X150072876Y-137926838D01*
X149608419Y-138391295D01*
X150111581Y-138391295D01*
X150885676Y-138391295D02*
X150421219Y-138391295D01*
X150653448Y-138391295D02*
X150653448Y-137578495D01*
X150576038Y-137694610D01*
X150498629Y-137772019D01*
X150421219Y-137810724D01*
X156246286Y-105701495D02*
X155975353Y-105314448D01*
X155781829Y-105701495D02*
X155781829Y-104888695D01*
X156091467Y-104888695D01*
X156168876Y-104927400D01*
X156207581Y-104966105D01*
X156246286Y-105043514D01*
X156246286Y-105159629D01*
X156207581Y-105237038D01*
X156168876Y-105275743D01*
X156091467Y-105314448D01*
X155781829Y-105314448D01*
X156555924Y-104966105D02*
X156594629Y-104927400D01*
X156672038Y-104888695D01*
X156865562Y-104888695D01*
X156942972Y-104927400D01*
X156981676Y-104966105D01*
X157020381Y-105043514D01*
X157020381Y-105120924D01*
X156981676Y-105237038D01*
X156517219Y-105701495D01*
X157020381Y-105701495D01*
X157717067Y-105159629D02*
X157717067Y-105701495D01*
X157523543Y-104849990D02*
X157330019Y-105430562D01*
X157833181Y-105430562D01*
X156906686Y-102450295D02*
X156635753Y-102063248D01*
X156442229Y-102450295D02*
X156442229Y-101637495D01*
X156751867Y-101637495D01*
X156829276Y-101676200D01*
X156867981Y-101714905D01*
X156906686Y-101792314D01*
X156906686Y-101908429D01*
X156867981Y-101985838D01*
X156829276Y-102024543D01*
X156751867Y-102063248D01*
X156442229Y-102063248D01*
X157216324Y-101714905D02*
X157255029Y-101676200D01*
X157332438Y-101637495D01*
X157525962Y-101637495D01*
X157603372Y-101676200D01*
X157642076Y-101714905D01*
X157680781Y-101792314D01*
X157680781Y-101869724D01*
X157642076Y-101985838D01*
X157177619Y-102450295D01*
X157680781Y-102450295D01*
X158416171Y-101637495D02*
X158029124Y-101637495D01*
X157990419Y-102024543D01*
X158029124Y-101985838D01*
X158106533Y-101947133D01*
X158300057Y-101947133D01*
X158377467Y-101985838D01*
X158416171Y-102024543D01*
X158454876Y-102101952D01*
X158454876Y-102295476D01*
X158416171Y-102372886D01*
X158377467Y-102411590D01*
X158300057Y-102450295D01*
X158106533Y-102450295D01*
X158029124Y-102411590D01*
X157990419Y-102372886D01*
X156322486Y-97217895D02*
X156051553Y-96830848D01*
X155858029Y-97217895D02*
X155858029Y-96405095D01*
X156167667Y-96405095D01*
X156245076Y-96443800D01*
X156283781Y-96482505D01*
X156322486Y-96559914D01*
X156322486Y-96676029D01*
X156283781Y-96753438D01*
X156245076Y-96792143D01*
X156167667Y-96830848D01*
X155858029Y-96830848D01*
X156632124Y-96482505D02*
X156670829Y-96443800D01*
X156748238Y-96405095D01*
X156941762Y-96405095D01*
X157019172Y-96443800D01*
X157057876Y-96482505D01*
X157096581Y-96559914D01*
X157096581Y-96637324D01*
X157057876Y-96753438D01*
X156593419Y-97217895D01*
X157096581Y-97217895D01*
X157793267Y-96405095D02*
X157638448Y-96405095D01*
X157561038Y-96443800D01*
X157522333Y-96482505D01*
X157444924Y-96598619D01*
X157406219Y-96753438D01*
X157406219Y-97063076D01*
X157444924Y-97140486D01*
X157483629Y-97179190D01*
X157561038Y-97217895D01*
X157715857Y-97217895D01*
X157793267Y-97179190D01*
X157831971Y-97140486D01*
X157870676Y-97063076D01*
X157870676Y-96869552D01*
X157831971Y-96792143D01*
X157793267Y-96753438D01*
X157715857Y-96714733D01*
X157561038Y-96714733D01*
X157483629Y-96753438D01*
X157444924Y-96792143D01*
X157406219Y-96869552D01*
X156678086Y-110781495D02*
X156407153Y-110394448D01*
X156213629Y-110781495D02*
X156213629Y-109968695D01*
X156523267Y-109968695D01*
X156600676Y-110007400D01*
X156639381Y-110046105D01*
X156678086Y-110123514D01*
X156678086Y-110239629D01*
X156639381Y-110317038D01*
X156600676Y-110355743D01*
X156523267Y-110394448D01*
X156213629Y-110394448D01*
X156987724Y-110046105D02*
X157026429Y-110007400D01*
X157103838Y-109968695D01*
X157297362Y-109968695D01*
X157374772Y-110007400D01*
X157413476Y-110046105D01*
X157452181Y-110123514D01*
X157452181Y-110200924D01*
X157413476Y-110317038D01*
X156949019Y-110781495D01*
X157452181Y-110781495D01*
X157723114Y-109968695D02*
X158264981Y-109968695D01*
X157916638Y-110781495D01*
X158710086Y-98005295D02*
X158439153Y-97618248D01*
X158245629Y-98005295D02*
X158245629Y-97192495D01*
X158555267Y-97192495D01*
X158632676Y-97231200D01*
X158671381Y-97269905D01*
X158710086Y-97347314D01*
X158710086Y-97463429D01*
X158671381Y-97540838D01*
X158632676Y-97579543D01*
X158555267Y-97618248D01*
X158245629Y-97618248D01*
X159019724Y-97269905D02*
X159058429Y-97231200D01*
X159135838Y-97192495D01*
X159329362Y-97192495D01*
X159406772Y-97231200D01*
X159445476Y-97269905D01*
X159484181Y-97347314D01*
X159484181Y-97424724D01*
X159445476Y-97540838D01*
X158981019Y-98005295D01*
X159484181Y-98005295D01*
X159948638Y-97540838D02*
X159871229Y-97502133D01*
X159832524Y-97463429D01*
X159793819Y-97386019D01*
X159793819Y-97347314D01*
X159832524Y-97269905D01*
X159871229Y-97231200D01*
X159948638Y-97192495D01*
X160103457Y-97192495D01*
X160180867Y-97231200D01*
X160219571Y-97269905D01*
X160258276Y-97347314D01*
X160258276Y-97386019D01*
X160219571Y-97463429D01*
X160180867Y-97502133D01*
X160103457Y-97540838D01*
X159948638Y-97540838D01*
X159871229Y-97579543D01*
X159832524Y-97618248D01*
X159793819Y-97695657D01*
X159793819Y-97850476D01*
X159832524Y-97927886D01*
X159871229Y-97966590D01*
X159948638Y-98005295D01*
X160103457Y-98005295D01*
X160180867Y-97966590D01*
X160219571Y-97927886D01*
X160258276Y-97850476D01*
X160258276Y-97695657D01*
X160219571Y-97618248D01*
X160180867Y-97579543D01*
X160103457Y-97540838D01*
X158710086Y-106412695D02*
X158439153Y-106025648D01*
X158245629Y-106412695D02*
X158245629Y-105599895D01*
X158555267Y-105599895D01*
X158632676Y-105638600D01*
X158671381Y-105677305D01*
X158710086Y-105754714D01*
X158710086Y-105870829D01*
X158671381Y-105948238D01*
X158632676Y-105986943D01*
X158555267Y-106025648D01*
X158245629Y-106025648D01*
X159019724Y-105677305D02*
X159058429Y-105638600D01*
X159135838Y-105599895D01*
X159329362Y-105599895D01*
X159406772Y-105638600D01*
X159445476Y-105677305D01*
X159484181Y-105754714D01*
X159484181Y-105832124D01*
X159445476Y-105948238D01*
X158981019Y-106412695D01*
X159484181Y-106412695D01*
X159871229Y-106412695D02*
X160026048Y-106412695D01*
X160103457Y-106373990D01*
X160142162Y-106335286D01*
X160219571Y-106219171D01*
X160258276Y-106064352D01*
X160258276Y-105754714D01*
X160219571Y-105677305D01*
X160180867Y-105638600D01*
X160103457Y-105599895D01*
X159948638Y-105599895D01*
X159871229Y-105638600D01*
X159832524Y-105677305D01*
X159793819Y-105754714D01*
X159793819Y-105948238D01*
X159832524Y-106025648D01*
X159871229Y-106064352D01*
X159948638Y-106103057D01*
X160103457Y-106103057D01*
X160180867Y-106064352D01*
X160219571Y-106025648D01*
X160258276Y-105948238D01*
X126304525Y-135130295D02*
X126768982Y-135130295D01*
X126536753Y-135943095D02*
X126536753Y-135130295D01*
X127039915Y-135943095D02*
X127039915Y-135130295D01*
X127349553Y-135130295D01*
X127426962Y-135169000D01*
X127465667Y-135207705D01*
X127504372Y-135285114D01*
X127504372Y-135401229D01*
X127465667Y-135478638D01*
X127426962Y-135517343D01*
X127349553Y-135556048D01*
X127039915Y-135556048D01*
X128278467Y-135943095D02*
X127814010Y-135943095D01*
X128046239Y-135943095D02*
X128046239Y-135130295D01*
X127968829Y-135246410D01*
X127891420Y-135323819D01*
X127814010Y-135362524D01*
X124094725Y-82993895D02*
X124559182Y-82993895D01*
X124326953Y-83806695D02*
X124326953Y-82993895D01*
X124830115Y-83806695D02*
X124830115Y-82993895D01*
X125139753Y-82993895D01*
X125217162Y-83032600D01*
X125255867Y-83071305D01*
X125294572Y-83148714D01*
X125294572Y-83264829D01*
X125255867Y-83342238D01*
X125217162Y-83380943D01*
X125139753Y-83419648D01*
X124830115Y-83419648D01*
X125604210Y-83071305D02*
X125642915Y-83032600D01*
X125720324Y-82993895D01*
X125913848Y-82993895D01*
X125991258Y-83032600D01*
X126029962Y-83071305D01*
X126068667Y-83148714D01*
X126068667Y-83226124D01*
X126029962Y-83342238D01*
X125565505Y-83806695D01*
X126068667Y-83806695D01*
X119319525Y-103354895D02*
X119783982Y-103354895D01*
X119551753Y-104167695D02*
X119551753Y-103354895D01*
X120054915Y-104167695D02*
X120054915Y-103354895D01*
X120364553Y-103354895D01*
X120441962Y-103393600D01*
X120480667Y-103432305D01*
X120519372Y-103509714D01*
X120519372Y-103625829D01*
X120480667Y-103703238D01*
X120441962Y-103741943D01*
X120364553Y-103780648D01*
X120054915Y-103780648D01*
X120790305Y-103354895D02*
X121293467Y-103354895D01*
X121022534Y-103664533D01*
X121138648Y-103664533D01*
X121216058Y-103703238D01*
X121254762Y-103741943D01*
X121293467Y-103819352D01*
X121293467Y-104012876D01*
X121254762Y-104090286D01*
X121216058Y-104128990D01*
X121138648Y-104167695D01*
X120906420Y-104167695D01*
X120829010Y-104128990D01*
X120790305Y-104090286D01*
X126215625Y-124817895D02*
X126680082Y-124817895D01*
X126447853Y-125630695D02*
X126447853Y-124817895D01*
X126951015Y-125630695D02*
X126951015Y-124817895D01*
X127260653Y-124817895D01*
X127338062Y-124856600D01*
X127376767Y-124895305D01*
X127415472Y-124972714D01*
X127415472Y-125088829D01*
X127376767Y-125166238D01*
X127338062Y-125204943D01*
X127260653Y-125243648D01*
X126951015Y-125243648D01*
X128112158Y-125088829D02*
X128112158Y-125630695D01*
X127918634Y-124779190D02*
X127725110Y-125359762D01*
X128228272Y-125359762D01*
X169890925Y-84038195D02*
X170355382Y-84038195D01*
X170123153Y-84850995D02*
X170123153Y-84038195D01*
X170626315Y-84850995D02*
X170626315Y-84038195D01*
X170935953Y-84038195D01*
X171013362Y-84076900D01*
X171052067Y-84115605D01*
X171090772Y-84193014D01*
X171090772Y-84309129D01*
X171052067Y-84386538D01*
X171013362Y-84425243D01*
X170935953Y-84463948D01*
X170626315Y-84463948D01*
X171826162Y-84038195D02*
X171439115Y-84038195D01*
X171400410Y-84425243D01*
X171439115Y-84386538D01*
X171516524Y-84347833D01*
X171710048Y-84347833D01*
X171787458Y-84386538D01*
X171826162Y-84425243D01*
X171864867Y-84502652D01*
X171864867Y-84696176D01*
X171826162Y-84773586D01*
X171787458Y-84812290D01*
X171710048Y-84850995D01*
X171516524Y-84850995D01*
X171439115Y-84812290D01*
X171400410Y-84773586D01*
X163693325Y-97792295D02*
X164157782Y-97792295D01*
X163925553Y-98605095D02*
X163925553Y-97792295D01*
X164428715Y-98605095D02*
X164428715Y-97792295D01*
X164738353Y-97792295D01*
X164815762Y-97831000D01*
X164854467Y-97869705D01*
X164893172Y-97947114D01*
X164893172Y-98063229D01*
X164854467Y-98140638D01*
X164815762Y-98179343D01*
X164738353Y-98218048D01*
X164428715Y-98218048D01*
X165589858Y-97792295D02*
X165435039Y-97792295D01*
X165357629Y-97831000D01*
X165318924Y-97869705D01*
X165241515Y-97985819D01*
X165202810Y-98140638D01*
X165202810Y-98450276D01*
X165241515Y-98527686D01*
X165280220Y-98566390D01*
X165357629Y-98605095D01*
X165512448Y-98605095D01*
X165589858Y-98566390D01*
X165628562Y-98527686D01*
X165667267Y-98450276D01*
X165667267Y-98256752D01*
X165628562Y-98179343D01*
X165589858Y-98140638D01*
X165512448Y-98101933D01*
X165357629Y-98101933D01*
X165280220Y-98140638D01*
X165241515Y-98179343D01*
X165202810Y-98256752D01*
X165445925Y-111505395D02*
X165910382Y-111505395D01*
X165678153Y-112318195D02*
X165678153Y-111505395D01*
X166181315Y-112318195D02*
X166181315Y-111505395D01*
X166490953Y-111505395D01*
X166568362Y-111544100D01*
X166607067Y-111582805D01*
X166645772Y-111660214D01*
X166645772Y-111776329D01*
X166607067Y-111853738D01*
X166568362Y-111892443D01*
X166490953Y-111931148D01*
X166181315Y-111931148D01*
X166916705Y-111505395D02*
X167458572Y-111505395D01*
X167110229Y-112318195D01*
X161293025Y-126811795D02*
X161757482Y-126811795D01*
X161525253Y-127624595D02*
X161525253Y-126811795D01*
X162028415Y-127624595D02*
X162028415Y-126811795D01*
X162338053Y-126811795D01*
X162415462Y-126850500D01*
X162454167Y-126889205D01*
X162492872Y-126966614D01*
X162492872Y-127082729D01*
X162454167Y-127160138D01*
X162415462Y-127198843D01*
X162338053Y-127237548D01*
X162028415Y-127237548D01*
X162957329Y-127160138D02*
X162879920Y-127121433D01*
X162841215Y-127082729D01*
X162802510Y-127005319D01*
X162802510Y-126966614D01*
X162841215Y-126889205D01*
X162879920Y-126850500D01*
X162957329Y-126811795D01*
X163112148Y-126811795D01*
X163189558Y-126850500D01*
X163228262Y-126889205D01*
X163266967Y-126966614D01*
X163266967Y-127005319D01*
X163228262Y-127082729D01*
X163189558Y-127121433D01*
X163112148Y-127160138D01*
X162957329Y-127160138D01*
X162879920Y-127198843D01*
X162841215Y-127237548D01*
X162802510Y-127314957D01*
X162802510Y-127469776D01*
X162841215Y-127547186D01*
X162879920Y-127585890D01*
X162957329Y-127624595D01*
X163112148Y-127624595D01*
X163189558Y-127585890D01*
X163228262Y-127547186D01*
X163266967Y-127469776D01*
X163266967Y-127314957D01*
X163228262Y-127237548D01*
X163189558Y-127198843D01*
X163112148Y-127160138D01*
X169636924Y-97929095D02*
X169636924Y-98587076D01*
X169675629Y-98664486D01*
X169714333Y-98703190D01*
X169791743Y-98741895D01*
X169946562Y-98741895D01*
X170023971Y-98703190D01*
X170062676Y-98664486D01*
X170101381Y-98587076D01*
X170101381Y-97929095D01*
X170914181Y-98741895D02*
X170449724Y-98741895D01*
X170681953Y-98741895D02*
X170681953Y-97929095D01*
X170604543Y-98045210D01*
X170527134Y-98122619D01*
X170449724Y-98161324D01*
X155317977Y-114760395D02*
X155782434Y-114760395D01*
X155550205Y-115573195D02*
X155550205Y-114760395D01*
X156053367Y-115573195D02*
X156053367Y-114760395D01*
X156363005Y-114760395D01*
X156440414Y-114799100D01*
X156479119Y-114837805D01*
X156517824Y-114915214D01*
X156517824Y-115031329D01*
X156479119Y-115108738D01*
X156440414Y-115147443D01*
X156363005Y-115186148D01*
X156053367Y-115186148D01*
X156827462Y-114837805D02*
X156866167Y-114799100D01*
X156943576Y-114760395D01*
X157137100Y-114760395D01*
X157214510Y-114799100D01*
X157253214Y-114837805D01*
X157291919Y-114915214D01*
X157291919Y-114992624D01*
X157253214Y-115108738D01*
X156788757Y-115573195D01*
X157291919Y-115573195D01*
X158027309Y-114760395D02*
X157640262Y-114760395D01*
X157601557Y-115147443D01*
X157640262Y-115108738D01*
X157717671Y-115070033D01*
X157911195Y-115070033D01*
X157988605Y-115108738D01*
X158027309Y-115147443D01*
X158066014Y-115224852D01*
X158066014Y-115418376D01*
X158027309Y-115495786D01*
X157988605Y-115534490D01*
X157911195Y-115573195D01*
X157717671Y-115573195D01*
X157640262Y-115534490D01*
X157601557Y-115495786D01*
X159851877Y-103224995D02*
X160316334Y-103224995D01*
X160084105Y-104037795D02*
X160084105Y-103224995D01*
X160587267Y-104037795D02*
X160587267Y-103224995D01*
X160896905Y-103224995D01*
X160974314Y-103263700D01*
X161013019Y-103302405D01*
X161051724Y-103379814D01*
X161051724Y-103495929D01*
X161013019Y-103573338D01*
X160974314Y-103612043D01*
X160896905Y-103650748D01*
X160587267Y-103650748D01*
X161361362Y-103302405D02*
X161400067Y-103263700D01*
X161477476Y-103224995D01*
X161671000Y-103224995D01*
X161748410Y-103263700D01*
X161787114Y-103302405D01*
X161825819Y-103379814D01*
X161825819Y-103457224D01*
X161787114Y-103573338D01*
X161322657Y-104037795D01*
X161825819Y-104037795D01*
X162522505Y-103495929D02*
X162522505Y-104037795D01*
X162328981Y-103186290D02*
X162135457Y-103766862D01*
X162638619Y-103766862D01*
X161782277Y-87163295D02*
X162246734Y-87163295D01*
X162014505Y-87976095D02*
X162014505Y-87163295D01*
X162517667Y-87976095D02*
X162517667Y-87163295D01*
X162827305Y-87163295D01*
X162904714Y-87202000D01*
X162943419Y-87240705D01*
X162982124Y-87318114D01*
X162982124Y-87434229D01*
X162943419Y-87511638D01*
X162904714Y-87550343D01*
X162827305Y-87589048D01*
X162517667Y-87589048D01*
X163291762Y-87240705D02*
X163330467Y-87202000D01*
X163407876Y-87163295D01*
X163601400Y-87163295D01*
X163678810Y-87202000D01*
X163717514Y-87240705D01*
X163756219Y-87318114D01*
X163756219Y-87395524D01*
X163717514Y-87511638D01*
X163253057Y-87976095D01*
X163756219Y-87976095D01*
X164065857Y-87240705D02*
X164104562Y-87202000D01*
X164181971Y-87163295D01*
X164375495Y-87163295D01*
X164452905Y-87202000D01*
X164491609Y-87240705D01*
X164530314Y-87318114D01*
X164530314Y-87395524D01*
X164491609Y-87511638D01*
X164027152Y-87976095D01*
X164530314Y-87976095D01*
X154568677Y-124218095D02*
X155033134Y-124218095D01*
X154800905Y-125030895D02*
X154800905Y-124218095D01*
X155304067Y-125030895D02*
X155304067Y-124218095D01*
X155613705Y-124218095D01*
X155691114Y-124256800D01*
X155729819Y-124295505D01*
X155768524Y-124372914D01*
X155768524Y-124489029D01*
X155729819Y-124566438D01*
X155691114Y-124605143D01*
X155613705Y-124643848D01*
X155304067Y-124643848D01*
X156078162Y-124295505D02*
X156116867Y-124256800D01*
X156194276Y-124218095D01*
X156387800Y-124218095D01*
X156465210Y-124256800D01*
X156503914Y-124295505D01*
X156542619Y-124372914D01*
X156542619Y-124450324D01*
X156503914Y-124566438D01*
X156039457Y-125030895D01*
X156542619Y-125030895D01*
X157045781Y-124218095D02*
X157123190Y-124218095D01*
X157200600Y-124256800D01*
X157239305Y-124295505D01*
X157278009Y-124372914D01*
X157316714Y-124527733D01*
X157316714Y-124721257D01*
X157278009Y-124876076D01*
X157239305Y-124953486D01*
X157200600Y-124992190D01*
X157123190Y-125030895D01*
X157045781Y-125030895D01*
X156968371Y-124992190D01*
X156929667Y-124953486D01*
X156890962Y-124876076D01*
X156852257Y-124721257D01*
X156852257Y-124527733D01*
X156890962Y-124372914D01*
X156929667Y-124295505D01*
X156968371Y-124256800D01*
X157045781Y-124218095D01*
X154822677Y-82210295D02*
X155287134Y-82210295D01*
X155054905Y-83023095D02*
X155054905Y-82210295D01*
X155558067Y-83023095D02*
X155558067Y-82210295D01*
X155867705Y-82210295D01*
X155945114Y-82249000D01*
X155983819Y-82287705D01*
X156022524Y-82365114D01*
X156022524Y-82481229D01*
X155983819Y-82558638D01*
X155945114Y-82597343D01*
X155867705Y-82636048D01*
X155558067Y-82636048D01*
X156796619Y-83023095D02*
X156332162Y-83023095D01*
X156564391Y-83023095D02*
X156564391Y-82210295D01*
X156486981Y-82326410D01*
X156409572Y-82403819D01*
X156332162Y-82442524D01*
X157183667Y-83023095D02*
X157338486Y-83023095D01*
X157415895Y-82984390D01*
X157454600Y-82945686D01*
X157532009Y-82829571D01*
X157570714Y-82674752D01*
X157570714Y-82365114D01*
X157532009Y-82287705D01*
X157493305Y-82249000D01*
X157415895Y-82210295D01*
X157261076Y-82210295D01*
X157183667Y-82249000D01*
X157144962Y-82287705D01*
X157106257Y-82365114D01*
X157106257Y-82558638D01*
X157144962Y-82636048D01*
X157183667Y-82674752D01*
X157261076Y-82713457D01*
X157415895Y-82713457D01*
X157493305Y-82674752D01*
X157532009Y-82636048D01*
X157570714Y-82558638D01*
X147228077Y-111632395D02*
X147692534Y-111632395D01*
X147460305Y-112445195D02*
X147460305Y-111632395D01*
X147963467Y-112445195D02*
X147963467Y-111632395D01*
X148273105Y-111632395D01*
X148350514Y-111671100D01*
X148389219Y-111709805D01*
X148427924Y-111787214D01*
X148427924Y-111903329D01*
X148389219Y-111980738D01*
X148350514Y-112019443D01*
X148273105Y-112058148D01*
X147963467Y-112058148D01*
X149202019Y-112445195D02*
X148737562Y-112445195D01*
X148969791Y-112445195D02*
X148969791Y-111632395D01*
X148892381Y-111748510D01*
X148814972Y-111825919D01*
X148737562Y-111864624D01*
X149666476Y-111980738D02*
X149589067Y-111942033D01*
X149550362Y-111903329D01*
X149511657Y-111825919D01*
X149511657Y-111787214D01*
X149550362Y-111709805D01*
X149589067Y-111671100D01*
X149666476Y-111632395D01*
X149821295Y-111632395D01*
X149898705Y-111671100D01*
X149937409Y-111709805D01*
X149976114Y-111787214D01*
X149976114Y-111825919D01*
X149937409Y-111903329D01*
X149898705Y-111942033D01*
X149821295Y-111980738D01*
X149666476Y-111980738D01*
X149589067Y-112019443D01*
X149550362Y-112058148D01*
X149511657Y-112135557D01*
X149511657Y-112290376D01*
X149550362Y-112367786D01*
X149589067Y-112406490D01*
X149666476Y-112445195D01*
X149821295Y-112445195D01*
X149898705Y-112406490D01*
X149937409Y-112367786D01*
X149976114Y-112290376D01*
X149976114Y-112135557D01*
X149937409Y-112058148D01*
X149898705Y-112019443D01*
X149821295Y-111980738D01*
X145348477Y-95795495D02*
X145812934Y-95795495D01*
X145580705Y-96608295D02*
X145580705Y-95795495D01*
X146083867Y-96608295D02*
X146083867Y-95795495D01*
X146393505Y-95795495D01*
X146470914Y-95834200D01*
X146509619Y-95872905D01*
X146548324Y-95950314D01*
X146548324Y-96066429D01*
X146509619Y-96143838D01*
X146470914Y-96182543D01*
X146393505Y-96221248D01*
X146083867Y-96221248D01*
X147322419Y-96608295D02*
X146857962Y-96608295D01*
X147090191Y-96608295D02*
X147090191Y-95795495D01*
X147012781Y-95911610D01*
X146935372Y-95989019D01*
X146857962Y-96027724D01*
X147593352Y-95795495D02*
X148135219Y-95795495D01*
X147786876Y-96608295D01*
X147583677Y-82210295D02*
X148048134Y-82210295D01*
X147815905Y-83023095D02*
X147815905Y-82210295D01*
X148319067Y-83023095D02*
X148319067Y-82210295D01*
X148628705Y-82210295D01*
X148706114Y-82249000D01*
X148744819Y-82287705D01*
X148783524Y-82365114D01*
X148783524Y-82481229D01*
X148744819Y-82558638D01*
X148706114Y-82597343D01*
X148628705Y-82636048D01*
X148319067Y-82636048D01*
X149557619Y-83023095D02*
X149093162Y-83023095D01*
X149325391Y-83023095D02*
X149325391Y-82210295D01*
X149247981Y-82326410D01*
X149170572Y-82403819D01*
X149093162Y-82442524D01*
X150254305Y-82210295D02*
X150099486Y-82210295D01*
X150022076Y-82249000D01*
X149983371Y-82287705D01*
X149905962Y-82403819D01*
X149867257Y-82558638D01*
X149867257Y-82868276D01*
X149905962Y-82945686D01*
X149944667Y-82984390D01*
X150022076Y-83023095D01*
X150176895Y-83023095D01*
X150254305Y-82984390D01*
X150293009Y-82945686D01*
X150331714Y-82868276D01*
X150331714Y-82674752D01*
X150293009Y-82597343D01*
X150254305Y-82558638D01*
X150176895Y-82519933D01*
X150022076Y-82519933D01*
X149944667Y-82558638D01*
X149905962Y-82597343D01*
X149867257Y-82674752D01*
X112633277Y-102708095D02*
X113097734Y-102708095D01*
X112865505Y-103520895D02*
X112865505Y-102708095D01*
X113368667Y-103520895D02*
X113368667Y-102708095D01*
X113678305Y-102708095D01*
X113755714Y-102746800D01*
X113794419Y-102785505D01*
X113833124Y-102862914D01*
X113833124Y-102979029D01*
X113794419Y-103056438D01*
X113755714Y-103095143D01*
X113678305Y-103133848D01*
X113368667Y-103133848D01*
X114607219Y-103520895D02*
X114142762Y-103520895D01*
X114374991Y-103520895D02*
X114374991Y-102708095D01*
X114297581Y-102824210D01*
X114220172Y-102901619D01*
X114142762Y-102940324D01*
X114916857Y-102785505D02*
X114955562Y-102746800D01*
X115032971Y-102708095D01*
X115226495Y-102708095D01*
X115303905Y-102746800D01*
X115342609Y-102785505D01*
X115381314Y-102862914D01*
X115381314Y-102940324D01*
X115342609Y-103056438D01*
X114878152Y-103520895D01*
X115381314Y-103520895D01*
X117738677Y-82079495D02*
X118203134Y-82079495D01*
X117970905Y-82892295D02*
X117970905Y-82079495D01*
X118474067Y-82892295D02*
X118474067Y-82079495D01*
X118783705Y-82079495D01*
X118861114Y-82118200D01*
X118899819Y-82156905D01*
X118938524Y-82234314D01*
X118938524Y-82350429D01*
X118899819Y-82427838D01*
X118861114Y-82466543D01*
X118783705Y-82505248D01*
X118474067Y-82505248D01*
X119712619Y-82892295D02*
X119248162Y-82892295D01*
X119480391Y-82892295D02*
X119480391Y-82079495D01*
X119402981Y-82195610D01*
X119325572Y-82273019D01*
X119248162Y-82311724D01*
X120486714Y-82892295D02*
X120022257Y-82892295D01*
X120254486Y-82892295D02*
X120254486Y-82079495D01*
X120177076Y-82195610D01*
X120099667Y-82273019D01*
X120022257Y-82311724D01*
X117560877Y-121250095D02*
X118025334Y-121250095D01*
X117793105Y-122062895D02*
X117793105Y-121250095D01*
X118296267Y-122062895D02*
X118296267Y-121250095D01*
X118605905Y-121250095D01*
X118683314Y-121288800D01*
X118722019Y-121327505D01*
X118760724Y-121404914D01*
X118760724Y-121521029D01*
X118722019Y-121598438D01*
X118683314Y-121637143D01*
X118605905Y-121675848D01*
X118296267Y-121675848D01*
X119534819Y-122062895D02*
X119070362Y-122062895D01*
X119302591Y-122062895D02*
X119302591Y-121250095D01*
X119225181Y-121366210D01*
X119147772Y-121443619D01*
X119070362Y-121482324D01*
X120037981Y-121250095D02*
X120115390Y-121250095D01*
X120192800Y-121288800D01*
X120231505Y-121327505D01*
X120270209Y-121404914D01*
X120308914Y-121559733D01*
X120308914Y-121753257D01*
X120270209Y-121908076D01*
X120231505Y-121985486D01*
X120192800Y-122024190D01*
X120115390Y-122062895D01*
X120037981Y-122062895D01*
X119960571Y-122024190D01*
X119921867Y-121985486D01*
X119883162Y-121908076D01*
X119844457Y-121753257D01*
X119844457Y-121559733D01*
X119883162Y-121404914D01*
X119921867Y-121327505D01*
X119960571Y-121288800D01*
X120037981Y-121250095D01*
X154797277Y-90131295D02*
X154797277Y-90789276D01*
X154835982Y-90866686D01*
X154874686Y-90905390D01*
X154952096Y-90944095D01*
X155106915Y-90944095D01*
X155184324Y-90905390D01*
X155223029Y-90866686D01*
X155261734Y-90789276D01*
X155261734Y-90131295D01*
X156074534Y-90944095D02*
X155610077Y-90944095D01*
X155842306Y-90944095D02*
X155842306Y-90131295D01*
X155764896Y-90247410D01*
X155687487Y-90324819D01*
X155610077Y-90363524D01*
X156384172Y-90208705D02*
X156422877Y-90170000D01*
X156500286Y-90131295D01*
X156693810Y-90131295D01*
X156771220Y-90170000D01*
X156809924Y-90208705D01*
X156848629Y-90286114D01*
X156848629Y-90363524D01*
X156809924Y-90479638D01*
X156345467Y-90944095D01*
X156848629Y-90944095D01*
X153171677Y-98030695D02*
X153171677Y-98688676D01*
X153210382Y-98766086D01*
X153249086Y-98804790D01*
X153326496Y-98843495D01*
X153481315Y-98843495D01*
X153558724Y-98804790D01*
X153597429Y-98766086D01*
X153636134Y-98688676D01*
X153636134Y-98030695D01*
X154448934Y-98843495D02*
X153984477Y-98843495D01*
X154216706Y-98843495D02*
X154216706Y-98030695D01*
X154139296Y-98146810D01*
X154061887Y-98224219D01*
X153984477Y-98262924D01*
X154952096Y-98030695D02*
X155029505Y-98030695D01*
X155106915Y-98069400D01*
X155145620Y-98108105D01*
X155184324Y-98185514D01*
X155223029Y-98340333D01*
X155223029Y-98533857D01*
X155184324Y-98688676D01*
X155145620Y-98766086D01*
X155106915Y-98804790D01*
X155029505Y-98843495D01*
X154952096Y-98843495D01*
X154874686Y-98804790D01*
X154835982Y-98766086D01*
X154797277Y-98688676D01*
X154758572Y-98533857D01*
X154758572Y-98340333D01*
X154797277Y-98185514D01*
X154835982Y-98108105D01*
X154874686Y-98069400D01*
X154952096Y-98030695D01*
X152714477Y-105930095D02*
X152714477Y-106588076D01*
X152753182Y-106665486D01*
X152791886Y-106704190D01*
X152869296Y-106742895D01*
X153024115Y-106742895D01*
X153101524Y-106704190D01*
X153140229Y-106665486D01*
X153178934Y-106588076D01*
X153178934Y-105930095D01*
X153991734Y-106742895D02*
X153527277Y-106742895D01*
X153759506Y-106742895D02*
X153759506Y-105930095D01*
X153682096Y-106046210D01*
X153604687Y-106123619D01*
X153527277Y-106162324D01*
X154765829Y-106742895D02*
X154301372Y-106742895D01*
X154533601Y-106742895D02*
X154533601Y-105930095D01*
X154456191Y-106046210D01*
X154378782Y-106123619D01*
X154301372Y-106162324D01*
X147081724Y-132981095D02*
X147081724Y-133639076D01*
X147120429Y-133716486D01*
X147159133Y-133755190D01*
X147236543Y-133793895D01*
X147391362Y-133793895D01*
X147468771Y-133755190D01*
X147507476Y-133716486D01*
X147546181Y-133639076D01*
X147546181Y-132981095D01*
X147855819Y-132981095D02*
X148397686Y-132981095D01*
X148049343Y-133793895D01*
X177714124Y-111314895D02*
X177714124Y-111972876D01*
X177752829Y-112050286D01*
X177791533Y-112088990D01*
X177868943Y-112127695D01*
X178023762Y-112127695D01*
X178101171Y-112088990D01*
X178139876Y-112050286D01*
X178178581Y-111972876D01*
X178178581Y-111314895D01*
X178488219Y-111314895D02*
X178991381Y-111314895D01*
X178720448Y-111624533D01*
X178836562Y-111624533D01*
X178913972Y-111663238D01*
X178952676Y-111701943D01*
X178991381Y-111779352D01*
X178991381Y-111972876D01*
X178952676Y-112050286D01*
X178913972Y-112088990D01*
X178836562Y-112127695D01*
X178604334Y-112127695D01*
X178526924Y-112088990D01*
X178488219Y-112050286D01*
X177688724Y-103263095D02*
X177688724Y-103921076D01*
X177727429Y-103998486D01*
X177766133Y-104037190D01*
X177843543Y-104075895D01*
X177998362Y-104075895D01*
X178075771Y-104037190D01*
X178114476Y-103998486D01*
X178153181Y-103921076D01*
X178153181Y-103263095D01*
X178501524Y-103340505D02*
X178540229Y-103301800D01*
X178617638Y-103263095D01*
X178811162Y-103263095D01*
X178888572Y-103301800D01*
X178927276Y-103340505D01*
X178965981Y-103417914D01*
X178965981Y-103495324D01*
X178927276Y-103611438D01*
X178462819Y-104075895D01*
X178965981Y-104075895D01*
X140401524Y-84873495D02*
X140401524Y-85531476D01*
X140440229Y-85608886D01*
X140478933Y-85647590D01*
X140556343Y-85686295D01*
X140711162Y-85686295D01*
X140788571Y-85647590D01*
X140827276Y-85608886D01*
X140865981Y-85531476D01*
X140865981Y-84873495D01*
X141291734Y-85686295D02*
X141446553Y-85686295D01*
X141523962Y-85647590D01*
X141562667Y-85608886D01*
X141640076Y-85492771D01*
X141678781Y-85337952D01*
X141678781Y-85028314D01*
X141640076Y-84950905D01*
X141601372Y-84912200D01*
X141523962Y-84873495D01*
X141369143Y-84873495D01*
X141291734Y-84912200D01*
X141253029Y-84950905D01*
X141214324Y-85028314D01*
X141214324Y-85221838D01*
X141253029Y-85299248D01*
X141291734Y-85337952D01*
X141369143Y-85376657D01*
X141523962Y-85376657D01*
X141601372Y-85337952D01*
X141640076Y-85299248D01*
X141678781Y-85221838D01*
X105273324Y-105142695D02*
X105273324Y-105800676D01*
X105312029Y-105878086D01*
X105350733Y-105916790D01*
X105428143Y-105955495D01*
X105582962Y-105955495D01*
X105660371Y-105916790D01*
X105699076Y-105878086D01*
X105737781Y-105800676D01*
X105737781Y-105142695D01*
X106473172Y-105142695D02*
X106318353Y-105142695D01*
X106240943Y-105181400D01*
X106202238Y-105220105D01*
X106124829Y-105336219D01*
X106086124Y-105491038D01*
X106086124Y-105800676D01*
X106124829Y-105878086D01*
X106163534Y-105916790D01*
X106240943Y-105955495D01*
X106395762Y-105955495D01*
X106473172Y-105916790D01*
X106511876Y-105878086D01*
X106550581Y-105800676D01*
X106550581Y-105607152D01*
X106511876Y-105529743D01*
X106473172Y-105491038D01*
X106395762Y-105452333D01*
X106240943Y-105452333D01*
X106163534Y-105491038D01*
X106124829Y-105529743D01*
X106086124Y-105607152D01*
X110404124Y-84975095D02*
X110404124Y-85633076D01*
X110442829Y-85710486D01*
X110481533Y-85749190D01*
X110558943Y-85787895D01*
X110713762Y-85787895D01*
X110791171Y-85749190D01*
X110829876Y-85710486D01*
X110868581Y-85633076D01*
X110868581Y-84975095D01*
X111642676Y-84975095D02*
X111255629Y-84975095D01*
X111216924Y-85362143D01*
X111255629Y-85323438D01*
X111333038Y-85284733D01*
X111526562Y-85284733D01*
X111603972Y-85323438D01*
X111642676Y-85362143D01*
X111681381Y-85439552D01*
X111681381Y-85633076D01*
X111642676Y-85710486D01*
X111603972Y-85749190D01*
X111526562Y-85787895D01*
X111333038Y-85787895D01*
X111255629Y-85749190D01*
X111216924Y-85710486D01*
X110048524Y-124141895D02*
X110048524Y-124799876D01*
X110087229Y-124877286D01*
X110125933Y-124915990D01*
X110203343Y-124954695D01*
X110358162Y-124954695D01*
X110435571Y-124915990D01*
X110474276Y-124877286D01*
X110512981Y-124799876D01*
X110512981Y-124141895D01*
X111248372Y-124412829D02*
X111248372Y-124954695D01*
X111054848Y-124103190D02*
X110861324Y-124683762D01*
X111364486Y-124683762D01*
X134737324Y-104431495D02*
X134737324Y-105089476D01*
X134776029Y-105166886D01*
X134814733Y-105205590D01*
X134892143Y-105244295D01*
X135046962Y-105244295D01*
X135124371Y-105205590D01*
X135163076Y-105166886D01*
X135201781Y-105089476D01*
X135201781Y-104431495D01*
X135704943Y-104779838D02*
X135627534Y-104741133D01*
X135588829Y-104702429D01*
X135550124Y-104625019D01*
X135550124Y-104586314D01*
X135588829Y-104508905D01*
X135627534Y-104470200D01*
X135704943Y-104431495D01*
X135859762Y-104431495D01*
X135937172Y-104470200D01*
X135975876Y-104508905D01*
X136014581Y-104586314D01*
X136014581Y-104625019D01*
X135975876Y-104702429D01*
X135937172Y-104741133D01*
X135859762Y-104779838D01*
X135704943Y-104779838D01*
X135627534Y-104818543D01*
X135588829Y-104857248D01*
X135550124Y-104934657D01*
X135550124Y-105089476D01*
X135588829Y-105166886D01*
X135627534Y-105205590D01*
X135704943Y-105244295D01*
X135859762Y-105244295D01*
X135937172Y-105205590D01*
X135975876Y-105166886D01*
X136014581Y-105089476D01*
X136014581Y-104934657D01*
X135975876Y-104857248D01*
X135937172Y-104818543D01*
X135859762Y-104779838D01*
X156706077Y-138636695D02*
X156706077Y-137823895D01*
X156899601Y-137823895D01*
X157015715Y-137862600D01*
X157093124Y-137940010D01*
X157131829Y-138017419D01*
X157170534Y-138172238D01*
X157170534Y-138288352D01*
X157131829Y-138443171D01*
X157093124Y-138520581D01*
X157015715Y-138597990D01*
X156899601Y-138636695D01*
X156706077Y-138636695D01*
X157867220Y-138094829D02*
X157867220Y-138636695D01*
X157673696Y-137785190D02*
X157480172Y-138365762D01*
X157983334Y-138365762D01*
X101152477Y-99122895D02*
X101616934Y-99122895D01*
X101384705Y-99935695D02*
X101384705Y-99122895D01*
X101887867Y-99935695D02*
X101887867Y-99122895D01*
X102197505Y-99122895D01*
X102274914Y-99161600D01*
X102313619Y-99200305D01*
X102352324Y-99277714D01*
X102352324Y-99393829D01*
X102313619Y-99471238D01*
X102274914Y-99509943D01*
X102197505Y-99548648D01*
X101887867Y-99548648D01*
X103126419Y-99935695D02*
X102661962Y-99935695D01*
X102894191Y-99935695D02*
X102894191Y-99122895D01*
X102816781Y-99239010D01*
X102739372Y-99316419D01*
X102661962Y-99355124D01*
X103397352Y-99122895D02*
X103900514Y-99122895D01*
X103629581Y-99432533D01*
X103745695Y-99432533D01*
X103823105Y-99471238D01*
X103861809Y-99509943D01*
X103900514Y-99587352D01*
X103900514Y-99780876D01*
X103861809Y-99858286D01*
X103823105Y-99896990D01*
X103745695Y-99935695D01*
X103513467Y-99935695D01*
X103436057Y-99896990D01*
X103397352Y-99858286D01*
X122419534Y-121843195D02*
X122148601Y-121456148D01*
X121955077Y-121843195D02*
X121955077Y-121030395D01*
X122264715Y-121030395D01*
X122342124Y-121069100D01*
X122380829Y-121107805D01*
X122419534Y-121185214D01*
X122419534Y-121301329D01*
X122380829Y-121378738D01*
X122342124Y-121417443D01*
X122264715Y-121456148D01*
X121955077Y-121456148D01*
X122806582Y-121843195D02*
X122961401Y-121843195D01*
X123038810Y-121804490D01*
X123077515Y-121765786D01*
X123154924Y-121649671D01*
X123193629Y-121494852D01*
X123193629Y-121185214D01*
X123154924Y-121107805D01*
X123116220Y-121069100D01*
X123038810Y-121030395D01*
X122883991Y-121030395D01*
X122806582Y-121069100D01*
X122767877Y-121107805D01*
X122729172Y-121185214D01*
X122729172Y-121378738D01*
X122767877Y-121456148D01*
X122806582Y-121494852D01*
X122883991Y-121533557D01*
X123038810Y-121533557D01*
X123116220Y-121494852D01*
X123154924Y-121456148D01*
X123193629Y-121378738D01*
X121829286Y-82384295D02*
X121558353Y-81997248D01*
X121364829Y-82384295D02*
X121364829Y-81571495D01*
X121674467Y-81571495D01*
X121751876Y-81610200D01*
X121790581Y-81648905D01*
X121829286Y-81726314D01*
X121829286Y-81842429D01*
X121790581Y-81919838D01*
X121751876Y-81958543D01*
X121674467Y-81997248D01*
X121364829Y-81997248D01*
X122603381Y-82384295D02*
X122138924Y-82384295D01*
X122371153Y-82384295D02*
X122371153Y-81571495D01*
X122293743Y-81687610D01*
X122216334Y-81765019D01*
X122138924Y-81803724D01*
X123106543Y-81571495D02*
X123183952Y-81571495D01*
X123261362Y-81610200D01*
X123300067Y-81648905D01*
X123338771Y-81726314D01*
X123377476Y-81881133D01*
X123377476Y-82074657D01*
X123338771Y-82229476D01*
X123300067Y-82306886D01*
X123261362Y-82345590D01*
X123183952Y-82384295D01*
X123106543Y-82384295D01*
X123029133Y-82345590D01*
X122990429Y-82306886D01*
X122951724Y-82229476D01*
X122913019Y-82074657D01*
X122913019Y-81881133D01*
X122951724Y-81726314D01*
X122990429Y-81648905D01*
X123029133Y-81610200D01*
X123106543Y-81571495D01*
X116901686Y-102920195D02*
X116630753Y-102533148D01*
X116437229Y-102920195D02*
X116437229Y-102107395D01*
X116746867Y-102107395D01*
X116824276Y-102146100D01*
X116862981Y-102184805D01*
X116901686Y-102262214D01*
X116901686Y-102378329D01*
X116862981Y-102455738D01*
X116824276Y-102494443D01*
X116746867Y-102533148D01*
X116437229Y-102533148D01*
X117675781Y-102920195D02*
X117211324Y-102920195D01*
X117443553Y-102920195D02*
X117443553Y-102107395D01*
X117366143Y-102223510D01*
X117288734Y-102300919D01*
X117211324Y-102339624D01*
X118449876Y-102920195D02*
X117985419Y-102920195D01*
X118217648Y-102920195D02*
X118217648Y-102107395D01*
X118140238Y-102223510D01*
X118062829Y-102300919D01*
X117985419Y-102339624D01*
X152156886Y-83133595D02*
X151885953Y-82746548D01*
X151692429Y-83133595D02*
X151692429Y-82320795D01*
X152002067Y-82320795D01*
X152079476Y-82359500D01*
X152118181Y-82398205D01*
X152156886Y-82475614D01*
X152156886Y-82591729D01*
X152118181Y-82669138D01*
X152079476Y-82707843D01*
X152002067Y-82746548D01*
X151692429Y-82746548D01*
X152466524Y-82398205D02*
X152505229Y-82359500D01*
X152582638Y-82320795D01*
X152776162Y-82320795D01*
X152853572Y-82359500D01*
X152892276Y-82398205D01*
X152930981Y-82475614D01*
X152930981Y-82553024D01*
X152892276Y-82669138D01*
X152427819Y-83133595D01*
X152930981Y-83133595D01*
X153240619Y-82398205D02*
X153279324Y-82359500D01*
X153356733Y-82320795D01*
X153550257Y-82320795D01*
X153627667Y-82359500D01*
X153666371Y-82398205D01*
X153705076Y-82475614D01*
X153705076Y-82553024D01*
X153666371Y-82669138D01*
X153201914Y-83133595D01*
X153705076Y-83133595D01*
X158265586Y-127278795D02*
X157994653Y-126891748D01*
X157801129Y-127278795D02*
X157801129Y-126465995D01*
X158110767Y-126465995D01*
X158188176Y-126504700D01*
X158226881Y-126543405D01*
X158265586Y-126620814D01*
X158265586Y-126736929D01*
X158226881Y-126814338D01*
X158188176Y-126853043D01*
X158110767Y-126891748D01*
X157801129Y-126891748D01*
X158575224Y-126543405D02*
X158613929Y-126504700D01*
X158691338Y-126465995D01*
X158884862Y-126465995D01*
X158962272Y-126504700D01*
X159000976Y-126543405D01*
X159039681Y-126620814D01*
X159039681Y-126698224D01*
X159000976Y-126814338D01*
X158536519Y-127278795D01*
X159039681Y-127278795D01*
X159310614Y-126465995D02*
X159813776Y-126465995D01*
X159542843Y-126775633D01*
X159658957Y-126775633D01*
X159736367Y-126814338D01*
X159775071Y-126853043D01*
X159813776Y-126930452D01*
X159813776Y-127123976D01*
X159775071Y-127201386D01*
X159736367Y-127240090D01*
X159658957Y-127278795D01*
X159426729Y-127278795D01*
X159349319Y-127240090D01*
X159310614Y-127201386D01*
X162786786Y-91413995D02*
X162515853Y-91026948D01*
X162322329Y-91413995D02*
X162322329Y-90601195D01*
X162631967Y-90601195D01*
X162709376Y-90639900D01*
X162748081Y-90678605D01*
X162786786Y-90756014D01*
X162786786Y-90872129D01*
X162748081Y-90949538D01*
X162709376Y-90988243D01*
X162631967Y-91026948D01*
X162322329Y-91026948D01*
X163057719Y-90601195D02*
X163560881Y-90601195D01*
X163289948Y-90910833D01*
X163406062Y-90910833D01*
X163483472Y-90949538D01*
X163522176Y-90988243D01*
X163560881Y-91065652D01*
X163560881Y-91259176D01*
X163522176Y-91336586D01*
X163483472Y-91375290D01*
X163406062Y-91413995D01*
X163173834Y-91413995D01*
X163096424Y-91375290D01*
X163057719Y-91336586D01*
X164064043Y-90601195D02*
X164141452Y-90601195D01*
X164218862Y-90639900D01*
X164257567Y-90678605D01*
X164296271Y-90756014D01*
X164334976Y-90910833D01*
X164334976Y-91104357D01*
X164296271Y-91259176D01*
X164257567Y-91336586D01*
X164218862Y-91375290D01*
X164141452Y-91413995D01*
X164064043Y-91413995D01*
X163986633Y-91375290D01*
X163947929Y-91336586D01*
X163909224Y-91259176D01*
X163870519Y-91104357D01*
X163870519Y-90910833D01*
X163909224Y-90756014D01*
X163947929Y-90678605D01*
X163986633Y-90639900D01*
X164064043Y-90601195D01*
X162697886Y-102589995D02*
X162426953Y-102202948D01*
X162233429Y-102589995D02*
X162233429Y-101777195D01*
X162543067Y-101777195D01*
X162620476Y-101815900D01*
X162659181Y-101854605D01*
X162697886Y-101932014D01*
X162697886Y-102048129D01*
X162659181Y-102125538D01*
X162620476Y-102164243D01*
X162543067Y-102202948D01*
X162233429Y-102202948D01*
X162968819Y-101777195D02*
X163471981Y-101777195D01*
X163201048Y-102086833D01*
X163317162Y-102086833D01*
X163394572Y-102125538D01*
X163433276Y-102164243D01*
X163471981Y-102241652D01*
X163471981Y-102435176D01*
X163433276Y-102512586D01*
X163394572Y-102551290D01*
X163317162Y-102589995D01*
X163084934Y-102589995D01*
X163007524Y-102551290D01*
X162968819Y-102512586D01*
X164246076Y-102589995D02*
X163781619Y-102589995D01*
X164013848Y-102589995D02*
X164013848Y-101777195D01*
X163936438Y-101893310D01*
X163859029Y-101970719D01*
X163781619Y-102009424D01*
X158938686Y-113994595D02*
X158667753Y-113607548D01*
X158474229Y-113994595D02*
X158474229Y-113181795D01*
X158783867Y-113181795D01*
X158861276Y-113220500D01*
X158899981Y-113259205D01*
X158938686Y-113336614D01*
X158938686Y-113452729D01*
X158899981Y-113530138D01*
X158861276Y-113568843D01*
X158783867Y-113607548D01*
X158474229Y-113607548D01*
X159209619Y-113181795D02*
X159712781Y-113181795D01*
X159441848Y-113491433D01*
X159557962Y-113491433D01*
X159635372Y-113530138D01*
X159674076Y-113568843D01*
X159712781Y-113646252D01*
X159712781Y-113839776D01*
X159674076Y-113917186D01*
X159635372Y-113955890D01*
X159557962Y-113994595D01*
X159325734Y-113994595D01*
X159248324Y-113955890D01*
X159209619Y-113917186D01*
X160022419Y-113259205D02*
X160061124Y-113220500D01*
X160138533Y-113181795D01*
X160332057Y-113181795D01*
X160409467Y-113220500D01*
X160448171Y-113259205D01*
X160486876Y-113336614D01*
X160486876Y-113414024D01*
X160448171Y-113530138D01*
X159983714Y-113994595D01*
X160486876Y-113994595D01*
M02*
