G04 #@! TF.FileFunction,Paste,Bot*
%FSLAX46Y46*%
G04 Gerber Fmt 4.6, Leading zero omitted, Abs format (unit mm)*
G04 Created by KiCad (PCBNEW (2015-04-19 BZR 5613)-product) date 6/23/2015 7:30:16 PM*
%MOMM*%
G01*
G04 APERTURE LIST*
%ADD10C,0.100000*%
%ADD11R,2.100000X1.400000*%
%ADD12R,1.150000X0.250000*%
G04 APERTURE END LIST*
D10*
D11*
X93980000Y-117450000D03*
D12*
X96555000Y-100700000D03*
X96555000Y-101200000D03*
X96555000Y-101700000D03*
X96555000Y-102200000D03*
X96555000Y-102700000D03*
X96555000Y-103200000D03*
X96555000Y-103700000D03*
X96555000Y-104200000D03*
X96555000Y-104700000D03*
X96555000Y-105200000D03*
X96555000Y-105700000D03*
X96555000Y-106200000D03*
X96555000Y-106700000D03*
X96555000Y-107200000D03*
X96555000Y-107700000D03*
X96555000Y-108200000D03*
X96555000Y-108700000D03*
X96555000Y-109200000D03*
X96555000Y-109700000D03*
X96555000Y-110200000D03*
X96555000Y-110700000D03*
X96555000Y-111200000D03*
X96555000Y-111700000D03*
X96555000Y-112200000D03*
X96555000Y-112700000D03*
X96555000Y-113200000D03*
X96555000Y-113700000D03*
X96555000Y-114200000D03*
X96555000Y-114700000D03*
X96555000Y-115200000D03*
X91405000Y-100700000D03*
X91405000Y-101200000D03*
X91405000Y-101700000D03*
X91405000Y-102200000D03*
X91405000Y-102700000D03*
X91405000Y-103200000D03*
X91405000Y-103700000D03*
X91405000Y-104200000D03*
X91405000Y-104700000D03*
X91405000Y-105200000D03*
X91405000Y-105700000D03*
X91405000Y-106200000D03*
X91405000Y-106700000D03*
X91405000Y-107200000D03*
X91405000Y-107700000D03*
X91405000Y-108200000D03*
X91405000Y-108700000D03*
X91405000Y-109200000D03*
X91405000Y-109700000D03*
X91405000Y-110200000D03*
X91405000Y-110700000D03*
X91405000Y-111200000D03*
X91405000Y-111700000D03*
X91405000Y-112200000D03*
X91405000Y-112700000D03*
X91405000Y-113200000D03*
X91405000Y-113700000D03*
X91405000Y-114200000D03*
X91405000Y-114700000D03*
X91405000Y-115200000D03*
D11*
X93980000Y-98450000D03*
X185420000Y-117450000D03*
D12*
X187995000Y-100700000D03*
X187995000Y-101200000D03*
X187995000Y-101700000D03*
X187995000Y-102200000D03*
X187995000Y-102700000D03*
X187995000Y-103200000D03*
X187995000Y-103700000D03*
X187995000Y-104200000D03*
X187995000Y-104700000D03*
X187995000Y-105200000D03*
X187995000Y-105700000D03*
X187995000Y-106200000D03*
X187995000Y-106700000D03*
X187995000Y-107200000D03*
X187995000Y-107700000D03*
X187995000Y-108200000D03*
X187995000Y-108700000D03*
X187995000Y-109200000D03*
X187995000Y-109700000D03*
X187995000Y-110200000D03*
X187995000Y-110700000D03*
X187995000Y-111200000D03*
X187995000Y-111700000D03*
X187995000Y-112200000D03*
X187995000Y-112700000D03*
X187995000Y-113200000D03*
X187995000Y-113700000D03*
X187995000Y-114200000D03*
X187995000Y-114700000D03*
X187995000Y-115200000D03*
X182845000Y-100700000D03*
X182845000Y-101200000D03*
X182845000Y-101700000D03*
X182845000Y-102200000D03*
X182845000Y-102700000D03*
X182845000Y-103200000D03*
X182845000Y-103700000D03*
X182845000Y-104200000D03*
X182845000Y-104700000D03*
X182845000Y-105200000D03*
X182845000Y-105700000D03*
X182845000Y-106200000D03*
X182845000Y-106700000D03*
X182845000Y-107200000D03*
X182845000Y-107700000D03*
X182845000Y-108200000D03*
X182845000Y-108700000D03*
X182845000Y-109200000D03*
X182845000Y-109700000D03*
X182845000Y-110200000D03*
X182845000Y-110700000D03*
X182845000Y-111200000D03*
X182845000Y-111700000D03*
X182845000Y-112200000D03*
X182845000Y-112700000D03*
X182845000Y-113200000D03*
X182845000Y-113700000D03*
X182845000Y-114200000D03*
X182845000Y-114700000D03*
X182845000Y-115200000D03*
D11*
X185420000Y-98450000D03*
M02*
