G04 #@! TF.FileFunction,Copper,L3,Inr,Signal*
%FSLAX46Y46*%
G04 Gerber Fmt 4.6, Leading zero omitted, Abs format (unit mm)*
G04 Created by KiCad (PCBNEW (2015-04-19 BZR 5613)-product) date 6/23/2015 7:30:16 PM*
%MOMM*%
G01*
G04 APERTURE LIST*
%ADD10C,0.100000*%
%ADD11O,6.100000X6.100000*%
%ADD12O,1.524000X1.524000*%
%ADD13C,0.685800*%
%ADD14C,0.152400*%
G04 APERTURE END LIST*
D10*
D11*
X93980000Y-134620000D03*
X93980000Y-81280000D03*
X185420000Y-81280000D03*
X185420000Y-134620000D03*
D12*
X176530000Y-127000000D03*
X173990000Y-127000000D03*
X171450000Y-127000000D03*
X168910000Y-127000000D03*
X166370000Y-127000000D03*
X163830000Y-127000000D03*
X161290000Y-127000000D03*
X158750000Y-127000000D03*
X156210000Y-127000000D03*
X153670000Y-127000000D03*
X151130000Y-127000000D03*
X148590000Y-127000000D03*
X146050000Y-127000000D03*
X143510000Y-127000000D03*
X140970000Y-127000000D03*
X138430000Y-127000000D03*
X135890000Y-127000000D03*
X133350000Y-127000000D03*
X130810000Y-127000000D03*
X128270000Y-127000000D03*
X125730000Y-127000000D03*
X123190000Y-127000000D03*
X120650000Y-127000000D03*
X118110000Y-127000000D03*
X115570000Y-127000000D03*
X113030000Y-127000000D03*
X110490000Y-127000000D03*
X107950000Y-127000000D03*
X105410000Y-127000000D03*
X102870000Y-127000000D03*
X176530000Y-129540000D03*
X173990000Y-129540000D03*
X171450000Y-129540000D03*
X168910000Y-129540000D03*
X166370000Y-129540000D03*
X163830000Y-129540000D03*
X161290000Y-129540000D03*
X158750000Y-129540000D03*
X156210000Y-129540000D03*
X153670000Y-129540000D03*
X151130000Y-129540000D03*
X148590000Y-129540000D03*
X146050000Y-129540000D03*
X143510000Y-129540000D03*
X140970000Y-129540000D03*
X138430000Y-129540000D03*
X135890000Y-129540000D03*
X133350000Y-129540000D03*
X130810000Y-129540000D03*
X128270000Y-129540000D03*
X125730000Y-129540000D03*
X123190000Y-129540000D03*
X120650000Y-129540000D03*
X118110000Y-129540000D03*
X115570000Y-129540000D03*
X113030000Y-129540000D03*
X110490000Y-129540000D03*
X107950000Y-129540000D03*
X105410000Y-129540000D03*
X102870000Y-129540000D03*
X177800000Y-121920000D03*
X180340000Y-121920000D03*
X176530000Y-88900000D03*
X173990000Y-88900000D03*
X171450000Y-88900000D03*
X168910000Y-88900000D03*
X166370000Y-88900000D03*
X163830000Y-88900000D03*
X161290000Y-88900000D03*
X158750000Y-88900000D03*
X156210000Y-88900000D03*
X153670000Y-88900000D03*
X151130000Y-88900000D03*
X148590000Y-88900000D03*
X146050000Y-88900000D03*
X143510000Y-88900000D03*
X140970000Y-88900000D03*
X138430000Y-88900000D03*
X135890000Y-88900000D03*
X133350000Y-88900000D03*
X130810000Y-88900000D03*
X128270000Y-88900000D03*
X125730000Y-88900000D03*
X123190000Y-88900000D03*
X120650000Y-88900000D03*
X118110000Y-88900000D03*
X115570000Y-88900000D03*
X113030000Y-88900000D03*
X110490000Y-88900000D03*
X107950000Y-88900000D03*
X105410000Y-88900000D03*
X102870000Y-88900000D03*
X176530000Y-86360000D03*
X173990000Y-86360000D03*
X171450000Y-86360000D03*
X168910000Y-86360000D03*
X166370000Y-86360000D03*
X163830000Y-86360000D03*
X161290000Y-86360000D03*
X158750000Y-86360000D03*
X156210000Y-86360000D03*
X153670000Y-86360000D03*
X151130000Y-86360000D03*
X148590000Y-86360000D03*
X146050000Y-86360000D03*
X143510000Y-86360000D03*
X140970000Y-86360000D03*
X138430000Y-86360000D03*
X135890000Y-86360000D03*
X133350000Y-86360000D03*
X130810000Y-86360000D03*
X128270000Y-86360000D03*
X125730000Y-86360000D03*
X123190000Y-86360000D03*
X120650000Y-86360000D03*
X118110000Y-86360000D03*
X115570000Y-86360000D03*
X113030000Y-86360000D03*
X110490000Y-86360000D03*
X107950000Y-86360000D03*
X105410000Y-86360000D03*
X102870000Y-86360000D03*
D13*
X93980000Y-98450400D03*
X93980000Y-117449600D03*
X185420000Y-98450400D03*
X185420000Y-117449600D03*
X94589600Y-101193600D03*
X95478600Y-101193592D03*
X93700600Y-101193600D03*
X94589600Y-102692200D03*
X95478600Y-102692200D03*
X93700600Y-102692200D03*
X94589600Y-104190802D03*
X95478600Y-104190800D03*
X93700604Y-104190800D03*
X94589600Y-105689398D03*
X95478600Y-105689396D03*
X93700600Y-105689400D03*
X94589600Y-107188000D03*
X95478600Y-107188000D03*
X93700600Y-107188000D03*
X94589600Y-108686602D03*
X95478600Y-108686596D03*
X93700600Y-108686600D03*
X94589600Y-110185200D03*
X95478606Y-110185219D03*
X93700606Y-110185200D03*
X94589602Y-111709198D03*
X95478600Y-111709204D03*
X93700600Y-111709204D03*
X94589600Y-113207800D03*
X95478600Y-113207800D03*
X93700600Y-113207800D03*
X94589596Y-114706400D03*
X95478600Y-114706400D03*
X93700600Y-114706400D03*
X184810400Y-101193600D03*
X183921400Y-101193600D03*
X185699400Y-101193600D03*
X184810400Y-102692200D03*
X183921400Y-102692200D03*
X185699400Y-102692200D03*
X184810400Y-104190800D03*
X183921400Y-104190800D03*
X185699400Y-104190800D03*
X184810400Y-105689400D03*
X183921400Y-105689400D03*
X185699404Y-105689400D03*
X184810400Y-107188000D03*
X183921400Y-107188000D03*
X185699400Y-107188000D03*
X184810400Y-108712000D03*
X183921400Y-108712000D03*
X185699400Y-108712000D03*
X184810400Y-110210600D03*
X183921394Y-110210600D03*
X185699400Y-110210600D03*
X184810396Y-111709200D03*
X183921400Y-111709200D03*
X185699400Y-111709200D03*
X184810400Y-113207800D03*
X183921400Y-113207800D03*
X185699400Y-113207800D03*
X184810400Y-114706406D03*
X183921400Y-114706400D03*
X185699400Y-114706404D03*
D14*
G36*
X189814200Y-129463800D02*
X188404388Y-129463800D01*
X188404388Y-116235285D01*
X188404388Y-99235285D01*
X188239676Y-98836652D01*
X187934952Y-98531396D01*
X187536607Y-98365988D01*
X187105285Y-98365612D01*
X186706652Y-98530324D01*
X186401396Y-98835048D01*
X186235988Y-99233393D01*
X186235612Y-99664715D01*
X186400324Y-100063348D01*
X186705048Y-100368604D01*
X187103393Y-100534012D01*
X187534715Y-100534388D01*
X187933348Y-100369676D01*
X188238604Y-100064952D01*
X188404012Y-99666607D01*
X188404388Y-99235285D01*
X188404388Y-116235285D01*
X188239676Y-115836652D01*
X187934952Y-115531396D01*
X187536607Y-115365988D01*
X187105285Y-115365612D01*
X186706652Y-115530324D01*
X186626665Y-115610171D01*
X186626665Y-105505797D01*
X186485819Y-105164926D01*
X186261220Y-104939934D01*
X186484899Y-104716646D01*
X186626339Y-104376021D01*
X186626661Y-104007197D01*
X186485815Y-103666326D01*
X186261218Y-103441336D01*
X186484899Y-103218046D01*
X186626339Y-102877421D01*
X186626661Y-102508597D01*
X186485815Y-102167726D01*
X186261218Y-101942736D01*
X186484899Y-101719446D01*
X186626339Y-101378821D01*
X186626661Y-101009997D01*
X186485815Y-100669126D01*
X186225246Y-100408101D01*
X185991986Y-100311242D01*
X185991986Y-98561600D01*
X185991001Y-98334246D01*
X185905892Y-98128775D01*
X185809143Y-98097178D01*
X185773222Y-98133099D01*
X185773222Y-98061257D01*
X185741625Y-97964508D01*
X185531200Y-97878414D01*
X185303846Y-97879399D01*
X185098375Y-97964508D01*
X185066778Y-98061257D01*
X185420000Y-98414479D01*
X185773222Y-98061257D01*
X185773222Y-98133099D01*
X185455921Y-98450400D01*
X185809143Y-98803622D01*
X185905892Y-98772025D01*
X185991986Y-98561600D01*
X185991986Y-100311242D01*
X185884621Y-100266661D01*
X185773222Y-100266563D01*
X185773222Y-98839543D01*
X185420000Y-98486321D01*
X185384079Y-98522242D01*
X185384079Y-98450400D01*
X185030857Y-98097178D01*
X184934108Y-98128775D01*
X184848014Y-98339200D01*
X184848999Y-98566554D01*
X184934108Y-98772025D01*
X185030857Y-98803622D01*
X185384079Y-98450400D01*
X185384079Y-98522242D01*
X185066778Y-98839543D01*
X185098375Y-98936292D01*
X185308800Y-99022386D01*
X185536154Y-99021401D01*
X185741625Y-98936292D01*
X185773222Y-98839543D01*
X185773222Y-100266563D01*
X185515797Y-100266339D01*
X185254679Y-100374231D01*
X184995621Y-100266661D01*
X184626797Y-100266339D01*
X184365679Y-100374231D01*
X184198376Y-100304761D01*
X184438604Y-100064952D01*
X184604012Y-99666607D01*
X184604388Y-99235285D01*
X184439676Y-98836652D01*
X184134952Y-98531396D01*
X183736607Y-98365988D01*
X183305285Y-98365612D01*
X182906652Y-98530324D01*
X182601396Y-98835048D01*
X182435988Y-99233393D01*
X182435612Y-99664715D01*
X182600324Y-100063348D01*
X182905048Y-100368604D01*
X183279722Y-100524183D01*
X183135901Y-100667754D01*
X182994461Y-101008379D01*
X182994139Y-101377203D01*
X183134985Y-101718074D01*
X183359581Y-101943063D01*
X183135901Y-102166354D01*
X182994461Y-102506979D01*
X182994139Y-102875803D01*
X183134985Y-103216674D01*
X183359581Y-103441663D01*
X183135901Y-103664954D01*
X182994461Y-104005579D01*
X182994139Y-104374403D01*
X183134985Y-104715274D01*
X183359581Y-104940263D01*
X183135901Y-105163554D01*
X182994461Y-105504179D01*
X182994139Y-105873003D01*
X183134985Y-106213874D01*
X183359581Y-106438863D01*
X183135901Y-106662154D01*
X182994461Y-107002779D01*
X182994139Y-107371603D01*
X183134985Y-107712474D01*
X183372281Y-107950186D01*
X183135901Y-108186154D01*
X182994461Y-108526779D01*
X182994139Y-108895603D01*
X183134985Y-109236474D01*
X183359578Y-109461460D01*
X183135895Y-109684754D01*
X182994455Y-110025379D01*
X182994133Y-110394203D01*
X183134979Y-110735074D01*
X183359578Y-110960066D01*
X183135901Y-111183354D01*
X182994461Y-111523979D01*
X182994139Y-111892803D01*
X183134985Y-112233674D01*
X183359581Y-112458663D01*
X183135901Y-112681954D01*
X182994461Y-113022579D01*
X182994139Y-113391403D01*
X183134985Y-113732274D01*
X183359581Y-113957263D01*
X183135901Y-114180554D01*
X182994461Y-114521179D01*
X182994139Y-114890003D01*
X183134985Y-115230874D01*
X183279941Y-115376083D01*
X182906652Y-115530324D01*
X182601396Y-115835048D01*
X182435988Y-116233393D01*
X182435612Y-116664715D01*
X182600324Y-117063348D01*
X182905048Y-117368604D01*
X183303393Y-117534012D01*
X183734715Y-117534388D01*
X184133348Y-117369676D01*
X184438604Y-117064952D01*
X184604012Y-116666607D01*
X184604388Y-116235285D01*
X184439676Y-115836652D01*
X184198481Y-115595036D01*
X184366113Y-115525771D01*
X184625179Y-115633345D01*
X184994003Y-115633667D01*
X185255123Y-115525773D01*
X185514179Y-115633343D01*
X185883003Y-115633665D01*
X186223874Y-115492819D01*
X186484899Y-115232250D01*
X186626339Y-114891625D01*
X186626661Y-114522801D01*
X186485815Y-114181930D01*
X186261216Y-113956938D01*
X186484899Y-113733646D01*
X186626339Y-113393021D01*
X186626661Y-113024197D01*
X186485815Y-112683326D01*
X186261218Y-112458336D01*
X186484899Y-112235046D01*
X186626339Y-111894421D01*
X186626661Y-111525597D01*
X186485815Y-111184726D01*
X186261218Y-110959736D01*
X186484899Y-110736446D01*
X186626339Y-110395821D01*
X186626661Y-110026997D01*
X186485815Y-109686126D01*
X186261218Y-109461136D01*
X186484899Y-109237846D01*
X186626339Y-108897221D01*
X186626661Y-108528397D01*
X186485815Y-108187526D01*
X186248518Y-107949813D01*
X186484899Y-107713846D01*
X186626339Y-107373221D01*
X186626661Y-107004397D01*
X186485815Y-106663526D01*
X186261220Y-106438538D01*
X186484903Y-106215246D01*
X186626343Y-105874621D01*
X186626665Y-105505797D01*
X186626665Y-115610171D01*
X186401396Y-115835048D01*
X186235988Y-116233393D01*
X186235612Y-116664715D01*
X186400324Y-117063348D01*
X186705048Y-117368604D01*
X187103393Y-117534012D01*
X187534715Y-117534388D01*
X187933348Y-117369676D01*
X188238604Y-117064952D01*
X188404012Y-116666607D01*
X188404388Y-116235285D01*
X188404388Y-129463800D01*
X185991986Y-129463800D01*
X185991986Y-117560800D01*
X185991001Y-117333446D01*
X185905892Y-117127975D01*
X185809143Y-117096378D01*
X185773222Y-117132299D01*
X185773222Y-117060457D01*
X185741625Y-116963708D01*
X185531200Y-116877614D01*
X185303846Y-116878599D01*
X185098375Y-116963708D01*
X185066778Y-117060457D01*
X185420000Y-117413679D01*
X185773222Y-117060457D01*
X185773222Y-117132299D01*
X185455921Y-117449600D01*
X185809143Y-117802822D01*
X185905892Y-117771225D01*
X185991986Y-117560800D01*
X185991986Y-129463800D01*
X185773222Y-129463800D01*
X185773222Y-117838743D01*
X185420000Y-117485521D01*
X185384079Y-117521442D01*
X185384079Y-117449600D01*
X185030857Y-117096378D01*
X184934108Y-117127975D01*
X184848014Y-117338400D01*
X184848999Y-117565754D01*
X184934108Y-117771225D01*
X185030857Y-117802822D01*
X185384079Y-117449600D01*
X185384079Y-117521442D01*
X185066778Y-117838743D01*
X185098375Y-117935492D01*
X185308800Y-118021586D01*
X185536154Y-118020601D01*
X185741625Y-117935492D01*
X185773222Y-117838743D01*
X185773222Y-129463800D01*
X181314109Y-129463800D01*
X181314109Y-122100000D01*
X181314109Y-121740000D01*
X181308845Y-121713523D01*
X181156081Y-121358479D01*
X180879076Y-121088921D01*
X180520001Y-120945888D01*
X180365400Y-120986873D01*
X180365400Y-121894600D01*
X181273104Y-121894600D01*
X181314109Y-121740000D01*
X181314109Y-122100000D01*
X181273104Y-121945400D01*
X180365400Y-121945400D01*
X180365400Y-122853127D01*
X180520001Y-122894112D01*
X180879076Y-122751079D01*
X181156081Y-122481521D01*
X181308845Y-122126477D01*
X181314109Y-122100000D01*
X181314109Y-129463800D01*
X180314600Y-129463800D01*
X180314600Y-122853127D01*
X180314600Y-121945400D01*
X180314600Y-121894600D01*
X180314600Y-120986873D01*
X180159999Y-120945888D01*
X179800924Y-121088921D01*
X179523919Y-121358479D01*
X179371155Y-121713523D01*
X179365891Y-121740000D01*
X179406896Y-121894600D01*
X180314600Y-121894600D01*
X180314600Y-121945400D01*
X179406896Y-121945400D01*
X179365891Y-122100000D01*
X179371155Y-122126477D01*
X179523919Y-122481521D01*
X179800924Y-122751079D01*
X180159999Y-122894112D01*
X180314600Y-122853127D01*
X180314600Y-129463800D01*
X180263800Y-129463800D01*
X180263800Y-139014200D01*
X179172574Y-139014200D01*
X179172574Y-121920000D01*
X179070101Y-121404832D01*
X178778281Y-120968093D01*
X178341542Y-120676273D01*
X177876200Y-120583710D01*
X177876200Y-88926374D01*
X177876200Y-88873626D01*
X177773727Y-88358458D01*
X177504112Y-87954951D01*
X177504112Y-86540001D01*
X177504112Y-86179999D01*
X177361079Y-85820924D01*
X177091521Y-85543919D01*
X176736477Y-85391155D01*
X176710000Y-85385891D01*
X176555400Y-85426896D01*
X176555400Y-86334600D01*
X177463127Y-86334600D01*
X177504112Y-86179999D01*
X177504112Y-86540001D01*
X177463127Y-86385400D01*
X176555400Y-86385400D01*
X176555400Y-87293104D01*
X176710000Y-87334109D01*
X176736477Y-87328845D01*
X177091521Y-87176081D01*
X177361079Y-86899076D01*
X177504112Y-86540001D01*
X177504112Y-87954951D01*
X177481907Y-87921719D01*
X177045168Y-87629899D01*
X176530000Y-87527426D01*
X176504600Y-87532478D01*
X176504600Y-87293104D01*
X176504600Y-86385400D01*
X176504600Y-86334600D01*
X176504600Y-85426896D01*
X176350000Y-85385891D01*
X176323523Y-85391155D01*
X175968479Y-85543919D01*
X175698921Y-85820924D01*
X175555888Y-86179999D01*
X175596873Y-86334600D01*
X176504600Y-86334600D01*
X176504600Y-86385400D01*
X175596873Y-86385400D01*
X175555888Y-86540001D01*
X175698921Y-86899076D01*
X175968479Y-87176081D01*
X176323523Y-87328845D01*
X176350000Y-87334109D01*
X176504600Y-87293104D01*
X176504600Y-87532478D01*
X176014832Y-87629899D01*
X175578093Y-87921719D01*
X175286273Y-88358458D01*
X175260000Y-88490541D01*
X175233727Y-88358458D01*
X174964112Y-87954951D01*
X174964112Y-86540001D01*
X174964112Y-86179999D01*
X174821079Y-85820924D01*
X174551521Y-85543919D01*
X174196477Y-85391155D01*
X174170000Y-85385891D01*
X174015400Y-85426896D01*
X174015400Y-86334600D01*
X174923127Y-86334600D01*
X174964112Y-86179999D01*
X174964112Y-86540001D01*
X174923127Y-86385400D01*
X174015400Y-86385400D01*
X174015400Y-87293104D01*
X174170000Y-87334109D01*
X174196477Y-87328845D01*
X174551521Y-87176081D01*
X174821079Y-86899076D01*
X174964112Y-86540001D01*
X174964112Y-87954951D01*
X174941907Y-87921719D01*
X174505168Y-87629899D01*
X173990000Y-87527426D01*
X173964600Y-87532478D01*
X173964600Y-87293104D01*
X173964600Y-86385400D01*
X173964600Y-86334600D01*
X173964600Y-85426896D01*
X173810000Y-85385891D01*
X173783523Y-85391155D01*
X173428479Y-85543919D01*
X173158921Y-85820924D01*
X173015888Y-86179999D01*
X173056873Y-86334600D01*
X173964600Y-86334600D01*
X173964600Y-86385400D01*
X173056873Y-86385400D01*
X173015888Y-86540001D01*
X173158921Y-86899076D01*
X173428479Y-87176081D01*
X173783523Y-87328845D01*
X173810000Y-87334109D01*
X173964600Y-87293104D01*
X173964600Y-87532478D01*
X173474832Y-87629899D01*
X173038093Y-87921719D01*
X172746273Y-88358458D01*
X172720000Y-88490541D01*
X172693727Y-88358458D01*
X172424112Y-87954951D01*
X172424112Y-86540001D01*
X172424112Y-86179999D01*
X172281079Y-85820924D01*
X172011521Y-85543919D01*
X171656477Y-85391155D01*
X171630000Y-85385891D01*
X171475400Y-85426896D01*
X171475400Y-86334600D01*
X172383127Y-86334600D01*
X172424112Y-86179999D01*
X172424112Y-86540001D01*
X172383127Y-86385400D01*
X171475400Y-86385400D01*
X171475400Y-87293104D01*
X171630000Y-87334109D01*
X171656477Y-87328845D01*
X172011521Y-87176081D01*
X172281079Y-86899076D01*
X172424112Y-86540001D01*
X172424112Y-87954951D01*
X172401907Y-87921719D01*
X171965168Y-87629899D01*
X171450000Y-87527426D01*
X171424600Y-87532478D01*
X171424600Y-87293104D01*
X171424600Y-86385400D01*
X171424600Y-86334600D01*
X171424600Y-85426896D01*
X171270000Y-85385891D01*
X171243523Y-85391155D01*
X170888479Y-85543919D01*
X170618921Y-85820924D01*
X170475888Y-86179999D01*
X170516873Y-86334600D01*
X171424600Y-86334600D01*
X171424600Y-86385400D01*
X170516873Y-86385400D01*
X170475888Y-86540001D01*
X170618921Y-86899076D01*
X170888479Y-87176081D01*
X171243523Y-87328845D01*
X171270000Y-87334109D01*
X171424600Y-87293104D01*
X171424600Y-87532478D01*
X170934832Y-87629899D01*
X170498093Y-87921719D01*
X170206273Y-88358458D01*
X170180000Y-88490541D01*
X170153727Y-88358458D01*
X169884112Y-87954951D01*
X169884112Y-86540001D01*
X169884112Y-86179999D01*
X169741079Y-85820924D01*
X169471521Y-85543919D01*
X169116477Y-85391155D01*
X169090000Y-85385891D01*
X168935400Y-85426896D01*
X168935400Y-86334600D01*
X169843127Y-86334600D01*
X169884112Y-86179999D01*
X169884112Y-86540001D01*
X169843127Y-86385400D01*
X168935400Y-86385400D01*
X168935400Y-87293104D01*
X169090000Y-87334109D01*
X169116477Y-87328845D01*
X169471521Y-87176081D01*
X169741079Y-86899076D01*
X169884112Y-86540001D01*
X169884112Y-87954951D01*
X169861907Y-87921719D01*
X169425168Y-87629899D01*
X168910000Y-87527426D01*
X168884600Y-87532478D01*
X168884600Y-87293104D01*
X168884600Y-86385400D01*
X168884600Y-86334600D01*
X168884600Y-85426896D01*
X168730000Y-85385891D01*
X168703523Y-85391155D01*
X168348479Y-85543919D01*
X168078921Y-85820924D01*
X167935888Y-86179999D01*
X167976873Y-86334600D01*
X168884600Y-86334600D01*
X168884600Y-86385400D01*
X167976873Y-86385400D01*
X167935888Y-86540001D01*
X168078921Y-86899076D01*
X168348479Y-87176081D01*
X168703523Y-87328845D01*
X168730000Y-87334109D01*
X168884600Y-87293104D01*
X168884600Y-87532478D01*
X168394832Y-87629899D01*
X167958093Y-87921719D01*
X167666273Y-88358458D01*
X167640000Y-88490541D01*
X167613727Y-88358458D01*
X167344112Y-87954951D01*
X167344112Y-86540001D01*
X167344112Y-86179999D01*
X167201079Y-85820924D01*
X166931521Y-85543919D01*
X166576477Y-85391155D01*
X166550000Y-85385891D01*
X166395400Y-85426896D01*
X166395400Y-86334600D01*
X167303127Y-86334600D01*
X167344112Y-86179999D01*
X167344112Y-86540001D01*
X167303127Y-86385400D01*
X166395400Y-86385400D01*
X166395400Y-87293104D01*
X166550000Y-87334109D01*
X166576477Y-87328845D01*
X166931521Y-87176081D01*
X167201079Y-86899076D01*
X167344112Y-86540001D01*
X167344112Y-87954951D01*
X167321907Y-87921719D01*
X166885168Y-87629899D01*
X166370000Y-87527426D01*
X166344600Y-87532478D01*
X166344600Y-87293104D01*
X166344600Y-86385400D01*
X166344600Y-86334600D01*
X166344600Y-85426896D01*
X166190000Y-85385891D01*
X166163523Y-85391155D01*
X165808479Y-85543919D01*
X165538921Y-85820924D01*
X165395888Y-86179999D01*
X165436873Y-86334600D01*
X166344600Y-86334600D01*
X166344600Y-86385400D01*
X165436873Y-86385400D01*
X165395888Y-86540001D01*
X165538921Y-86899076D01*
X165808479Y-87176081D01*
X166163523Y-87328845D01*
X166190000Y-87334109D01*
X166344600Y-87293104D01*
X166344600Y-87532478D01*
X165854832Y-87629899D01*
X165418093Y-87921719D01*
X165126273Y-88358458D01*
X165100000Y-88490541D01*
X165073727Y-88358458D01*
X164804112Y-87954951D01*
X164804112Y-86540001D01*
X164804112Y-86179999D01*
X164661079Y-85820924D01*
X164391521Y-85543919D01*
X164036477Y-85391155D01*
X164010000Y-85385891D01*
X163855400Y-85426896D01*
X163855400Y-86334600D01*
X164763127Y-86334600D01*
X164804112Y-86179999D01*
X164804112Y-86540001D01*
X164763127Y-86385400D01*
X163855400Y-86385400D01*
X163855400Y-87293104D01*
X164010000Y-87334109D01*
X164036477Y-87328845D01*
X164391521Y-87176081D01*
X164661079Y-86899076D01*
X164804112Y-86540001D01*
X164804112Y-87954951D01*
X164781907Y-87921719D01*
X164345168Y-87629899D01*
X163830000Y-87527426D01*
X163804600Y-87532478D01*
X163804600Y-87293104D01*
X163804600Y-86385400D01*
X163804600Y-86334600D01*
X163804600Y-85426896D01*
X163650000Y-85385891D01*
X163623523Y-85391155D01*
X163268479Y-85543919D01*
X162998921Y-85820924D01*
X162855888Y-86179999D01*
X162896873Y-86334600D01*
X163804600Y-86334600D01*
X163804600Y-86385400D01*
X162896873Y-86385400D01*
X162855888Y-86540001D01*
X162998921Y-86899076D01*
X163268479Y-87176081D01*
X163623523Y-87328845D01*
X163650000Y-87334109D01*
X163804600Y-87293104D01*
X163804600Y-87532478D01*
X163314832Y-87629899D01*
X162878093Y-87921719D01*
X162586273Y-88358458D01*
X162560000Y-88490541D01*
X162533727Y-88358458D01*
X162264112Y-87954951D01*
X162264112Y-86540001D01*
X162264112Y-86179999D01*
X162121079Y-85820924D01*
X161851521Y-85543919D01*
X161496477Y-85391155D01*
X161470000Y-85385891D01*
X161315400Y-85426896D01*
X161315400Y-86334600D01*
X162223127Y-86334600D01*
X162264112Y-86179999D01*
X162264112Y-86540001D01*
X162223127Y-86385400D01*
X161315400Y-86385400D01*
X161315400Y-87293104D01*
X161470000Y-87334109D01*
X161496477Y-87328845D01*
X161851521Y-87176081D01*
X162121079Y-86899076D01*
X162264112Y-86540001D01*
X162264112Y-87954951D01*
X162241907Y-87921719D01*
X161805168Y-87629899D01*
X161290000Y-87527426D01*
X161264600Y-87532478D01*
X161264600Y-87293104D01*
X161264600Y-86385400D01*
X161264600Y-86334600D01*
X161264600Y-85426896D01*
X161110000Y-85385891D01*
X161083523Y-85391155D01*
X160728479Y-85543919D01*
X160458921Y-85820924D01*
X160315888Y-86179999D01*
X160356873Y-86334600D01*
X161264600Y-86334600D01*
X161264600Y-86385400D01*
X160356873Y-86385400D01*
X160315888Y-86540001D01*
X160458921Y-86899076D01*
X160728479Y-87176081D01*
X161083523Y-87328845D01*
X161110000Y-87334109D01*
X161264600Y-87293104D01*
X161264600Y-87532478D01*
X160774832Y-87629899D01*
X160338093Y-87921719D01*
X160046273Y-88358458D01*
X160020000Y-88490541D01*
X159993727Y-88358458D01*
X159724112Y-87954951D01*
X159724112Y-86540001D01*
X159724112Y-86179999D01*
X159581079Y-85820924D01*
X159311521Y-85543919D01*
X158956477Y-85391155D01*
X158930000Y-85385891D01*
X158775400Y-85426896D01*
X158775400Y-86334600D01*
X159683127Y-86334600D01*
X159724112Y-86179999D01*
X159724112Y-86540001D01*
X159683127Y-86385400D01*
X158775400Y-86385400D01*
X158775400Y-87293104D01*
X158930000Y-87334109D01*
X158956477Y-87328845D01*
X159311521Y-87176081D01*
X159581079Y-86899076D01*
X159724112Y-86540001D01*
X159724112Y-87954951D01*
X159701907Y-87921719D01*
X159265168Y-87629899D01*
X158750000Y-87527426D01*
X158724600Y-87532478D01*
X158724600Y-87293104D01*
X158724600Y-86385400D01*
X158724600Y-86334600D01*
X158724600Y-85426896D01*
X158570000Y-85385891D01*
X158543523Y-85391155D01*
X158188479Y-85543919D01*
X157918921Y-85820924D01*
X157775888Y-86179999D01*
X157816873Y-86334600D01*
X158724600Y-86334600D01*
X158724600Y-86385400D01*
X157816873Y-86385400D01*
X157775888Y-86540001D01*
X157918921Y-86899076D01*
X158188479Y-87176081D01*
X158543523Y-87328845D01*
X158570000Y-87334109D01*
X158724600Y-87293104D01*
X158724600Y-87532478D01*
X158234832Y-87629899D01*
X157798093Y-87921719D01*
X157506273Y-88358458D01*
X157480000Y-88490541D01*
X157453727Y-88358458D01*
X157184112Y-87954951D01*
X157184112Y-86540001D01*
X157184112Y-86179999D01*
X157041079Y-85820924D01*
X156771521Y-85543919D01*
X156416477Y-85391155D01*
X156390000Y-85385891D01*
X156235400Y-85426896D01*
X156235400Y-86334600D01*
X157143127Y-86334600D01*
X157184112Y-86179999D01*
X157184112Y-86540001D01*
X157143127Y-86385400D01*
X156235400Y-86385400D01*
X156235400Y-87293104D01*
X156390000Y-87334109D01*
X156416477Y-87328845D01*
X156771521Y-87176081D01*
X157041079Y-86899076D01*
X157184112Y-86540001D01*
X157184112Y-87954951D01*
X157161907Y-87921719D01*
X156725168Y-87629899D01*
X156210000Y-87527426D01*
X156184600Y-87532478D01*
X156184600Y-87293104D01*
X156184600Y-86385400D01*
X156184600Y-86334600D01*
X156184600Y-85426896D01*
X156030000Y-85385891D01*
X156003523Y-85391155D01*
X155648479Y-85543919D01*
X155378921Y-85820924D01*
X155235888Y-86179999D01*
X155276873Y-86334600D01*
X156184600Y-86334600D01*
X156184600Y-86385400D01*
X155276873Y-86385400D01*
X155235888Y-86540001D01*
X155378921Y-86899076D01*
X155648479Y-87176081D01*
X156003523Y-87328845D01*
X156030000Y-87334109D01*
X156184600Y-87293104D01*
X156184600Y-87532478D01*
X155694832Y-87629899D01*
X155258093Y-87921719D01*
X154966273Y-88358458D01*
X154940000Y-88490541D01*
X154913727Y-88358458D01*
X154644112Y-87954951D01*
X154644112Y-86540001D01*
X154644112Y-86179999D01*
X154501079Y-85820924D01*
X154231521Y-85543919D01*
X153876477Y-85391155D01*
X153850000Y-85385891D01*
X153695400Y-85426896D01*
X153695400Y-86334600D01*
X154603127Y-86334600D01*
X154644112Y-86179999D01*
X154644112Y-86540001D01*
X154603127Y-86385400D01*
X153695400Y-86385400D01*
X153695400Y-87293104D01*
X153850000Y-87334109D01*
X153876477Y-87328845D01*
X154231521Y-87176081D01*
X154501079Y-86899076D01*
X154644112Y-86540001D01*
X154644112Y-87954951D01*
X154621907Y-87921719D01*
X154185168Y-87629899D01*
X153670000Y-87527426D01*
X153644600Y-87532478D01*
X153644600Y-87293104D01*
X153644600Y-86385400D01*
X153644600Y-86334600D01*
X153644600Y-85426896D01*
X153490000Y-85385891D01*
X153463523Y-85391155D01*
X153108479Y-85543919D01*
X152838921Y-85820924D01*
X152695888Y-86179999D01*
X152736873Y-86334600D01*
X153644600Y-86334600D01*
X153644600Y-86385400D01*
X152736873Y-86385400D01*
X152695888Y-86540001D01*
X152838921Y-86899076D01*
X153108479Y-87176081D01*
X153463523Y-87328845D01*
X153490000Y-87334109D01*
X153644600Y-87293104D01*
X153644600Y-87532478D01*
X153154832Y-87629899D01*
X152718093Y-87921719D01*
X152426273Y-88358458D01*
X152400000Y-88490541D01*
X152373727Y-88358458D01*
X152104112Y-87954951D01*
X152104112Y-86540001D01*
X152104112Y-86179999D01*
X151961079Y-85820924D01*
X151691521Y-85543919D01*
X151336477Y-85391155D01*
X151310000Y-85385891D01*
X151155400Y-85426896D01*
X151155400Y-86334600D01*
X152063127Y-86334600D01*
X152104112Y-86179999D01*
X152104112Y-86540001D01*
X152063127Y-86385400D01*
X151155400Y-86385400D01*
X151155400Y-87293104D01*
X151310000Y-87334109D01*
X151336477Y-87328845D01*
X151691521Y-87176081D01*
X151961079Y-86899076D01*
X152104112Y-86540001D01*
X152104112Y-87954951D01*
X152081907Y-87921719D01*
X151645168Y-87629899D01*
X151130000Y-87527426D01*
X151104600Y-87532478D01*
X151104600Y-87293104D01*
X151104600Y-86385400D01*
X151104600Y-86334600D01*
X151104600Y-85426896D01*
X150950000Y-85385891D01*
X150923523Y-85391155D01*
X150568479Y-85543919D01*
X150298921Y-85820924D01*
X150155888Y-86179999D01*
X150196873Y-86334600D01*
X151104600Y-86334600D01*
X151104600Y-86385400D01*
X150196873Y-86385400D01*
X150155888Y-86540001D01*
X150298921Y-86899076D01*
X150568479Y-87176081D01*
X150923523Y-87328845D01*
X150950000Y-87334109D01*
X151104600Y-87293104D01*
X151104600Y-87532478D01*
X150614832Y-87629899D01*
X150178093Y-87921719D01*
X149886273Y-88358458D01*
X149860000Y-88490541D01*
X149833727Y-88358458D01*
X149564112Y-87954951D01*
X149564112Y-86540001D01*
X149564112Y-86179999D01*
X149421079Y-85820924D01*
X149151521Y-85543919D01*
X148796477Y-85391155D01*
X148770000Y-85385891D01*
X148615400Y-85426896D01*
X148615400Y-86334600D01*
X149523127Y-86334600D01*
X149564112Y-86179999D01*
X149564112Y-86540001D01*
X149523127Y-86385400D01*
X148615400Y-86385400D01*
X148615400Y-87293104D01*
X148770000Y-87334109D01*
X148796477Y-87328845D01*
X149151521Y-87176081D01*
X149421079Y-86899076D01*
X149564112Y-86540001D01*
X149564112Y-87954951D01*
X149541907Y-87921719D01*
X149105168Y-87629899D01*
X148590000Y-87527426D01*
X148564600Y-87532478D01*
X148564600Y-87293104D01*
X148564600Y-86385400D01*
X148564600Y-86334600D01*
X148564600Y-85426896D01*
X148410000Y-85385891D01*
X148383523Y-85391155D01*
X148028479Y-85543919D01*
X147758921Y-85820924D01*
X147615888Y-86179999D01*
X147656873Y-86334600D01*
X148564600Y-86334600D01*
X148564600Y-86385400D01*
X147656873Y-86385400D01*
X147615888Y-86540001D01*
X147758921Y-86899076D01*
X148028479Y-87176081D01*
X148383523Y-87328845D01*
X148410000Y-87334109D01*
X148564600Y-87293104D01*
X148564600Y-87532478D01*
X148074832Y-87629899D01*
X147638093Y-87921719D01*
X147346273Y-88358458D01*
X147320000Y-88490541D01*
X147293727Y-88358458D01*
X147024112Y-87954951D01*
X147024112Y-86540001D01*
X147024112Y-86179999D01*
X146881079Y-85820924D01*
X146611521Y-85543919D01*
X146256477Y-85391155D01*
X146230000Y-85385891D01*
X146075400Y-85426896D01*
X146075400Y-86334600D01*
X146983127Y-86334600D01*
X147024112Y-86179999D01*
X147024112Y-86540001D01*
X146983127Y-86385400D01*
X146075400Y-86385400D01*
X146075400Y-87293104D01*
X146230000Y-87334109D01*
X146256477Y-87328845D01*
X146611521Y-87176081D01*
X146881079Y-86899076D01*
X147024112Y-86540001D01*
X147024112Y-87954951D01*
X147001907Y-87921719D01*
X146565168Y-87629899D01*
X146050000Y-87527426D01*
X146024600Y-87532478D01*
X146024600Y-87293104D01*
X146024600Y-86385400D01*
X146024600Y-86334600D01*
X146024600Y-85426896D01*
X145870000Y-85385891D01*
X145843523Y-85391155D01*
X145488479Y-85543919D01*
X145218921Y-85820924D01*
X145075888Y-86179999D01*
X145116873Y-86334600D01*
X146024600Y-86334600D01*
X146024600Y-86385400D01*
X145116873Y-86385400D01*
X145075888Y-86540001D01*
X145218921Y-86899076D01*
X145488479Y-87176081D01*
X145843523Y-87328845D01*
X145870000Y-87334109D01*
X146024600Y-87293104D01*
X146024600Y-87532478D01*
X145534832Y-87629899D01*
X145098093Y-87921719D01*
X144806273Y-88358458D01*
X144780000Y-88490541D01*
X144753727Y-88358458D01*
X144484112Y-87954951D01*
X144484112Y-86540001D01*
X144484112Y-86179999D01*
X144341079Y-85820924D01*
X144071521Y-85543919D01*
X143716477Y-85391155D01*
X143690000Y-85385891D01*
X143535400Y-85426896D01*
X143535400Y-86334600D01*
X144443127Y-86334600D01*
X144484112Y-86179999D01*
X144484112Y-86540001D01*
X144443127Y-86385400D01*
X143535400Y-86385400D01*
X143535400Y-87293104D01*
X143690000Y-87334109D01*
X143716477Y-87328845D01*
X144071521Y-87176081D01*
X144341079Y-86899076D01*
X144484112Y-86540001D01*
X144484112Y-87954951D01*
X144461907Y-87921719D01*
X144025168Y-87629899D01*
X143510000Y-87527426D01*
X143484600Y-87532478D01*
X143484600Y-87293104D01*
X143484600Y-86385400D01*
X143484600Y-86334600D01*
X143484600Y-85426896D01*
X143330000Y-85385891D01*
X143303523Y-85391155D01*
X142948479Y-85543919D01*
X142678921Y-85820924D01*
X142535888Y-86179999D01*
X142576873Y-86334600D01*
X143484600Y-86334600D01*
X143484600Y-86385400D01*
X142576873Y-86385400D01*
X142535888Y-86540001D01*
X142678921Y-86899076D01*
X142948479Y-87176081D01*
X143303523Y-87328845D01*
X143330000Y-87334109D01*
X143484600Y-87293104D01*
X143484600Y-87532478D01*
X142994832Y-87629899D01*
X142558093Y-87921719D01*
X142266273Y-88358458D01*
X142240000Y-88490541D01*
X142213727Y-88358458D01*
X141944112Y-87954951D01*
X141944112Y-86540001D01*
X141944112Y-86179999D01*
X141801079Y-85820924D01*
X141531521Y-85543919D01*
X141176477Y-85391155D01*
X141150000Y-85385891D01*
X140995400Y-85426896D01*
X140995400Y-86334600D01*
X141903127Y-86334600D01*
X141944112Y-86179999D01*
X141944112Y-86540001D01*
X141903127Y-86385400D01*
X140995400Y-86385400D01*
X140995400Y-87293104D01*
X141150000Y-87334109D01*
X141176477Y-87328845D01*
X141531521Y-87176081D01*
X141801079Y-86899076D01*
X141944112Y-86540001D01*
X141944112Y-87954951D01*
X141921907Y-87921719D01*
X141485168Y-87629899D01*
X140970000Y-87527426D01*
X140944600Y-87532478D01*
X140944600Y-87293104D01*
X140944600Y-86385400D01*
X140944600Y-86334600D01*
X140944600Y-85426896D01*
X140790000Y-85385891D01*
X140763523Y-85391155D01*
X140408479Y-85543919D01*
X140138921Y-85820924D01*
X139995888Y-86179999D01*
X140036873Y-86334600D01*
X140944600Y-86334600D01*
X140944600Y-86385400D01*
X140036873Y-86385400D01*
X139995888Y-86540001D01*
X140138921Y-86899076D01*
X140408479Y-87176081D01*
X140763523Y-87328845D01*
X140790000Y-87334109D01*
X140944600Y-87293104D01*
X140944600Y-87532478D01*
X140454832Y-87629899D01*
X140018093Y-87921719D01*
X139726273Y-88358458D01*
X139700000Y-88490541D01*
X139673727Y-88358458D01*
X139404112Y-87954951D01*
X139404112Y-86540001D01*
X139404112Y-86179999D01*
X139261079Y-85820924D01*
X138991521Y-85543919D01*
X138636477Y-85391155D01*
X138610000Y-85385891D01*
X138455400Y-85426896D01*
X138455400Y-86334600D01*
X139363127Y-86334600D01*
X139404112Y-86179999D01*
X139404112Y-86540001D01*
X139363127Y-86385400D01*
X138455400Y-86385400D01*
X138455400Y-87293104D01*
X138610000Y-87334109D01*
X138636477Y-87328845D01*
X138991521Y-87176081D01*
X139261079Y-86899076D01*
X139404112Y-86540001D01*
X139404112Y-87954951D01*
X139381907Y-87921719D01*
X138945168Y-87629899D01*
X138430000Y-87527426D01*
X138404600Y-87532478D01*
X138404600Y-87293104D01*
X138404600Y-86385400D01*
X138404600Y-86334600D01*
X138404600Y-85426896D01*
X138250000Y-85385891D01*
X138223523Y-85391155D01*
X137868479Y-85543919D01*
X137598921Y-85820924D01*
X137455888Y-86179999D01*
X137496873Y-86334600D01*
X138404600Y-86334600D01*
X138404600Y-86385400D01*
X137496873Y-86385400D01*
X137455888Y-86540001D01*
X137598921Y-86899076D01*
X137868479Y-87176081D01*
X138223523Y-87328845D01*
X138250000Y-87334109D01*
X138404600Y-87293104D01*
X138404600Y-87532478D01*
X137914832Y-87629899D01*
X137478093Y-87921719D01*
X137186273Y-88358458D01*
X137160000Y-88490541D01*
X137133727Y-88358458D01*
X136864112Y-87954951D01*
X136864112Y-86540001D01*
X136864112Y-86179999D01*
X136721079Y-85820924D01*
X136451521Y-85543919D01*
X136096477Y-85391155D01*
X136070000Y-85385891D01*
X135915400Y-85426896D01*
X135915400Y-86334600D01*
X136823127Y-86334600D01*
X136864112Y-86179999D01*
X136864112Y-86540001D01*
X136823127Y-86385400D01*
X135915400Y-86385400D01*
X135915400Y-87293104D01*
X136070000Y-87334109D01*
X136096477Y-87328845D01*
X136451521Y-87176081D01*
X136721079Y-86899076D01*
X136864112Y-86540001D01*
X136864112Y-87954951D01*
X136841907Y-87921719D01*
X136405168Y-87629899D01*
X135890000Y-87527426D01*
X135864600Y-87532478D01*
X135864600Y-87293104D01*
X135864600Y-86385400D01*
X135864600Y-86334600D01*
X135864600Y-85426896D01*
X135710000Y-85385891D01*
X135683523Y-85391155D01*
X135328479Y-85543919D01*
X135058921Y-85820924D01*
X134915888Y-86179999D01*
X134956873Y-86334600D01*
X135864600Y-86334600D01*
X135864600Y-86385400D01*
X134956873Y-86385400D01*
X134915888Y-86540001D01*
X135058921Y-86899076D01*
X135328479Y-87176081D01*
X135683523Y-87328845D01*
X135710000Y-87334109D01*
X135864600Y-87293104D01*
X135864600Y-87532478D01*
X135374832Y-87629899D01*
X134938093Y-87921719D01*
X134646273Y-88358458D01*
X134620000Y-88490541D01*
X134593727Y-88358458D01*
X134324112Y-87954951D01*
X134324112Y-86540001D01*
X134324112Y-86179999D01*
X134181079Y-85820924D01*
X133911521Y-85543919D01*
X133556477Y-85391155D01*
X133530000Y-85385891D01*
X133375400Y-85426896D01*
X133375400Y-86334600D01*
X134283127Y-86334600D01*
X134324112Y-86179999D01*
X134324112Y-86540001D01*
X134283127Y-86385400D01*
X133375400Y-86385400D01*
X133375400Y-87293104D01*
X133530000Y-87334109D01*
X133556477Y-87328845D01*
X133911521Y-87176081D01*
X134181079Y-86899076D01*
X134324112Y-86540001D01*
X134324112Y-87954951D01*
X134301907Y-87921719D01*
X133865168Y-87629899D01*
X133350000Y-87527426D01*
X133324600Y-87532478D01*
X133324600Y-87293104D01*
X133324600Y-86385400D01*
X133324600Y-86334600D01*
X133324600Y-85426896D01*
X133170000Y-85385891D01*
X133143523Y-85391155D01*
X132788479Y-85543919D01*
X132518921Y-85820924D01*
X132375888Y-86179999D01*
X132416873Y-86334600D01*
X133324600Y-86334600D01*
X133324600Y-86385400D01*
X132416873Y-86385400D01*
X132375888Y-86540001D01*
X132518921Y-86899076D01*
X132788479Y-87176081D01*
X133143523Y-87328845D01*
X133170000Y-87334109D01*
X133324600Y-87293104D01*
X133324600Y-87532478D01*
X132834832Y-87629899D01*
X132398093Y-87921719D01*
X132106273Y-88358458D01*
X132080000Y-88490541D01*
X132053727Y-88358458D01*
X131784112Y-87954951D01*
X131784112Y-86540001D01*
X131784112Y-86179999D01*
X131641079Y-85820924D01*
X131371521Y-85543919D01*
X131016477Y-85391155D01*
X130990000Y-85385891D01*
X130835400Y-85426896D01*
X130835400Y-86334600D01*
X131743127Y-86334600D01*
X131784112Y-86179999D01*
X131784112Y-86540001D01*
X131743127Y-86385400D01*
X130835400Y-86385400D01*
X130835400Y-87293104D01*
X130990000Y-87334109D01*
X131016477Y-87328845D01*
X131371521Y-87176081D01*
X131641079Y-86899076D01*
X131784112Y-86540001D01*
X131784112Y-87954951D01*
X131761907Y-87921719D01*
X131325168Y-87629899D01*
X130810000Y-87527426D01*
X130784600Y-87532478D01*
X130784600Y-87293104D01*
X130784600Y-86385400D01*
X130784600Y-86334600D01*
X130784600Y-85426896D01*
X130630000Y-85385891D01*
X130603523Y-85391155D01*
X130248479Y-85543919D01*
X129978921Y-85820924D01*
X129835888Y-86179999D01*
X129876873Y-86334600D01*
X130784600Y-86334600D01*
X130784600Y-86385400D01*
X129876873Y-86385400D01*
X129835888Y-86540001D01*
X129978921Y-86899076D01*
X130248479Y-87176081D01*
X130603523Y-87328845D01*
X130630000Y-87334109D01*
X130784600Y-87293104D01*
X130784600Y-87532478D01*
X130294832Y-87629899D01*
X129858093Y-87921719D01*
X129566273Y-88358458D01*
X129540000Y-88490541D01*
X129513727Y-88358458D01*
X129244112Y-87954951D01*
X129244112Y-86540001D01*
X129244112Y-86179999D01*
X129101079Y-85820924D01*
X128831521Y-85543919D01*
X128476477Y-85391155D01*
X128450000Y-85385891D01*
X128295400Y-85426896D01*
X128295400Y-86334600D01*
X129203127Y-86334600D01*
X129244112Y-86179999D01*
X129244112Y-86540001D01*
X129203127Y-86385400D01*
X128295400Y-86385400D01*
X128295400Y-87293104D01*
X128450000Y-87334109D01*
X128476477Y-87328845D01*
X128831521Y-87176081D01*
X129101079Y-86899076D01*
X129244112Y-86540001D01*
X129244112Y-87954951D01*
X129221907Y-87921719D01*
X128785168Y-87629899D01*
X128270000Y-87527426D01*
X128244600Y-87532478D01*
X128244600Y-87293104D01*
X128244600Y-86385400D01*
X128244600Y-86334600D01*
X128244600Y-85426896D01*
X128090000Y-85385891D01*
X128063523Y-85391155D01*
X127708479Y-85543919D01*
X127438921Y-85820924D01*
X127295888Y-86179999D01*
X127336873Y-86334600D01*
X128244600Y-86334600D01*
X128244600Y-86385400D01*
X127336873Y-86385400D01*
X127295888Y-86540001D01*
X127438921Y-86899076D01*
X127708479Y-87176081D01*
X128063523Y-87328845D01*
X128090000Y-87334109D01*
X128244600Y-87293104D01*
X128244600Y-87532478D01*
X127754832Y-87629899D01*
X127318093Y-87921719D01*
X127026273Y-88358458D01*
X127000000Y-88490541D01*
X126973727Y-88358458D01*
X126704112Y-87954951D01*
X126704112Y-86540001D01*
X126704112Y-86179999D01*
X126561079Y-85820924D01*
X126291521Y-85543919D01*
X125936477Y-85391155D01*
X125910000Y-85385891D01*
X125755400Y-85426896D01*
X125755400Y-86334600D01*
X126663127Y-86334600D01*
X126704112Y-86179999D01*
X126704112Y-86540001D01*
X126663127Y-86385400D01*
X125755400Y-86385400D01*
X125755400Y-87293104D01*
X125910000Y-87334109D01*
X125936477Y-87328845D01*
X126291521Y-87176081D01*
X126561079Y-86899076D01*
X126704112Y-86540001D01*
X126704112Y-87954951D01*
X126681907Y-87921719D01*
X126245168Y-87629899D01*
X125730000Y-87527426D01*
X125704600Y-87532478D01*
X125704600Y-87293104D01*
X125704600Y-86385400D01*
X125704600Y-86334600D01*
X125704600Y-85426896D01*
X125550000Y-85385891D01*
X125523523Y-85391155D01*
X125168479Y-85543919D01*
X124898921Y-85820924D01*
X124755888Y-86179999D01*
X124796873Y-86334600D01*
X125704600Y-86334600D01*
X125704600Y-86385400D01*
X124796873Y-86385400D01*
X124755888Y-86540001D01*
X124898921Y-86899076D01*
X125168479Y-87176081D01*
X125523523Y-87328845D01*
X125550000Y-87334109D01*
X125704600Y-87293104D01*
X125704600Y-87532478D01*
X125214832Y-87629899D01*
X124778093Y-87921719D01*
X124486273Y-88358458D01*
X124460000Y-88490541D01*
X124433727Y-88358458D01*
X124164112Y-87954951D01*
X124164112Y-86540001D01*
X124164112Y-86179999D01*
X124021079Y-85820924D01*
X123751521Y-85543919D01*
X123396477Y-85391155D01*
X123370000Y-85385891D01*
X123215400Y-85426896D01*
X123215400Y-86334600D01*
X124123127Y-86334600D01*
X124164112Y-86179999D01*
X124164112Y-86540001D01*
X124123127Y-86385400D01*
X123215400Y-86385400D01*
X123215400Y-87293104D01*
X123370000Y-87334109D01*
X123396477Y-87328845D01*
X123751521Y-87176081D01*
X124021079Y-86899076D01*
X124164112Y-86540001D01*
X124164112Y-87954951D01*
X124141907Y-87921719D01*
X123705168Y-87629899D01*
X123190000Y-87527426D01*
X123164600Y-87532478D01*
X123164600Y-87293104D01*
X123164600Y-86385400D01*
X123164600Y-86334600D01*
X123164600Y-85426896D01*
X123010000Y-85385891D01*
X122983523Y-85391155D01*
X122628479Y-85543919D01*
X122358921Y-85820924D01*
X122215888Y-86179999D01*
X122256873Y-86334600D01*
X123164600Y-86334600D01*
X123164600Y-86385400D01*
X122256873Y-86385400D01*
X122215888Y-86540001D01*
X122358921Y-86899076D01*
X122628479Y-87176081D01*
X122983523Y-87328845D01*
X123010000Y-87334109D01*
X123164600Y-87293104D01*
X123164600Y-87532478D01*
X122674832Y-87629899D01*
X122238093Y-87921719D01*
X121946273Y-88358458D01*
X121920000Y-88490541D01*
X121893727Y-88358458D01*
X121624112Y-87954951D01*
X121624112Y-86540001D01*
X121624112Y-86179999D01*
X121481079Y-85820924D01*
X121211521Y-85543919D01*
X120856477Y-85391155D01*
X120830000Y-85385891D01*
X120675400Y-85426896D01*
X120675400Y-86334600D01*
X121583127Y-86334600D01*
X121624112Y-86179999D01*
X121624112Y-86540001D01*
X121583127Y-86385400D01*
X120675400Y-86385400D01*
X120675400Y-87293104D01*
X120830000Y-87334109D01*
X120856477Y-87328845D01*
X121211521Y-87176081D01*
X121481079Y-86899076D01*
X121624112Y-86540001D01*
X121624112Y-87954951D01*
X121601907Y-87921719D01*
X121165168Y-87629899D01*
X120650000Y-87527426D01*
X120624600Y-87532478D01*
X120624600Y-87293104D01*
X120624600Y-86385400D01*
X120624600Y-86334600D01*
X120624600Y-85426896D01*
X120470000Y-85385891D01*
X120443523Y-85391155D01*
X120088479Y-85543919D01*
X119818921Y-85820924D01*
X119675888Y-86179999D01*
X119716873Y-86334600D01*
X120624600Y-86334600D01*
X120624600Y-86385400D01*
X119716873Y-86385400D01*
X119675888Y-86540001D01*
X119818921Y-86899076D01*
X120088479Y-87176081D01*
X120443523Y-87328845D01*
X120470000Y-87334109D01*
X120624600Y-87293104D01*
X120624600Y-87532478D01*
X120134832Y-87629899D01*
X119698093Y-87921719D01*
X119406273Y-88358458D01*
X119380000Y-88490541D01*
X119353727Y-88358458D01*
X119084112Y-87954951D01*
X119084112Y-86540001D01*
X119084112Y-86179999D01*
X118941079Y-85820924D01*
X118671521Y-85543919D01*
X118316477Y-85391155D01*
X118290000Y-85385891D01*
X118135400Y-85426896D01*
X118135400Y-86334600D01*
X119043127Y-86334600D01*
X119084112Y-86179999D01*
X119084112Y-86540001D01*
X119043127Y-86385400D01*
X118135400Y-86385400D01*
X118135400Y-87293104D01*
X118290000Y-87334109D01*
X118316477Y-87328845D01*
X118671521Y-87176081D01*
X118941079Y-86899076D01*
X119084112Y-86540001D01*
X119084112Y-87954951D01*
X119061907Y-87921719D01*
X118625168Y-87629899D01*
X118110000Y-87527426D01*
X118084600Y-87532478D01*
X118084600Y-87293104D01*
X118084600Y-86385400D01*
X118084600Y-86334600D01*
X118084600Y-85426896D01*
X117930000Y-85385891D01*
X117903523Y-85391155D01*
X117548479Y-85543919D01*
X117278921Y-85820924D01*
X117135888Y-86179999D01*
X117176873Y-86334600D01*
X118084600Y-86334600D01*
X118084600Y-86385400D01*
X117176873Y-86385400D01*
X117135888Y-86540001D01*
X117278921Y-86899076D01*
X117548479Y-87176081D01*
X117903523Y-87328845D01*
X117930000Y-87334109D01*
X118084600Y-87293104D01*
X118084600Y-87532478D01*
X117594832Y-87629899D01*
X117158093Y-87921719D01*
X116866273Y-88358458D01*
X116840000Y-88490541D01*
X116813727Y-88358458D01*
X116544112Y-87954951D01*
X116544112Y-86540001D01*
X116544112Y-86179999D01*
X116401079Y-85820924D01*
X116131521Y-85543919D01*
X115776477Y-85391155D01*
X115750000Y-85385891D01*
X115595400Y-85426896D01*
X115595400Y-86334600D01*
X116503127Y-86334600D01*
X116544112Y-86179999D01*
X116544112Y-86540001D01*
X116503127Y-86385400D01*
X115595400Y-86385400D01*
X115595400Y-87293104D01*
X115750000Y-87334109D01*
X115776477Y-87328845D01*
X116131521Y-87176081D01*
X116401079Y-86899076D01*
X116544112Y-86540001D01*
X116544112Y-87954951D01*
X116521907Y-87921719D01*
X116085168Y-87629899D01*
X115570000Y-87527426D01*
X115544600Y-87532478D01*
X115544600Y-87293104D01*
X115544600Y-86385400D01*
X115544600Y-86334600D01*
X115544600Y-85426896D01*
X115390000Y-85385891D01*
X115363523Y-85391155D01*
X115008479Y-85543919D01*
X114738921Y-85820924D01*
X114595888Y-86179999D01*
X114636873Y-86334600D01*
X115544600Y-86334600D01*
X115544600Y-86385400D01*
X114636873Y-86385400D01*
X114595888Y-86540001D01*
X114738921Y-86899076D01*
X115008479Y-87176081D01*
X115363523Y-87328845D01*
X115390000Y-87334109D01*
X115544600Y-87293104D01*
X115544600Y-87532478D01*
X115054832Y-87629899D01*
X114618093Y-87921719D01*
X114326273Y-88358458D01*
X114300000Y-88490541D01*
X114273727Y-88358458D01*
X114004112Y-87954951D01*
X114004112Y-86540001D01*
X114004112Y-86179999D01*
X113861079Y-85820924D01*
X113591521Y-85543919D01*
X113236477Y-85391155D01*
X113210000Y-85385891D01*
X113055400Y-85426896D01*
X113055400Y-86334600D01*
X113963127Y-86334600D01*
X114004112Y-86179999D01*
X114004112Y-86540001D01*
X113963127Y-86385400D01*
X113055400Y-86385400D01*
X113055400Y-87293104D01*
X113210000Y-87334109D01*
X113236477Y-87328845D01*
X113591521Y-87176081D01*
X113861079Y-86899076D01*
X114004112Y-86540001D01*
X114004112Y-87954951D01*
X113981907Y-87921719D01*
X113545168Y-87629899D01*
X113030000Y-87527426D01*
X113004600Y-87532478D01*
X113004600Y-87293104D01*
X113004600Y-86385400D01*
X113004600Y-86334600D01*
X113004600Y-85426896D01*
X112850000Y-85385891D01*
X112823523Y-85391155D01*
X112468479Y-85543919D01*
X112198921Y-85820924D01*
X112055888Y-86179999D01*
X112096873Y-86334600D01*
X113004600Y-86334600D01*
X113004600Y-86385400D01*
X112096873Y-86385400D01*
X112055888Y-86540001D01*
X112198921Y-86899076D01*
X112468479Y-87176081D01*
X112823523Y-87328845D01*
X112850000Y-87334109D01*
X113004600Y-87293104D01*
X113004600Y-87532478D01*
X112514832Y-87629899D01*
X112078093Y-87921719D01*
X111786273Y-88358458D01*
X111760000Y-88490541D01*
X111733727Y-88358458D01*
X111464112Y-87954951D01*
X111464112Y-86540001D01*
X111464112Y-86179999D01*
X111321079Y-85820924D01*
X111051521Y-85543919D01*
X110696477Y-85391155D01*
X110670000Y-85385891D01*
X110515400Y-85426896D01*
X110515400Y-86334600D01*
X111423127Y-86334600D01*
X111464112Y-86179999D01*
X111464112Y-86540001D01*
X111423127Y-86385400D01*
X110515400Y-86385400D01*
X110515400Y-87293104D01*
X110670000Y-87334109D01*
X110696477Y-87328845D01*
X111051521Y-87176081D01*
X111321079Y-86899076D01*
X111464112Y-86540001D01*
X111464112Y-87954951D01*
X111441907Y-87921719D01*
X111005168Y-87629899D01*
X110490000Y-87527426D01*
X110464600Y-87532478D01*
X110464600Y-87293104D01*
X110464600Y-86385400D01*
X110464600Y-86334600D01*
X110464600Y-85426896D01*
X110310000Y-85385891D01*
X110283523Y-85391155D01*
X109928479Y-85543919D01*
X109658921Y-85820924D01*
X109515888Y-86179999D01*
X109556873Y-86334600D01*
X110464600Y-86334600D01*
X110464600Y-86385400D01*
X109556873Y-86385400D01*
X109515888Y-86540001D01*
X109658921Y-86899076D01*
X109928479Y-87176081D01*
X110283523Y-87328845D01*
X110310000Y-87334109D01*
X110464600Y-87293104D01*
X110464600Y-87532478D01*
X109974832Y-87629899D01*
X109538093Y-87921719D01*
X109246273Y-88358458D01*
X109220000Y-88490541D01*
X109193727Y-88358458D01*
X108924112Y-87954951D01*
X108924112Y-86540001D01*
X108924112Y-86179999D01*
X108781079Y-85820924D01*
X108511521Y-85543919D01*
X108156477Y-85391155D01*
X108130000Y-85385891D01*
X107975400Y-85426896D01*
X107975400Y-86334600D01*
X108883127Y-86334600D01*
X108924112Y-86179999D01*
X108924112Y-86540001D01*
X108883127Y-86385400D01*
X107975400Y-86385400D01*
X107975400Y-87293104D01*
X108130000Y-87334109D01*
X108156477Y-87328845D01*
X108511521Y-87176081D01*
X108781079Y-86899076D01*
X108924112Y-86540001D01*
X108924112Y-87954951D01*
X108901907Y-87921719D01*
X108465168Y-87629899D01*
X107950000Y-87527426D01*
X107924600Y-87532478D01*
X107924600Y-87293104D01*
X107924600Y-86385400D01*
X107924600Y-86334600D01*
X107924600Y-85426896D01*
X107770000Y-85385891D01*
X107743523Y-85391155D01*
X107388479Y-85543919D01*
X107118921Y-85820924D01*
X106975888Y-86179999D01*
X107016873Y-86334600D01*
X107924600Y-86334600D01*
X107924600Y-86385400D01*
X107016873Y-86385400D01*
X106975888Y-86540001D01*
X107118921Y-86899076D01*
X107388479Y-87176081D01*
X107743523Y-87328845D01*
X107770000Y-87334109D01*
X107924600Y-87293104D01*
X107924600Y-87532478D01*
X107434832Y-87629899D01*
X106998093Y-87921719D01*
X106706273Y-88358458D01*
X106680000Y-88490541D01*
X106653727Y-88358458D01*
X106384112Y-87954951D01*
X106384112Y-86540001D01*
X106384112Y-86179999D01*
X106241079Y-85820924D01*
X105971521Y-85543919D01*
X105616477Y-85391155D01*
X105590000Y-85385891D01*
X105435400Y-85426896D01*
X105435400Y-86334600D01*
X106343127Y-86334600D01*
X106384112Y-86179999D01*
X106384112Y-86540001D01*
X106343127Y-86385400D01*
X105435400Y-86385400D01*
X105435400Y-87293104D01*
X105590000Y-87334109D01*
X105616477Y-87328845D01*
X105971521Y-87176081D01*
X106241079Y-86899076D01*
X106384112Y-86540001D01*
X106384112Y-87954951D01*
X106361907Y-87921719D01*
X105925168Y-87629899D01*
X105410000Y-87527426D01*
X105384600Y-87532478D01*
X105384600Y-87293104D01*
X105384600Y-86385400D01*
X105384600Y-86334600D01*
X105384600Y-85426896D01*
X105230000Y-85385891D01*
X105203523Y-85391155D01*
X104848479Y-85543919D01*
X104578921Y-85820924D01*
X104435888Y-86179999D01*
X104476873Y-86334600D01*
X105384600Y-86334600D01*
X105384600Y-86385400D01*
X104476873Y-86385400D01*
X104435888Y-86540001D01*
X104578921Y-86899076D01*
X104848479Y-87176081D01*
X105203523Y-87328845D01*
X105230000Y-87334109D01*
X105384600Y-87293104D01*
X105384600Y-87532478D01*
X104894832Y-87629899D01*
X104458093Y-87921719D01*
X104166273Y-88358458D01*
X104140000Y-88490541D01*
X104113727Y-88358458D01*
X103844112Y-87954951D01*
X103844112Y-86540001D01*
X103844112Y-86179999D01*
X103701079Y-85820924D01*
X103431521Y-85543919D01*
X103076477Y-85391155D01*
X103050000Y-85385891D01*
X102895400Y-85426896D01*
X102895400Y-86334600D01*
X103803127Y-86334600D01*
X103844112Y-86179999D01*
X103844112Y-86540001D01*
X103803127Y-86385400D01*
X102895400Y-86385400D01*
X102895400Y-87293104D01*
X103050000Y-87334109D01*
X103076477Y-87328845D01*
X103431521Y-87176081D01*
X103701079Y-86899076D01*
X103844112Y-86540001D01*
X103844112Y-87954951D01*
X103821907Y-87921719D01*
X103385168Y-87629899D01*
X102870000Y-87527426D01*
X102844600Y-87532478D01*
X102844600Y-87293104D01*
X102844600Y-86385400D01*
X102844600Y-86334600D01*
X102844600Y-85426896D01*
X102690000Y-85385891D01*
X102663523Y-85391155D01*
X102308479Y-85543919D01*
X102038921Y-85820924D01*
X101895888Y-86179999D01*
X101936873Y-86334600D01*
X102844600Y-86334600D01*
X102844600Y-86385400D01*
X101936873Y-86385400D01*
X101895888Y-86540001D01*
X102038921Y-86899076D01*
X102308479Y-87176081D01*
X102663523Y-87328845D01*
X102690000Y-87334109D01*
X102844600Y-87293104D01*
X102844600Y-87532478D01*
X102354832Y-87629899D01*
X101918093Y-87921719D01*
X101626273Y-88358458D01*
X101523800Y-88873626D01*
X101523800Y-88926374D01*
X101626273Y-89441542D01*
X101918093Y-89878281D01*
X102354832Y-90170101D01*
X102870000Y-90272574D01*
X103385168Y-90170101D01*
X103821907Y-89878281D01*
X104113727Y-89441542D01*
X104140000Y-89309458D01*
X104166273Y-89441542D01*
X104458093Y-89878281D01*
X104894832Y-90170101D01*
X105410000Y-90272574D01*
X105925168Y-90170101D01*
X106361907Y-89878281D01*
X106653727Y-89441542D01*
X106680000Y-89309458D01*
X106706273Y-89441542D01*
X106998093Y-89878281D01*
X107434832Y-90170101D01*
X107950000Y-90272574D01*
X108465168Y-90170101D01*
X108901907Y-89878281D01*
X109193727Y-89441542D01*
X109220000Y-89309458D01*
X109246273Y-89441542D01*
X109538093Y-89878281D01*
X109974832Y-90170101D01*
X110490000Y-90272574D01*
X111005168Y-90170101D01*
X111441907Y-89878281D01*
X111733727Y-89441542D01*
X111760000Y-89309458D01*
X111786273Y-89441542D01*
X112078093Y-89878281D01*
X112514832Y-90170101D01*
X113030000Y-90272574D01*
X113545168Y-90170101D01*
X113981907Y-89878281D01*
X114273727Y-89441542D01*
X114300000Y-89309458D01*
X114326273Y-89441542D01*
X114618093Y-89878281D01*
X115054832Y-90170101D01*
X115570000Y-90272574D01*
X116085168Y-90170101D01*
X116521907Y-89878281D01*
X116813727Y-89441542D01*
X116840000Y-89309458D01*
X116866273Y-89441542D01*
X117158093Y-89878281D01*
X117594832Y-90170101D01*
X118110000Y-90272574D01*
X118625168Y-90170101D01*
X119061907Y-89878281D01*
X119353727Y-89441542D01*
X119380000Y-89309458D01*
X119406273Y-89441542D01*
X119698093Y-89878281D01*
X120134832Y-90170101D01*
X120650000Y-90272574D01*
X121165168Y-90170101D01*
X121601907Y-89878281D01*
X121893727Y-89441542D01*
X121920000Y-89309458D01*
X121946273Y-89441542D01*
X122238093Y-89878281D01*
X122674832Y-90170101D01*
X123190000Y-90272574D01*
X123705168Y-90170101D01*
X124141907Y-89878281D01*
X124433727Y-89441542D01*
X124460000Y-89309458D01*
X124486273Y-89441542D01*
X124778093Y-89878281D01*
X125214832Y-90170101D01*
X125730000Y-90272574D01*
X126245168Y-90170101D01*
X126681907Y-89878281D01*
X126973727Y-89441542D01*
X127000000Y-89309458D01*
X127026273Y-89441542D01*
X127318093Y-89878281D01*
X127754832Y-90170101D01*
X128270000Y-90272574D01*
X128785168Y-90170101D01*
X129221907Y-89878281D01*
X129513727Y-89441542D01*
X129540000Y-89309458D01*
X129566273Y-89441542D01*
X129858093Y-89878281D01*
X130294832Y-90170101D01*
X130810000Y-90272574D01*
X131325168Y-90170101D01*
X131761907Y-89878281D01*
X132053727Y-89441542D01*
X132080000Y-89309458D01*
X132106273Y-89441542D01*
X132398093Y-89878281D01*
X132834832Y-90170101D01*
X133350000Y-90272574D01*
X133865168Y-90170101D01*
X134301907Y-89878281D01*
X134593727Y-89441542D01*
X134620000Y-89309458D01*
X134646273Y-89441542D01*
X134938093Y-89878281D01*
X135374832Y-90170101D01*
X135890000Y-90272574D01*
X136405168Y-90170101D01*
X136841907Y-89878281D01*
X137133727Y-89441542D01*
X137160000Y-89309458D01*
X137186273Y-89441542D01*
X137478093Y-89878281D01*
X137914832Y-90170101D01*
X138430000Y-90272574D01*
X138945168Y-90170101D01*
X139381907Y-89878281D01*
X139673727Y-89441542D01*
X139700000Y-89309458D01*
X139726273Y-89441542D01*
X140018093Y-89878281D01*
X140454832Y-90170101D01*
X140970000Y-90272574D01*
X141485168Y-90170101D01*
X141921907Y-89878281D01*
X142213727Y-89441542D01*
X142240000Y-89309458D01*
X142266273Y-89441542D01*
X142558093Y-89878281D01*
X142994832Y-90170101D01*
X143510000Y-90272574D01*
X144025168Y-90170101D01*
X144461907Y-89878281D01*
X144753727Y-89441542D01*
X144780000Y-89309458D01*
X144806273Y-89441542D01*
X145098093Y-89878281D01*
X145534832Y-90170101D01*
X146050000Y-90272574D01*
X146565168Y-90170101D01*
X147001907Y-89878281D01*
X147293727Y-89441542D01*
X147320000Y-89309458D01*
X147346273Y-89441542D01*
X147638093Y-89878281D01*
X148074832Y-90170101D01*
X148590000Y-90272574D01*
X149105168Y-90170101D01*
X149541907Y-89878281D01*
X149833727Y-89441542D01*
X149860000Y-89309458D01*
X149886273Y-89441542D01*
X150178093Y-89878281D01*
X150614832Y-90170101D01*
X151130000Y-90272574D01*
X151645168Y-90170101D01*
X152081907Y-89878281D01*
X152373727Y-89441542D01*
X152400000Y-89309458D01*
X152426273Y-89441542D01*
X152718093Y-89878281D01*
X153154832Y-90170101D01*
X153670000Y-90272574D01*
X154185168Y-90170101D01*
X154621907Y-89878281D01*
X154913727Y-89441542D01*
X154940000Y-89309458D01*
X154966273Y-89441542D01*
X155258093Y-89878281D01*
X155694832Y-90170101D01*
X156210000Y-90272574D01*
X156725168Y-90170101D01*
X157161907Y-89878281D01*
X157453727Y-89441542D01*
X157480000Y-89309458D01*
X157506273Y-89441542D01*
X157798093Y-89878281D01*
X158234832Y-90170101D01*
X158750000Y-90272574D01*
X159265168Y-90170101D01*
X159701907Y-89878281D01*
X159993727Y-89441542D01*
X160020000Y-89309458D01*
X160046273Y-89441542D01*
X160338093Y-89878281D01*
X160774832Y-90170101D01*
X161290000Y-90272574D01*
X161805168Y-90170101D01*
X162241907Y-89878281D01*
X162533727Y-89441542D01*
X162560000Y-89309458D01*
X162586273Y-89441542D01*
X162878093Y-89878281D01*
X163314832Y-90170101D01*
X163830000Y-90272574D01*
X164345168Y-90170101D01*
X164781907Y-89878281D01*
X165073727Y-89441542D01*
X165100000Y-89309458D01*
X165126273Y-89441542D01*
X165418093Y-89878281D01*
X165854832Y-90170101D01*
X166370000Y-90272574D01*
X166885168Y-90170101D01*
X167321907Y-89878281D01*
X167613727Y-89441542D01*
X167640000Y-89309458D01*
X167666273Y-89441542D01*
X167958093Y-89878281D01*
X168394832Y-90170101D01*
X168910000Y-90272574D01*
X169425168Y-90170101D01*
X169861907Y-89878281D01*
X170153727Y-89441542D01*
X170180000Y-89309458D01*
X170206273Y-89441542D01*
X170498093Y-89878281D01*
X170934832Y-90170101D01*
X171450000Y-90272574D01*
X171965168Y-90170101D01*
X172401907Y-89878281D01*
X172693727Y-89441542D01*
X172720000Y-89309458D01*
X172746273Y-89441542D01*
X173038093Y-89878281D01*
X173474832Y-90170101D01*
X173990000Y-90272574D01*
X174505168Y-90170101D01*
X174941907Y-89878281D01*
X175233727Y-89441542D01*
X175260000Y-89309458D01*
X175286273Y-89441542D01*
X175578093Y-89878281D01*
X176014832Y-90170101D01*
X176530000Y-90272574D01*
X177045168Y-90170101D01*
X177481907Y-89878281D01*
X177773727Y-89441542D01*
X177876200Y-88926374D01*
X177876200Y-120583710D01*
X177826374Y-120573800D01*
X177773626Y-120573800D01*
X177258458Y-120676273D01*
X176821719Y-120968093D01*
X176529899Y-121404832D01*
X176427426Y-121920000D01*
X176529899Y-122435168D01*
X176821719Y-122871907D01*
X177258458Y-123163727D01*
X177773626Y-123266200D01*
X177826374Y-123266200D01*
X178341542Y-123163727D01*
X178778281Y-122871907D01*
X179070101Y-122435168D01*
X179172574Y-121920000D01*
X179172574Y-139014200D01*
X177876200Y-139014200D01*
X177876200Y-129566374D01*
X177876200Y-129513626D01*
X177773727Y-128998458D01*
X177481907Y-128561719D01*
X177045319Y-128270000D01*
X177481907Y-127978281D01*
X177773727Y-127541542D01*
X177876200Y-127026374D01*
X177876200Y-126973626D01*
X177773727Y-126458458D01*
X177481907Y-126021719D01*
X177045168Y-125729899D01*
X176530000Y-125627426D01*
X176014832Y-125729899D01*
X175578093Y-126021719D01*
X175286273Y-126458458D01*
X175260000Y-126590541D01*
X175233727Y-126458458D01*
X174941907Y-126021719D01*
X174505168Y-125729899D01*
X173990000Y-125627426D01*
X173474832Y-125729899D01*
X173038093Y-126021719D01*
X172746273Y-126458458D01*
X172720000Y-126590541D01*
X172693727Y-126458458D01*
X172401907Y-126021719D01*
X171965168Y-125729899D01*
X171450000Y-125627426D01*
X170934832Y-125729899D01*
X170498093Y-126021719D01*
X170206273Y-126458458D01*
X170180000Y-126590541D01*
X170153727Y-126458458D01*
X169861907Y-126021719D01*
X169425168Y-125729899D01*
X168910000Y-125627426D01*
X168394832Y-125729899D01*
X167958093Y-126021719D01*
X167666273Y-126458458D01*
X167640000Y-126590541D01*
X167613727Y-126458458D01*
X167321907Y-126021719D01*
X166885168Y-125729899D01*
X166370000Y-125627426D01*
X165854832Y-125729899D01*
X165418093Y-126021719D01*
X165126273Y-126458458D01*
X165100000Y-126590541D01*
X165073727Y-126458458D01*
X164781907Y-126021719D01*
X164345168Y-125729899D01*
X163830000Y-125627426D01*
X163314832Y-125729899D01*
X162878093Y-126021719D01*
X162586273Y-126458458D01*
X162560000Y-126590541D01*
X162533727Y-126458458D01*
X162241907Y-126021719D01*
X161805168Y-125729899D01*
X161290000Y-125627426D01*
X160774832Y-125729899D01*
X160338093Y-126021719D01*
X160046273Y-126458458D01*
X160020000Y-126590541D01*
X159993727Y-126458458D01*
X159701907Y-126021719D01*
X159265168Y-125729899D01*
X158750000Y-125627426D01*
X158234832Y-125729899D01*
X157798093Y-126021719D01*
X157506273Y-126458458D01*
X157480000Y-126590541D01*
X157453727Y-126458458D01*
X157161907Y-126021719D01*
X156725168Y-125729899D01*
X156210000Y-125627426D01*
X155694832Y-125729899D01*
X155258093Y-126021719D01*
X154966273Y-126458458D01*
X154940000Y-126590541D01*
X154913727Y-126458458D01*
X154621907Y-126021719D01*
X154185168Y-125729899D01*
X153670000Y-125627426D01*
X153154832Y-125729899D01*
X152718093Y-126021719D01*
X152426273Y-126458458D01*
X152400000Y-126590541D01*
X152373727Y-126458458D01*
X152081907Y-126021719D01*
X151645168Y-125729899D01*
X151130000Y-125627426D01*
X150614832Y-125729899D01*
X150178093Y-126021719D01*
X149886273Y-126458458D01*
X149860000Y-126590541D01*
X149833727Y-126458458D01*
X149541907Y-126021719D01*
X149105168Y-125729899D01*
X148590000Y-125627426D01*
X148074832Y-125729899D01*
X147638093Y-126021719D01*
X147346273Y-126458458D01*
X147320000Y-126590541D01*
X147293727Y-126458458D01*
X147001907Y-126021719D01*
X146565168Y-125729899D01*
X146050000Y-125627426D01*
X145534832Y-125729899D01*
X145098093Y-126021719D01*
X144806273Y-126458458D01*
X144780000Y-126590541D01*
X144753727Y-126458458D01*
X144461907Y-126021719D01*
X144025168Y-125729899D01*
X143510000Y-125627426D01*
X142994832Y-125729899D01*
X142558093Y-126021719D01*
X142266273Y-126458458D01*
X142240000Y-126590541D01*
X142213727Y-126458458D01*
X141921907Y-126021719D01*
X141485168Y-125729899D01*
X140970000Y-125627426D01*
X140454832Y-125729899D01*
X140018093Y-126021719D01*
X139726273Y-126458458D01*
X139700000Y-126590541D01*
X139673727Y-126458458D01*
X139381907Y-126021719D01*
X138945168Y-125729899D01*
X138430000Y-125627426D01*
X137914832Y-125729899D01*
X137478093Y-126021719D01*
X137186273Y-126458458D01*
X137160000Y-126590541D01*
X137133727Y-126458458D01*
X136841907Y-126021719D01*
X136405168Y-125729899D01*
X135890000Y-125627426D01*
X135374832Y-125729899D01*
X134938093Y-126021719D01*
X134646273Y-126458458D01*
X134620000Y-126590541D01*
X134593727Y-126458458D01*
X134301907Y-126021719D01*
X133865168Y-125729899D01*
X133350000Y-125627426D01*
X132834832Y-125729899D01*
X132398093Y-126021719D01*
X132106273Y-126458458D01*
X132080000Y-126590541D01*
X132053727Y-126458458D01*
X131761907Y-126021719D01*
X131325168Y-125729899D01*
X130810000Y-125627426D01*
X130294832Y-125729899D01*
X129858093Y-126021719D01*
X129566273Y-126458458D01*
X129540000Y-126590541D01*
X129513727Y-126458458D01*
X129221907Y-126021719D01*
X128785168Y-125729899D01*
X128270000Y-125627426D01*
X127754832Y-125729899D01*
X127318093Y-126021719D01*
X127026273Y-126458458D01*
X127000000Y-126590541D01*
X126973727Y-126458458D01*
X126681907Y-126021719D01*
X126245168Y-125729899D01*
X125730000Y-125627426D01*
X125214832Y-125729899D01*
X124778093Y-126021719D01*
X124486273Y-126458458D01*
X124460000Y-126590541D01*
X124433727Y-126458458D01*
X124141907Y-126021719D01*
X123705168Y-125729899D01*
X123190000Y-125627426D01*
X122674832Y-125729899D01*
X122238093Y-126021719D01*
X121946273Y-126458458D01*
X121920000Y-126590541D01*
X121893727Y-126458458D01*
X121601907Y-126021719D01*
X121165168Y-125729899D01*
X120650000Y-125627426D01*
X120134832Y-125729899D01*
X119698093Y-126021719D01*
X119406273Y-126458458D01*
X119380000Y-126590541D01*
X119353727Y-126458458D01*
X119061907Y-126021719D01*
X118625168Y-125729899D01*
X118110000Y-125627426D01*
X117594832Y-125729899D01*
X117158093Y-126021719D01*
X116866273Y-126458458D01*
X116840000Y-126590541D01*
X116813727Y-126458458D01*
X116521907Y-126021719D01*
X116085168Y-125729899D01*
X115570000Y-125627426D01*
X115054832Y-125729899D01*
X114618093Y-126021719D01*
X114326273Y-126458458D01*
X114300000Y-126590541D01*
X114273727Y-126458458D01*
X113981907Y-126021719D01*
X113545168Y-125729899D01*
X113030000Y-125627426D01*
X112514832Y-125729899D01*
X112078093Y-126021719D01*
X111786273Y-126458458D01*
X111760000Y-126590541D01*
X111733727Y-126458458D01*
X111441907Y-126021719D01*
X111005168Y-125729899D01*
X110490000Y-125627426D01*
X109974832Y-125729899D01*
X109538093Y-126021719D01*
X109246273Y-126458458D01*
X109220000Y-126590541D01*
X109193727Y-126458458D01*
X108901907Y-126021719D01*
X108465168Y-125729899D01*
X107950000Y-125627426D01*
X107434832Y-125729899D01*
X106998093Y-126021719D01*
X106706273Y-126458458D01*
X106680000Y-126590541D01*
X106653727Y-126458458D01*
X106361907Y-126021719D01*
X105925168Y-125729899D01*
X105410000Y-125627426D01*
X104894832Y-125729899D01*
X104458093Y-126021719D01*
X104166273Y-126458458D01*
X104140000Y-126590541D01*
X104113727Y-126458458D01*
X103821907Y-126021719D01*
X103385168Y-125729899D01*
X102870000Y-125627426D01*
X102354832Y-125729899D01*
X101918093Y-126021719D01*
X101626273Y-126458458D01*
X101523800Y-126973626D01*
X101523800Y-127026374D01*
X101626273Y-127541542D01*
X101918093Y-127978281D01*
X102354680Y-128270000D01*
X101918093Y-128561719D01*
X101626273Y-128998458D01*
X101523800Y-129513626D01*
X101523800Y-129566374D01*
X101626273Y-130081542D01*
X101918093Y-130518281D01*
X102354832Y-130810101D01*
X102870000Y-130912574D01*
X103385168Y-130810101D01*
X103821907Y-130518281D01*
X104113727Y-130081542D01*
X104140000Y-129949458D01*
X104166273Y-130081542D01*
X104458093Y-130518281D01*
X104894832Y-130810101D01*
X105410000Y-130912574D01*
X105925168Y-130810101D01*
X106361907Y-130518281D01*
X106653727Y-130081542D01*
X106680000Y-129949458D01*
X106706273Y-130081542D01*
X106998093Y-130518281D01*
X107434832Y-130810101D01*
X107950000Y-130912574D01*
X108465168Y-130810101D01*
X108901907Y-130518281D01*
X109193727Y-130081542D01*
X109220000Y-129949458D01*
X109246273Y-130081542D01*
X109538093Y-130518281D01*
X109974832Y-130810101D01*
X110490000Y-130912574D01*
X111005168Y-130810101D01*
X111441907Y-130518281D01*
X111733727Y-130081542D01*
X111760000Y-129949458D01*
X111786273Y-130081542D01*
X112078093Y-130518281D01*
X112514832Y-130810101D01*
X113030000Y-130912574D01*
X113545168Y-130810101D01*
X113981907Y-130518281D01*
X114273727Y-130081542D01*
X114300000Y-129949458D01*
X114326273Y-130081542D01*
X114618093Y-130518281D01*
X115054832Y-130810101D01*
X115570000Y-130912574D01*
X116085168Y-130810101D01*
X116521907Y-130518281D01*
X116813727Y-130081542D01*
X116840000Y-129949458D01*
X116866273Y-130081542D01*
X117158093Y-130518281D01*
X117594832Y-130810101D01*
X118110000Y-130912574D01*
X118625168Y-130810101D01*
X119061907Y-130518281D01*
X119353727Y-130081542D01*
X119380000Y-129949458D01*
X119406273Y-130081542D01*
X119698093Y-130518281D01*
X120134832Y-130810101D01*
X120650000Y-130912574D01*
X121165168Y-130810101D01*
X121601907Y-130518281D01*
X121893727Y-130081542D01*
X121920000Y-129949458D01*
X121946273Y-130081542D01*
X122238093Y-130518281D01*
X122674832Y-130810101D01*
X123190000Y-130912574D01*
X123705168Y-130810101D01*
X124141907Y-130518281D01*
X124433727Y-130081542D01*
X124460000Y-129949458D01*
X124486273Y-130081542D01*
X124778093Y-130518281D01*
X125214832Y-130810101D01*
X125730000Y-130912574D01*
X126245168Y-130810101D01*
X126681907Y-130518281D01*
X126973727Y-130081542D01*
X127000000Y-129949458D01*
X127026273Y-130081542D01*
X127318093Y-130518281D01*
X127754832Y-130810101D01*
X128270000Y-130912574D01*
X128785168Y-130810101D01*
X129221907Y-130518281D01*
X129513727Y-130081542D01*
X129540000Y-129949458D01*
X129566273Y-130081542D01*
X129858093Y-130518281D01*
X130294832Y-130810101D01*
X130810000Y-130912574D01*
X131325168Y-130810101D01*
X131761907Y-130518281D01*
X132053727Y-130081542D01*
X132080000Y-129949458D01*
X132106273Y-130081542D01*
X132398093Y-130518281D01*
X132834832Y-130810101D01*
X133350000Y-130912574D01*
X133865168Y-130810101D01*
X134301907Y-130518281D01*
X134593727Y-130081542D01*
X134620000Y-129949458D01*
X134646273Y-130081542D01*
X134938093Y-130518281D01*
X135374832Y-130810101D01*
X135890000Y-130912574D01*
X136405168Y-130810101D01*
X136841907Y-130518281D01*
X137133727Y-130081542D01*
X137160000Y-129949458D01*
X137186273Y-130081542D01*
X137478093Y-130518281D01*
X137914832Y-130810101D01*
X138430000Y-130912574D01*
X138945168Y-130810101D01*
X139381907Y-130518281D01*
X139673727Y-130081542D01*
X139700000Y-129949458D01*
X139726273Y-130081542D01*
X140018093Y-130518281D01*
X140454832Y-130810101D01*
X140970000Y-130912574D01*
X141485168Y-130810101D01*
X141921907Y-130518281D01*
X142213727Y-130081542D01*
X142240000Y-129949458D01*
X142266273Y-130081542D01*
X142558093Y-130518281D01*
X142994832Y-130810101D01*
X143510000Y-130912574D01*
X144025168Y-130810101D01*
X144461907Y-130518281D01*
X144753727Y-130081542D01*
X144780000Y-129949458D01*
X144806273Y-130081542D01*
X145098093Y-130518281D01*
X145534832Y-130810101D01*
X146050000Y-130912574D01*
X146565168Y-130810101D01*
X147001907Y-130518281D01*
X147293727Y-130081542D01*
X147320000Y-129949458D01*
X147346273Y-130081542D01*
X147638093Y-130518281D01*
X148074832Y-130810101D01*
X148590000Y-130912574D01*
X149105168Y-130810101D01*
X149541907Y-130518281D01*
X149833727Y-130081542D01*
X149860000Y-129949458D01*
X149886273Y-130081542D01*
X150178093Y-130518281D01*
X150614832Y-130810101D01*
X151130000Y-130912574D01*
X151645168Y-130810101D01*
X152081907Y-130518281D01*
X152373727Y-130081542D01*
X152400000Y-129949458D01*
X152426273Y-130081542D01*
X152718093Y-130518281D01*
X153154832Y-130810101D01*
X153670000Y-130912574D01*
X154185168Y-130810101D01*
X154621907Y-130518281D01*
X154913727Y-130081542D01*
X154940000Y-129949458D01*
X154966273Y-130081542D01*
X155258093Y-130518281D01*
X155694832Y-130810101D01*
X156210000Y-130912574D01*
X156725168Y-130810101D01*
X157161907Y-130518281D01*
X157453727Y-130081542D01*
X157480000Y-129949458D01*
X157506273Y-130081542D01*
X157798093Y-130518281D01*
X158234832Y-130810101D01*
X158750000Y-130912574D01*
X159265168Y-130810101D01*
X159701907Y-130518281D01*
X159993727Y-130081542D01*
X160020000Y-129949458D01*
X160046273Y-130081542D01*
X160338093Y-130518281D01*
X160774832Y-130810101D01*
X161290000Y-130912574D01*
X161805168Y-130810101D01*
X162241907Y-130518281D01*
X162533727Y-130081542D01*
X162560000Y-129949458D01*
X162586273Y-130081542D01*
X162878093Y-130518281D01*
X163314832Y-130810101D01*
X163830000Y-130912574D01*
X164345168Y-130810101D01*
X164781907Y-130518281D01*
X165073727Y-130081542D01*
X165100000Y-129949458D01*
X165126273Y-130081542D01*
X165418093Y-130518281D01*
X165854832Y-130810101D01*
X166370000Y-130912574D01*
X166885168Y-130810101D01*
X167321907Y-130518281D01*
X167613727Y-130081542D01*
X167640000Y-129949458D01*
X167666273Y-130081542D01*
X167958093Y-130518281D01*
X168394832Y-130810101D01*
X168910000Y-130912574D01*
X169425168Y-130810101D01*
X169861907Y-130518281D01*
X170153727Y-130081542D01*
X170180000Y-129949458D01*
X170206273Y-130081542D01*
X170498093Y-130518281D01*
X170934832Y-130810101D01*
X171450000Y-130912574D01*
X171965168Y-130810101D01*
X172401907Y-130518281D01*
X172693727Y-130081542D01*
X172720000Y-129949458D01*
X172746273Y-130081542D01*
X173038093Y-130518281D01*
X173474832Y-130810101D01*
X173990000Y-130912574D01*
X174505168Y-130810101D01*
X174941907Y-130518281D01*
X175233727Y-130081542D01*
X175260000Y-129949458D01*
X175286273Y-130081542D01*
X175578093Y-130518281D01*
X176014832Y-130810101D01*
X176530000Y-130912574D01*
X177045168Y-130810101D01*
X177481907Y-130518281D01*
X177773727Y-130081542D01*
X177876200Y-129566374D01*
X177876200Y-139014200D01*
X99136200Y-139014200D01*
X99136200Y-129463800D01*
X96964388Y-129463800D01*
X96964388Y-116235285D01*
X96799676Y-115836652D01*
X96494952Y-115531396D01*
X96120277Y-115375816D01*
X96264099Y-115232246D01*
X96405539Y-114891621D01*
X96405861Y-114522797D01*
X96265015Y-114181926D01*
X96040418Y-113956936D01*
X96264099Y-113733646D01*
X96405539Y-113393021D01*
X96405861Y-113024197D01*
X96265015Y-112683326D01*
X96040420Y-112458338D01*
X96264099Y-112235050D01*
X96405539Y-111894425D01*
X96405861Y-111525601D01*
X96265015Y-111184730D01*
X96027728Y-110947028D01*
X96264105Y-110711065D01*
X96405545Y-110370440D01*
X96405867Y-110001616D01*
X96265021Y-109660745D01*
X96040409Y-109435740D01*
X96264099Y-109212442D01*
X96405539Y-108871817D01*
X96405861Y-108502993D01*
X96265015Y-108162122D01*
X96040420Y-107937134D01*
X96264099Y-107713846D01*
X96405539Y-107373221D01*
X96405861Y-107004397D01*
X96265015Y-106663526D01*
X96040416Y-106438534D01*
X96264099Y-106215242D01*
X96405539Y-105874617D01*
X96405861Y-105505793D01*
X96265015Y-105164922D01*
X96040420Y-104939934D01*
X96264099Y-104716646D01*
X96405539Y-104376021D01*
X96405861Y-104007197D01*
X96265015Y-103666326D01*
X96040418Y-103441336D01*
X96264099Y-103218046D01*
X96405539Y-102877421D01*
X96405861Y-102508597D01*
X96265015Y-102167726D01*
X96040414Y-101942732D01*
X96264099Y-101719438D01*
X96405539Y-101378813D01*
X96405861Y-101009989D01*
X96265015Y-100669118D01*
X96120064Y-100523913D01*
X96493348Y-100369676D01*
X96798604Y-100064952D01*
X96964012Y-99666607D01*
X96964388Y-99235285D01*
X96799676Y-98836652D01*
X96494952Y-98531396D01*
X96096607Y-98365988D01*
X95665285Y-98365612D01*
X95266652Y-98530324D01*
X94961396Y-98835048D01*
X94907261Y-98965419D01*
X94907261Y-98266797D01*
X94766415Y-97925926D01*
X94505846Y-97664901D01*
X94165221Y-97523461D01*
X93796397Y-97523139D01*
X93455526Y-97663985D01*
X93194501Y-97924554D01*
X93053061Y-98265179D01*
X93052739Y-98634003D01*
X93193585Y-98974874D01*
X93454154Y-99235899D01*
X93794779Y-99377339D01*
X94163603Y-99377661D01*
X94504474Y-99236815D01*
X94765499Y-98976246D01*
X94906939Y-98635621D01*
X94907261Y-98266797D01*
X94907261Y-98965419D01*
X94795988Y-99233393D01*
X94795612Y-99664715D01*
X94960324Y-100063348D01*
X95201512Y-100304958D01*
X95033869Y-100374227D01*
X94774821Y-100266661D01*
X94405997Y-100266339D01*
X94144879Y-100374231D01*
X93885821Y-100266661D01*
X93516997Y-100266339D01*
X93176126Y-100407185D01*
X93164388Y-100418902D01*
X93164388Y-99235285D01*
X92999676Y-98836652D01*
X92694952Y-98531396D01*
X92296607Y-98365988D01*
X91865285Y-98365612D01*
X91466652Y-98530324D01*
X91161396Y-98835048D01*
X90995988Y-99233393D01*
X90995612Y-99664715D01*
X91160324Y-100063348D01*
X91465048Y-100368604D01*
X91863393Y-100534012D01*
X92294715Y-100534388D01*
X92693348Y-100369676D01*
X92998604Y-100064952D01*
X93164012Y-99666607D01*
X93164388Y-99235285D01*
X93164388Y-100418902D01*
X92915101Y-100667754D01*
X92773661Y-101008379D01*
X92773339Y-101377203D01*
X92914185Y-101718074D01*
X93138781Y-101943063D01*
X92915101Y-102166354D01*
X92773661Y-102506979D01*
X92773339Y-102875803D01*
X92914185Y-103216674D01*
X93138783Y-103441665D01*
X92915105Y-103664954D01*
X92773665Y-104005579D01*
X92773343Y-104374403D01*
X92914189Y-104715274D01*
X93138783Y-104940261D01*
X92915101Y-105163554D01*
X92773661Y-105504179D01*
X92773339Y-105873003D01*
X92914185Y-106213874D01*
X93138781Y-106438863D01*
X92915101Y-106662154D01*
X92773661Y-107002779D01*
X92773339Y-107371603D01*
X92914185Y-107712474D01*
X93138781Y-107937463D01*
X92915101Y-108160754D01*
X92773661Y-108501379D01*
X92773339Y-108870203D01*
X92914185Y-109211074D01*
X93138784Y-109436066D01*
X92915107Y-109659354D01*
X92773667Y-109999979D01*
X92773345Y-110368803D01*
X92914191Y-110709674D01*
X93151486Y-110947385D01*
X92915101Y-111183358D01*
X92773661Y-111523983D01*
X92773339Y-111892807D01*
X92914185Y-112233678D01*
X93138779Y-112458665D01*
X92915101Y-112681954D01*
X92773661Y-113022579D01*
X92773339Y-113391403D01*
X92914185Y-113732274D01*
X93138781Y-113957263D01*
X92915101Y-114180554D01*
X92773661Y-114521179D01*
X92773339Y-114890003D01*
X92914185Y-115230874D01*
X93174754Y-115491899D01*
X93515379Y-115633339D01*
X93884203Y-115633661D01*
X94145318Y-115525769D01*
X94404375Y-115633339D01*
X94773199Y-115633661D01*
X95034318Y-115525767D01*
X95201623Y-115595238D01*
X94961396Y-115835048D01*
X94795988Y-116233393D01*
X94795612Y-116664715D01*
X94960324Y-117063348D01*
X95265048Y-117368604D01*
X95663393Y-117534012D01*
X96094715Y-117534388D01*
X96493348Y-117369676D01*
X96798604Y-117064952D01*
X96964012Y-116666607D01*
X96964388Y-116235285D01*
X96964388Y-129463800D01*
X94907261Y-129463800D01*
X94907261Y-117265997D01*
X94766415Y-116925126D01*
X94505846Y-116664101D01*
X94165221Y-116522661D01*
X93796397Y-116522339D01*
X93455526Y-116663185D01*
X93194501Y-116923754D01*
X93164388Y-116996274D01*
X93164388Y-116235285D01*
X92999676Y-115836652D01*
X92694952Y-115531396D01*
X92296607Y-115365988D01*
X91865285Y-115365612D01*
X91466652Y-115530324D01*
X91161396Y-115835048D01*
X90995988Y-116233393D01*
X90995612Y-116664715D01*
X91160324Y-117063348D01*
X91465048Y-117368604D01*
X91863393Y-117534012D01*
X92294715Y-117534388D01*
X92693348Y-117369676D01*
X92998604Y-117064952D01*
X93164012Y-116666607D01*
X93164388Y-116235285D01*
X93164388Y-116996274D01*
X93053061Y-117264379D01*
X93052739Y-117633203D01*
X93193585Y-117974074D01*
X93454154Y-118235099D01*
X93794779Y-118376539D01*
X94163603Y-118376861D01*
X94504474Y-118236015D01*
X94765499Y-117975446D01*
X94906939Y-117634821D01*
X94907261Y-117265997D01*
X94907261Y-129463800D01*
X89585800Y-129463800D01*
X89585800Y-86436200D01*
X99136200Y-86436200D01*
X99136200Y-76885800D01*
X180263800Y-76885800D01*
X180263800Y-86436200D01*
X189814200Y-86436200D01*
X189814200Y-129463800D01*
X189814200Y-129463800D01*
G37*
X189814200Y-129463800D02*
X188404388Y-129463800D01*
X188404388Y-116235285D01*
X188404388Y-99235285D01*
X188239676Y-98836652D01*
X187934952Y-98531396D01*
X187536607Y-98365988D01*
X187105285Y-98365612D01*
X186706652Y-98530324D01*
X186401396Y-98835048D01*
X186235988Y-99233393D01*
X186235612Y-99664715D01*
X186400324Y-100063348D01*
X186705048Y-100368604D01*
X187103393Y-100534012D01*
X187534715Y-100534388D01*
X187933348Y-100369676D01*
X188238604Y-100064952D01*
X188404012Y-99666607D01*
X188404388Y-99235285D01*
X188404388Y-116235285D01*
X188239676Y-115836652D01*
X187934952Y-115531396D01*
X187536607Y-115365988D01*
X187105285Y-115365612D01*
X186706652Y-115530324D01*
X186626665Y-115610171D01*
X186626665Y-105505797D01*
X186485819Y-105164926D01*
X186261220Y-104939934D01*
X186484899Y-104716646D01*
X186626339Y-104376021D01*
X186626661Y-104007197D01*
X186485815Y-103666326D01*
X186261218Y-103441336D01*
X186484899Y-103218046D01*
X186626339Y-102877421D01*
X186626661Y-102508597D01*
X186485815Y-102167726D01*
X186261218Y-101942736D01*
X186484899Y-101719446D01*
X186626339Y-101378821D01*
X186626661Y-101009997D01*
X186485815Y-100669126D01*
X186225246Y-100408101D01*
X185991986Y-100311242D01*
X185991986Y-98561600D01*
X185991001Y-98334246D01*
X185905892Y-98128775D01*
X185809143Y-98097178D01*
X185773222Y-98133099D01*
X185773222Y-98061257D01*
X185741625Y-97964508D01*
X185531200Y-97878414D01*
X185303846Y-97879399D01*
X185098375Y-97964508D01*
X185066778Y-98061257D01*
X185420000Y-98414479D01*
X185773222Y-98061257D01*
X185773222Y-98133099D01*
X185455921Y-98450400D01*
X185809143Y-98803622D01*
X185905892Y-98772025D01*
X185991986Y-98561600D01*
X185991986Y-100311242D01*
X185884621Y-100266661D01*
X185773222Y-100266563D01*
X185773222Y-98839543D01*
X185420000Y-98486321D01*
X185384079Y-98522242D01*
X185384079Y-98450400D01*
X185030857Y-98097178D01*
X184934108Y-98128775D01*
X184848014Y-98339200D01*
X184848999Y-98566554D01*
X184934108Y-98772025D01*
X185030857Y-98803622D01*
X185384079Y-98450400D01*
X185384079Y-98522242D01*
X185066778Y-98839543D01*
X185098375Y-98936292D01*
X185308800Y-99022386D01*
X185536154Y-99021401D01*
X185741625Y-98936292D01*
X185773222Y-98839543D01*
X185773222Y-100266563D01*
X185515797Y-100266339D01*
X185254679Y-100374231D01*
X184995621Y-100266661D01*
X184626797Y-100266339D01*
X184365679Y-100374231D01*
X184198376Y-100304761D01*
X184438604Y-100064952D01*
X184604012Y-99666607D01*
X184604388Y-99235285D01*
X184439676Y-98836652D01*
X184134952Y-98531396D01*
X183736607Y-98365988D01*
X183305285Y-98365612D01*
X182906652Y-98530324D01*
X182601396Y-98835048D01*
X182435988Y-99233393D01*
X182435612Y-99664715D01*
X182600324Y-100063348D01*
X182905048Y-100368604D01*
X183279722Y-100524183D01*
X183135901Y-100667754D01*
X182994461Y-101008379D01*
X182994139Y-101377203D01*
X183134985Y-101718074D01*
X183359581Y-101943063D01*
X183135901Y-102166354D01*
X182994461Y-102506979D01*
X182994139Y-102875803D01*
X183134985Y-103216674D01*
X183359581Y-103441663D01*
X183135901Y-103664954D01*
X182994461Y-104005579D01*
X182994139Y-104374403D01*
X183134985Y-104715274D01*
X183359581Y-104940263D01*
X183135901Y-105163554D01*
X182994461Y-105504179D01*
X182994139Y-105873003D01*
X183134985Y-106213874D01*
X183359581Y-106438863D01*
X183135901Y-106662154D01*
X182994461Y-107002779D01*
X182994139Y-107371603D01*
X183134985Y-107712474D01*
X183372281Y-107950186D01*
X183135901Y-108186154D01*
X182994461Y-108526779D01*
X182994139Y-108895603D01*
X183134985Y-109236474D01*
X183359578Y-109461460D01*
X183135895Y-109684754D01*
X182994455Y-110025379D01*
X182994133Y-110394203D01*
X183134979Y-110735074D01*
X183359578Y-110960066D01*
X183135901Y-111183354D01*
X182994461Y-111523979D01*
X182994139Y-111892803D01*
X183134985Y-112233674D01*
X183359581Y-112458663D01*
X183135901Y-112681954D01*
X182994461Y-113022579D01*
X182994139Y-113391403D01*
X183134985Y-113732274D01*
X183359581Y-113957263D01*
X183135901Y-114180554D01*
X182994461Y-114521179D01*
X182994139Y-114890003D01*
X183134985Y-115230874D01*
X183279941Y-115376083D01*
X182906652Y-115530324D01*
X182601396Y-115835048D01*
X182435988Y-116233393D01*
X182435612Y-116664715D01*
X182600324Y-117063348D01*
X182905048Y-117368604D01*
X183303393Y-117534012D01*
X183734715Y-117534388D01*
X184133348Y-117369676D01*
X184438604Y-117064952D01*
X184604012Y-116666607D01*
X184604388Y-116235285D01*
X184439676Y-115836652D01*
X184198481Y-115595036D01*
X184366113Y-115525771D01*
X184625179Y-115633345D01*
X184994003Y-115633667D01*
X185255123Y-115525773D01*
X185514179Y-115633343D01*
X185883003Y-115633665D01*
X186223874Y-115492819D01*
X186484899Y-115232250D01*
X186626339Y-114891625D01*
X186626661Y-114522801D01*
X186485815Y-114181930D01*
X186261216Y-113956938D01*
X186484899Y-113733646D01*
X186626339Y-113393021D01*
X186626661Y-113024197D01*
X186485815Y-112683326D01*
X186261218Y-112458336D01*
X186484899Y-112235046D01*
X186626339Y-111894421D01*
X186626661Y-111525597D01*
X186485815Y-111184726D01*
X186261218Y-110959736D01*
X186484899Y-110736446D01*
X186626339Y-110395821D01*
X186626661Y-110026997D01*
X186485815Y-109686126D01*
X186261218Y-109461136D01*
X186484899Y-109237846D01*
X186626339Y-108897221D01*
X186626661Y-108528397D01*
X186485815Y-108187526D01*
X186248518Y-107949813D01*
X186484899Y-107713846D01*
X186626339Y-107373221D01*
X186626661Y-107004397D01*
X186485815Y-106663526D01*
X186261220Y-106438538D01*
X186484903Y-106215246D01*
X186626343Y-105874621D01*
X186626665Y-105505797D01*
X186626665Y-115610171D01*
X186401396Y-115835048D01*
X186235988Y-116233393D01*
X186235612Y-116664715D01*
X186400324Y-117063348D01*
X186705048Y-117368604D01*
X187103393Y-117534012D01*
X187534715Y-117534388D01*
X187933348Y-117369676D01*
X188238604Y-117064952D01*
X188404012Y-116666607D01*
X188404388Y-116235285D01*
X188404388Y-129463800D01*
X185991986Y-129463800D01*
X185991986Y-117560800D01*
X185991001Y-117333446D01*
X185905892Y-117127975D01*
X185809143Y-117096378D01*
X185773222Y-117132299D01*
X185773222Y-117060457D01*
X185741625Y-116963708D01*
X185531200Y-116877614D01*
X185303846Y-116878599D01*
X185098375Y-116963708D01*
X185066778Y-117060457D01*
X185420000Y-117413679D01*
X185773222Y-117060457D01*
X185773222Y-117132299D01*
X185455921Y-117449600D01*
X185809143Y-117802822D01*
X185905892Y-117771225D01*
X185991986Y-117560800D01*
X185991986Y-129463800D01*
X185773222Y-129463800D01*
X185773222Y-117838743D01*
X185420000Y-117485521D01*
X185384079Y-117521442D01*
X185384079Y-117449600D01*
X185030857Y-117096378D01*
X184934108Y-117127975D01*
X184848014Y-117338400D01*
X184848999Y-117565754D01*
X184934108Y-117771225D01*
X185030857Y-117802822D01*
X185384079Y-117449600D01*
X185384079Y-117521442D01*
X185066778Y-117838743D01*
X185098375Y-117935492D01*
X185308800Y-118021586D01*
X185536154Y-118020601D01*
X185741625Y-117935492D01*
X185773222Y-117838743D01*
X185773222Y-129463800D01*
X181314109Y-129463800D01*
X181314109Y-122100000D01*
X181314109Y-121740000D01*
X181308845Y-121713523D01*
X181156081Y-121358479D01*
X180879076Y-121088921D01*
X180520001Y-120945888D01*
X180365400Y-120986873D01*
X180365400Y-121894600D01*
X181273104Y-121894600D01*
X181314109Y-121740000D01*
X181314109Y-122100000D01*
X181273104Y-121945400D01*
X180365400Y-121945400D01*
X180365400Y-122853127D01*
X180520001Y-122894112D01*
X180879076Y-122751079D01*
X181156081Y-122481521D01*
X181308845Y-122126477D01*
X181314109Y-122100000D01*
X181314109Y-129463800D01*
X180314600Y-129463800D01*
X180314600Y-122853127D01*
X180314600Y-121945400D01*
X180314600Y-121894600D01*
X180314600Y-120986873D01*
X180159999Y-120945888D01*
X179800924Y-121088921D01*
X179523919Y-121358479D01*
X179371155Y-121713523D01*
X179365891Y-121740000D01*
X179406896Y-121894600D01*
X180314600Y-121894600D01*
X180314600Y-121945400D01*
X179406896Y-121945400D01*
X179365891Y-122100000D01*
X179371155Y-122126477D01*
X179523919Y-122481521D01*
X179800924Y-122751079D01*
X180159999Y-122894112D01*
X180314600Y-122853127D01*
X180314600Y-129463800D01*
X180263800Y-129463800D01*
X180263800Y-139014200D01*
X179172574Y-139014200D01*
X179172574Y-121920000D01*
X179070101Y-121404832D01*
X178778281Y-120968093D01*
X178341542Y-120676273D01*
X177876200Y-120583710D01*
X177876200Y-88926374D01*
X177876200Y-88873626D01*
X177773727Y-88358458D01*
X177504112Y-87954951D01*
X177504112Y-86540001D01*
X177504112Y-86179999D01*
X177361079Y-85820924D01*
X177091521Y-85543919D01*
X176736477Y-85391155D01*
X176710000Y-85385891D01*
X176555400Y-85426896D01*
X176555400Y-86334600D01*
X177463127Y-86334600D01*
X177504112Y-86179999D01*
X177504112Y-86540001D01*
X177463127Y-86385400D01*
X176555400Y-86385400D01*
X176555400Y-87293104D01*
X176710000Y-87334109D01*
X176736477Y-87328845D01*
X177091521Y-87176081D01*
X177361079Y-86899076D01*
X177504112Y-86540001D01*
X177504112Y-87954951D01*
X177481907Y-87921719D01*
X177045168Y-87629899D01*
X176530000Y-87527426D01*
X176504600Y-87532478D01*
X176504600Y-87293104D01*
X176504600Y-86385400D01*
X176504600Y-86334600D01*
X176504600Y-85426896D01*
X176350000Y-85385891D01*
X176323523Y-85391155D01*
X175968479Y-85543919D01*
X175698921Y-85820924D01*
X175555888Y-86179999D01*
X175596873Y-86334600D01*
X176504600Y-86334600D01*
X176504600Y-86385400D01*
X175596873Y-86385400D01*
X175555888Y-86540001D01*
X175698921Y-86899076D01*
X175968479Y-87176081D01*
X176323523Y-87328845D01*
X176350000Y-87334109D01*
X176504600Y-87293104D01*
X176504600Y-87532478D01*
X176014832Y-87629899D01*
X175578093Y-87921719D01*
X175286273Y-88358458D01*
X175260000Y-88490541D01*
X175233727Y-88358458D01*
X174964112Y-87954951D01*
X174964112Y-86540001D01*
X174964112Y-86179999D01*
X174821079Y-85820924D01*
X174551521Y-85543919D01*
X174196477Y-85391155D01*
X174170000Y-85385891D01*
X174015400Y-85426896D01*
X174015400Y-86334600D01*
X174923127Y-86334600D01*
X174964112Y-86179999D01*
X174964112Y-86540001D01*
X174923127Y-86385400D01*
X174015400Y-86385400D01*
X174015400Y-87293104D01*
X174170000Y-87334109D01*
X174196477Y-87328845D01*
X174551521Y-87176081D01*
X174821079Y-86899076D01*
X174964112Y-86540001D01*
X174964112Y-87954951D01*
X174941907Y-87921719D01*
X174505168Y-87629899D01*
X173990000Y-87527426D01*
X173964600Y-87532478D01*
X173964600Y-87293104D01*
X173964600Y-86385400D01*
X173964600Y-86334600D01*
X173964600Y-85426896D01*
X173810000Y-85385891D01*
X173783523Y-85391155D01*
X173428479Y-85543919D01*
X173158921Y-85820924D01*
X173015888Y-86179999D01*
X173056873Y-86334600D01*
X173964600Y-86334600D01*
X173964600Y-86385400D01*
X173056873Y-86385400D01*
X173015888Y-86540001D01*
X173158921Y-86899076D01*
X173428479Y-87176081D01*
X173783523Y-87328845D01*
X173810000Y-87334109D01*
X173964600Y-87293104D01*
X173964600Y-87532478D01*
X173474832Y-87629899D01*
X173038093Y-87921719D01*
X172746273Y-88358458D01*
X172720000Y-88490541D01*
X172693727Y-88358458D01*
X172424112Y-87954951D01*
X172424112Y-86540001D01*
X172424112Y-86179999D01*
X172281079Y-85820924D01*
X172011521Y-85543919D01*
X171656477Y-85391155D01*
X171630000Y-85385891D01*
X171475400Y-85426896D01*
X171475400Y-86334600D01*
X172383127Y-86334600D01*
X172424112Y-86179999D01*
X172424112Y-86540001D01*
X172383127Y-86385400D01*
X171475400Y-86385400D01*
X171475400Y-87293104D01*
X171630000Y-87334109D01*
X171656477Y-87328845D01*
X172011521Y-87176081D01*
X172281079Y-86899076D01*
X172424112Y-86540001D01*
X172424112Y-87954951D01*
X172401907Y-87921719D01*
X171965168Y-87629899D01*
X171450000Y-87527426D01*
X171424600Y-87532478D01*
X171424600Y-87293104D01*
X171424600Y-86385400D01*
X171424600Y-86334600D01*
X171424600Y-85426896D01*
X171270000Y-85385891D01*
X171243523Y-85391155D01*
X170888479Y-85543919D01*
X170618921Y-85820924D01*
X170475888Y-86179999D01*
X170516873Y-86334600D01*
X171424600Y-86334600D01*
X171424600Y-86385400D01*
X170516873Y-86385400D01*
X170475888Y-86540001D01*
X170618921Y-86899076D01*
X170888479Y-87176081D01*
X171243523Y-87328845D01*
X171270000Y-87334109D01*
X171424600Y-87293104D01*
X171424600Y-87532478D01*
X170934832Y-87629899D01*
X170498093Y-87921719D01*
X170206273Y-88358458D01*
X170180000Y-88490541D01*
X170153727Y-88358458D01*
X169884112Y-87954951D01*
X169884112Y-86540001D01*
X169884112Y-86179999D01*
X169741079Y-85820924D01*
X169471521Y-85543919D01*
X169116477Y-85391155D01*
X169090000Y-85385891D01*
X168935400Y-85426896D01*
X168935400Y-86334600D01*
X169843127Y-86334600D01*
X169884112Y-86179999D01*
X169884112Y-86540001D01*
X169843127Y-86385400D01*
X168935400Y-86385400D01*
X168935400Y-87293104D01*
X169090000Y-87334109D01*
X169116477Y-87328845D01*
X169471521Y-87176081D01*
X169741079Y-86899076D01*
X169884112Y-86540001D01*
X169884112Y-87954951D01*
X169861907Y-87921719D01*
X169425168Y-87629899D01*
X168910000Y-87527426D01*
X168884600Y-87532478D01*
X168884600Y-87293104D01*
X168884600Y-86385400D01*
X168884600Y-86334600D01*
X168884600Y-85426896D01*
X168730000Y-85385891D01*
X168703523Y-85391155D01*
X168348479Y-85543919D01*
X168078921Y-85820924D01*
X167935888Y-86179999D01*
X167976873Y-86334600D01*
X168884600Y-86334600D01*
X168884600Y-86385400D01*
X167976873Y-86385400D01*
X167935888Y-86540001D01*
X168078921Y-86899076D01*
X168348479Y-87176081D01*
X168703523Y-87328845D01*
X168730000Y-87334109D01*
X168884600Y-87293104D01*
X168884600Y-87532478D01*
X168394832Y-87629899D01*
X167958093Y-87921719D01*
X167666273Y-88358458D01*
X167640000Y-88490541D01*
X167613727Y-88358458D01*
X167344112Y-87954951D01*
X167344112Y-86540001D01*
X167344112Y-86179999D01*
X167201079Y-85820924D01*
X166931521Y-85543919D01*
X166576477Y-85391155D01*
X166550000Y-85385891D01*
X166395400Y-85426896D01*
X166395400Y-86334600D01*
X167303127Y-86334600D01*
X167344112Y-86179999D01*
X167344112Y-86540001D01*
X167303127Y-86385400D01*
X166395400Y-86385400D01*
X166395400Y-87293104D01*
X166550000Y-87334109D01*
X166576477Y-87328845D01*
X166931521Y-87176081D01*
X167201079Y-86899076D01*
X167344112Y-86540001D01*
X167344112Y-87954951D01*
X167321907Y-87921719D01*
X166885168Y-87629899D01*
X166370000Y-87527426D01*
X166344600Y-87532478D01*
X166344600Y-87293104D01*
X166344600Y-86385400D01*
X166344600Y-86334600D01*
X166344600Y-85426896D01*
X166190000Y-85385891D01*
X166163523Y-85391155D01*
X165808479Y-85543919D01*
X165538921Y-85820924D01*
X165395888Y-86179999D01*
X165436873Y-86334600D01*
X166344600Y-86334600D01*
X166344600Y-86385400D01*
X165436873Y-86385400D01*
X165395888Y-86540001D01*
X165538921Y-86899076D01*
X165808479Y-87176081D01*
X166163523Y-87328845D01*
X166190000Y-87334109D01*
X166344600Y-87293104D01*
X166344600Y-87532478D01*
X165854832Y-87629899D01*
X165418093Y-87921719D01*
X165126273Y-88358458D01*
X165100000Y-88490541D01*
X165073727Y-88358458D01*
X164804112Y-87954951D01*
X164804112Y-86540001D01*
X164804112Y-86179999D01*
X164661079Y-85820924D01*
X164391521Y-85543919D01*
X164036477Y-85391155D01*
X164010000Y-85385891D01*
X163855400Y-85426896D01*
X163855400Y-86334600D01*
X164763127Y-86334600D01*
X164804112Y-86179999D01*
X164804112Y-86540001D01*
X164763127Y-86385400D01*
X163855400Y-86385400D01*
X163855400Y-87293104D01*
X164010000Y-87334109D01*
X164036477Y-87328845D01*
X164391521Y-87176081D01*
X164661079Y-86899076D01*
X164804112Y-86540001D01*
X164804112Y-87954951D01*
X164781907Y-87921719D01*
X164345168Y-87629899D01*
X163830000Y-87527426D01*
X163804600Y-87532478D01*
X163804600Y-87293104D01*
X163804600Y-86385400D01*
X163804600Y-86334600D01*
X163804600Y-85426896D01*
X163650000Y-85385891D01*
X163623523Y-85391155D01*
X163268479Y-85543919D01*
X162998921Y-85820924D01*
X162855888Y-86179999D01*
X162896873Y-86334600D01*
X163804600Y-86334600D01*
X163804600Y-86385400D01*
X162896873Y-86385400D01*
X162855888Y-86540001D01*
X162998921Y-86899076D01*
X163268479Y-87176081D01*
X163623523Y-87328845D01*
X163650000Y-87334109D01*
X163804600Y-87293104D01*
X163804600Y-87532478D01*
X163314832Y-87629899D01*
X162878093Y-87921719D01*
X162586273Y-88358458D01*
X162560000Y-88490541D01*
X162533727Y-88358458D01*
X162264112Y-87954951D01*
X162264112Y-86540001D01*
X162264112Y-86179999D01*
X162121079Y-85820924D01*
X161851521Y-85543919D01*
X161496477Y-85391155D01*
X161470000Y-85385891D01*
X161315400Y-85426896D01*
X161315400Y-86334600D01*
X162223127Y-86334600D01*
X162264112Y-86179999D01*
X162264112Y-86540001D01*
X162223127Y-86385400D01*
X161315400Y-86385400D01*
X161315400Y-87293104D01*
X161470000Y-87334109D01*
X161496477Y-87328845D01*
X161851521Y-87176081D01*
X162121079Y-86899076D01*
X162264112Y-86540001D01*
X162264112Y-87954951D01*
X162241907Y-87921719D01*
X161805168Y-87629899D01*
X161290000Y-87527426D01*
X161264600Y-87532478D01*
X161264600Y-87293104D01*
X161264600Y-86385400D01*
X161264600Y-86334600D01*
X161264600Y-85426896D01*
X161110000Y-85385891D01*
X161083523Y-85391155D01*
X160728479Y-85543919D01*
X160458921Y-85820924D01*
X160315888Y-86179999D01*
X160356873Y-86334600D01*
X161264600Y-86334600D01*
X161264600Y-86385400D01*
X160356873Y-86385400D01*
X160315888Y-86540001D01*
X160458921Y-86899076D01*
X160728479Y-87176081D01*
X161083523Y-87328845D01*
X161110000Y-87334109D01*
X161264600Y-87293104D01*
X161264600Y-87532478D01*
X160774832Y-87629899D01*
X160338093Y-87921719D01*
X160046273Y-88358458D01*
X160020000Y-88490541D01*
X159993727Y-88358458D01*
X159724112Y-87954951D01*
X159724112Y-86540001D01*
X159724112Y-86179999D01*
X159581079Y-85820924D01*
X159311521Y-85543919D01*
X158956477Y-85391155D01*
X158930000Y-85385891D01*
X158775400Y-85426896D01*
X158775400Y-86334600D01*
X159683127Y-86334600D01*
X159724112Y-86179999D01*
X159724112Y-86540001D01*
X159683127Y-86385400D01*
X158775400Y-86385400D01*
X158775400Y-87293104D01*
X158930000Y-87334109D01*
X158956477Y-87328845D01*
X159311521Y-87176081D01*
X159581079Y-86899076D01*
X159724112Y-86540001D01*
X159724112Y-87954951D01*
X159701907Y-87921719D01*
X159265168Y-87629899D01*
X158750000Y-87527426D01*
X158724600Y-87532478D01*
X158724600Y-87293104D01*
X158724600Y-86385400D01*
X158724600Y-86334600D01*
X158724600Y-85426896D01*
X158570000Y-85385891D01*
X158543523Y-85391155D01*
X158188479Y-85543919D01*
X157918921Y-85820924D01*
X157775888Y-86179999D01*
X157816873Y-86334600D01*
X158724600Y-86334600D01*
X158724600Y-86385400D01*
X157816873Y-86385400D01*
X157775888Y-86540001D01*
X157918921Y-86899076D01*
X158188479Y-87176081D01*
X158543523Y-87328845D01*
X158570000Y-87334109D01*
X158724600Y-87293104D01*
X158724600Y-87532478D01*
X158234832Y-87629899D01*
X157798093Y-87921719D01*
X157506273Y-88358458D01*
X157480000Y-88490541D01*
X157453727Y-88358458D01*
X157184112Y-87954951D01*
X157184112Y-86540001D01*
X157184112Y-86179999D01*
X157041079Y-85820924D01*
X156771521Y-85543919D01*
X156416477Y-85391155D01*
X156390000Y-85385891D01*
X156235400Y-85426896D01*
X156235400Y-86334600D01*
X157143127Y-86334600D01*
X157184112Y-86179999D01*
X157184112Y-86540001D01*
X157143127Y-86385400D01*
X156235400Y-86385400D01*
X156235400Y-87293104D01*
X156390000Y-87334109D01*
X156416477Y-87328845D01*
X156771521Y-87176081D01*
X157041079Y-86899076D01*
X157184112Y-86540001D01*
X157184112Y-87954951D01*
X157161907Y-87921719D01*
X156725168Y-87629899D01*
X156210000Y-87527426D01*
X156184600Y-87532478D01*
X156184600Y-87293104D01*
X156184600Y-86385400D01*
X156184600Y-86334600D01*
X156184600Y-85426896D01*
X156030000Y-85385891D01*
X156003523Y-85391155D01*
X155648479Y-85543919D01*
X155378921Y-85820924D01*
X155235888Y-86179999D01*
X155276873Y-86334600D01*
X156184600Y-86334600D01*
X156184600Y-86385400D01*
X155276873Y-86385400D01*
X155235888Y-86540001D01*
X155378921Y-86899076D01*
X155648479Y-87176081D01*
X156003523Y-87328845D01*
X156030000Y-87334109D01*
X156184600Y-87293104D01*
X156184600Y-87532478D01*
X155694832Y-87629899D01*
X155258093Y-87921719D01*
X154966273Y-88358458D01*
X154940000Y-88490541D01*
X154913727Y-88358458D01*
X154644112Y-87954951D01*
X154644112Y-86540001D01*
X154644112Y-86179999D01*
X154501079Y-85820924D01*
X154231521Y-85543919D01*
X153876477Y-85391155D01*
X153850000Y-85385891D01*
X153695400Y-85426896D01*
X153695400Y-86334600D01*
X154603127Y-86334600D01*
X154644112Y-86179999D01*
X154644112Y-86540001D01*
X154603127Y-86385400D01*
X153695400Y-86385400D01*
X153695400Y-87293104D01*
X153850000Y-87334109D01*
X153876477Y-87328845D01*
X154231521Y-87176081D01*
X154501079Y-86899076D01*
X154644112Y-86540001D01*
X154644112Y-87954951D01*
X154621907Y-87921719D01*
X154185168Y-87629899D01*
X153670000Y-87527426D01*
X153644600Y-87532478D01*
X153644600Y-87293104D01*
X153644600Y-86385400D01*
X153644600Y-86334600D01*
X153644600Y-85426896D01*
X153490000Y-85385891D01*
X153463523Y-85391155D01*
X153108479Y-85543919D01*
X152838921Y-85820924D01*
X152695888Y-86179999D01*
X152736873Y-86334600D01*
X153644600Y-86334600D01*
X153644600Y-86385400D01*
X152736873Y-86385400D01*
X152695888Y-86540001D01*
X152838921Y-86899076D01*
X153108479Y-87176081D01*
X153463523Y-87328845D01*
X153490000Y-87334109D01*
X153644600Y-87293104D01*
X153644600Y-87532478D01*
X153154832Y-87629899D01*
X152718093Y-87921719D01*
X152426273Y-88358458D01*
X152400000Y-88490541D01*
X152373727Y-88358458D01*
X152104112Y-87954951D01*
X152104112Y-86540001D01*
X152104112Y-86179999D01*
X151961079Y-85820924D01*
X151691521Y-85543919D01*
X151336477Y-85391155D01*
X151310000Y-85385891D01*
X151155400Y-85426896D01*
X151155400Y-86334600D01*
X152063127Y-86334600D01*
X152104112Y-86179999D01*
X152104112Y-86540001D01*
X152063127Y-86385400D01*
X151155400Y-86385400D01*
X151155400Y-87293104D01*
X151310000Y-87334109D01*
X151336477Y-87328845D01*
X151691521Y-87176081D01*
X151961079Y-86899076D01*
X152104112Y-86540001D01*
X152104112Y-87954951D01*
X152081907Y-87921719D01*
X151645168Y-87629899D01*
X151130000Y-87527426D01*
X151104600Y-87532478D01*
X151104600Y-87293104D01*
X151104600Y-86385400D01*
X151104600Y-86334600D01*
X151104600Y-85426896D01*
X150950000Y-85385891D01*
X150923523Y-85391155D01*
X150568479Y-85543919D01*
X150298921Y-85820924D01*
X150155888Y-86179999D01*
X150196873Y-86334600D01*
X151104600Y-86334600D01*
X151104600Y-86385400D01*
X150196873Y-86385400D01*
X150155888Y-86540001D01*
X150298921Y-86899076D01*
X150568479Y-87176081D01*
X150923523Y-87328845D01*
X150950000Y-87334109D01*
X151104600Y-87293104D01*
X151104600Y-87532478D01*
X150614832Y-87629899D01*
X150178093Y-87921719D01*
X149886273Y-88358458D01*
X149860000Y-88490541D01*
X149833727Y-88358458D01*
X149564112Y-87954951D01*
X149564112Y-86540001D01*
X149564112Y-86179999D01*
X149421079Y-85820924D01*
X149151521Y-85543919D01*
X148796477Y-85391155D01*
X148770000Y-85385891D01*
X148615400Y-85426896D01*
X148615400Y-86334600D01*
X149523127Y-86334600D01*
X149564112Y-86179999D01*
X149564112Y-86540001D01*
X149523127Y-86385400D01*
X148615400Y-86385400D01*
X148615400Y-87293104D01*
X148770000Y-87334109D01*
X148796477Y-87328845D01*
X149151521Y-87176081D01*
X149421079Y-86899076D01*
X149564112Y-86540001D01*
X149564112Y-87954951D01*
X149541907Y-87921719D01*
X149105168Y-87629899D01*
X148590000Y-87527426D01*
X148564600Y-87532478D01*
X148564600Y-87293104D01*
X148564600Y-86385400D01*
X148564600Y-86334600D01*
X148564600Y-85426896D01*
X148410000Y-85385891D01*
X148383523Y-85391155D01*
X148028479Y-85543919D01*
X147758921Y-85820924D01*
X147615888Y-86179999D01*
X147656873Y-86334600D01*
X148564600Y-86334600D01*
X148564600Y-86385400D01*
X147656873Y-86385400D01*
X147615888Y-86540001D01*
X147758921Y-86899076D01*
X148028479Y-87176081D01*
X148383523Y-87328845D01*
X148410000Y-87334109D01*
X148564600Y-87293104D01*
X148564600Y-87532478D01*
X148074832Y-87629899D01*
X147638093Y-87921719D01*
X147346273Y-88358458D01*
X147320000Y-88490541D01*
X147293727Y-88358458D01*
X147024112Y-87954951D01*
X147024112Y-86540001D01*
X147024112Y-86179999D01*
X146881079Y-85820924D01*
X146611521Y-85543919D01*
X146256477Y-85391155D01*
X146230000Y-85385891D01*
X146075400Y-85426896D01*
X146075400Y-86334600D01*
X146983127Y-86334600D01*
X147024112Y-86179999D01*
X147024112Y-86540001D01*
X146983127Y-86385400D01*
X146075400Y-86385400D01*
X146075400Y-87293104D01*
X146230000Y-87334109D01*
X146256477Y-87328845D01*
X146611521Y-87176081D01*
X146881079Y-86899076D01*
X147024112Y-86540001D01*
X147024112Y-87954951D01*
X147001907Y-87921719D01*
X146565168Y-87629899D01*
X146050000Y-87527426D01*
X146024600Y-87532478D01*
X146024600Y-87293104D01*
X146024600Y-86385400D01*
X146024600Y-86334600D01*
X146024600Y-85426896D01*
X145870000Y-85385891D01*
X145843523Y-85391155D01*
X145488479Y-85543919D01*
X145218921Y-85820924D01*
X145075888Y-86179999D01*
X145116873Y-86334600D01*
X146024600Y-86334600D01*
X146024600Y-86385400D01*
X145116873Y-86385400D01*
X145075888Y-86540001D01*
X145218921Y-86899076D01*
X145488479Y-87176081D01*
X145843523Y-87328845D01*
X145870000Y-87334109D01*
X146024600Y-87293104D01*
X146024600Y-87532478D01*
X145534832Y-87629899D01*
X145098093Y-87921719D01*
X144806273Y-88358458D01*
X144780000Y-88490541D01*
X144753727Y-88358458D01*
X144484112Y-87954951D01*
X144484112Y-86540001D01*
X144484112Y-86179999D01*
X144341079Y-85820924D01*
X144071521Y-85543919D01*
X143716477Y-85391155D01*
X143690000Y-85385891D01*
X143535400Y-85426896D01*
X143535400Y-86334600D01*
X144443127Y-86334600D01*
X144484112Y-86179999D01*
X144484112Y-86540001D01*
X144443127Y-86385400D01*
X143535400Y-86385400D01*
X143535400Y-87293104D01*
X143690000Y-87334109D01*
X143716477Y-87328845D01*
X144071521Y-87176081D01*
X144341079Y-86899076D01*
X144484112Y-86540001D01*
X144484112Y-87954951D01*
X144461907Y-87921719D01*
X144025168Y-87629899D01*
X143510000Y-87527426D01*
X143484600Y-87532478D01*
X143484600Y-87293104D01*
X143484600Y-86385400D01*
X143484600Y-86334600D01*
X143484600Y-85426896D01*
X143330000Y-85385891D01*
X143303523Y-85391155D01*
X142948479Y-85543919D01*
X142678921Y-85820924D01*
X142535888Y-86179999D01*
X142576873Y-86334600D01*
X143484600Y-86334600D01*
X143484600Y-86385400D01*
X142576873Y-86385400D01*
X142535888Y-86540001D01*
X142678921Y-86899076D01*
X142948479Y-87176081D01*
X143303523Y-87328845D01*
X143330000Y-87334109D01*
X143484600Y-87293104D01*
X143484600Y-87532478D01*
X142994832Y-87629899D01*
X142558093Y-87921719D01*
X142266273Y-88358458D01*
X142240000Y-88490541D01*
X142213727Y-88358458D01*
X141944112Y-87954951D01*
X141944112Y-86540001D01*
X141944112Y-86179999D01*
X141801079Y-85820924D01*
X141531521Y-85543919D01*
X141176477Y-85391155D01*
X141150000Y-85385891D01*
X140995400Y-85426896D01*
X140995400Y-86334600D01*
X141903127Y-86334600D01*
X141944112Y-86179999D01*
X141944112Y-86540001D01*
X141903127Y-86385400D01*
X140995400Y-86385400D01*
X140995400Y-87293104D01*
X141150000Y-87334109D01*
X141176477Y-87328845D01*
X141531521Y-87176081D01*
X141801079Y-86899076D01*
X141944112Y-86540001D01*
X141944112Y-87954951D01*
X141921907Y-87921719D01*
X141485168Y-87629899D01*
X140970000Y-87527426D01*
X140944600Y-87532478D01*
X140944600Y-87293104D01*
X140944600Y-86385400D01*
X140944600Y-86334600D01*
X140944600Y-85426896D01*
X140790000Y-85385891D01*
X140763523Y-85391155D01*
X140408479Y-85543919D01*
X140138921Y-85820924D01*
X139995888Y-86179999D01*
X140036873Y-86334600D01*
X140944600Y-86334600D01*
X140944600Y-86385400D01*
X140036873Y-86385400D01*
X139995888Y-86540001D01*
X140138921Y-86899076D01*
X140408479Y-87176081D01*
X140763523Y-87328845D01*
X140790000Y-87334109D01*
X140944600Y-87293104D01*
X140944600Y-87532478D01*
X140454832Y-87629899D01*
X140018093Y-87921719D01*
X139726273Y-88358458D01*
X139700000Y-88490541D01*
X139673727Y-88358458D01*
X139404112Y-87954951D01*
X139404112Y-86540001D01*
X139404112Y-86179999D01*
X139261079Y-85820924D01*
X138991521Y-85543919D01*
X138636477Y-85391155D01*
X138610000Y-85385891D01*
X138455400Y-85426896D01*
X138455400Y-86334600D01*
X139363127Y-86334600D01*
X139404112Y-86179999D01*
X139404112Y-86540001D01*
X139363127Y-86385400D01*
X138455400Y-86385400D01*
X138455400Y-87293104D01*
X138610000Y-87334109D01*
X138636477Y-87328845D01*
X138991521Y-87176081D01*
X139261079Y-86899076D01*
X139404112Y-86540001D01*
X139404112Y-87954951D01*
X139381907Y-87921719D01*
X138945168Y-87629899D01*
X138430000Y-87527426D01*
X138404600Y-87532478D01*
X138404600Y-87293104D01*
X138404600Y-86385400D01*
X138404600Y-86334600D01*
X138404600Y-85426896D01*
X138250000Y-85385891D01*
X138223523Y-85391155D01*
X137868479Y-85543919D01*
X137598921Y-85820924D01*
X137455888Y-86179999D01*
X137496873Y-86334600D01*
X138404600Y-86334600D01*
X138404600Y-86385400D01*
X137496873Y-86385400D01*
X137455888Y-86540001D01*
X137598921Y-86899076D01*
X137868479Y-87176081D01*
X138223523Y-87328845D01*
X138250000Y-87334109D01*
X138404600Y-87293104D01*
X138404600Y-87532478D01*
X137914832Y-87629899D01*
X137478093Y-87921719D01*
X137186273Y-88358458D01*
X137160000Y-88490541D01*
X137133727Y-88358458D01*
X136864112Y-87954951D01*
X136864112Y-86540001D01*
X136864112Y-86179999D01*
X136721079Y-85820924D01*
X136451521Y-85543919D01*
X136096477Y-85391155D01*
X136070000Y-85385891D01*
X135915400Y-85426896D01*
X135915400Y-86334600D01*
X136823127Y-86334600D01*
X136864112Y-86179999D01*
X136864112Y-86540001D01*
X136823127Y-86385400D01*
X135915400Y-86385400D01*
X135915400Y-87293104D01*
X136070000Y-87334109D01*
X136096477Y-87328845D01*
X136451521Y-87176081D01*
X136721079Y-86899076D01*
X136864112Y-86540001D01*
X136864112Y-87954951D01*
X136841907Y-87921719D01*
X136405168Y-87629899D01*
X135890000Y-87527426D01*
X135864600Y-87532478D01*
X135864600Y-87293104D01*
X135864600Y-86385400D01*
X135864600Y-86334600D01*
X135864600Y-85426896D01*
X135710000Y-85385891D01*
X135683523Y-85391155D01*
X135328479Y-85543919D01*
X135058921Y-85820924D01*
X134915888Y-86179999D01*
X134956873Y-86334600D01*
X135864600Y-86334600D01*
X135864600Y-86385400D01*
X134956873Y-86385400D01*
X134915888Y-86540001D01*
X135058921Y-86899076D01*
X135328479Y-87176081D01*
X135683523Y-87328845D01*
X135710000Y-87334109D01*
X135864600Y-87293104D01*
X135864600Y-87532478D01*
X135374832Y-87629899D01*
X134938093Y-87921719D01*
X134646273Y-88358458D01*
X134620000Y-88490541D01*
X134593727Y-88358458D01*
X134324112Y-87954951D01*
X134324112Y-86540001D01*
X134324112Y-86179999D01*
X134181079Y-85820924D01*
X133911521Y-85543919D01*
X133556477Y-85391155D01*
X133530000Y-85385891D01*
X133375400Y-85426896D01*
X133375400Y-86334600D01*
X134283127Y-86334600D01*
X134324112Y-86179999D01*
X134324112Y-86540001D01*
X134283127Y-86385400D01*
X133375400Y-86385400D01*
X133375400Y-87293104D01*
X133530000Y-87334109D01*
X133556477Y-87328845D01*
X133911521Y-87176081D01*
X134181079Y-86899076D01*
X134324112Y-86540001D01*
X134324112Y-87954951D01*
X134301907Y-87921719D01*
X133865168Y-87629899D01*
X133350000Y-87527426D01*
X133324600Y-87532478D01*
X133324600Y-87293104D01*
X133324600Y-86385400D01*
X133324600Y-86334600D01*
X133324600Y-85426896D01*
X133170000Y-85385891D01*
X133143523Y-85391155D01*
X132788479Y-85543919D01*
X132518921Y-85820924D01*
X132375888Y-86179999D01*
X132416873Y-86334600D01*
X133324600Y-86334600D01*
X133324600Y-86385400D01*
X132416873Y-86385400D01*
X132375888Y-86540001D01*
X132518921Y-86899076D01*
X132788479Y-87176081D01*
X133143523Y-87328845D01*
X133170000Y-87334109D01*
X133324600Y-87293104D01*
X133324600Y-87532478D01*
X132834832Y-87629899D01*
X132398093Y-87921719D01*
X132106273Y-88358458D01*
X132080000Y-88490541D01*
X132053727Y-88358458D01*
X131784112Y-87954951D01*
X131784112Y-86540001D01*
X131784112Y-86179999D01*
X131641079Y-85820924D01*
X131371521Y-85543919D01*
X131016477Y-85391155D01*
X130990000Y-85385891D01*
X130835400Y-85426896D01*
X130835400Y-86334600D01*
X131743127Y-86334600D01*
X131784112Y-86179999D01*
X131784112Y-86540001D01*
X131743127Y-86385400D01*
X130835400Y-86385400D01*
X130835400Y-87293104D01*
X130990000Y-87334109D01*
X131016477Y-87328845D01*
X131371521Y-87176081D01*
X131641079Y-86899076D01*
X131784112Y-86540001D01*
X131784112Y-87954951D01*
X131761907Y-87921719D01*
X131325168Y-87629899D01*
X130810000Y-87527426D01*
X130784600Y-87532478D01*
X130784600Y-87293104D01*
X130784600Y-86385400D01*
X130784600Y-86334600D01*
X130784600Y-85426896D01*
X130630000Y-85385891D01*
X130603523Y-85391155D01*
X130248479Y-85543919D01*
X129978921Y-85820924D01*
X129835888Y-86179999D01*
X129876873Y-86334600D01*
X130784600Y-86334600D01*
X130784600Y-86385400D01*
X129876873Y-86385400D01*
X129835888Y-86540001D01*
X129978921Y-86899076D01*
X130248479Y-87176081D01*
X130603523Y-87328845D01*
X130630000Y-87334109D01*
X130784600Y-87293104D01*
X130784600Y-87532478D01*
X130294832Y-87629899D01*
X129858093Y-87921719D01*
X129566273Y-88358458D01*
X129540000Y-88490541D01*
X129513727Y-88358458D01*
X129244112Y-87954951D01*
X129244112Y-86540001D01*
X129244112Y-86179999D01*
X129101079Y-85820924D01*
X128831521Y-85543919D01*
X128476477Y-85391155D01*
X128450000Y-85385891D01*
X128295400Y-85426896D01*
X128295400Y-86334600D01*
X129203127Y-86334600D01*
X129244112Y-86179999D01*
X129244112Y-86540001D01*
X129203127Y-86385400D01*
X128295400Y-86385400D01*
X128295400Y-87293104D01*
X128450000Y-87334109D01*
X128476477Y-87328845D01*
X128831521Y-87176081D01*
X129101079Y-86899076D01*
X129244112Y-86540001D01*
X129244112Y-87954951D01*
X129221907Y-87921719D01*
X128785168Y-87629899D01*
X128270000Y-87527426D01*
X128244600Y-87532478D01*
X128244600Y-87293104D01*
X128244600Y-86385400D01*
X128244600Y-86334600D01*
X128244600Y-85426896D01*
X128090000Y-85385891D01*
X128063523Y-85391155D01*
X127708479Y-85543919D01*
X127438921Y-85820924D01*
X127295888Y-86179999D01*
X127336873Y-86334600D01*
X128244600Y-86334600D01*
X128244600Y-86385400D01*
X127336873Y-86385400D01*
X127295888Y-86540001D01*
X127438921Y-86899076D01*
X127708479Y-87176081D01*
X128063523Y-87328845D01*
X128090000Y-87334109D01*
X128244600Y-87293104D01*
X128244600Y-87532478D01*
X127754832Y-87629899D01*
X127318093Y-87921719D01*
X127026273Y-88358458D01*
X127000000Y-88490541D01*
X126973727Y-88358458D01*
X126704112Y-87954951D01*
X126704112Y-86540001D01*
X126704112Y-86179999D01*
X126561079Y-85820924D01*
X126291521Y-85543919D01*
X125936477Y-85391155D01*
X125910000Y-85385891D01*
X125755400Y-85426896D01*
X125755400Y-86334600D01*
X126663127Y-86334600D01*
X126704112Y-86179999D01*
X126704112Y-86540001D01*
X126663127Y-86385400D01*
X125755400Y-86385400D01*
X125755400Y-87293104D01*
X125910000Y-87334109D01*
X125936477Y-87328845D01*
X126291521Y-87176081D01*
X126561079Y-86899076D01*
X126704112Y-86540001D01*
X126704112Y-87954951D01*
X126681907Y-87921719D01*
X126245168Y-87629899D01*
X125730000Y-87527426D01*
X125704600Y-87532478D01*
X125704600Y-87293104D01*
X125704600Y-86385400D01*
X125704600Y-86334600D01*
X125704600Y-85426896D01*
X125550000Y-85385891D01*
X125523523Y-85391155D01*
X125168479Y-85543919D01*
X124898921Y-85820924D01*
X124755888Y-86179999D01*
X124796873Y-86334600D01*
X125704600Y-86334600D01*
X125704600Y-86385400D01*
X124796873Y-86385400D01*
X124755888Y-86540001D01*
X124898921Y-86899076D01*
X125168479Y-87176081D01*
X125523523Y-87328845D01*
X125550000Y-87334109D01*
X125704600Y-87293104D01*
X125704600Y-87532478D01*
X125214832Y-87629899D01*
X124778093Y-87921719D01*
X124486273Y-88358458D01*
X124460000Y-88490541D01*
X124433727Y-88358458D01*
X124164112Y-87954951D01*
X124164112Y-86540001D01*
X124164112Y-86179999D01*
X124021079Y-85820924D01*
X123751521Y-85543919D01*
X123396477Y-85391155D01*
X123370000Y-85385891D01*
X123215400Y-85426896D01*
X123215400Y-86334600D01*
X124123127Y-86334600D01*
X124164112Y-86179999D01*
X124164112Y-86540001D01*
X124123127Y-86385400D01*
X123215400Y-86385400D01*
X123215400Y-87293104D01*
X123370000Y-87334109D01*
X123396477Y-87328845D01*
X123751521Y-87176081D01*
X124021079Y-86899076D01*
X124164112Y-86540001D01*
X124164112Y-87954951D01*
X124141907Y-87921719D01*
X123705168Y-87629899D01*
X123190000Y-87527426D01*
X123164600Y-87532478D01*
X123164600Y-87293104D01*
X123164600Y-86385400D01*
X123164600Y-86334600D01*
X123164600Y-85426896D01*
X123010000Y-85385891D01*
X122983523Y-85391155D01*
X122628479Y-85543919D01*
X122358921Y-85820924D01*
X122215888Y-86179999D01*
X122256873Y-86334600D01*
X123164600Y-86334600D01*
X123164600Y-86385400D01*
X122256873Y-86385400D01*
X122215888Y-86540001D01*
X122358921Y-86899076D01*
X122628479Y-87176081D01*
X122983523Y-87328845D01*
X123010000Y-87334109D01*
X123164600Y-87293104D01*
X123164600Y-87532478D01*
X122674832Y-87629899D01*
X122238093Y-87921719D01*
X121946273Y-88358458D01*
X121920000Y-88490541D01*
X121893727Y-88358458D01*
X121624112Y-87954951D01*
X121624112Y-86540001D01*
X121624112Y-86179999D01*
X121481079Y-85820924D01*
X121211521Y-85543919D01*
X120856477Y-85391155D01*
X120830000Y-85385891D01*
X120675400Y-85426896D01*
X120675400Y-86334600D01*
X121583127Y-86334600D01*
X121624112Y-86179999D01*
X121624112Y-86540001D01*
X121583127Y-86385400D01*
X120675400Y-86385400D01*
X120675400Y-87293104D01*
X120830000Y-87334109D01*
X120856477Y-87328845D01*
X121211521Y-87176081D01*
X121481079Y-86899076D01*
X121624112Y-86540001D01*
X121624112Y-87954951D01*
X121601907Y-87921719D01*
X121165168Y-87629899D01*
X120650000Y-87527426D01*
X120624600Y-87532478D01*
X120624600Y-87293104D01*
X120624600Y-86385400D01*
X120624600Y-86334600D01*
X120624600Y-85426896D01*
X120470000Y-85385891D01*
X120443523Y-85391155D01*
X120088479Y-85543919D01*
X119818921Y-85820924D01*
X119675888Y-86179999D01*
X119716873Y-86334600D01*
X120624600Y-86334600D01*
X120624600Y-86385400D01*
X119716873Y-86385400D01*
X119675888Y-86540001D01*
X119818921Y-86899076D01*
X120088479Y-87176081D01*
X120443523Y-87328845D01*
X120470000Y-87334109D01*
X120624600Y-87293104D01*
X120624600Y-87532478D01*
X120134832Y-87629899D01*
X119698093Y-87921719D01*
X119406273Y-88358458D01*
X119380000Y-88490541D01*
X119353727Y-88358458D01*
X119084112Y-87954951D01*
X119084112Y-86540001D01*
X119084112Y-86179999D01*
X118941079Y-85820924D01*
X118671521Y-85543919D01*
X118316477Y-85391155D01*
X118290000Y-85385891D01*
X118135400Y-85426896D01*
X118135400Y-86334600D01*
X119043127Y-86334600D01*
X119084112Y-86179999D01*
X119084112Y-86540001D01*
X119043127Y-86385400D01*
X118135400Y-86385400D01*
X118135400Y-87293104D01*
X118290000Y-87334109D01*
X118316477Y-87328845D01*
X118671521Y-87176081D01*
X118941079Y-86899076D01*
X119084112Y-86540001D01*
X119084112Y-87954951D01*
X119061907Y-87921719D01*
X118625168Y-87629899D01*
X118110000Y-87527426D01*
X118084600Y-87532478D01*
X118084600Y-87293104D01*
X118084600Y-86385400D01*
X118084600Y-86334600D01*
X118084600Y-85426896D01*
X117930000Y-85385891D01*
X117903523Y-85391155D01*
X117548479Y-85543919D01*
X117278921Y-85820924D01*
X117135888Y-86179999D01*
X117176873Y-86334600D01*
X118084600Y-86334600D01*
X118084600Y-86385400D01*
X117176873Y-86385400D01*
X117135888Y-86540001D01*
X117278921Y-86899076D01*
X117548479Y-87176081D01*
X117903523Y-87328845D01*
X117930000Y-87334109D01*
X118084600Y-87293104D01*
X118084600Y-87532478D01*
X117594832Y-87629899D01*
X117158093Y-87921719D01*
X116866273Y-88358458D01*
X116840000Y-88490541D01*
X116813727Y-88358458D01*
X116544112Y-87954951D01*
X116544112Y-86540001D01*
X116544112Y-86179999D01*
X116401079Y-85820924D01*
X116131521Y-85543919D01*
X115776477Y-85391155D01*
X115750000Y-85385891D01*
X115595400Y-85426896D01*
X115595400Y-86334600D01*
X116503127Y-86334600D01*
X116544112Y-86179999D01*
X116544112Y-86540001D01*
X116503127Y-86385400D01*
X115595400Y-86385400D01*
X115595400Y-87293104D01*
X115750000Y-87334109D01*
X115776477Y-87328845D01*
X116131521Y-87176081D01*
X116401079Y-86899076D01*
X116544112Y-86540001D01*
X116544112Y-87954951D01*
X116521907Y-87921719D01*
X116085168Y-87629899D01*
X115570000Y-87527426D01*
X115544600Y-87532478D01*
X115544600Y-87293104D01*
X115544600Y-86385400D01*
X115544600Y-86334600D01*
X115544600Y-85426896D01*
X115390000Y-85385891D01*
X115363523Y-85391155D01*
X115008479Y-85543919D01*
X114738921Y-85820924D01*
X114595888Y-86179999D01*
X114636873Y-86334600D01*
X115544600Y-86334600D01*
X115544600Y-86385400D01*
X114636873Y-86385400D01*
X114595888Y-86540001D01*
X114738921Y-86899076D01*
X115008479Y-87176081D01*
X115363523Y-87328845D01*
X115390000Y-87334109D01*
X115544600Y-87293104D01*
X115544600Y-87532478D01*
X115054832Y-87629899D01*
X114618093Y-87921719D01*
X114326273Y-88358458D01*
X114300000Y-88490541D01*
X114273727Y-88358458D01*
X114004112Y-87954951D01*
X114004112Y-86540001D01*
X114004112Y-86179999D01*
X113861079Y-85820924D01*
X113591521Y-85543919D01*
X113236477Y-85391155D01*
X113210000Y-85385891D01*
X113055400Y-85426896D01*
X113055400Y-86334600D01*
X113963127Y-86334600D01*
X114004112Y-86179999D01*
X114004112Y-86540001D01*
X113963127Y-86385400D01*
X113055400Y-86385400D01*
X113055400Y-87293104D01*
X113210000Y-87334109D01*
X113236477Y-87328845D01*
X113591521Y-87176081D01*
X113861079Y-86899076D01*
X114004112Y-86540001D01*
X114004112Y-87954951D01*
X113981907Y-87921719D01*
X113545168Y-87629899D01*
X113030000Y-87527426D01*
X113004600Y-87532478D01*
X113004600Y-87293104D01*
X113004600Y-86385400D01*
X113004600Y-86334600D01*
X113004600Y-85426896D01*
X112850000Y-85385891D01*
X112823523Y-85391155D01*
X112468479Y-85543919D01*
X112198921Y-85820924D01*
X112055888Y-86179999D01*
X112096873Y-86334600D01*
X113004600Y-86334600D01*
X113004600Y-86385400D01*
X112096873Y-86385400D01*
X112055888Y-86540001D01*
X112198921Y-86899076D01*
X112468479Y-87176081D01*
X112823523Y-87328845D01*
X112850000Y-87334109D01*
X113004600Y-87293104D01*
X113004600Y-87532478D01*
X112514832Y-87629899D01*
X112078093Y-87921719D01*
X111786273Y-88358458D01*
X111760000Y-88490541D01*
X111733727Y-88358458D01*
X111464112Y-87954951D01*
X111464112Y-86540001D01*
X111464112Y-86179999D01*
X111321079Y-85820924D01*
X111051521Y-85543919D01*
X110696477Y-85391155D01*
X110670000Y-85385891D01*
X110515400Y-85426896D01*
X110515400Y-86334600D01*
X111423127Y-86334600D01*
X111464112Y-86179999D01*
X111464112Y-86540001D01*
X111423127Y-86385400D01*
X110515400Y-86385400D01*
X110515400Y-87293104D01*
X110670000Y-87334109D01*
X110696477Y-87328845D01*
X111051521Y-87176081D01*
X111321079Y-86899076D01*
X111464112Y-86540001D01*
X111464112Y-87954951D01*
X111441907Y-87921719D01*
X111005168Y-87629899D01*
X110490000Y-87527426D01*
X110464600Y-87532478D01*
X110464600Y-87293104D01*
X110464600Y-86385400D01*
X110464600Y-86334600D01*
X110464600Y-85426896D01*
X110310000Y-85385891D01*
X110283523Y-85391155D01*
X109928479Y-85543919D01*
X109658921Y-85820924D01*
X109515888Y-86179999D01*
X109556873Y-86334600D01*
X110464600Y-86334600D01*
X110464600Y-86385400D01*
X109556873Y-86385400D01*
X109515888Y-86540001D01*
X109658921Y-86899076D01*
X109928479Y-87176081D01*
X110283523Y-87328845D01*
X110310000Y-87334109D01*
X110464600Y-87293104D01*
X110464600Y-87532478D01*
X109974832Y-87629899D01*
X109538093Y-87921719D01*
X109246273Y-88358458D01*
X109220000Y-88490541D01*
X109193727Y-88358458D01*
X108924112Y-87954951D01*
X108924112Y-86540001D01*
X108924112Y-86179999D01*
X108781079Y-85820924D01*
X108511521Y-85543919D01*
X108156477Y-85391155D01*
X108130000Y-85385891D01*
X107975400Y-85426896D01*
X107975400Y-86334600D01*
X108883127Y-86334600D01*
X108924112Y-86179999D01*
X108924112Y-86540001D01*
X108883127Y-86385400D01*
X107975400Y-86385400D01*
X107975400Y-87293104D01*
X108130000Y-87334109D01*
X108156477Y-87328845D01*
X108511521Y-87176081D01*
X108781079Y-86899076D01*
X108924112Y-86540001D01*
X108924112Y-87954951D01*
X108901907Y-87921719D01*
X108465168Y-87629899D01*
X107950000Y-87527426D01*
X107924600Y-87532478D01*
X107924600Y-87293104D01*
X107924600Y-86385400D01*
X107924600Y-86334600D01*
X107924600Y-85426896D01*
X107770000Y-85385891D01*
X107743523Y-85391155D01*
X107388479Y-85543919D01*
X107118921Y-85820924D01*
X106975888Y-86179999D01*
X107016873Y-86334600D01*
X107924600Y-86334600D01*
X107924600Y-86385400D01*
X107016873Y-86385400D01*
X106975888Y-86540001D01*
X107118921Y-86899076D01*
X107388479Y-87176081D01*
X107743523Y-87328845D01*
X107770000Y-87334109D01*
X107924600Y-87293104D01*
X107924600Y-87532478D01*
X107434832Y-87629899D01*
X106998093Y-87921719D01*
X106706273Y-88358458D01*
X106680000Y-88490541D01*
X106653727Y-88358458D01*
X106384112Y-87954951D01*
X106384112Y-86540001D01*
X106384112Y-86179999D01*
X106241079Y-85820924D01*
X105971521Y-85543919D01*
X105616477Y-85391155D01*
X105590000Y-85385891D01*
X105435400Y-85426896D01*
X105435400Y-86334600D01*
X106343127Y-86334600D01*
X106384112Y-86179999D01*
X106384112Y-86540001D01*
X106343127Y-86385400D01*
X105435400Y-86385400D01*
X105435400Y-87293104D01*
X105590000Y-87334109D01*
X105616477Y-87328845D01*
X105971521Y-87176081D01*
X106241079Y-86899076D01*
X106384112Y-86540001D01*
X106384112Y-87954951D01*
X106361907Y-87921719D01*
X105925168Y-87629899D01*
X105410000Y-87527426D01*
X105384600Y-87532478D01*
X105384600Y-87293104D01*
X105384600Y-86385400D01*
X105384600Y-86334600D01*
X105384600Y-85426896D01*
X105230000Y-85385891D01*
X105203523Y-85391155D01*
X104848479Y-85543919D01*
X104578921Y-85820924D01*
X104435888Y-86179999D01*
X104476873Y-86334600D01*
X105384600Y-86334600D01*
X105384600Y-86385400D01*
X104476873Y-86385400D01*
X104435888Y-86540001D01*
X104578921Y-86899076D01*
X104848479Y-87176081D01*
X105203523Y-87328845D01*
X105230000Y-87334109D01*
X105384600Y-87293104D01*
X105384600Y-87532478D01*
X104894832Y-87629899D01*
X104458093Y-87921719D01*
X104166273Y-88358458D01*
X104140000Y-88490541D01*
X104113727Y-88358458D01*
X103844112Y-87954951D01*
X103844112Y-86540001D01*
X103844112Y-86179999D01*
X103701079Y-85820924D01*
X103431521Y-85543919D01*
X103076477Y-85391155D01*
X103050000Y-85385891D01*
X102895400Y-85426896D01*
X102895400Y-86334600D01*
X103803127Y-86334600D01*
X103844112Y-86179999D01*
X103844112Y-86540001D01*
X103803127Y-86385400D01*
X102895400Y-86385400D01*
X102895400Y-87293104D01*
X103050000Y-87334109D01*
X103076477Y-87328845D01*
X103431521Y-87176081D01*
X103701079Y-86899076D01*
X103844112Y-86540001D01*
X103844112Y-87954951D01*
X103821907Y-87921719D01*
X103385168Y-87629899D01*
X102870000Y-87527426D01*
X102844600Y-87532478D01*
X102844600Y-87293104D01*
X102844600Y-86385400D01*
X102844600Y-86334600D01*
X102844600Y-85426896D01*
X102690000Y-85385891D01*
X102663523Y-85391155D01*
X102308479Y-85543919D01*
X102038921Y-85820924D01*
X101895888Y-86179999D01*
X101936873Y-86334600D01*
X102844600Y-86334600D01*
X102844600Y-86385400D01*
X101936873Y-86385400D01*
X101895888Y-86540001D01*
X102038921Y-86899076D01*
X102308479Y-87176081D01*
X102663523Y-87328845D01*
X102690000Y-87334109D01*
X102844600Y-87293104D01*
X102844600Y-87532478D01*
X102354832Y-87629899D01*
X101918093Y-87921719D01*
X101626273Y-88358458D01*
X101523800Y-88873626D01*
X101523800Y-88926374D01*
X101626273Y-89441542D01*
X101918093Y-89878281D01*
X102354832Y-90170101D01*
X102870000Y-90272574D01*
X103385168Y-90170101D01*
X103821907Y-89878281D01*
X104113727Y-89441542D01*
X104140000Y-89309458D01*
X104166273Y-89441542D01*
X104458093Y-89878281D01*
X104894832Y-90170101D01*
X105410000Y-90272574D01*
X105925168Y-90170101D01*
X106361907Y-89878281D01*
X106653727Y-89441542D01*
X106680000Y-89309458D01*
X106706273Y-89441542D01*
X106998093Y-89878281D01*
X107434832Y-90170101D01*
X107950000Y-90272574D01*
X108465168Y-90170101D01*
X108901907Y-89878281D01*
X109193727Y-89441542D01*
X109220000Y-89309458D01*
X109246273Y-89441542D01*
X109538093Y-89878281D01*
X109974832Y-90170101D01*
X110490000Y-90272574D01*
X111005168Y-90170101D01*
X111441907Y-89878281D01*
X111733727Y-89441542D01*
X111760000Y-89309458D01*
X111786273Y-89441542D01*
X112078093Y-89878281D01*
X112514832Y-90170101D01*
X113030000Y-90272574D01*
X113545168Y-90170101D01*
X113981907Y-89878281D01*
X114273727Y-89441542D01*
X114300000Y-89309458D01*
X114326273Y-89441542D01*
X114618093Y-89878281D01*
X115054832Y-90170101D01*
X115570000Y-90272574D01*
X116085168Y-90170101D01*
X116521907Y-89878281D01*
X116813727Y-89441542D01*
X116840000Y-89309458D01*
X116866273Y-89441542D01*
X117158093Y-89878281D01*
X117594832Y-90170101D01*
X118110000Y-90272574D01*
X118625168Y-90170101D01*
X119061907Y-89878281D01*
X119353727Y-89441542D01*
X119380000Y-89309458D01*
X119406273Y-89441542D01*
X119698093Y-89878281D01*
X120134832Y-90170101D01*
X120650000Y-90272574D01*
X121165168Y-90170101D01*
X121601907Y-89878281D01*
X121893727Y-89441542D01*
X121920000Y-89309458D01*
X121946273Y-89441542D01*
X122238093Y-89878281D01*
X122674832Y-90170101D01*
X123190000Y-90272574D01*
X123705168Y-90170101D01*
X124141907Y-89878281D01*
X124433727Y-89441542D01*
X124460000Y-89309458D01*
X124486273Y-89441542D01*
X124778093Y-89878281D01*
X125214832Y-90170101D01*
X125730000Y-90272574D01*
X126245168Y-90170101D01*
X126681907Y-89878281D01*
X126973727Y-89441542D01*
X127000000Y-89309458D01*
X127026273Y-89441542D01*
X127318093Y-89878281D01*
X127754832Y-90170101D01*
X128270000Y-90272574D01*
X128785168Y-90170101D01*
X129221907Y-89878281D01*
X129513727Y-89441542D01*
X129540000Y-89309458D01*
X129566273Y-89441542D01*
X129858093Y-89878281D01*
X130294832Y-90170101D01*
X130810000Y-90272574D01*
X131325168Y-90170101D01*
X131761907Y-89878281D01*
X132053727Y-89441542D01*
X132080000Y-89309458D01*
X132106273Y-89441542D01*
X132398093Y-89878281D01*
X132834832Y-90170101D01*
X133350000Y-90272574D01*
X133865168Y-90170101D01*
X134301907Y-89878281D01*
X134593727Y-89441542D01*
X134620000Y-89309458D01*
X134646273Y-89441542D01*
X134938093Y-89878281D01*
X135374832Y-90170101D01*
X135890000Y-90272574D01*
X136405168Y-90170101D01*
X136841907Y-89878281D01*
X137133727Y-89441542D01*
X137160000Y-89309458D01*
X137186273Y-89441542D01*
X137478093Y-89878281D01*
X137914832Y-90170101D01*
X138430000Y-90272574D01*
X138945168Y-90170101D01*
X139381907Y-89878281D01*
X139673727Y-89441542D01*
X139700000Y-89309458D01*
X139726273Y-89441542D01*
X140018093Y-89878281D01*
X140454832Y-90170101D01*
X140970000Y-90272574D01*
X141485168Y-90170101D01*
X141921907Y-89878281D01*
X142213727Y-89441542D01*
X142240000Y-89309458D01*
X142266273Y-89441542D01*
X142558093Y-89878281D01*
X142994832Y-90170101D01*
X143510000Y-90272574D01*
X144025168Y-90170101D01*
X144461907Y-89878281D01*
X144753727Y-89441542D01*
X144780000Y-89309458D01*
X144806273Y-89441542D01*
X145098093Y-89878281D01*
X145534832Y-90170101D01*
X146050000Y-90272574D01*
X146565168Y-90170101D01*
X147001907Y-89878281D01*
X147293727Y-89441542D01*
X147320000Y-89309458D01*
X147346273Y-89441542D01*
X147638093Y-89878281D01*
X148074832Y-90170101D01*
X148590000Y-90272574D01*
X149105168Y-90170101D01*
X149541907Y-89878281D01*
X149833727Y-89441542D01*
X149860000Y-89309458D01*
X149886273Y-89441542D01*
X150178093Y-89878281D01*
X150614832Y-90170101D01*
X151130000Y-90272574D01*
X151645168Y-90170101D01*
X152081907Y-89878281D01*
X152373727Y-89441542D01*
X152400000Y-89309458D01*
X152426273Y-89441542D01*
X152718093Y-89878281D01*
X153154832Y-90170101D01*
X153670000Y-90272574D01*
X154185168Y-90170101D01*
X154621907Y-89878281D01*
X154913727Y-89441542D01*
X154940000Y-89309458D01*
X154966273Y-89441542D01*
X155258093Y-89878281D01*
X155694832Y-90170101D01*
X156210000Y-90272574D01*
X156725168Y-90170101D01*
X157161907Y-89878281D01*
X157453727Y-89441542D01*
X157480000Y-89309458D01*
X157506273Y-89441542D01*
X157798093Y-89878281D01*
X158234832Y-90170101D01*
X158750000Y-90272574D01*
X159265168Y-90170101D01*
X159701907Y-89878281D01*
X159993727Y-89441542D01*
X160020000Y-89309458D01*
X160046273Y-89441542D01*
X160338093Y-89878281D01*
X160774832Y-90170101D01*
X161290000Y-90272574D01*
X161805168Y-90170101D01*
X162241907Y-89878281D01*
X162533727Y-89441542D01*
X162560000Y-89309458D01*
X162586273Y-89441542D01*
X162878093Y-89878281D01*
X163314832Y-90170101D01*
X163830000Y-90272574D01*
X164345168Y-90170101D01*
X164781907Y-89878281D01*
X165073727Y-89441542D01*
X165100000Y-89309458D01*
X165126273Y-89441542D01*
X165418093Y-89878281D01*
X165854832Y-90170101D01*
X166370000Y-90272574D01*
X166885168Y-90170101D01*
X167321907Y-89878281D01*
X167613727Y-89441542D01*
X167640000Y-89309458D01*
X167666273Y-89441542D01*
X167958093Y-89878281D01*
X168394832Y-90170101D01*
X168910000Y-90272574D01*
X169425168Y-90170101D01*
X169861907Y-89878281D01*
X170153727Y-89441542D01*
X170180000Y-89309458D01*
X170206273Y-89441542D01*
X170498093Y-89878281D01*
X170934832Y-90170101D01*
X171450000Y-90272574D01*
X171965168Y-90170101D01*
X172401907Y-89878281D01*
X172693727Y-89441542D01*
X172720000Y-89309458D01*
X172746273Y-89441542D01*
X173038093Y-89878281D01*
X173474832Y-90170101D01*
X173990000Y-90272574D01*
X174505168Y-90170101D01*
X174941907Y-89878281D01*
X175233727Y-89441542D01*
X175260000Y-89309458D01*
X175286273Y-89441542D01*
X175578093Y-89878281D01*
X176014832Y-90170101D01*
X176530000Y-90272574D01*
X177045168Y-90170101D01*
X177481907Y-89878281D01*
X177773727Y-89441542D01*
X177876200Y-88926374D01*
X177876200Y-120583710D01*
X177826374Y-120573800D01*
X177773626Y-120573800D01*
X177258458Y-120676273D01*
X176821719Y-120968093D01*
X176529899Y-121404832D01*
X176427426Y-121920000D01*
X176529899Y-122435168D01*
X176821719Y-122871907D01*
X177258458Y-123163727D01*
X177773626Y-123266200D01*
X177826374Y-123266200D01*
X178341542Y-123163727D01*
X178778281Y-122871907D01*
X179070101Y-122435168D01*
X179172574Y-121920000D01*
X179172574Y-139014200D01*
X177876200Y-139014200D01*
X177876200Y-129566374D01*
X177876200Y-129513626D01*
X177773727Y-128998458D01*
X177481907Y-128561719D01*
X177045319Y-128270000D01*
X177481907Y-127978281D01*
X177773727Y-127541542D01*
X177876200Y-127026374D01*
X177876200Y-126973626D01*
X177773727Y-126458458D01*
X177481907Y-126021719D01*
X177045168Y-125729899D01*
X176530000Y-125627426D01*
X176014832Y-125729899D01*
X175578093Y-126021719D01*
X175286273Y-126458458D01*
X175260000Y-126590541D01*
X175233727Y-126458458D01*
X174941907Y-126021719D01*
X174505168Y-125729899D01*
X173990000Y-125627426D01*
X173474832Y-125729899D01*
X173038093Y-126021719D01*
X172746273Y-126458458D01*
X172720000Y-126590541D01*
X172693727Y-126458458D01*
X172401907Y-126021719D01*
X171965168Y-125729899D01*
X171450000Y-125627426D01*
X170934832Y-125729899D01*
X170498093Y-126021719D01*
X170206273Y-126458458D01*
X170180000Y-126590541D01*
X170153727Y-126458458D01*
X169861907Y-126021719D01*
X169425168Y-125729899D01*
X168910000Y-125627426D01*
X168394832Y-125729899D01*
X167958093Y-126021719D01*
X167666273Y-126458458D01*
X167640000Y-126590541D01*
X167613727Y-126458458D01*
X167321907Y-126021719D01*
X166885168Y-125729899D01*
X166370000Y-125627426D01*
X165854832Y-125729899D01*
X165418093Y-126021719D01*
X165126273Y-126458458D01*
X165100000Y-126590541D01*
X165073727Y-126458458D01*
X164781907Y-126021719D01*
X164345168Y-125729899D01*
X163830000Y-125627426D01*
X163314832Y-125729899D01*
X162878093Y-126021719D01*
X162586273Y-126458458D01*
X162560000Y-126590541D01*
X162533727Y-126458458D01*
X162241907Y-126021719D01*
X161805168Y-125729899D01*
X161290000Y-125627426D01*
X160774832Y-125729899D01*
X160338093Y-126021719D01*
X160046273Y-126458458D01*
X160020000Y-126590541D01*
X159993727Y-126458458D01*
X159701907Y-126021719D01*
X159265168Y-125729899D01*
X158750000Y-125627426D01*
X158234832Y-125729899D01*
X157798093Y-126021719D01*
X157506273Y-126458458D01*
X157480000Y-126590541D01*
X157453727Y-126458458D01*
X157161907Y-126021719D01*
X156725168Y-125729899D01*
X156210000Y-125627426D01*
X155694832Y-125729899D01*
X155258093Y-126021719D01*
X154966273Y-126458458D01*
X154940000Y-126590541D01*
X154913727Y-126458458D01*
X154621907Y-126021719D01*
X154185168Y-125729899D01*
X153670000Y-125627426D01*
X153154832Y-125729899D01*
X152718093Y-126021719D01*
X152426273Y-126458458D01*
X152400000Y-126590541D01*
X152373727Y-126458458D01*
X152081907Y-126021719D01*
X151645168Y-125729899D01*
X151130000Y-125627426D01*
X150614832Y-125729899D01*
X150178093Y-126021719D01*
X149886273Y-126458458D01*
X149860000Y-126590541D01*
X149833727Y-126458458D01*
X149541907Y-126021719D01*
X149105168Y-125729899D01*
X148590000Y-125627426D01*
X148074832Y-125729899D01*
X147638093Y-126021719D01*
X147346273Y-126458458D01*
X147320000Y-126590541D01*
X147293727Y-126458458D01*
X147001907Y-126021719D01*
X146565168Y-125729899D01*
X146050000Y-125627426D01*
X145534832Y-125729899D01*
X145098093Y-126021719D01*
X144806273Y-126458458D01*
X144780000Y-126590541D01*
X144753727Y-126458458D01*
X144461907Y-126021719D01*
X144025168Y-125729899D01*
X143510000Y-125627426D01*
X142994832Y-125729899D01*
X142558093Y-126021719D01*
X142266273Y-126458458D01*
X142240000Y-126590541D01*
X142213727Y-126458458D01*
X141921907Y-126021719D01*
X141485168Y-125729899D01*
X140970000Y-125627426D01*
X140454832Y-125729899D01*
X140018093Y-126021719D01*
X139726273Y-126458458D01*
X139700000Y-126590541D01*
X139673727Y-126458458D01*
X139381907Y-126021719D01*
X138945168Y-125729899D01*
X138430000Y-125627426D01*
X137914832Y-125729899D01*
X137478093Y-126021719D01*
X137186273Y-126458458D01*
X137160000Y-126590541D01*
X137133727Y-126458458D01*
X136841907Y-126021719D01*
X136405168Y-125729899D01*
X135890000Y-125627426D01*
X135374832Y-125729899D01*
X134938093Y-126021719D01*
X134646273Y-126458458D01*
X134620000Y-126590541D01*
X134593727Y-126458458D01*
X134301907Y-126021719D01*
X133865168Y-125729899D01*
X133350000Y-125627426D01*
X132834832Y-125729899D01*
X132398093Y-126021719D01*
X132106273Y-126458458D01*
X132080000Y-126590541D01*
X132053727Y-126458458D01*
X131761907Y-126021719D01*
X131325168Y-125729899D01*
X130810000Y-125627426D01*
X130294832Y-125729899D01*
X129858093Y-126021719D01*
X129566273Y-126458458D01*
X129540000Y-126590541D01*
X129513727Y-126458458D01*
X129221907Y-126021719D01*
X128785168Y-125729899D01*
X128270000Y-125627426D01*
X127754832Y-125729899D01*
X127318093Y-126021719D01*
X127026273Y-126458458D01*
X127000000Y-126590541D01*
X126973727Y-126458458D01*
X126681907Y-126021719D01*
X126245168Y-125729899D01*
X125730000Y-125627426D01*
X125214832Y-125729899D01*
X124778093Y-126021719D01*
X124486273Y-126458458D01*
X124460000Y-126590541D01*
X124433727Y-126458458D01*
X124141907Y-126021719D01*
X123705168Y-125729899D01*
X123190000Y-125627426D01*
X122674832Y-125729899D01*
X122238093Y-126021719D01*
X121946273Y-126458458D01*
X121920000Y-126590541D01*
X121893727Y-126458458D01*
X121601907Y-126021719D01*
X121165168Y-125729899D01*
X120650000Y-125627426D01*
X120134832Y-125729899D01*
X119698093Y-126021719D01*
X119406273Y-126458458D01*
X119380000Y-126590541D01*
X119353727Y-126458458D01*
X119061907Y-126021719D01*
X118625168Y-125729899D01*
X118110000Y-125627426D01*
X117594832Y-125729899D01*
X117158093Y-126021719D01*
X116866273Y-126458458D01*
X116840000Y-126590541D01*
X116813727Y-126458458D01*
X116521907Y-126021719D01*
X116085168Y-125729899D01*
X115570000Y-125627426D01*
X115054832Y-125729899D01*
X114618093Y-126021719D01*
X114326273Y-126458458D01*
X114300000Y-126590541D01*
X114273727Y-126458458D01*
X113981907Y-126021719D01*
X113545168Y-125729899D01*
X113030000Y-125627426D01*
X112514832Y-125729899D01*
X112078093Y-126021719D01*
X111786273Y-126458458D01*
X111760000Y-126590541D01*
X111733727Y-126458458D01*
X111441907Y-126021719D01*
X111005168Y-125729899D01*
X110490000Y-125627426D01*
X109974832Y-125729899D01*
X109538093Y-126021719D01*
X109246273Y-126458458D01*
X109220000Y-126590541D01*
X109193727Y-126458458D01*
X108901907Y-126021719D01*
X108465168Y-125729899D01*
X107950000Y-125627426D01*
X107434832Y-125729899D01*
X106998093Y-126021719D01*
X106706273Y-126458458D01*
X106680000Y-126590541D01*
X106653727Y-126458458D01*
X106361907Y-126021719D01*
X105925168Y-125729899D01*
X105410000Y-125627426D01*
X104894832Y-125729899D01*
X104458093Y-126021719D01*
X104166273Y-126458458D01*
X104140000Y-126590541D01*
X104113727Y-126458458D01*
X103821907Y-126021719D01*
X103385168Y-125729899D01*
X102870000Y-125627426D01*
X102354832Y-125729899D01*
X101918093Y-126021719D01*
X101626273Y-126458458D01*
X101523800Y-126973626D01*
X101523800Y-127026374D01*
X101626273Y-127541542D01*
X101918093Y-127978281D01*
X102354680Y-128270000D01*
X101918093Y-128561719D01*
X101626273Y-128998458D01*
X101523800Y-129513626D01*
X101523800Y-129566374D01*
X101626273Y-130081542D01*
X101918093Y-130518281D01*
X102354832Y-130810101D01*
X102870000Y-130912574D01*
X103385168Y-130810101D01*
X103821907Y-130518281D01*
X104113727Y-130081542D01*
X104140000Y-129949458D01*
X104166273Y-130081542D01*
X104458093Y-130518281D01*
X104894832Y-130810101D01*
X105410000Y-130912574D01*
X105925168Y-130810101D01*
X106361907Y-130518281D01*
X106653727Y-130081542D01*
X106680000Y-129949458D01*
X106706273Y-130081542D01*
X106998093Y-130518281D01*
X107434832Y-130810101D01*
X107950000Y-130912574D01*
X108465168Y-130810101D01*
X108901907Y-130518281D01*
X109193727Y-130081542D01*
X109220000Y-129949458D01*
X109246273Y-130081542D01*
X109538093Y-130518281D01*
X109974832Y-130810101D01*
X110490000Y-130912574D01*
X111005168Y-130810101D01*
X111441907Y-130518281D01*
X111733727Y-130081542D01*
X111760000Y-129949458D01*
X111786273Y-130081542D01*
X112078093Y-130518281D01*
X112514832Y-130810101D01*
X113030000Y-130912574D01*
X113545168Y-130810101D01*
X113981907Y-130518281D01*
X114273727Y-130081542D01*
X114300000Y-129949458D01*
X114326273Y-130081542D01*
X114618093Y-130518281D01*
X115054832Y-130810101D01*
X115570000Y-130912574D01*
X116085168Y-130810101D01*
X116521907Y-130518281D01*
X116813727Y-130081542D01*
X116840000Y-129949458D01*
X116866273Y-130081542D01*
X117158093Y-130518281D01*
X117594832Y-130810101D01*
X118110000Y-130912574D01*
X118625168Y-130810101D01*
X119061907Y-130518281D01*
X119353727Y-130081542D01*
X119380000Y-129949458D01*
X119406273Y-130081542D01*
X119698093Y-130518281D01*
X120134832Y-130810101D01*
X120650000Y-130912574D01*
X121165168Y-130810101D01*
X121601907Y-130518281D01*
X121893727Y-130081542D01*
X121920000Y-129949458D01*
X121946273Y-130081542D01*
X122238093Y-130518281D01*
X122674832Y-130810101D01*
X123190000Y-130912574D01*
X123705168Y-130810101D01*
X124141907Y-130518281D01*
X124433727Y-130081542D01*
X124460000Y-129949458D01*
X124486273Y-130081542D01*
X124778093Y-130518281D01*
X125214832Y-130810101D01*
X125730000Y-130912574D01*
X126245168Y-130810101D01*
X126681907Y-130518281D01*
X126973727Y-130081542D01*
X127000000Y-129949458D01*
X127026273Y-130081542D01*
X127318093Y-130518281D01*
X127754832Y-130810101D01*
X128270000Y-130912574D01*
X128785168Y-130810101D01*
X129221907Y-130518281D01*
X129513727Y-130081542D01*
X129540000Y-129949458D01*
X129566273Y-130081542D01*
X129858093Y-130518281D01*
X130294832Y-130810101D01*
X130810000Y-130912574D01*
X131325168Y-130810101D01*
X131761907Y-130518281D01*
X132053727Y-130081542D01*
X132080000Y-129949458D01*
X132106273Y-130081542D01*
X132398093Y-130518281D01*
X132834832Y-130810101D01*
X133350000Y-130912574D01*
X133865168Y-130810101D01*
X134301907Y-130518281D01*
X134593727Y-130081542D01*
X134620000Y-129949458D01*
X134646273Y-130081542D01*
X134938093Y-130518281D01*
X135374832Y-130810101D01*
X135890000Y-130912574D01*
X136405168Y-130810101D01*
X136841907Y-130518281D01*
X137133727Y-130081542D01*
X137160000Y-129949458D01*
X137186273Y-130081542D01*
X137478093Y-130518281D01*
X137914832Y-130810101D01*
X138430000Y-130912574D01*
X138945168Y-130810101D01*
X139381907Y-130518281D01*
X139673727Y-130081542D01*
X139700000Y-129949458D01*
X139726273Y-130081542D01*
X140018093Y-130518281D01*
X140454832Y-130810101D01*
X140970000Y-130912574D01*
X141485168Y-130810101D01*
X141921907Y-130518281D01*
X142213727Y-130081542D01*
X142240000Y-129949458D01*
X142266273Y-130081542D01*
X142558093Y-130518281D01*
X142994832Y-130810101D01*
X143510000Y-130912574D01*
X144025168Y-130810101D01*
X144461907Y-130518281D01*
X144753727Y-130081542D01*
X144780000Y-129949458D01*
X144806273Y-130081542D01*
X145098093Y-130518281D01*
X145534832Y-130810101D01*
X146050000Y-130912574D01*
X146565168Y-130810101D01*
X147001907Y-130518281D01*
X147293727Y-130081542D01*
X147320000Y-129949458D01*
X147346273Y-130081542D01*
X147638093Y-130518281D01*
X148074832Y-130810101D01*
X148590000Y-130912574D01*
X149105168Y-130810101D01*
X149541907Y-130518281D01*
X149833727Y-130081542D01*
X149860000Y-129949458D01*
X149886273Y-130081542D01*
X150178093Y-130518281D01*
X150614832Y-130810101D01*
X151130000Y-130912574D01*
X151645168Y-130810101D01*
X152081907Y-130518281D01*
X152373727Y-130081542D01*
X152400000Y-129949458D01*
X152426273Y-130081542D01*
X152718093Y-130518281D01*
X153154832Y-130810101D01*
X153670000Y-130912574D01*
X154185168Y-130810101D01*
X154621907Y-130518281D01*
X154913727Y-130081542D01*
X154940000Y-129949458D01*
X154966273Y-130081542D01*
X155258093Y-130518281D01*
X155694832Y-130810101D01*
X156210000Y-130912574D01*
X156725168Y-130810101D01*
X157161907Y-130518281D01*
X157453727Y-130081542D01*
X157480000Y-129949458D01*
X157506273Y-130081542D01*
X157798093Y-130518281D01*
X158234832Y-130810101D01*
X158750000Y-130912574D01*
X159265168Y-130810101D01*
X159701907Y-130518281D01*
X159993727Y-130081542D01*
X160020000Y-129949458D01*
X160046273Y-130081542D01*
X160338093Y-130518281D01*
X160774832Y-130810101D01*
X161290000Y-130912574D01*
X161805168Y-130810101D01*
X162241907Y-130518281D01*
X162533727Y-130081542D01*
X162560000Y-129949458D01*
X162586273Y-130081542D01*
X162878093Y-130518281D01*
X163314832Y-130810101D01*
X163830000Y-130912574D01*
X164345168Y-130810101D01*
X164781907Y-130518281D01*
X165073727Y-130081542D01*
X165100000Y-129949458D01*
X165126273Y-130081542D01*
X165418093Y-130518281D01*
X165854832Y-130810101D01*
X166370000Y-130912574D01*
X166885168Y-130810101D01*
X167321907Y-130518281D01*
X167613727Y-130081542D01*
X167640000Y-129949458D01*
X167666273Y-130081542D01*
X167958093Y-130518281D01*
X168394832Y-130810101D01*
X168910000Y-130912574D01*
X169425168Y-130810101D01*
X169861907Y-130518281D01*
X170153727Y-130081542D01*
X170180000Y-129949458D01*
X170206273Y-130081542D01*
X170498093Y-130518281D01*
X170934832Y-130810101D01*
X171450000Y-130912574D01*
X171965168Y-130810101D01*
X172401907Y-130518281D01*
X172693727Y-130081542D01*
X172720000Y-129949458D01*
X172746273Y-130081542D01*
X173038093Y-130518281D01*
X173474832Y-130810101D01*
X173990000Y-130912574D01*
X174505168Y-130810101D01*
X174941907Y-130518281D01*
X175233727Y-130081542D01*
X175260000Y-129949458D01*
X175286273Y-130081542D01*
X175578093Y-130518281D01*
X176014832Y-130810101D01*
X176530000Y-130912574D01*
X177045168Y-130810101D01*
X177481907Y-130518281D01*
X177773727Y-130081542D01*
X177876200Y-129566374D01*
X177876200Y-139014200D01*
X99136200Y-139014200D01*
X99136200Y-129463800D01*
X96964388Y-129463800D01*
X96964388Y-116235285D01*
X96799676Y-115836652D01*
X96494952Y-115531396D01*
X96120277Y-115375816D01*
X96264099Y-115232246D01*
X96405539Y-114891621D01*
X96405861Y-114522797D01*
X96265015Y-114181926D01*
X96040418Y-113956936D01*
X96264099Y-113733646D01*
X96405539Y-113393021D01*
X96405861Y-113024197D01*
X96265015Y-112683326D01*
X96040420Y-112458338D01*
X96264099Y-112235050D01*
X96405539Y-111894425D01*
X96405861Y-111525601D01*
X96265015Y-111184730D01*
X96027728Y-110947028D01*
X96264105Y-110711065D01*
X96405545Y-110370440D01*
X96405867Y-110001616D01*
X96265021Y-109660745D01*
X96040409Y-109435740D01*
X96264099Y-109212442D01*
X96405539Y-108871817D01*
X96405861Y-108502993D01*
X96265015Y-108162122D01*
X96040420Y-107937134D01*
X96264099Y-107713846D01*
X96405539Y-107373221D01*
X96405861Y-107004397D01*
X96265015Y-106663526D01*
X96040416Y-106438534D01*
X96264099Y-106215242D01*
X96405539Y-105874617D01*
X96405861Y-105505793D01*
X96265015Y-105164922D01*
X96040420Y-104939934D01*
X96264099Y-104716646D01*
X96405539Y-104376021D01*
X96405861Y-104007197D01*
X96265015Y-103666326D01*
X96040418Y-103441336D01*
X96264099Y-103218046D01*
X96405539Y-102877421D01*
X96405861Y-102508597D01*
X96265015Y-102167726D01*
X96040414Y-101942732D01*
X96264099Y-101719438D01*
X96405539Y-101378813D01*
X96405861Y-101009989D01*
X96265015Y-100669118D01*
X96120064Y-100523913D01*
X96493348Y-100369676D01*
X96798604Y-100064952D01*
X96964012Y-99666607D01*
X96964388Y-99235285D01*
X96799676Y-98836652D01*
X96494952Y-98531396D01*
X96096607Y-98365988D01*
X95665285Y-98365612D01*
X95266652Y-98530324D01*
X94961396Y-98835048D01*
X94907261Y-98965419D01*
X94907261Y-98266797D01*
X94766415Y-97925926D01*
X94505846Y-97664901D01*
X94165221Y-97523461D01*
X93796397Y-97523139D01*
X93455526Y-97663985D01*
X93194501Y-97924554D01*
X93053061Y-98265179D01*
X93052739Y-98634003D01*
X93193585Y-98974874D01*
X93454154Y-99235899D01*
X93794779Y-99377339D01*
X94163603Y-99377661D01*
X94504474Y-99236815D01*
X94765499Y-98976246D01*
X94906939Y-98635621D01*
X94907261Y-98266797D01*
X94907261Y-98965419D01*
X94795988Y-99233393D01*
X94795612Y-99664715D01*
X94960324Y-100063348D01*
X95201512Y-100304958D01*
X95033869Y-100374227D01*
X94774821Y-100266661D01*
X94405997Y-100266339D01*
X94144879Y-100374231D01*
X93885821Y-100266661D01*
X93516997Y-100266339D01*
X93176126Y-100407185D01*
X93164388Y-100418902D01*
X93164388Y-99235285D01*
X92999676Y-98836652D01*
X92694952Y-98531396D01*
X92296607Y-98365988D01*
X91865285Y-98365612D01*
X91466652Y-98530324D01*
X91161396Y-98835048D01*
X90995988Y-99233393D01*
X90995612Y-99664715D01*
X91160324Y-100063348D01*
X91465048Y-100368604D01*
X91863393Y-100534012D01*
X92294715Y-100534388D01*
X92693348Y-100369676D01*
X92998604Y-100064952D01*
X93164012Y-99666607D01*
X93164388Y-99235285D01*
X93164388Y-100418902D01*
X92915101Y-100667754D01*
X92773661Y-101008379D01*
X92773339Y-101377203D01*
X92914185Y-101718074D01*
X93138781Y-101943063D01*
X92915101Y-102166354D01*
X92773661Y-102506979D01*
X92773339Y-102875803D01*
X92914185Y-103216674D01*
X93138783Y-103441665D01*
X92915105Y-103664954D01*
X92773665Y-104005579D01*
X92773343Y-104374403D01*
X92914189Y-104715274D01*
X93138783Y-104940261D01*
X92915101Y-105163554D01*
X92773661Y-105504179D01*
X92773339Y-105873003D01*
X92914185Y-106213874D01*
X93138781Y-106438863D01*
X92915101Y-106662154D01*
X92773661Y-107002779D01*
X92773339Y-107371603D01*
X92914185Y-107712474D01*
X93138781Y-107937463D01*
X92915101Y-108160754D01*
X92773661Y-108501379D01*
X92773339Y-108870203D01*
X92914185Y-109211074D01*
X93138784Y-109436066D01*
X92915107Y-109659354D01*
X92773667Y-109999979D01*
X92773345Y-110368803D01*
X92914191Y-110709674D01*
X93151486Y-110947385D01*
X92915101Y-111183358D01*
X92773661Y-111523983D01*
X92773339Y-111892807D01*
X92914185Y-112233678D01*
X93138779Y-112458665D01*
X92915101Y-112681954D01*
X92773661Y-113022579D01*
X92773339Y-113391403D01*
X92914185Y-113732274D01*
X93138781Y-113957263D01*
X92915101Y-114180554D01*
X92773661Y-114521179D01*
X92773339Y-114890003D01*
X92914185Y-115230874D01*
X93174754Y-115491899D01*
X93515379Y-115633339D01*
X93884203Y-115633661D01*
X94145318Y-115525769D01*
X94404375Y-115633339D01*
X94773199Y-115633661D01*
X95034318Y-115525767D01*
X95201623Y-115595238D01*
X94961396Y-115835048D01*
X94795988Y-116233393D01*
X94795612Y-116664715D01*
X94960324Y-117063348D01*
X95265048Y-117368604D01*
X95663393Y-117534012D01*
X96094715Y-117534388D01*
X96493348Y-117369676D01*
X96798604Y-117064952D01*
X96964012Y-116666607D01*
X96964388Y-116235285D01*
X96964388Y-129463800D01*
X94907261Y-129463800D01*
X94907261Y-117265997D01*
X94766415Y-116925126D01*
X94505846Y-116664101D01*
X94165221Y-116522661D01*
X93796397Y-116522339D01*
X93455526Y-116663185D01*
X93194501Y-116923754D01*
X93164388Y-116996274D01*
X93164388Y-116235285D01*
X92999676Y-115836652D01*
X92694952Y-115531396D01*
X92296607Y-115365988D01*
X91865285Y-115365612D01*
X91466652Y-115530324D01*
X91161396Y-115835048D01*
X90995988Y-116233393D01*
X90995612Y-116664715D01*
X91160324Y-117063348D01*
X91465048Y-117368604D01*
X91863393Y-117534012D01*
X92294715Y-117534388D01*
X92693348Y-117369676D01*
X92998604Y-117064952D01*
X93164012Y-116666607D01*
X93164388Y-116235285D01*
X93164388Y-116996274D01*
X93053061Y-117264379D01*
X93052739Y-117633203D01*
X93193585Y-117974074D01*
X93454154Y-118235099D01*
X93794779Y-118376539D01*
X94163603Y-118376861D01*
X94504474Y-118236015D01*
X94765499Y-117975446D01*
X94906939Y-117634821D01*
X94907261Y-117265997D01*
X94907261Y-129463800D01*
X89585800Y-129463800D01*
X89585800Y-86436200D01*
X99136200Y-86436200D01*
X99136200Y-76885800D01*
X180263800Y-76885800D01*
X180263800Y-86436200D01*
X189814200Y-86436200D01*
X189814200Y-129463800D01*
M02*
