G04 #@! TF.FileFunction,Legend,Bot*
%FSLAX46Y46*%
G04 Gerber Fmt 4.6, Leading zero omitted, Abs format (unit mm)*
G04 Created by KiCad (PCBNEW (2015-04-19 BZR 5613)-product) date 6/23/2015 7:30:16 PM*
%MOMM*%
G01*
G04 APERTURE LIST*
%ADD10C,0.100000*%
%ADD11C,0.200000*%
%ADD12C,0.254000*%
%ADD13C,0.150000*%
G04 APERTURE END LIST*
D10*
D11*
X178300000Y-85090000D02*
X178300000Y-76550000D01*
X178300000Y-76550000D02*
X101090000Y-76550000D01*
X101090000Y-76550000D02*
X101090000Y-85140000D01*
D12*
X176971774Y-90990000D02*
G75*
G03X176971774Y-90990000I-451774J0D01*
G01*
D11*
X178308000Y-90170000D02*
X101092000Y-90170000D01*
X101092000Y-90170000D02*
X101092000Y-85090000D01*
X101092000Y-85090000D02*
X178308000Y-85090000D01*
X178308000Y-85090000D02*
X178308000Y-86360000D01*
X178308000Y-86340000D02*
X178308000Y-88880000D01*
X178308000Y-88900000D02*
X178308000Y-90170000D01*
D13*
X95880000Y-99250000D02*
X92080000Y-99250000D01*
X92080000Y-99250000D02*
X92080000Y-116650000D01*
X92080000Y-116650000D02*
X95880000Y-116650000D01*
X95880000Y-116650000D02*
X95880000Y-99250000D01*
X97373852Y-100690000D02*
G75*
G03X97373852Y-100690000I-53852J0D01*
G01*
X187320000Y-99250000D02*
X183520000Y-99250000D01*
X183520000Y-99250000D02*
X183520000Y-116650000D01*
X183520000Y-116650000D02*
X187320000Y-116650000D01*
X187320000Y-116650000D02*
X187320000Y-99250000D01*
X188813852Y-100690000D02*
G75*
G03X188813852Y-100690000I-53852J0D01*
G01*
D11*
X140595714Y-91982857D02*
X140595714Y-90782857D01*
X140138571Y-90782857D01*
X140024285Y-90840000D01*
X139967142Y-90897143D01*
X139909999Y-91011429D01*
X139909999Y-91182857D01*
X139967142Y-91297143D01*
X140024285Y-91354286D01*
X140138571Y-91411429D01*
X140595714Y-91411429D01*
X139509999Y-90782857D02*
X138709999Y-90782857D01*
X139224285Y-91982857D01*
X94865714Y-97492857D02*
X94865714Y-96292857D01*
X94408571Y-96292857D01*
X94294285Y-96350000D01*
X94237142Y-96407143D01*
X94179999Y-96521429D01*
X94179999Y-96692857D01*
X94237142Y-96807143D01*
X94294285Y-96864286D01*
X94408571Y-96921429D01*
X94865714Y-96921429D01*
X93779999Y-96292857D02*
X93037142Y-96292857D01*
X93437142Y-96750000D01*
X93265714Y-96750000D01*
X93151428Y-96807143D01*
X93094285Y-96864286D01*
X93037142Y-96978571D01*
X93037142Y-97264286D01*
X93094285Y-97378571D01*
X93151428Y-97435714D01*
X93265714Y-97492857D01*
X93608571Y-97492857D01*
X93722857Y-97435714D01*
X93779999Y-97378571D01*
D13*
X94432381Y-105330952D02*
X93432381Y-105330952D01*
X93908571Y-105330952D02*
X93908571Y-105902381D01*
X94432381Y-105902381D02*
X93432381Y-105902381D01*
X93908571Y-106378571D02*
X93908571Y-106711905D01*
X94432381Y-106854762D02*
X94432381Y-106378571D01*
X93432381Y-106378571D01*
X93432381Y-106854762D01*
X94146667Y-107235714D02*
X94146667Y-107711905D01*
X94432381Y-107140476D02*
X93432381Y-107473809D01*
X94432381Y-107807143D01*
X94432381Y-108140476D02*
X93432381Y-108140476D01*
X93432381Y-108378571D01*
X93480000Y-108521429D01*
X93575238Y-108616667D01*
X93670476Y-108664286D01*
X93860952Y-108711905D01*
X94003810Y-108711905D01*
X94194286Y-108664286D01*
X94289524Y-108616667D01*
X94384762Y-108521429D01*
X94432381Y-108378571D01*
X94432381Y-108140476D01*
X93908571Y-109140476D02*
X93908571Y-109473810D01*
X94432381Y-109616667D02*
X94432381Y-109140476D01*
X93432381Y-109140476D01*
X93432381Y-109616667D01*
X94432381Y-110616667D02*
X93956190Y-110283333D01*
X94432381Y-110045238D02*
X93432381Y-110045238D01*
X93432381Y-110426191D01*
X93480000Y-110521429D01*
X93527619Y-110569048D01*
X93622857Y-110616667D01*
X93765714Y-110616667D01*
X93860952Y-110569048D01*
X93908571Y-110521429D01*
X93956190Y-110426191D01*
X93956190Y-110045238D01*
D11*
X186305714Y-97492857D02*
X186305714Y-96292857D01*
X185848571Y-96292857D01*
X185734285Y-96350000D01*
X185677142Y-96407143D01*
X185619999Y-96521429D01*
X185619999Y-96692857D01*
X185677142Y-96807143D01*
X185734285Y-96864286D01*
X185848571Y-96921429D01*
X186305714Y-96921429D01*
X184591428Y-96692857D02*
X184591428Y-97492857D01*
X184877142Y-96235714D02*
X185162857Y-97092857D01*
X184419999Y-97092857D01*
D13*
X185872381Y-105330952D02*
X184872381Y-105330952D01*
X185348571Y-105330952D02*
X185348571Y-105902381D01*
X185872381Y-105902381D02*
X184872381Y-105902381D01*
X185348571Y-106378571D02*
X185348571Y-106711905D01*
X185872381Y-106854762D02*
X185872381Y-106378571D01*
X184872381Y-106378571D01*
X184872381Y-106854762D01*
X185586667Y-107235714D02*
X185586667Y-107711905D01*
X185872381Y-107140476D02*
X184872381Y-107473809D01*
X185872381Y-107807143D01*
X185872381Y-108140476D02*
X184872381Y-108140476D01*
X184872381Y-108378571D01*
X184920000Y-108521429D01*
X185015238Y-108616667D01*
X185110476Y-108664286D01*
X185300952Y-108711905D01*
X185443810Y-108711905D01*
X185634286Y-108664286D01*
X185729524Y-108616667D01*
X185824762Y-108521429D01*
X185872381Y-108378571D01*
X185872381Y-108140476D01*
X185348571Y-109140476D02*
X185348571Y-109473810D01*
X185872381Y-109616667D02*
X185872381Y-109140476D01*
X184872381Y-109140476D01*
X184872381Y-109616667D01*
X185872381Y-110616667D02*
X185396190Y-110283333D01*
X185872381Y-110045238D02*
X184872381Y-110045238D01*
X184872381Y-110426191D01*
X184920000Y-110521429D01*
X184967619Y-110569048D01*
X185062857Y-110616667D01*
X185205714Y-110616667D01*
X185300952Y-110569048D01*
X185348571Y-110521429D01*
X185396190Y-110426191D01*
X185396190Y-110045238D01*
M02*
