G04 #@! TF.FileFunction,Paste,Top*
%FSLAX46Y46*%
G04 Gerber Fmt 4.6, Leading zero omitted, Abs format (unit mm)*
G04 Created by KiCad (PCBNEW (2015-04-19 BZR 5613)-product) date 6/23/2015 7:30:16 PM*
%MOMM*%
G01*
G04 APERTURE LIST*
%ADD10C,0.100000*%
%ADD11R,2.100000X1.400000*%
%ADD12R,1.000000X0.250000*%
G04 APERTURE END LIST*
D10*
D11*
X185420000Y-117450000D03*
D12*
X182770000Y-100700000D03*
X182770000Y-101200000D03*
X182770000Y-101700000D03*
X182770000Y-102200000D03*
X182770000Y-102700000D03*
X182770000Y-103200000D03*
X182770000Y-103700000D03*
X182770000Y-104200000D03*
X182770000Y-104700000D03*
X182770000Y-105200000D03*
X182770000Y-105700000D03*
X182770000Y-106200000D03*
X182770000Y-106700000D03*
X182770000Y-107200000D03*
X182770000Y-107700000D03*
X182770000Y-108200000D03*
X182770000Y-108700000D03*
X182770000Y-109200000D03*
X182770000Y-109700000D03*
X182770000Y-110200000D03*
X182770000Y-110700000D03*
X182770000Y-111200000D03*
X182770000Y-111700000D03*
X182770000Y-112200000D03*
X182770000Y-112700000D03*
X182770000Y-113200000D03*
X182770000Y-113700000D03*
X182770000Y-114200000D03*
X182770000Y-114700000D03*
X182770000Y-115200000D03*
X188070000Y-100700000D03*
X188070000Y-101200000D03*
X188070000Y-101700000D03*
X188070000Y-102200000D03*
X188070000Y-102700000D03*
X188070000Y-103200000D03*
X188070000Y-103700000D03*
X188070000Y-104200000D03*
X188070000Y-104700000D03*
X188070000Y-105200000D03*
X188070000Y-105700000D03*
X188070000Y-106200000D03*
X188070000Y-106700000D03*
X188070000Y-107200000D03*
X188070000Y-107700000D03*
X188070000Y-108200000D03*
X188070000Y-108700000D03*
X188070000Y-109200000D03*
X188070000Y-109700000D03*
X188070000Y-110200000D03*
X188070000Y-110700000D03*
X188070000Y-111200000D03*
X188070000Y-111700000D03*
X188070000Y-112200000D03*
X188070000Y-112700000D03*
X188070000Y-113200000D03*
X188070000Y-113700000D03*
X188070000Y-114200000D03*
X188070000Y-114700000D03*
X188070000Y-115200000D03*
D11*
X185420000Y-98450000D03*
X93980000Y-117450000D03*
D12*
X91330000Y-100700000D03*
X91330000Y-101200000D03*
X91330000Y-101700000D03*
X91330000Y-102200000D03*
X91330000Y-102700000D03*
X91330000Y-103200000D03*
X91330000Y-103700000D03*
X91330000Y-104200000D03*
X91330000Y-104700000D03*
X91330000Y-105200000D03*
X91330000Y-105700000D03*
X91330000Y-106200000D03*
X91330000Y-106700000D03*
X91330000Y-107200000D03*
X91330000Y-107700000D03*
X91330000Y-108200000D03*
X91330000Y-108700000D03*
X91330000Y-109200000D03*
X91330000Y-109700000D03*
X91330000Y-110200000D03*
X91330000Y-110700000D03*
X91330000Y-111200000D03*
X91330000Y-111700000D03*
X91330000Y-112200000D03*
X91330000Y-112700000D03*
X91330000Y-113200000D03*
X91330000Y-113700000D03*
X91330000Y-114200000D03*
X91330000Y-114700000D03*
X91330000Y-115200000D03*
X96630000Y-100700000D03*
X96630000Y-101200000D03*
X96630000Y-101700000D03*
X96630000Y-102200000D03*
X96630000Y-102700000D03*
X96630000Y-103200000D03*
X96630000Y-103700000D03*
X96630000Y-104200000D03*
X96630000Y-104700000D03*
X96630000Y-105200000D03*
X96630000Y-105700000D03*
X96630000Y-106200000D03*
X96630000Y-106700000D03*
X96630000Y-107200000D03*
X96630000Y-107700000D03*
X96630000Y-108200000D03*
X96630000Y-108700000D03*
X96630000Y-109200000D03*
X96630000Y-109700000D03*
X96630000Y-110200000D03*
X96630000Y-110700000D03*
X96630000Y-111200000D03*
X96630000Y-111700000D03*
X96630000Y-112200000D03*
X96630000Y-112700000D03*
X96630000Y-113200000D03*
X96630000Y-113700000D03*
X96630000Y-114200000D03*
X96630000Y-114700000D03*
X96630000Y-115200000D03*
D11*
X93980000Y-98450000D03*
M02*
