G04 #@! TF.FileFunction,Legend,Top*
%FSLAX46Y46*%
G04 Gerber Fmt 4.6, Leading zero omitted, Abs format (unit mm)*
G04 Created by KiCad (PCBNEW (2015-04-19 BZR 5613)-product) date 6/23/2015 7:30:16 PM*
%MOMM*%
G01*
G04 APERTURE LIST*
%ADD10C,0.100000*%
%ADD11C,0.152400*%
%ADD12C,0.200000*%
%ADD13C,0.254000*%
%ADD14C,0.150000*%
G04 APERTURE END LIST*
D10*
D11*
X107108571Y-119819981D02*
X107299048Y-119819981D01*
X107394286Y-119867600D01*
X107489524Y-119962838D01*
X107537143Y-120153314D01*
X107537143Y-120486648D01*
X107489524Y-120677124D01*
X107394286Y-120772362D01*
X107299048Y-120819981D01*
X107108571Y-120819981D01*
X107013333Y-120772362D01*
X106918095Y-120677124D01*
X106870476Y-120486648D01*
X106870476Y-120153314D01*
X106918095Y-119962838D01*
X107013333Y-119867600D01*
X107108571Y-119819981D01*
X107965714Y-120153314D02*
X107965714Y-121153314D01*
X107965714Y-120200933D02*
X108060952Y-120153314D01*
X108251429Y-120153314D01*
X108346667Y-120200933D01*
X108394286Y-120248552D01*
X108441905Y-120343790D01*
X108441905Y-120629505D01*
X108394286Y-120724743D01*
X108346667Y-120772362D01*
X108251429Y-120819981D01*
X108060952Y-120819981D01*
X107965714Y-120772362D01*
X109251429Y-120772362D02*
X109156191Y-120819981D01*
X108965714Y-120819981D01*
X108870476Y-120772362D01*
X108822857Y-120677124D01*
X108822857Y-120296171D01*
X108870476Y-120200933D01*
X108965714Y-120153314D01*
X109156191Y-120153314D01*
X109251429Y-120200933D01*
X109299048Y-120296171D01*
X109299048Y-120391410D01*
X108822857Y-120486648D01*
X109727619Y-120153314D02*
X109727619Y-120819981D01*
X109727619Y-120248552D02*
X109775238Y-120200933D01*
X109870476Y-120153314D01*
X110013334Y-120153314D01*
X110108572Y-120200933D01*
X110156191Y-120296171D01*
X110156191Y-120819981D01*
X111965715Y-120724743D02*
X111918096Y-120772362D01*
X111775239Y-120819981D01*
X111680001Y-120819981D01*
X111537143Y-120772362D01*
X111441905Y-120677124D01*
X111394286Y-120581886D01*
X111346667Y-120391410D01*
X111346667Y-120248552D01*
X111394286Y-120058076D01*
X111441905Y-119962838D01*
X111537143Y-119867600D01*
X111680001Y-119819981D01*
X111775239Y-119819981D01*
X111918096Y-119867600D01*
X111965715Y-119915219D01*
X112822858Y-120819981D02*
X112822858Y-120296171D01*
X112775239Y-120200933D01*
X112680001Y-120153314D01*
X112489524Y-120153314D01*
X112394286Y-120200933D01*
X112822858Y-120772362D02*
X112727620Y-120819981D01*
X112489524Y-120819981D01*
X112394286Y-120772362D01*
X112346667Y-120677124D01*
X112346667Y-120581886D01*
X112394286Y-120486648D01*
X112489524Y-120439029D01*
X112727620Y-120439029D01*
X112822858Y-120391410D01*
X113299048Y-120819981D02*
X113299048Y-120153314D01*
X113299048Y-120248552D02*
X113346667Y-120200933D01*
X113441905Y-120153314D01*
X113584763Y-120153314D01*
X113680001Y-120200933D01*
X113727620Y-120296171D01*
X113727620Y-120819981D01*
X113727620Y-120296171D02*
X113775239Y-120200933D01*
X113870477Y-120153314D01*
X114013334Y-120153314D01*
X114108572Y-120200933D01*
X114156191Y-120296171D01*
X114156191Y-120819981D01*
X115013334Y-120772362D02*
X114918096Y-120819981D01*
X114727619Y-120819981D01*
X114632381Y-120772362D01*
X114584762Y-120677124D01*
X114584762Y-120296171D01*
X114632381Y-120200933D01*
X114727619Y-120153314D01*
X114918096Y-120153314D01*
X115013334Y-120200933D01*
X115060953Y-120296171D01*
X115060953Y-120391410D01*
X114584762Y-120486648D01*
X115489524Y-120819981D02*
X115489524Y-120153314D01*
X115489524Y-120343790D02*
X115537143Y-120248552D01*
X115584762Y-120200933D01*
X115680000Y-120153314D01*
X115775239Y-120153314D01*
X116537144Y-120819981D02*
X116537144Y-120296171D01*
X116489525Y-120200933D01*
X116394287Y-120153314D01*
X116203810Y-120153314D01*
X116108572Y-120200933D01*
X116537144Y-120772362D02*
X116441906Y-120819981D01*
X116203810Y-120819981D01*
X116108572Y-120772362D01*
X116060953Y-120677124D01*
X116060953Y-120581886D01*
X116108572Y-120486648D01*
X116203810Y-120439029D01*
X116441906Y-120439029D01*
X116537144Y-120391410D01*
X117775239Y-120819981D02*
X117775239Y-119819981D01*
X118156192Y-119819981D01*
X118251430Y-119867600D01*
X118299049Y-119915219D01*
X118346668Y-120010457D01*
X118346668Y-120153314D01*
X118299049Y-120248552D01*
X118251430Y-120296171D01*
X118156192Y-120343790D01*
X117775239Y-120343790D01*
X118775239Y-120819981D02*
X118775239Y-120153314D01*
X118775239Y-120343790D02*
X118822858Y-120248552D01*
X118870477Y-120200933D01*
X118965715Y-120153314D01*
X119060954Y-120153314D01*
X119537144Y-120819981D02*
X119441906Y-120772362D01*
X119394287Y-120724743D01*
X119346668Y-120629505D01*
X119346668Y-120343790D01*
X119394287Y-120248552D01*
X119441906Y-120200933D01*
X119537144Y-120153314D01*
X119680002Y-120153314D01*
X119775240Y-120200933D01*
X119822859Y-120248552D01*
X119870478Y-120343790D01*
X119870478Y-120629505D01*
X119822859Y-120724743D01*
X119775240Y-120772362D01*
X119680002Y-120819981D01*
X119537144Y-120819981D01*
X120299049Y-120153314D02*
X120299049Y-121010457D01*
X120251430Y-121105695D01*
X120156192Y-121153314D01*
X120108573Y-121153314D01*
X120299049Y-119819981D02*
X120251430Y-119867600D01*
X120299049Y-119915219D01*
X120346668Y-119867600D01*
X120299049Y-119819981D01*
X120299049Y-119915219D01*
X121156192Y-120772362D02*
X121060954Y-120819981D01*
X120870477Y-120819981D01*
X120775239Y-120772362D01*
X120727620Y-120677124D01*
X120727620Y-120296171D01*
X120775239Y-120200933D01*
X120870477Y-120153314D01*
X121060954Y-120153314D01*
X121156192Y-120200933D01*
X121203811Y-120296171D01*
X121203811Y-120391410D01*
X120727620Y-120486648D01*
X122060954Y-120772362D02*
X121965716Y-120819981D01*
X121775239Y-120819981D01*
X121680001Y-120772362D01*
X121632382Y-120724743D01*
X121584763Y-120629505D01*
X121584763Y-120343790D01*
X121632382Y-120248552D01*
X121680001Y-120200933D01*
X121775239Y-120153314D01*
X121965716Y-120153314D01*
X122060954Y-120200933D01*
X122346668Y-120153314D02*
X122727620Y-120153314D01*
X122489525Y-119819981D02*
X122489525Y-120677124D01*
X122537144Y-120772362D01*
X122632382Y-120819981D01*
X122727620Y-120819981D01*
X106918095Y-122372381D02*
X106918095Y-121372381D01*
X107156190Y-121372381D01*
X107299048Y-121420000D01*
X107394286Y-121515238D01*
X107441905Y-121610476D01*
X107489524Y-121800952D01*
X107489524Y-121943810D01*
X107441905Y-122134286D01*
X107394286Y-122229524D01*
X107299048Y-122324762D01*
X107156190Y-122372381D01*
X106918095Y-122372381D01*
X108299048Y-122324762D02*
X108203810Y-122372381D01*
X108013333Y-122372381D01*
X107918095Y-122324762D01*
X107870476Y-122229524D01*
X107870476Y-121848571D01*
X107918095Y-121753333D01*
X108013333Y-121705714D01*
X108203810Y-121705714D01*
X108299048Y-121753333D01*
X108346667Y-121848571D01*
X108346667Y-121943810D01*
X107870476Y-122039048D01*
X108775238Y-122372381D02*
X108775238Y-121372381D01*
X108775238Y-121753333D02*
X108870476Y-121705714D01*
X109060953Y-121705714D01*
X109156191Y-121753333D01*
X109203810Y-121800952D01*
X109251429Y-121896190D01*
X109251429Y-122181905D01*
X109203810Y-122277143D01*
X109156191Y-122324762D01*
X109060953Y-122372381D01*
X108870476Y-122372381D01*
X108775238Y-122324762D01*
X110108572Y-121705714D02*
X110108572Y-122372381D01*
X109680000Y-121705714D02*
X109680000Y-122229524D01*
X109727619Y-122324762D01*
X109822857Y-122372381D01*
X109965715Y-122372381D01*
X110060953Y-122324762D01*
X110108572Y-122277143D01*
X111013334Y-121705714D02*
X111013334Y-122515238D01*
X110965715Y-122610476D01*
X110918096Y-122658095D01*
X110822857Y-122705714D01*
X110680000Y-122705714D01*
X110584762Y-122658095D01*
X111013334Y-122324762D02*
X110918096Y-122372381D01*
X110727619Y-122372381D01*
X110632381Y-122324762D01*
X110584762Y-122277143D01*
X110537143Y-122181905D01*
X110537143Y-121896190D01*
X110584762Y-121800952D01*
X110632381Y-121753333D01*
X110727619Y-121705714D01*
X110918096Y-121705714D01*
X111013334Y-121753333D01*
X112584763Y-121848571D02*
X112727620Y-121896190D01*
X112775239Y-121943810D01*
X112822858Y-122039048D01*
X112822858Y-122181905D01*
X112775239Y-122277143D01*
X112727620Y-122324762D01*
X112632382Y-122372381D01*
X112251429Y-122372381D01*
X112251429Y-121372381D01*
X112584763Y-121372381D01*
X112680001Y-121420000D01*
X112727620Y-121467619D01*
X112775239Y-121562857D01*
X112775239Y-121658095D01*
X112727620Y-121753333D01*
X112680001Y-121800952D01*
X112584763Y-121848571D01*
X112251429Y-121848571D01*
X113394286Y-122372381D02*
X113299048Y-122324762D01*
X113251429Y-122277143D01*
X113203810Y-122181905D01*
X113203810Y-121896190D01*
X113251429Y-121800952D01*
X113299048Y-121753333D01*
X113394286Y-121705714D01*
X113537144Y-121705714D01*
X113632382Y-121753333D01*
X113680001Y-121800952D01*
X113727620Y-121896190D01*
X113727620Y-122181905D01*
X113680001Y-122277143D01*
X113632382Y-122324762D01*
X113537144Y-122372381D01*
X113394286Y-122372381D01*
X114584763Y-122372381D02*
X114584763Y-121848571D01*
X114537144Y-121753333D01*
X114441906Y-121705714D01*
X114251429Y-121705714D01*
X114156191Y-121753333D01*
X114584763Y-122324762D02*
X114489525Y-122372381D01*
X114251429Y-122372381D01*
X114156191Y-122324762D01*
X114108572Y-122229524D01*
X114108572Y-122134286D01*
X114156191Y-122039048D01*
X114251429Y-121991429D01*
X114489525Y-121991429D01*
X114584763Y-121943810D01*
X115060953Y-122372381D02*
X115060953Y-121705714D01*
X115060953Y-121896190D02*
X115108572Y-121800952D01*
X115156191Y-121753333D01*
X115251429Y-121705714D01*
X115346668Y-121705714D01*
X116108573Y-122372381D02*
X116108573Y-121372381D01*
X116108573Y-122324762D02*
X116013335Y-122372381D01*
X115822858Y-122372381D01*
X115727620Y-122324762D01*
X115680001Y-122277143D01*
X115632382Y-122181905D01*
X115632382Y-121896190D01*
X115680001Y-121800952D01*
X115727620Y-121753333D01*
X115822858Y-121705714D01*
X116013335Y-121705714D01*
X116108573Y-121753333D01*
X117251430Y-121705714D02*
X117489525Y-122372381D01*
X117727621Y-121705714D01*
X118632383Y-122372381D02*
X118060954Y-122372381D01*
X118346668Y-122372381D02*
X118346668Y-121372381D01*
X118251430Y-121515238D01*
X118156192Y-121610476D01*
X118060954Y-121658095D01*
X119060954Y-122277143D02*
X119108573Y-122324762D01*
X119060954Y-122372381D01*
X119013335Y-122324762D01*
X119060954Y-122277143D01*
X119060954Y-122372381D01*
X119727620Y-121372381D02*
X119822859Y-121372381D01*
X119918097Y-121420000D01*
X119965716Y-121467619D01*
X120013335Y-121562857D01*
X120060954Y-121753333D01*
X120060954Y-121991429D01*
X120013335Y-122181905D01*
X119965716Y-122277143D01*
X119918097Y-122324762D01*
X119822859Y-122372381D01*
X119727620Y-122372381D01*
X119632382Y-122324762D01*
X119584763Y-122277143D01*
X119537144Y-122181905D01*
X119489525Y-121991429D01*
X119489525Y-121753333D01*
X119537144Y-121562857D01*
X119584763Y-121467619D01*
X119632382Y-121420000D01*
X119727620Y-121372381D01*
X107251429Y-123400971D02*
X107394286Y-123448590D01*
X107441905Y-123496210D01*
X107489524Y-123591448D01*
X107489524Y-123734305D01*
X107441905Y-123829543D01*
X107394286Y-123877162D01*
X107299048Y-123924781D01*
X106918095Y-123924781D01*
X106918095Y-122924781D01*
X107251429Y-122924781D01*
X107346667Y-122972400D01*
X107394286Y-123020019D01*
X107441905Y-123115257D01*
X107441905Y-123210495D01*
X107394286Y-123305733D01*
X107346667Y-123353352D01*
X107251429Y-123400971D01*
X106918095Y-123400971D01*
X107918095Y-123924781D02*
X107918095Y-123258114D01*
X107918095Y-123448590D02*
X107965714Y-123353352D01*
X108013333Y-123305733D01*
X108108571Y-123258114D01*
X108203810Y-123258114D01*
X108537143Y-123924781D02*
X108537143Y-123258114D01*
X108537143Y-122924781D02*
X108489524Y-122972400D01*
X108537143Y-123020019D01*
X108584762Y-122972400D01*
X108537143Y-122924781D01*
X108537143Y-123020019D01*
X109441905Y-123924781D02*
X109441905Y-123400971D01*
X109394286Y-123305733D01*
X109299048Y-123258114D01*
X109108571Y-123258114D01*
X109013333Y-123305733D01*
X109441905Y-123877162D02*
X109346667Y-123924781D01*
X109108571Y-123924781D01*
X109013333Y-123877162D01*
X108965714Y-123781924D01*
X108965714Y-123686686D01*
X109013333Y-123591448D01*
X109108571Y-123543829D01*
X109346667Y-123543829D01*
X109441905Y-123496210D01*
X109918095Y-123258114D02*
X109918095Y-123924781D01*
X109918095Y-123353352D02*
X109965714Y-123305733D01*
X110060952Y-123258114D01*
X110203810Y-123258114D01*
X110299048Y-123305733D01*
X110346667Y-123400971D01*
X110346667Y-123924781D01*
X111537143Y-123877162D02*
X111680000Y-123924781D01*
X111918096Y-123924781D01*
X112013334Y-123877162D01*
X112060953Y-123829543D01*
X112108572Y-123734305D01*
X112108572Y-123639067D01*
X112060953Y-123543829D01*
X112013334Y-123496210D01*
X111918096Y-123448590D01*
X111727619Y-123400971D01*
X111632381Y-123353352D01*
X111584762Y-123305733D01*
X111537143Y-123210495D01*
X111537143Y-123115257D01*
X111584762Y-123020019D01*
X111632381Y-122972400D01*
X111727619Y-122924781D01*
X111965715Y-122924781D01*
X112108572Y-122972400D01*
X112965715Y-123877162D02*
X112870477Y-123924781D01*
X112680000Y-123924781D01*
X112584762Y-123877162D01*
X112537143Y-123829543D01*
X112489524Y-123734305D01*
X112489524Y-123448590D01*
X112537143Y-123353352D01*
X112584762Y-123305733D01*
X112680000Y-123258114D01*
X112870477Y-123258114D01*
X112965715Y-123305733D01*
X113394286Y-123924781D02*
X113394286Y-122924781D01*
X113822858Y-123924781D02*
X113822858Y-123400971D01*
X113775239Y-123305733D01*
X113680001Y-123258114D01*
X113537143Y-123258114D01*
X113441905Y-123305733D01*
X113394286Y-123353352D01*
X114299048Y-123924781D02*
X114299048Y-123258114D01*
X114299048Y-122924781D02*
X114251429Y-122972400D01*
X114299048Y-123020019D01*
X114346667Y-122972400D01*
X114299048Y-122924781D01*
X114299048Y-123020019D01*
X114632381Y-123258114D02*
X115013333Y-123258114D01*
X114775238Y-123924781D02*
X114775238Y-123067638D01*
X114822857Y-122972400D01*
X114918095Y-122924781D01*
X115013333Y-122924781D01*
X115203810Y-123258114D02*
X115584762Y-123258114D01*
X115346667Y-123924781D02*
X115346667Y-123067638D01*
X115394286Y-122972400D01*
X115489524Y-122924781D01*
X115584762Y-122924781D01*
X116299049Y-123877162D02*
X116203811Y-123924781D01*
X116013334Y-123924781D01*
X115918096Y-123877162D01*
X115870477Y-123781924D01*
X115870477Y-123400971D01*
X115918096Y-123305733D01*
X116013334Y-123258114D01*
X116203811Y-123258114D01*
X116299049Y-123305733D01*
X116346668Y-123400971D01*
X116346668Y-123496210D01*
X115870477Y-123591448D01*
X116775239Y-123924781D02*
X116775239Y-123258114D01*
X116775239Y-123448590D02*
X116822858Y-123353352D01*
X116870477Y-123305733D01*
X116965715Y-123258114D01*
X117060954Y-123258114D01*
D10*
G36*
X105789555Y-122396100D02*
X105780354Y-122474634D01*
X105754819Y-122527121D01*
X105706363Y-122561309D01*
X105628402Y-122584949D01*
X105514349Y-122605790D01*
X105359200Y-122631312D01*
X105237677Y-122653158D01*
X105134825Y-122673670D01*
X105060770Y-122690684D01*
X105025638Y-122702036D01*
X105024588Y-122702841D01*
X105007074Y-122734497D01*
X104977083Y-122801836D01*
X104939361Y-122892748D01*
X104898654Y-122995124D01*
X104859706Y-123096854D01*
X104827262Y-123185830D01*
X104806069Y-123249943D01*
X104800400Y-123274952D01*
X104814187Y-123306828D01*
X104852062Y-123371764D01*
X104908796Y-123461336D01*
X104979159Y-123567118D01*
X105006856Y-123607599D01*
X105213313Y-123907116D01*
X104920809Y-124199619D01*
X104628306Y-124492123D01*
X104321472Y-124281586D01*
X104014638Y-124071048D01*
X103864432Y-124151107D01*
X103778029Y-124193881D01*
X103724670Y-124210928D01*
X103695191Y-124204793D01*
X103690168Y-124199533D01*
X103671609Y-124164407D01*
X103638084Y-124090568D01*
X103592754Y-123985783D01*
X103538776Y-123857820D01*
X103479308Y-123714447D01*
X103417509Y-123563431D01*
X103356538Y-123412538D01*
X103299553Y-123269538D01*
X103249713Y-123142196D01*
X103210175Y-123038281D01*
X103184098Y-122965560D01*
X103174641Y-122931801D01*
X103174641Y-122931721D01*
X103194796Y-122892177D01*
X103244626Y-122846929D01*
X103260619Y-122836303D01*
X103412238Y-122715275D01*
X103529737Y-122565108D01*
X103609813Y-122394467D01*
X103649163Y-122212019D01*
X103644485Y-122026431D01*
X103615353Y-121905474D01*
X103528139Y-121716864D01*
X103407186Y-121565527D01*
X103255373Y-121453527D01*
X103075580Y-121382930D01*
X102870685Y-121355798D01*
X102848220Y-121355555D01*
X102737644Y-121359016D01*
X102652435Y-121373428D01*
X102567459Y-121404835D01*
X102493165Y-121440927D01*
X102327444Y-121552177D01*
X102198800Y-121694963D01*
X102110664Y-121863083D01*
X102066471Y-122050330D01*
X102065451Y-122214031D01*
X102094783Y-122372616D01*
X102154620Y-122515336D01*
X102250111Y-122650089D01*
X102386402Y-122784772D01*
X102494693Y-122872500D01*
X102561199Y-122923300D01*
X102323022Y-123494800D01*
X102254489Y-123658811D01*
X102190378Y-123811435D01*
X102133930Y-123945016D01*
X102088389Y-124051898D01*
X102056997Y-124124426D01*
X102045813Y-124149311D01*
X102006781Y-124232323D01*
X101850500Y-124153433D01*
X101694219Y-124074543D01*
X101393957Y-124279971D01*
X101286491Y-124353152D01*
X101194958Y-124414831D01*
X101127007Y-124459905D01*
X101090285Y-124483272D01*
X101086082Y-124485400D01*
X101066531Y-124468365D01*
X101017383Y-124421280D01*
X100944805Y-124350170D01*
X100854965Y-124261061D01*
X100789578Y-124195685D01*
X100500686Y-123905971D01*
X100695565Y-123624119D01*
X100768737Y-123517079D01*
X100831660Y-123422758D01*
X100878447Y-123350146D01*
X100903212Y-123308232D01*
X100905077Y-123304136D01*
X100900939Y-123270045D01*
X100881712Y-123200702D01*
X100851628Y-123107836D01*
X100814920Y-123003176D01*
X100775821Y-122898452D01*
X100738563Y-122805394D01*
X100707378Y-122735731D01*
X100688101Y-122702841D01*
X100658597Y-122692250D01*
X100588984Y-122675765D01*
X100489310Y-122655547D01*
X100369622Y-122633757D01*
X100355400Y-122631312D01*
X100199534Y-122605631D01*
X100086196Y-122584799D01*
X100008678Y-122561152D01*
X99960270Y-122527024D01*
X99934266Y-122474753D01*
X99923958Y-122396673D01*
X99922638Y-122285120D01*
X99923600Y-122137943D01*
X99924769Y-122002062D01*
X99927995Y-121885021D01*
X99932854Y-121795810D01*
X99938923Y-121743424D01*
X99942650Y-121733549D01*
X99973175Y-121725002D01*
X100044357Y-121709320D01*
X100146869Y-121688435D01*
X100271383Y-121664282D01*
X100330000Y-121653255D01*
X100461232Y-121627132D01*
X100574426Y-121601458D01*
X100660245Y-121578594D01*
X100709352Y-121560899D01*
X100716863Y-121555454D01*
X100733992Y-121521053D01*
X100765743Y-121450910D01*
X100807156Y-121356160D01*
X100841678Y-121275391D01*
X100895273Y-121140561D01*
X100923773Y-121048134D01*
X100927619Y-120996597D01*
X100924714Y-120989826D01*
X100902433Y-120957009D01*
X100857393Y-120890995D01*
X100795545Y-120800496D01*
X100722841Y-120694223D01*
X100700188Y-120661131D01*
X100498876Y-120367093D01*
X100789778Y-120076191D01*
X101080680Y-119785289D01*
X101415057Y-120014856D01*
X101749434Y-120244422D01*
X102011267Y-120137183D01*
X102117795Y-120092390D01*
X102206040Y-120053097D01*
X102265848Y-120023967D01*
X102286725Y-120010700D01*
X102295920Y-119980203D01*
X102312255Y-119908867D01*
X102333787Y-119805836D01*
X102358570Y-119680252D01*
X102372012Y-119609527D01*
X102443672Y-119227600D01*
X102856551Y-119227600D01*
X103269430Y-119227600D01*
X103338619Y-119602250D01*
X103363161Y-119734796D01*
X103384555Y-119849694D01*
X103401057Y-119937635D01*
X103410927Y-119989308D01*
X103412779Y-119998425D01*
X103436884Y-120016035D01*
X103498682Y-120047770D01*
X103588641Y-120089030D01*
X103690373Y-120132393D01*
X103962996Y-120244835D01*
X104298056Y-120014925D01*
X104633117Y-119785016D01*
X104920276Y-120071360D01*
X105017015Y-120169978D01*
X105098576Y-120257255D01*
X105159089Y-120326572D01*
X105192684Y-120371309D01*
X105197392Y-120383879D01*
X105179950Y-120413249D01*
X105138923Y-120475995D01*
X105079828Y-120563857D01*
X105008181Y-120668572D01*
X104981174Y-120707655D01*
X104907289Y-120815852D01*
X104845129Y-120909831D01*
X104799914Y-120981467D01*
X104776865Y-121022638D01*
X104775000Y-121028446D01*
X104784457Y-121059902D01*
X104810109Y-121127530D01*
X104847875Y-121220922D01*
X104887125Y-121314367D01*
X104999250Y-121577100D01*
X105287175Y-121633618D01*
X105413519Y-121658404D01*
X105531917Y-121681603D01*
X105627356Y-121700277D01*
X105676700Y-121709905D01*
X105778300Y-121729674D01*
X105785296Y-122129887D01*
X105789007Y-122283767D01*
X105789555Y-122396100D01*
X105789555Y-122396100D01*
X105789555Y-122396100D01*
G37*
X105789555Y-122396100D02*
X105780354Y-122474634D01*
X105754819Y-122527121D01*
X105706363Y-122561309D01*
X105628402Y-122584949D01*
X105514349Y-122605790D01*
X105359200Y-122631312D01*
X105237677Y-122653158D01*
X105134825Y-122673670D01*
X105060770Y-122690684D01*
X105025638Y-122702036D01*
X105024588Y-122702841D01*
X105007074Y-122734497D01*
X104977083Y-122801836D01*
X104939361Y-122892748D01*
X104898654Y-122995124D01*
X104859706Y-123096854D01*
X104827262Y-123185830D01*
X104806069Y-123249943D01*
X104800400Y-123274952D01*
X104814187Y-123306828D01*
X104852062Y-123371764D01*
X104908796Y-123461336D01*
X104979159Y-123567118D01*
X105006856Y-123607599D01*
X105213313Y-123907116D01*
X104920809Y-124199619D01*
X104628306Y-124492123D01*
X104321472Y-124281586D01*
X104014638Y-124071048D01*
X103864432Y-124151107D01*
X103778029Y-124193881D01*
X103724670Y-124210928D01*
X103695191Y-124204793D01*
X103690168Y-124199533D01*
X103671609Y-124164407D01*
X103638084Y-124090568D01*
X103592754Y-123985783D01*
X103538776Y-123857820D01*
X103479308Y-123714447D01*
X103417509Y-123563431D01*
X103356538Y-123412538D01*
X103299553Y-123269538D01*
X103249713Y-123142196D01*
X103210175Y-123038281D01*
X103184098Y-122965560D01*
X103174641Y-122931801D01*
X103174641Y-122931721D01*
X103194796Y-122892177D01*
X103244626Y-122846929D01*
X103260619Y-122836303D01*
X103412238Y-122715275D01*
X103529737Y-122565108D01*
X103609813Y-122394467D01*
X103649163Y-122212019D01*
X103644485Y-122026431D01*
X103615353Y-121905474D01*
X103528139Y-121716864D01*
X103407186Y-121565527D01*
X103255373Y-121453527D01*
X103075580Y-121382930D01*
X102870685Y-121355798D01*
X102848220Y-121355555D01*
X102737644Y-121359016D01*
X102652435Y-121373428D01*
X102567459Y-121404835D01*
X102493165Y-121440927D01*
X102327444Y-121552177D01*
X102198800Y-121694963D01*
X102110664Y-121863083D01*
X102066471Y-122050330D01*
X102065451Y-122214031D01*
X102094783Y-122372616D01*
X102154620Y-122515336D01*
X102250111Y-122650089D01*
X102386402Y-122784772D01*
X102494693Y-122872500D01*
X102561199Y-122923300D01*
X102323022Y-123494800D01*
X102254489Y-123658811D01*
X102190378Y-123811435D01*
X102133930Y-123945016D01*
X102088389Y-124051898D01*
X102056997Y-124124426D01*
X102045813Y-124149311D01*
X102006781Y-124232323D01*
X101850500Y-124153433D01*
X101694219Y-124074543D01*
X101393957Y-124279971D01*
X101286491Y-124353152D01*
X101194958Y-124414831D01*
X101127007Y-124459905D01*
X101090285Y-124483272D01*
X101086082Y-124485400D01*
X101066531Y-124468365D01*
X101017383Y-124421280D01*
X100944805Y-124350170D01*
X100854965Y-124261061D01*
X100789578Y-124195685D01*
X100500686Y-123905971D01*
X100695565Y-123624119D01*
X100768737Y-123517079D01*
X100831660Y-123422758D01*
X100878447Y-123350146D01*
X100903212Y-123308232D01*
X100905077Y-123304136D01*
X100900939Y-123270045D01*
X100881712Y-123200702D01*
X100851628Y-123107836D01*
X100814920Y-123003176D01*
X100775821Y-122898452D01*
X100738563Y-122805394D01*
X100707378Y-122735731D01*
X100688101Y-122702841D01*
X100658597Y-122692250D01*
X100588984Y-122675765D01*
X100489310Y-122655547D01*
X100369622Y-122633757D01*
X100355400Y-122631312D01*
X100199534Y-122605631D01*
X100086196Y-122584799D01*
X100008678Y-122561152D01*
X99960270Y-122527024D01*
X99934266Y-122474753D01*
X99923958Y-122396673D01*
X99922638Y-122285120D01*
X99923600Y-122137943D01*
X99924769Y-122002062D01*
X99927995Y-121885021D01*
X99932854Y-121795810D01*
X99938923Y-121743424D01*
X99942650Y-121733549D01*
X99973175Y-121725002D01*
X100044357Y-121709320D01*
X100146869Y-121688435D01*
X100271383Y-121664282D01*
X100330000Y-121653255D01*
X100461232Y-121627132D01*
X100574426Y-121601458D01*
X100660245Y-121578594D01*
X100709352Y-121560899D01*
X100716863Y-121555454D01*
X100733992Y-121521053D01*
X100765743Y-121450910D01*
X100807156Y-121356160D01*
X100841678Y-121275391D01*
X100895273Y-121140561D01*
X100923773Y-121048134D01*
X100927619Y-120996597D01*
X100924714Y-120989826D01*
X100902433Y-120957009D01*
X100857393Y-120890995D01*
X100795545Y-120800496D01*
X100722841Y-120694223D01*
X100700188Y-120661131D01*
X100498876Y-120367093D01*
X100789778Y-120076191D01*
X101080680Y-119785289D01*
X101415057Y-120014856D01*
X101749434Y-120244422D01*
X102011267Y-120137183D01*
X102117795Y-120092390D01*
X102206040Y-120053097D01*
X102265848Y-120023967D01*
X102286725Y-120010700D01*
X102295920Y-119980203D01*
X102312255Y-119908867D01*
X102333787Y-119805836D01*
X102358570Y-119680252D01*
X102372012Y-119609527D01*
X102443672Y-119227600D01*
X102856551Y-119227600D01*
X103269430Y-119227600D01*
X103338619Y-119602250D01*
X103363161Y-119734796D01*
X103384555Y-119849694D01*
X103401057Y-119937635D01*
X103410927Y-119989308D01*
X103412779Y-119998425D01*
X103436884Y-120016035D01*
X103498682Y-120047770D01*
X103588641Y-120089030D01*
X103690373Y-120132393D01*
X103962996Y-120244835D01*
X104298056Y-120014925D01*
X104633117Y-119785016D01*
X104920276Y-120071360D01*
X105017015Y-120169978D01*
X105098576Y-120257255D01*
X105159089Y-120326572D01*
X105192684Y-120371309D01*
X105197392Y-120383879D01*
X105179950Y-120413249D01*
X105138923Y-120475995D01*
X105079828Y-120563857D01*
X105008181Y-120668572D01*
X104981174Y-120707655D01*
X104907289Y-120815852D01*
X104845129Y-120909831D01*
X104799914Y-120981467D01*
X104776865Y-121022638D01*
X104775000Y-121028446D01*
X104784457Y-121059902D01*
X104810109Y-121127530D01*
X104847875Y-121220922D01*
X104887125Y-121314367D01*
X104999250Y-121577100D01*
X105287175Y-121633618D01*
X105413519Y-121658404D01*
X105531917Y-121681603D01*
X105627356Y-121700277D01*
X105676700Y-121709905D01*
X105778300Y-121729674D01*
X105785296Y-122129887D01*
X105789007Y-122283767D01*
X105789555Y-122396100D01*
X105789555Y-122396100D01*
D12*
X178300000Y-130810000D02*
X178300000Y-139350000D01*
X178300000Y-139350000D02*
X101090000Y-139350000D01*
X101090000Y-139350000D02*
X101090000Y-130760000D01*
D13*
X176971774Y-124910000D02*
G75*
G03X176971774Y-124910000I-451774J0D01*
G01*
D12*
X178308000Y-125730000D02*
X101092000Y-125730000D01*
X101092000Y-125730000D02*
X101092000Y-130810000D01*
X101092000Y-130810000D02*
X178308000Y-130810000D01*
X178308000Y-130810000D02*
X178308000Y-129540000D01*
X178308000Y-129560000D02*
X178308000Y-127020000D01*
X178308000Y-127000000D02*
X178308000Y-125730000D01*
X181610000Y-120140000D02*
X190150000Y-120140000D01*
X190150000Y-120140000D02*
X190150000Y-123700000D01*
X190150000Y-123700000D02*
X181450000Y-123700000D01*
D13*
X176121774Y-121920000D02*
G75*
G03X176121774Y-121920000I-451774J0D01*
G01*
D12*
X176530000Y-120142000D02*
X176530000Y-123698000D01*
X176530000Y-123698000D02*
X181610000Y-123698000D01*
X181610000Y-123698000D02*
X181610000Y-120142000D01*
X181610000Y-120142000D02*
X180340000Y-120142000D01*
X180330000Y-120142000D02*
X177790000Y-120142000D01*
X177800000Y-120142000D02*
X176530000Y-120142000D01*
D14*
X182133852Y-100690000D02*
G75*
G03X182133852Y-100690000I-53852J0D01*
G01*
X183370000Y-99250000D02*
X187470000Y-99250000D01*
X187470000Y-99250000D02*
X187470000Y-116650000D01*
X187470000Y-116650000D02*
X183370000Y-116650000D01*
X183370000Y-116650000D02*
X183370000Y-99250000D01*
X90693852Y-100690000D02*
G75*
G03X90693852Y-100690000I-53852J0D01*
G01*
X91930000Y-99250000D02*
X96030000Y-99250000D01*
X96030000Y-99250000D02*
X96030000Y-116650000D01*
X96030000Y-116650000D02*
X91930000Y-116650000D01*
X91930000Y-116650000D02*
X91930000Y-99250000D01*
D12*
X138824286Y-125002857D02*
X138824286Y-123802857D01*
X139281429Y-123802857D01*
X139395715Y-123860000D01*
X139452858Y-123917143D01*
X139510001Y-124031429D01*
X139510001Y-124202857D01*
X139452858Y-124317143D01*
X139395715Y-124374286D01*
X139281429Y-124431429D01*
X138824286Y-124431429D01*
X140595715Y-123802857D02*
X140024286Y-123802857D01*
X139967143Y-124374286D01*
X140024286Y-124317143D01*
X140138572Y-124260000D01*
X140424286Y-124260000D01*
X140538572Y-124317143D01*
X140595715Y-124374286D01*
X140652858Y-124488571D01*
X140652858Y-124774286D01*
X140595715Y-124888571D01*
X140538572Y-124945714D01*
X140424286Y-125002857D01*
X140138572Y-125002857D01*
X140024286Y-124945714D01*
X139967143Y-124888571D01*
X178184286Y-119872057D02*
X178184286Y-118672057D01*
X178641429Y-118672057D01*
X178755715Y-118729200D01*
X178812858Y-118786343D01*
X178870001Y-118900629D01*
X178870001Y-119072057D01*
X178812858Y-119186343D01*
X178755715Y-119243486D01*
X178641429Y-119300629D01*
X178184286Y-119300629D01*
X179898572Y-118672057D02*
X179670001Y-118672057D01*
X179555715Y-118729200D01*
X179498572Y-118786343D01*
X179384286Y-118957771D01*
X179327143Y-119186343D01*
X179327143Y-119643486D01*
X179384286Y-119757771D01*
X179441429Y-119814914D01*
X179555715Y-119872057D01*
X179784286Y-119872057D01*
X179898572Y-119814914D01*
X179955715Y-119757771D01*
X180012858Y-119643486D01*
X180012858Y-119357771D01*
X179955715Y-119243486D01*
X179898572Y-119186343D01*
X179784286Y-119129200D01*
X179555715Y-119129200D01*
X179441429Y-119186343D01*
X179384286Y-119243486D01*
X179327143Y-119357771D01*
X184534286Y-97492857D02*
X184534286Y-96292857D01*
X184991429Y-96292857D01*
X185105715Y-96350000D01*
X185162858Y-96407143D01*
X185220001Y-96521429D01*
X185220001Y-96692857D01*
X185162858Y-96807143D01*
X185105715Y-96864286D01*
X184991429Y-96921429D01*
X184534286Y-96921429D01*
X185677143Y-96407143D02*
X185734286Y-96350000D01*
X185848572Y-96292857D01*
X186134286Y-96292857D01*
X186248572Y-96350000D01*
X186305715Y-96407143D01*
X186362858Y-96521429D01*
X186362858Y-96635714D01*
X186305715Y-96807143D01*
X185620001Y-97492857D01*
X186362858Y-97492857D01*
D14*
X185872381Y-111711905D02*
X185396190Y-112045239D01*
X185872381Y-112283334D02*
X184872381Y-112283334D01*
X184872381Y-111902381D01*
X184920000Y-111807143D01*
X184967619Y-111759524D01*
X185062857Y-111711905D01*
X185205714Y-111711905D01*
X185300952Y-111759524D01*
X185348571Y-111807143D01*
X185396190Y-111902381D01*
X185396190Y-112283334D01*
X185348571Y-111283334D02*
X185348571Y-110950000D01*
X185872381Y-110807143D02*
X185872381Y-111283334D01*
X184872381Y-111283334D01*
X184872381Y-110807143D01*
X185777143Y-109807143D02*
X185824762Y-109854762D01*
X185872381Y-109997619D01*
X185872381Y-110092857D01*
X185824762Y-110235715D01*
X185729524Y-110330953D01*
X185634286Y-110378572D01*
X185443810Y-110426191D01*
X185300952Y-110426191D01*
X185110476Y-110378572D01*
X185015238Y-110330953D01*
X184920000Y-110235715D01*
X184872381Y-110092857D01*
X184872381Y-109997619D01*
X184920000Y-109854762D01*
X184967619Y-109807143D01*
X185348571Y-109378572D02*
X185348571Y-109045238D01*
X185872381Y-108902381D02*
X185872381Y-109378572D01*
X184872381Y-109378572D01*
X184872381Y-108902381D01*
X185872381Y-108473810D02*
X184872381Y-108473810D01*
X184872381Y-108092857D01*
X184920000Y-107997619D01*
X184967619Y-107950000D01*
X185062857Y-107902381D01*
X185205714Y-107902381D01*
X185300952Y-107950000D01*
X185348571Y-107997619D01*
X185396190Y-108092857D01*
X185396190Y-108473810D01*
X184872381Y-107616667D02*
X184872381Y-107045238D01*
X185872381Y-107330953D02*
X184872381Y-107330953D01*
X185586667Y-106759524D02*
X185586667Y-106283333D01*
X185872381Y-106854762D02*
X184872381Y-106521429D01*
X185872381Y-106188095D01*
X185777143Y-105283333D02*
X185824762Y-105330952D01*
X185872381Y-105473809D01*
X185872381Y-105569047D01*
X185824762Y-105711905D01*
X185729524Y-105807143D01*
X185634286Y-105854762D01*
X185443810Y-105902381D01*
X185300952Y-105902381D01*
X185110476Y-105854762D01*
X185015238Y-105807143D01*
X184920000Y-105711905D01*
X184872381Y-105569047D01*
X184872381Y-105473809D01*
X184920000Y-105330952D01*
X184967619Y-105283333D01*
X185872381Y-104378571D02*
X185872381Y-104854762D01*
X184872381Y-104854762D01*
X185348571Y-104045238D02*
X185348571Y-103711904D01*
X185872381Y-103569047D02*
X185872381Y-104045238D01*
X184872381Y-104045238D01*
X184872381Y-103569047D01*
D12*
X93094286Y-97492857D02*
X93094286Y-96292857D01*
X93551429Y-96292857D01*
X93665715Y-96350000D01*
X93722858Y-96407143D01*
X93780001Y-96521429D01*
X93780001Y-96692857D01*
X93722858Y-96807143D01*
X93665715Y-96864286D01*
X93551429Y-96921429D01*
X93094286Y-96921429D01*
X94922858Y-97492857D02*
X94237143Y-97492857D01*
X94580001Y-97492857D02*
X94580001Y-96292857D01*
X94465715Y-96464286D01*
X94351429Y-96578571D01*
X94237143Y-96635714D01*
D14*
X94432381Y-111711905D02*
X93956190Y-112045239D01*
X94432381Y-112283334D02*
X93432381Y-112283334D01*
X93432381Y-111902381D01*
X93480000Y-111807143D01*
X93527619Y-111759524D01*
X93622857Y-111711905D01*
X93765714Y-111711905D01*
X93860952Y-111759524D01*
X93908571Y-111807143D01*
X93956190Y-111902381D01*
X93956190Y-112283334D01*
X93908571Y-111283334D02*
X93908571Y-110950000D01*
X94432381Y-110807143D02*
X94432381Y-111283334D01*
X93432381Y-111283334D01*
X93432381Y-110807143D01*
X94337143Y-109807143D02*
X94384762Y-109854762D01*
X94432381Y-109997619D01*
X94432381Y-110092857D01*
X94384762Y-110235715D01*
X94289524Y-110330953D01*
X94194286Y-110378572D01*
X94003810Y-110426191D01*
X93860952Y-110426191D01*
X93670476Y-110378572D01*
X93575238Y-110330953D01*
X93480000Y-110235715D01*
X93432381Y-110092857D01*
X93432381Y-109997619D01*
X93480000Y-109854762D01*
X93527619Y-109807143D01*
X93908571Y-109378572D02*
X93908571Y-109045238D01*
X94432381Y-108902381D02*
X94432381Y-109378572D01*
X93432381Y-109378572D01*
X93432381Y-108902381D01*
X94432381Y-108473810D02*
X93432381Y-108473810D01*
X93432381Y-108092857D01*
X93480000Y-107997619D01*
X93527619Y-107950000D01*
X93622857Y-107902381D01*
X93765714Y-107902381D01*
X93860952Y-107950000D01*
X93908571Y-107997619D01*
X93956190Y-108092857D01*
X93956190Y-108473810D01*
X93432381Y-107616667D02*
X93432381Y-107045238D01*
X94432381Y-107330953D02*
X93432381Y-107330953D01*
X94146667Y-106759524D02*
X94146667Y-106283333D01*
X94432381Y-106854762D02*
X93432381Y-106521429D01*
X94432381Y-106188095D01*
X94337143Y-105283333D02*
X94384762Y-105330952D01*
X94432381Y-105473809D01*
X94432381Y-105569047D01*
X94384762Y-105711905D01*
X94289524Y-105807143D01*
X94194286Y-105854762D01*
X94003810Y-105902381D01*
X93860952Y-105902381D01*
X93670476Y-105854762D01*
X93575238Y-105807143D01*
X93480000Y-105711905D01*
X93432381Y-105569047D01*
X93432381Y-105473809D01*
X93480000Y-105330952D01*
X93527619Y-105283333D01*
X94432381Y-104378571D02*
X94432381Y-104854762D01*
X93432381Y-104854762D01*
X93908571Y-104045238D02*
X93908571Y-103711904D01*
X94432381Y-103569047D02*
X94432381Y-104045238D01*
X93432381Y-104045238D01*
X93432381Y-103569047D01*
M02*
