G04 #@! TF.FileFunction,Legend,Bot*
%FSLAX46Y46*%
G04 Gerber Fmt 4.6, Leading zero omitted, Abs format (unit mm)*
G04 Created by KiCad (PCBNEW (2015-04-19 BZR 5613)-product) date 7/15/2015 9:57:49 PM*
%MOMM*%
G01*
G04 APERTURE LIST*
%ADD10C,0.100000*%
%ADD11C,0.150000*%
%ADD12C,0.127000*%
G04 APERTURE END LIST*
D10*
D11*
X187320000Y-99250000D02*
X183520000Y-99250000D01*
X183520000Y-99250000D02*
X183520000Y-116650000D01*
X183520000Y-116650000D02*
X187320000Y-116650000D01*
X187320000Y-116650000D02*
X187320000Y-99250000D01*
X188813852Y-100690000D02*
G75*
G03X188813852Y-100690000I-53852J0D01*
G01*
X95880000Y-99250000D02*
X92080000Y-99250000D01*
X92080000Y-99250000D02*
X92080000Y-116650000D01*
X92080000Y-116650000D02*
X95880000Y-116650000D01*
X95880000Y-116650000D02*
X95880000Y-99250000D01*
X97373852Y-100690000D02*
G75*
G03X97373852Y-100690000I-53852J0D01*
G01*
D12*
X186019923Y-97317695D02*
X186019923Y-96504895D01*
X185710285Y-96504895D01*
X185632876Y-96543600D01*
X185594171Y-96582305D01*
X185555466Y-96659714D01*
X185555466Y-96775829D01*
X185594171Y-96853238D01*
X185632876Y-96891943D01*
X185710285Y-96930648D01*
X186019923Y-96930648D01*
X184858780Y-96775829D02*
X184858780Y-97317695D01*
X185052304Y-96466190D02*
X185245828Y-97046762D01*
X184742666Y-97046762D01*
D11*
X185872381Y-105330952D02*
X184872381Y-105330952D01*
X185348571Y-105330952D02*
X185348571Y-105902381D01*
X185872381Y-105902381D02*
X184872381Y-105902381D01*
X185348571Y-106378571D02*
X185348571Y-106711905D01*
X185872381Y-106854762D02*
X185872381Y-106378571D01*
X184872381Y-106378571D01*
X184872381Y-106854762D01*
X185586667Y-107235714D02*
X185586667Y-107711905D01*
X185872381Y-107140476D02*
X184872381Y-107473809D01*
X185872381Y-107807143D01*
X185872381Y-108140476D02*
X184872381Y-108140476D01*
X184872381Y-108378571D01*
X184920000Y-108521429D01*
X185015238Y-108616667D01*
X185110476Y-108664286D01*
X185300952Y-108711905D01*
X185443810Y-108711905D01*
X185634286Y-108664286D01*
X185729524Y-108616667D01*
X185824762Y-108521429D01*
X185872381Y-108378571D01*
X185872381Y-108140476D01*
X185348571Y-109140476D02*
X185348571Y-109473810D01*
X185872381Y-109616667D02*
X185872381Y-109140476D01*
X184872381Y-109140476D01*
X184872381Y-109616667D01*
X185872381Y-110616667D02*
X185396190Y-110283333D01*
X185872381Y-110045238D02*
X184872381Y-110045238D01*
X184872381Y-110426191D01*
X184920000Y-110521429D01*
X184967619Y-110569048D01*
X185062857Y-110616667D01*
X185205714Y-110616667D01*
X185300952Y-110569048D01*
X185348571Y-110521429D01*
X185396190Y-110426191D01*
X185396190Y-110045238D01*
D12*
X94579923Y-97317695D02*
X94579923Y-96504895D01*
X94270285Y-96504895D01*
X94192876Y-96543600D01*
X94154171Y-96582305D01*
X94115466Y-96659714D01*
X94115466Y-96775829D01*
X94154171Y-96853238D01*
X94192876Y-96891943D01*
X94270285Y-96930648D01*
X94579923Y-96930648D01*
X93844533Y-96504895D02*
X93341371Y-96504895D01*
X93612304Y-96814533D01*
X93496190Y-96814533D01*
X93418780Y-96853238D01*
X93380076Y-96891943D01*
X93341371Y-96969352D01*
X93341371Y-97162876D01*
X93380076Y-97240286D01*
X93418780Y-97278990D01*
X93496190Y-97317695D01*
X93728418Y-97317695D01*
X93805828Y-97278990D01*
X93844533Y-97240286D01*
D11*
X94432381Y-105330952D02*
X93432381Y-105330952D01*
X93908571Y-105330952D02*
X93908571Y-105902381D01*
X94432381Y-105902381D02*
X93432381Y-105902381D01*
X93908571Y-106378571D02*
X93908571Y-106711905D01*
X94432381Y-106854762D02*
X94432381Y-106378571D01*
X93432381Y-106378571D01*
X93432381Y-106854762D01*
X94146667Y-107235714D02*
X94146667Y-107711905D01*
X94432381Y-107140476D02*
X93432381Y-107473809D01*
X94432381Y-107807143D01*
X94432381Y-108140476D02*
X93432381Y-108140476D01*
X93432381Y-108378571D01*
X93480000Y-108521429D01*
X93575238Y-108616667D01*
X93670476Y-108664286D01*
X93860952Y-108711905D01*
X94003810Y-108711905D01*
X94194286Y-108664286D01*
X94289524Y-108616667D01*
X94384762Y-108521429D01*
X94432381Y-108378571D01*
X94432381Y-108140476D01*
X93908571Y-109140476D02*
X93908571Y-109473810D01*
X94432381Y-109616667D02*
X94432381Y-109140476D01*
X93432381Y-109140476D01*
X93432381Y-109616667D01*
X94432381Y-110616667D02*
X93956190Y-110283333D01*
X94432381Y-110045238D02*
X93432381Y-110045238D01*
X93432381Y-110426191D01*
X93480000Y-110521429D01*
X93527619Y-110569048D01*
X93622857Y-110616667D01*
X93765714Y-110616667D01*
X93860952Y-110569048D01*
X93908571Y-110521429D01*
X93956190Y-110426191D01*
X93956190Y-110045238D01*
M02*
