G04 #@! TF.FileFunction,Soldermask,Top*
%FSLAX46Y46*%
G04 Gerber Fmt 4.6, Leading zero omitted, Abs format (unit mm)*
G04 Created by KiCad (PCBNEW (2015-04-19 BZR 5613)-product) date 7/15/2015 9:57:49 PM*
%MOMM*%
G01*
G04 APERTURE LIST*
%ADD10C,0.100000*%
%ADD11O,6.100000X6.100000*%
%ADD12R,2.100000X1.400000*%
%ADD13R,1.000000X0.250000*%
%ADD14C,1.000000*%
%ADD15R,0.800000X0.750000*%
%ADD16R,1.000000X1.250000*%
%ADD17R,1.500000X1.500000*%
%ADD18R,0.900000X0.900000*%
%ADD19R,3.500000X1.000000*%
%ADD20R,3.400000X1.500000*%
%ADD21R,0.600000X0.400000*%
%ADD22R,0.400000X0.600000*%
%ADD23R,0.700000X1.300000*%
%ADD24C,2.500000*%
%ADD25O,0.280000X0.850000*%
%ADD26O,0.850000X0.280000*%
%ADD27R,1.700000X1.700000*%
%ADD28R,0.700000X0.300000*%
%ADD29R,1.750000X1.630000*%
%ADD30R,0.400000X1.350000*%
%ADD31R,1.800000X1.900000*%
%ADD32R,2.100000X1.600000*%
G04 APERTURE END LIST*
D10*
D11*
X93980000Y-134620000D03*
X93980000Y-81280000D03*
X185420000Y-81280000D03*
X185420000Y-134620000D03*
D12*
X93980000Y-117450000D03*
D13*
X91330000Y-100700000D03*
X91330000Y-101200000D03*
X91330000Y-101700000D03*
X91330000Y-102200000D03*
X91330000Y-102700000D03*
X91330000Y-103200000D03*
X91330000Y-103700000D03*
X91330000Y-104200000D03*
X91330000Y-104700000D03*
X91330000Y-105200000D03*
X91330000Y-105700000D03*
X91330000Y-106200000D03*
X91330000Y-106700000D03*
X91330000Y-107200000D03*
X91330000Y-107700000D03*
X91330000Y-108200000D03*
X91330000Y-108700000D03*
X91330000Y-109200000D03*
X91330000Y-109700000D03*
X91330000Y-110200000D03*
X91330000Y-110700000D03*
X91330000Y-111200000D03*
X91330000Y-111700000D03*
X91330000Y-112200000D03*
X91330000Y-112700000D03*
X91330000Y-113200000D03*
X91330000Y-113700000D03*
X91330000Y-114200000D03*
X91330000Y-114700000D03*
X91330000Y-115200000D03*
X96630000Y-100700000D03*
X96630000Y-101200000D03*
X96630000Y-101700000D03*
X96630000Y-102200000D03*
X96630000Y-102700000D03*
X96630000Y-103200000D03*
X96630000Y-103700000D03*
X96630000Y-104200000D03*
X96630000Y-104700000D03*
X96630000Y-105200000D03*
X96630000Y-105700000D03*
X96630000Y-106200000D03*
X96630000Y-106700000D03*
X96630000Y-107200000D03*
X96630000Y-107700000D03*
X96630000Y-108200000D03*
X96630000Y-108700000D03*
X96630000Y-109200000D03*
X96630000Y-109700000D03*
X96630000Y-110200000D03*
X96630000Y-110700000D03*
X96630000Y-111200000D03*
X96630000Y-111700000D03*
X96630000Y-112200000D03*
X96630000Y-112700000D03*
X96630000Y-113200000D03*
X96630000Y-113700000D03*
X96630000Y-114200000D03*
X96630000Y-114700000D03*
X96630000Y-115200000D03*
D12*
X93980000Y-98450000D03*
D14*
X92080000Y-99450000D03*
X92080000Y-116450000D03*
D12*
X185420000Y-117450000D03*
D13*
X182770000Y-100700000D03*
X182770000Y-101200000D03*
X182770000Y-101700000D03*
X182770000Y-102200000D03*
X182770000Y-102700000D03*
X182770000Y-103200000D03*
X182770000Y-103700000D03*
X182770000Y-104200000D03*
X182770000Y-104700000D03*
X182770000Y-105200000D03*
X182770000Y-105700000D03*
X182770000Y-106200000D03*
X182770000Y-106700000D03*
X182770000Y-107200000D03*
X182770000Y-107700000D03*
X182770000Y-108200000D03*
X182770000Y-108700000D03*
X182770000Y-109200000D03*
X182770000Y-109700000D03*
X182770000Y-110200000D03*
X182770000Y-110700000D03*
X182770000Y-111200000D03*
X182770000Y-111700000D03*
X182770000Y-112200000D03*
X182770000Y-112700000D03*
X182770000Y-113200000D03*
X182770000Y-113700000D03*
X182770000Y-114200000D03*
X182770000Y-114700000D03*
X182770000Y-115200000D03*
X188070000Y-100700000D03*
X188070000Y-101200000D03*
X188070000Y-101700000D03*
X188070000Y-102200000D03*
X188070000Y-102700000D03*
X188070000Y-103200000D03*
X188070000Y-103700000D03*
X188070000Y-104200000D03*
X188070000Y-104700000D03*
X188070000Y-105200000D03*
X188070000Y-105700000D03*
X188070000Y-106200000D03*
X188070000Y-106700000D03*
X188070000Y-107200000D03*
X188070000Y-107700000D03*
X188070000Y-108200000D03*
X188070000Y-108700000D03*
X188070000Y-109200000D03*
X188070000Y-109700000D03*
X188070000Y-110200000D03*
X188070000Y-110700000D03*
X188070000Y-111200000D03*
X188070000Y-111700000D03*
X188070000Y-112200000D03*
X188070000Y-112700000D03*
X188070000Y-113200000D03*
X188070000Y-113700000D03*
X188070000Y-114200000D03*
X188070000Y-114700000D03*
X188070000Y-115200000D03*
D12*
X185420000Y-98450000D03*
D14*
X183520000Y-99450000D03*
X183520000Y-116450000D03*
X187320000Y-99450000D03*
X187320000Y-116450000D03*
X95880000Y-99450000D03*
X95880000Y-116450000D03*
D15*
X102769100Y-101473000D03*
X101269100Y-101473000D03*
D16*
X106943650Y-106432350D03*
X108943650Y-106432350D03*
D15*
X113550000Y-113334800D03*
X115050000Y-113334800D03*
X113550000Y-118008400D03*
X115050000Y-118008400D03*
D16*
X106943650Y-99714050D03*
X108943650Y-99714050D03*
D17*
X121333200Y-78295500D03*
X117833200Y-78295500D03*
D18*
X119583200Y-78945500D03*
D19*
X98437600Y-124310900D03*
D20*
X103987600Y-121960900D03*
X103987600Y-128660900D03*
D19*
X98437600Y-126310900D03*
D21*
X104914700Y-106837900D03*
X104914700Y-105937900D03*
D22*
X112643500Y-114935000D03*
X113543500Y-114935000D03*
X102939000Y-104457500D03*
X102039000Y-104457500D03*
X112643500Y-116446300D03*
X113543500Y-116446300D03*
D23*
X118945700Y-101879400D03*
X117045700Y-101879400D03*
D21*
X117830600Y-83000000D03*
X117830600Y-82100000D03*
X119583200Y-83000000D03*
X119583200Y-82100000D03*
D23*
X118945700Y-99542600D03*
X117045700Y-99542600D03*
X118945700Y-104216200D03*
X117045700Y-104216200D03*
X118945700Y-106527600D03*
X117045700Y-106527600D03*
D24*
X113584800Y-82153800D03*
X100384800Y-82153800D03*
X111684800Y-91683800D03*
X106984800Y-91683800D03*
X102284800Y-91683800D03*
D25*
X106063350Y-104592650D03*
X106563350Y-104592650D03*
X107063350Y-104592650D03*
X107563350Y-104592650D03*
D26*
X108288350Y-103867650D03*
X108288350Y-103367650D03*
X108288350Y-102867650D03*
X108288350Y-102367650D03*
D25*
X107563350Y-101642650D03*
X107063350Y-101642650D03*
X106563350Y-101642650D03*
X106063350Y-101642650D03*
D26*
X105338350Y-102367650D03*
X105338350Y-102867650D03*
X105338350Y-103367650D03*
X105338350Y-103867650D03*
D27*
X106813350Y-103117650D03*
D28*
X115123300Y-114934300D03*
X115123300Y-115434300D03*
X115123300Y-115934300D03*
X115123300Y-116434300D03*
X118023300Y-114934300D03*
X118023300Y-115434300D03*
X118023300Y-115934300D03*
X118023300Y-116434300D03*
D29*
X116573300Y-115684300D03*
D30*
X127706600Y-80322800D03*
X128356600Y-80322800D03*
X129656600Y-80322800D03*
X130306600Y-80322800D03*
D31*
X125006600Y-77647800D03*
D32*
X125906600Y-80197800D03*
X132106600Y-80197800D03*
D31*
X133006600Y-77647800D03*
D30*
X129006600Y-80322800D03*
D21*
X105289350Y-100125950D03*
X105289350Y-99225950D03*
D22*
X102939000Y-103022400D03*
X102039000Y-103022400D03*
D21*
X122707400Y-112986400D03*
X122707400Y-113886400D03*
X119608600Y-112986400D03*
X119608600Y-113886400D03*
X121158000Y-112986400D03*
X121158000Y-113886400D03*
M02*
