G04 #@! TF.FileFunction,Paste,Top*
%FSLAX46Y46*%
G04 Gerber Fmt 4.6, Leading zero omitted, Abs format (unit mm)*
G04 Created by KiCad (PCBNEW (2015-04-19 BZR 5613)-product) date 8/2/2015 9:17:18 PM*
%MOMM*%
G01*
G04 APERTURE LIST*
%ADD10C,0.100000*%
%ADD11R,2.049200X1.349200*%
%ADD12R,0.949200X0.199200*%
%ADD13R,0.749200X0.699200*%
%ADD14R,0.949200X1.199200*%
%ADD15R,1.449200X1.449200*%
%ADD16R,0.849200X0.849200*%
%ADD17R,3.449200X0.949200*%
%ADD18R,3.349200X1.449200*%
%ADD19R,0.549200X0.349200*%
%ADD20R,0.349200X0.549200*%
%ADD21R,0.649200X1.249200*%
%ADD22O,0.229200X0.799200*%
%ADD23O,0.799200X0.229200*%
%ADD24R,1.649200X1.649200*%
%ADD25R,0.649200X0.249200*%
%ADD26R,1.699200X1.579200*%
%ADD27R,0.349200X1.299200*%
%ADD28R,1.749200X1.849200*%
%ADD29R,2.049200X1.549200*%
G04 APERTURE END LIST*
D10*
D11*
X93980000Y-117450000D03*
D12*
X91330000Y-100700000D03*
X91330000Y-101200000D03*
X91330000Y-101700000D03*
X91330000Y-102200000D03*
X91330000Y-102700000D03*
X91330000Y-103200000D03*
X91330000Y-103700000D03*
X91330000Y-104200000D03*
X91330000Y-104700000D03*
X91330000Y-105200000D03*
X91330000Y-105700000D03*
X91330000Y-106200000D03*
X91330000Y-106700000D03*
X91330000Y-107200000D03*
X91330000Y-107700000D03*
X91330000Y-108200000D03*
X91330000Y-108700000D03*
X91330000Y-109200000D03*
X91330000Y-109700000D03*
X91330000Y-110200000D03*
X91330000Y-110700000D03*
X91330000Y-111200000D03*
X91330000Y-111700000D03*
X91330000Y-112200000D03*
X91330000Y-112700000D03*
X91330000Y-113200000D03*
X91330000Y-113700000D03*
X91330000Y-114200000D03*
X91330000Y-114700000D03*
X91330000Y-115200000D03*
X96630000Y-100700000D03*
X96630000Y-101200000D03*
X96630000Y-101700000D03*
X96630000Y-102200000D03*
X96630000Y-102700000D03*
X96630000Y-103200000D03*
X96630000Y-103700000D03*
X96630000Y-104200000D03*
X96630000Y-104700000D03*
X96630000Y-105200000D03*
X96630000Y-105700000D03*
X96630000Y-106200000D03*
X96630000Y-106700000D03*
X96630000Y-107200000D03*
X96630000Y-107700000D03*
X96630000Y-108200000D03*
X96630000Y-108700000D03*
X96630000Y-109200000D03*
X96630000Y-109700000D03*
X96630000Y-110200000D03*
X96630000Y-110700000D03*
X96630000Y-111200000D03*
X96630000Y-111700000D03*
X96630000Y-112200000D03*
X96630000Y-112700000D03*
X96630000Y-113200000D03*
X96630000Y-113700000D03*
X96630000Y-114200000D03*
X96630000Y-114700000D03*
X96630000Y-115200000D03*
D11*
X93980000Y-98450000D03*
X185420000Y-117450000D03*
D12*
X182770000Y-100700000D03*
X182770000Y-101200000D03*
X182770000Y-101700000D03*
X182770000Y-102200000D03*
X182770000Y-102700000D03*
X182770000Y-103200000D03*
X182770000Y-103700000D03*
X182770000Y-104200000D03*
X182770000Y-104700000D03*
X182770000Y-105200000D03*
X182770000Y-105700000D03*
X182770000Y-106200000D03*
X182770000Y-106700000D03*
X182770000Y-107200000D03*
X182770000Y-107700000D03*
X182770000Y-108200000D03*
X182770000Y-108700000D03*
X182770000Y-109200000D03*
X182770000Y-109700000D03*
X182770000Y-110200000D03*
X182770000Y-110700000D03*
X182770000Y-111200000D03*
X182770000Y-111700000D03*
X182770000Y-112200000D03*
X182770000Y-112700000D03*
X182770000Y-113200000D03*
X182770000Y-113700000D03*
X182770000Y-114200000D03*
X182770000Y-114700000D03*
X182770000Y-115200000D03*
X188070000Y-100700000D03*
X188070000Y-101200000D03*
X188070000Y-101700000D03*
X188070000Y-102200000D03*
X188070000Y-102700000D03*
X188070000Y-103200000D03*
X188070000Y-103700000D03*
X188070000Y-104200000D03*
X188070000Y-104700000D03*
X188070000Y-105200000D03*
X188070000Y-105700000D03*
X188070000Y-106200000D03*
X188070000Y-106700000D03*
X188070000Y-107200000D03*
X188070000Y-107700000D03*
X188070000Y-108200000D03*
X188070000Y-108700000D03*
X188070000Y-109200000D03*
X188070000Y-109700000D03*
X188070000Y-110200000D03*
X188070000Y-110700000D03*
X188070000Y-111200000D03*
X188070000Y-111700000D03*
X188070000Y-112200000D03*
X188070000Y-112700000D03*
X188070000Y-113200000D03*
X188070000Y-113700000D03*
X188070000Y-114200000D03*
X188070000Y-114700000D03*
X188070000Y-115200000D03*
D11*
X185420000Y-98450000D03*
D13*
X102769100Y-101473000D03*
X101269100Y-101473000D03*
D14*
X106943650Y-106432350D03*
X108943650Y-106432350D03*
D13*
X113550000Y-113334800D03*
X115050000Y-113334800D03*
X113550000Y-118008400D03*
X115050000Y-118008400D03*
D14*
X106943650Y-99714050D03*
X108943650Y-99714050D03*
D15*
X121333200Y-78295500D03*
X117833200Y-78295500D03*
D16*
X119583200Y-78945500D03*
D17*
X98437600Y-124310900D03*
D18*
X103987600Y-121960900D03*
X103987600Y-128660900D03*
D17*
X98437600Y-126310900D03*
D19*
X104914700Y-106837900D03*
X104914700Y-105937900D03*
D20*
X112643500Y-114935000D03*
X113543500Y-114935000D03*
X102939000Y-104457500D03*
X102039000Y-104457500D03*
X112643500Y-116446300D03*
X113543500Y-116446300D03*
D21*
X118945700Y-101879400D03*
X117045700Y-101879400D03*
D19*
X117830600Y-83000000D03*
X117830600Y-82100000D03*
X119583200Y-83000000D03*
X119583200Y-82100000D03*
D21*
X118945700Y-99542600D03*
X117045700Y-99542600D03*
X118945700Y-104216200D03*
X117045700Y-104216200D03*
X118945700Y-106527600D03*
X117045700Y-106527600D03*
D22*
X106063350Y-104592650D03*
X106563350Y-104592650D03*
X107063350Y-104592650D03*
X107563350Y-104592650D03*
D23*
X108288350Y-103867650D03*
X108288350Y-103367650D03*
X108288350Y-102867650D03*
X108288350Y-102367650D03*
D22*
X107563350Y-101642650D03*
X107063350Y-101642650D03*
X106563350Y-101642650D03*
X106063350Y-101642650D03*
D23*
X105338350Y-102367650D03*
X105338350Y-102867650D03*
X105338350Y-103367650D03*
X105338350Y-103867650D03*
D24*
X106813350Y-103117650D03*
D25*
X115123300Y-114934300D03*
X115123300Y-115434300D03*
X115123300Y-115934300D03*
X115123300Y-116434300D03*
X118023300Y-114934300D03*
X118023300Y-115434300D03*
X118023300Y-115934300D03*
X118023300Y-116434300D03*
D26*
X116573300Y-115684300D03*
D27*
X127706600Y-80322800D03*
X128356600Y-80322800D03*
X129656600Y-80322800D03*
X130306600Y-80322800D03*
D28*
X125006600Y-77647800D03*
D29*
X125906600Y-80197800D03*
X132106600Y-80197800D03*
D28*
X133006600Y-77647800D03*
D27*
X129006600Y-80322800D03*
D19*
X105289350Y-100125950D03*
X105289350Y-99225950D03*
D20*
X102939000Y-103022400D03*
X102039000Y-103022400D03*
D19*
X122707400Y-112986400D03*
X122707400Y-113886400D03*
X119608600Y-112986400D03*
X119608600Y-113886400D03*
X121158000Y-112986400D03*
X121158000Y-113886400D03*
M02*
