M48
INCH,TZ
T1C0.013
T2C0.020
T3C0.039
T4C0.063
T5C0.122
%
G90
G05
T1
X36890Y-39840
X36890Y-40430
X36890Y-41610
X36890Y-42200
X36890Y-42790
X36890Y-43980
X36890Y-44570
X36890Y-45160
X36890Y-41020
X36890Y-43380
X37000Y-38760
X37000Y-38760
X37000Y-46240
X37000Y-46240
X37240Y-45160
X37240Y-40430
X37240Y-41020
X37240Y-41610
X37240Y-42200
X37240Y-42790
X37240Y-43380
X37240Y-44570
X37240Y-43980
X37590Y-39840
X37590Y-40430
X37590Y-41020
X37590Y-41610
X37590Y-42200
X37590Y-42790
X37590Y-43980
X37590Y-44570
X37590Y-45160
X37590Y-43380
X38320Y-39135
X38690Y-39150
X38690Y-39495
X39004Y-40526
X39004Y-41054
X39055Y-39150
X40498Y-39328
X41270Y-44895
X41306Y-42522
X41730Y-44703
X41856Y-40401
X41856Y-40794
X42053Y-40598
X42155Y-44443
X42249Y-40401
X42249Y-40794
X43436Y-40060
X43478Y-42436
X43482Y-38690
X43778Y-39702
X44034Y-42440
X44045Y-40380
X44170Y-37855
X45820Y-44162
X45888Y-46456
X45896Y-45530
X46302Y-46456
X46394Y-44164
X46777Y-44443
X46834Y-38528
X47392Y-41940
X47403Y-44738
X47770Y-31850
X48030Y-45350
X72410Y-43390
X72410Y-39840
X72410Y-40430
X72410Y-41020
X72410Y-41610
X72410Y-42200
X72410Y-42800
X72410Y-43980
X72410Y-44570
X72410Y-45160
X72760Y-43980
X72760Y-39840
X72760Y-40430
X72760Y-41020
X72760Y-41610
X72760Y-42200
X72760Y-42800
X72760Y-43390
X72760Y-44570
X72760Y-45160
X73000Y-38760
X73000Y-38760
X73000Y-46240
X73000Y-46240
X73110Y-39840
X73110Y-40430
X73110Y-41020
X73110Y-42200
X73110Y-42800
X73110Y-43390
X73110Y-43980
X73110Y-44570
X73110Y-45160
X73110Y-41610
T2
X40864Y-39950
X48526Y-35990
T3
X36252Y-39154
X36252Y-45846
X37748Y-39154
X37748Y-45846
X72252Y-39154
X72252Y-45846
X73748Y-39154
X73748Y-45846
T4
X39522Y-32344
X40270Y-36096
X42120Y-36096
X43970Y-36096
X44718Y-32344
T5
X37000Y-32000
X37000Y-53000
X73000Y-32000
X73000Y-53000
T0
M30
